<svg id="svg" xmlns="http://www.w3.org/2000/svg" xmlns:xlink="http://www.w3.org/1999/xlink" width="400" height="400" viewBox="0, 0, 400,400" version="1.1"><g id="svgg"><path id="path0" d="M186.000 17.543 C 184.808 17.610,182.633 17.816,181.167 18.000 C 179.700 18.184,176.925 18.483,175.000 18.665 C 171.456 18.999,170.598 19.165,162.833 21.023 C 160.450 21.593,157.585 22.264,156.467 22.514 C 155.348 22.764,154.073 23.116,153.633 23.295 C 153.193 23.475,151.258 24.107,149.333 24.700 C 147.408 25.293,145.683 25.888,145.500 26.021 C 145.317 26.155,144.642 26.422,144.000 26.615 C 142.033 27.207,139.131 28.249,138.465 28.602 C 138.118 28.786,136.858 29.349,135.667 29.852 C 89.374 49.390,53.280 94.012,46.677 139.864 C 42.089 171.719,46.165 201.333,58.556 226.167 C 74.610 258.345,100.513 283.095,134.000 298.254 C 137.498 299.838,141.856 301.667,142.131 301.667 C 142.294 301.667,143.043 301.948,143.797 302.292 C 144.550 302.636,147.192 303.554,149.667 304.333 C 152.142 305.111,154.767 305.944,155.500 306.184 C 156.233 306.423,158.558 307.017,160.667 307.503 C 162.775 307.989,165.250 308.593,166.167 308.844 C 167.083 309.095,168.658 309.391,169.667 309.501 C 170.675 309.612,172.850 309.918,174.500 310.182 C 186.670 312.129,203.084 312.721,211.457 311.513 C 213.314 311.245,216.315 310.868,218.125 310.674 C 219.936 310.480,221.527 310.253,221.662 310.169 C 221.797 310.086,223.241 309.866,224.871 309.681 C 226.500 309.496,228.883 309.101,230.167 308.804 C 234.309 307.843,239.124 306.640,240.833 306.139 C 244.641 305.021,251.269 302.878,252.667 302.313 C 253.492 301.980,255.206 301.307,256.476 300.819 C 257.747 300.331,259.022 299.807,259.310 299.656 C 259.598 299.505,260.508 299.087,261.333 298.728 C 266.117 296.644,270.897 294.324,273.828 292.664 C 290.072 283.462,302.564 273.511,314.208 260.500 C 364.440 204.372,364.113 122.980,313.433 67.500 C 298.747 51.423,275.850 35.596,256.667 28.260 C 255.475 27.804,253.300 26.975,251.833 26.417 C 250.367 25.859,247.817 24.999,246.167 24.507 C 244.517 24.015,242.800 23.465,242.353 23.284 C 241.905 23.104,240.930 22.833,240.186 22.683 C 239.442 22.533,237.033 21.943,234.833 21.373 C 230.554 20.263,227.014 19.548,223.000 18.983 C 221.625 18.789,218.850 18.397,216.833 18.111 C 213.306 17.612,191.811 17.215,186.000 17.543 M210.045 30.011 C 223.649 31.809,235.090 34.981,245.500 39.841 C 246.417 40.268,248.022 40.993,249.068 41.451 C 252.629 43.010,258.952 46.854,266.667 52.151 C 279.471 60.942,294.021 78.227,300.915 92.833 C 315.640 124.036,315.585 156.096,300.751 187.500 C 297.954 193.421,290.261 205.360,287.863 207.500 C 287.658 207.683,286.971 208.508,286.337 209.333 C 284.479 211.751,276.966 219.622,275.333 220.861 C 274.508 221.487,272.783 222.912,271.500 224.027 C 244.405 247.575,202.304 256.516,165.726 246.490 C 163.405 245.854,161.235 245.333,160.904 245.333 C 158.860 245.333,142.116 237.786,136.500 234.333 C 135.217 233.544,133.512 232.549,132.712 232.122 C 131.425 231.435,130.161 230.540,124.833 226.543 C 113.877 218.324,104.930 208.295,96.397 194.667 C 82.379 172.277,77.828 141.495,84.521 114.345 C 87.329 102.958,95.551 84.673,100.341 79.167 C 100.660 78.800,101.613 77.479,102.458 76.232 C 107.552 68.718,118.427 57.887,126.693 52.095 C 128.237 51.013,130.274 49.582,131.221 48.915 C 133.937 47.001,142.803 42.008,145.263 41.006 C 146.494 40.505,148.409 39.636,149.520 39.075 C 164.314 31.602,191.401 27.546,210.045 30.011 M190.667 33.671 C 151.731 36.115,116.272 59.010,101.354 91.336 C 85.037 126.693,91.341 166.376,117.826 195.033 C 120.834 198.288,129.473 205.976,131.783 207.453 C 132.762 208.080,134.257 209.122,135.104 209.768 C 143.482 216.163,158.282 222.612,172.437 226.036 C 181.563 228.244,201.014 229.304,209.167 228.038 C 210.633 227.810,213.333 227.418,215.167 227.166 C 221.286 226.327,227.392 224.625,238.500 220.660 C 244.296 218.592,252.222 214.169,261.000 208.106 C 269.679 202.112,281.064 190.216,286.295 181.675 C 296.618 164.821,300.739 151.668,301.232 134.000 C 301.744 115.669,296.890 96.957,288.175 83.667 C 287.394 82.475,286.562 81.131,286.327 80.679 C 284.998 78.122,277.348 68.624,273.744 65.056 C 260.686 52.127,247.757 44.424,228.833 38.299 C 218.109 34.827,202.463 32.930,190.667 33.671 M201.683 42.010 C 223.926 43.715,242.054 52.793,257.577 70.000 C 276.965 91.492,279.413 127.137,263.227 152.252 C 243.719 182.522,206.441 195.156,169.833 183.905 C 132.591 172.458,109.808 132.618,120.040 96.833 C 121.669 91.137,125.728 81.765,127.476 79.667 C 127.705 79.392,128.263 78.487,128.715 77.656 C 135.449 65.293,154.924 50.309,169.667 46.147 C 170.492 45.914,172.442 45.344,174.000 44.881 C 182.701 42.296,192.349 41.295,201.683 42.010 M192.000 46.541 C 147.584 50.661,121.538 96.429,140.807 136.500 C 143.498 142.097,147.896 148.304,152.498 153.000 C 168.495 169.324,191.687 175.065,215.013 168.474 C 220.451 166.938,230.568 161.716,233.667 158.847 C 234.308 158.252,235.583 157.210,236.500 156.531 C 238.642 154.943,245.442 147.620,246.587 145.667 C 247.071 144.842,248.016 143.414,248.687 142.493 C 251.285 138.931,252.226 136.895,255.072 128.667 C 262.600 106.909,256.805 81.409,240.678 65.331 C 233.102 57.779,227.232 53.993,217.402 50.319 C 209.537 47.380,199.327 45.862,192.000 46.541 M203.034 54.838 C 233.151 63.787,233.708 105.449,203.833 114.678 C 181.265 121.651,159.505 100.150,165.541 76.841 C 169.753 60.577,187.433 50.201,203.034 54.838 M53.733 334.400 C 52.817 335.316,53.503 336.000,55.336 336.000 C 57.280 336.000,57.667 337.112,57.667 342.692 C 57.667 348.020,57.520 348.450,56.141 347.172 C 51.485 342.857,44.310 346.357,43.066 353.552 C 41.485 362.690,49.701 369.800,55.656 364.447 C 57.385 362.891,57.600 362.924,57.983 364.804 L 58.193 365.833 61.596 365.928 C 64.995 366.023,65.000 366.022,65.000 365.222 C 65.000 364.559,64.791 364.387,63.792 364.225 C 61.201 363.804,61.333 364.653,61.333 348.448 L 61.333 334.000 57.733 334.000 C 55.378 334.000,53.995 334.138,53.733 334.400 M136.341 334.653 C 135.941 335.399,136.697 335.994,138.061 336.007 C 138.486 336.011,139.208 336.303,139.667 336.655 L 140.500 337.295 140.500 350.298 C 140.500 364.561,140.608 363.875,138.309 364.265 C 137.132 364.465,136.812 364.666,136.727 365.258 L 136.620 366.000 142.310 366.000 L 148.000 366.000 148.000 365.167 C 148.000 364.467,147.843 364.333,147.022 364.333 C 146.484 364.333,145.659 364.187,145.188 364.008 L 144.333 363.683 144.333 348.842 L 144.333 334.000 140.512 334.000 C 137.059 334.000,136.656 334.063,136.341 334.653 M247.058 334.771 C 246.109 335.782,246.141 336.838,247.152 337.848 C 248.615 339.312,251.000 338.344,251.000 336.287 C 251.000 334.335,248.405 333.338,247.058 334.771 M348.522 334.526 C 347.395 335.653,347.314 336.205,348.102 337.379 C 349.440 339.371,352.111 338.712,352.111 336.390 C 352.111 334.394,349.835 333.213,348.522 334.526 M301.142 345.864 L 299.517 346.727 297.835 346.030 C 289.951 342.762,281.975 351.198,287.802 356.641 C 288.833 357.605,288.903 358.213,288.015 358.495 C 285.360 359.338,284.910 363.554,287.328 364.930 C 288.588 365.648,288.598 366.179,287.363 366.818 C 281.878 369.654,285.847 374.474,293.670 374.478 C 300.238 374.481,303.833 372.120,303.833 367.803 C 303.833 363.911,302.131 362.980,294.571 362.739 C 289.784 362.586,289.208 362.504,288.635 361.889 C 287.188 360.336,288.372 359.493,292.365 359.233 C 297.096 358.925,299.490 357.937,301.390 355.508 C 302.399 354.218,302.486 350.366,301.538 348.931 C 300.471 347.315,302.055 346.617,303.274 348.167 C 304.423 349.627,306.000 348.965,306.000 347.022 C 306.000 345.042,303.712 344.497,301.142 345.864 M73.467 345.989 C 67.617 348.592,65.822 358.109,70.199 363.311 C 73.824 367.619,80.851 367.609,84.485 363.290 C 87.101 360.182,86.127 359.048,83.342 361.959 C 78.780 366.726,72.771 364.711,72.098 358.190 L 71.907 356.333 78.579 356.333 C 86.312 356.333,86.201 356.376,85.907 353.531 C 85.273 347.387,78.945 343.551,73.467 345.989 M95.667 345.888 C 91.322 347.749,88.769 353.856,90.139 359.112 C 92.115 366.700,101.251 369.147,106.356 363.454 C 109.289 360.184,108.350 358.815,105.335 361.966 C 100.907 366.594,94.648 364.618,94.284 358.477 L 94.167 356.500 100.901 356.333 C 108.775 356.138,108.627 356.199,108.028 353.428 C 106.645 347.031,101.015 343.596,95.667 345.888 M113.500 345.639 C 111.182 345.864,110.346 347.048,112.233 347.434 C 114.591 347.917,114.489 347.383,114.596 359.845 C 114.705 372.521,114.681 372.667,112.492 372.667 C 111.478 372.667,111.333 372.771,111.333 373.500 L 111.333 374.333 116.464 374.333 C 120.265 374.333,121.635 374.225,121.749 373.917 C 122.032 373.145,121.617 372.667,120.663 372.667 C 118.809 372.667,118.120 370.798,118.393 366.508 C 118.565 363.806,118.710 363.677,120.150 364.941 C 125.294 369.457,132.585 364.643,132.941 356.493 C 133.339 347.398,125.929 342.371,119.921 347.659 C 118.300 349.086,118.000 349.075,118.000 347.589 C 118.000 347.058,117.845 346.333,117.655 345.978 C 117.292 345.300,117.131 345.287,113.500 345.639 M156.429 346.198 C 152.375 348.160,149.989 354.284,151.345 359.249 C 153.552 367.327,163.769 369.161,168.504 362.328 C 169.671 360.643,169.012 359.148,167.781 360.689 C 162.920 366.778,156.196 365.496,155.448 358.337 L 155.238 356.333 161.641 356.333 C 169.424 356.333,169.500 356.307,169.200 353.747 C 168.418 347.099,162.184 343.414,156.429 346.198 M178.500 346.151 C 174.404 348.065,173.022 351.629,175.797 353.124 C 177.667 354.131,179.681 352.229,178.695 350.386 C 177.808 348.729,178.611 347.552,180.879 347.180 C 184.332 346.614,186.667 348.463,186.667 351.762 C 186.667 353.937,186.779 353.829,183.996 354.333 C 175.931 355.796,171.497 360.117,173.965 364.110 C 175.798 367.076,181.846 367.456,184.949 364.799 C 186.584 363.400,186.717 363.400,187.773 364.784 C 189.292 366.775,191.882 367.179,193.698 365.708 C 194.826 364.795,194.335 363.858,192.856 364.098 C 190.784 364.435,190.729 364.255,190.598 356.667 C 190.471 349.366,190.334 348.709,188.610 347.099 C 186.524 345.151,181.623 344.691,178.500 346.151 M199.433 345.634 C 196.810 345.887,195.398 347.331,197.770 347.335 C 200.638 347.339,201.097 348.797,200.941 357.401 C 200.822 363.913,200.829 363.894,198.643 364.265 C 197.465 364.465,197.145 364.666,197.060 365.258 L 196.954 366.000 203.143 366.000 L 209.333 366.000 209.333 365.213 C 209.333 364.491,209.163 364.410,207.287 364.240 C 206.128 364.135,205.118 363.862,204.958 363.611 C 204.462 362.827,204.629 356.691,205.201 354.696 C 206.783 349.183,210.335 345.404,210.217 349.360 C 210.162 351.207,210.759 352.000,212.206 352.000 C 213.935 352.000,214.993 348.756,213.813 347.072 C 211.642 343.973,207.590 345.439,205.167 350.202 L 204.167 352.167 204.083 349.500 C 203.938 344.895,204.266 345.168,199.433 345.634 M218.943 345.577 C 216.851 345.744,215.696 347.333,217.668 347.333 C 218.013 347.333,218.717 347.695,219.231 348.137 L 220.167 348.941 220.274 355.554 C 220.399 363.316,220.272 363.895,218.364 364.200 C 217.101 364.402,216.450 365.046,216.852 365.697 C 216.955 365.864,219.355 366.000,222.186 366.000 L 227.333 366.000 227.333 365.209 C 227.333 364.546,227.121 364.385,226.011 364.207 C 224.192 363.916,224.000 363.376,224.000 358.538 C 224.000 353.017,224.369 351.387,226.001 349.706 C 228.224 347.414,231.061 347.482,232.884 349.869 L 233.833 351.112 233.937 357.035 C 234.054 363.638,233.841 364.333,231.702 364.333 C 230.756 364.333,230.125 365.060,230.519 365.697 C 230.622 365.864,233.013 366.000,235.833 366.000 C 238.653 366.000,241.045 365.864,241.148 365.697 C 241.548 365.050,240.902 364.403,239.657 364.204 C 237.791 363.905,237.667 363.456,237.662 356.939 C 237.658 352.591,237.529 350.797,237.138 349.667 C 235.503 344.938,229.471 343.999,225.500 347.855 C 224.010 349.303,223.667 349.294,223.667 347.811 C 223.667 345.345,223.408 345.222,218.943 345.577 M259.610 345.577 C 257.641 345.734,256.330 347.333,258.171 347.333 C 260.636 347.333,261.000 348.511,261.000 356.475 C 261.000 363.952,261.021 363.876,258.863 364.226 C 257.881 364.386,257.667 364.562,257.667 365.210 L 257.667 366.000 262.814 366.000 C 265.645 366.000,268.045 365.864,268.148 365.697 C 268.542 365.059,267.923 364.444,266.582 364.145 C 264.788 363.744,264.542 362.770,264.778 357.000 C 265.019 351.111,266.351 348.621,269.516 348.147 C 273.551 347.542,274.668 349.535,274.662 357.328 C 274.656 363.861,274.652 363.875,272.819 364.256 C 271.826 364.462,271.500 364.691,271.500 365.182 C 271.500 365.797,271.794 365.838,276.774 365.925 L 282.049 366.017 281.941 365.268 C 281.857 364.686,281.528 364.458,280.466 364.249 C 278.481 363.859,278.333 363.309,278.333 356.304 C 278.333 351.065,278.253 350.151,277.699 349.070 C 275.519 344.819,270.700 344.216,266.529 347.672 C 264.780 349.122,264.349 349.044,264.338 347.277 C 264.327 345.249,264.220 345.211,259.610 345.577 M326.167 346.142 C 322.152 347.997,320.822 351.212,323.330 352.998 C 325.332 354.423,327.172 352.622,326.271 350.119 C 325.600 348.251,326.153 347.540,328.565 347.176 C 331.846 346.680,333.924 348.126,334.233 351.120 C 334.474 353.462,334.167 353.855,331.724 354.335 C 324.812 355.692,320.998 358.354,321.001 361.817 C 321.006 366.899,328.745 368.342,333.610 364.167 C 334.530 363.377,334.635 363.392,335.130 364.386 C 335.643 365.414,337.567 366.667,338.633 366.666 C 341.031 366.665,343.154 364.217,340.833 364.128 C 338.929 364.055,338.737 363.997,338.459 363.417 C 338.306 363.096,338.102 359.683,338.007 355.833 C 337.809 347.838,337.762 347.694,334.886 346.182 C 332.666 345.015,328.645 344.997,326.167 346.142 M243.750 345.887 C 242.664 346.326,243.358 347.293,245.127 347.808 C 247.387 348.464,247.324 348.218,247.324 356.500 C 247.323 364.000,247.321 364.008,245.228 364.244 C 243.734 364.412,242.973 365.107,243.598 365.731 C 244.280 366.414,254.833 365.884,254.833 365.167 C 254.833 364.631,254.546 364.462,253.369 364.305 C 250.998 363.988,251.000 363.997,251.000 354.270 L 251.000 345.667 247.583 345.693 C 245.704 345.707,243.979 345.795,243.750 345.887 M344.750 345.882 C 343.953 346.214,344.288 347.311,345.250 347.523 C 348.664 348.276,348.656 348.254,348.662 356.353 C 348.667 363.787,348.605 363.997,346.298 364.305 C 345.121 364.462,344.833 364.631,344.833 365.167 C 344.833 365.917,355.394 366.406,356.111 365.689 C 356.616 365.184,355.724 364.333,354.690 364.333 C 352.529 364.333,352.517 364.283,352.333 354.611 L 352.167 345.833 348.667 345.771 C 346.742 345.736,344.979 345.786,344.750 345.882 M79.667 347.640 C 81.896 349.216,82.697 352.737,81.109 353.986 C 80.298 354.624,79.858 354.678,76.193 354.593 L 72.167 354.500 72.056 353.527 C 71.529 348.909,76.272 345.241,79.667 347.640 M100.800 347.131 C 103.686 348.337,105.056 353.260,102.792 354.292 C 101.846 354.723,95.051 354.795,94.398 354.381 C 92.778 353.353,95.438 347.743,97.895 347.006 C 99.247 346.600,99.561 346.613,100.800 347.131 M161.757 347.067 C 163.720 347.654,165.000 349.549,165.000 351.864 C 165.000 354.415,164.521 354.667,159.659 354.667 C 155.120 354.667,154.984 354.589,155.410 352.245 C 156.027 348.848,157.303 347.399,160.295 346.697 C 160.365 346.680,161.023 346.847,161.757 347.067 M296.619 347.844 C 299.131 349.958,298.830 355.575,296.126 357.022 C 291.852 359.309,287.901 353.295,290.678 348.728 C 291.851 346.800,294.848 346.354,296.619 347.844 M54.342 347.901 C 60.887 352.412,56.471 367.819,49.873 363.495 C 46.579 361.337,46.270 351.068,49.414 348.261 C 50.660 347.149,53.002 346.978,54.342 347.901 M126.897 349.145 C 130.331 352.810,129.152 363.191,125.177 364.288 C 121.381 365.336,118.999 362.696,118.748 357.165 C 118.397 349.413,122.949 344.933,126.897 349.145 M186.667 357.601 C 186.667 362.342,182.234 366.276,179.077 364.337 C 174.831 361.731,179.112 355.901,185.417 355.705 L 186.667 355.667 186.667 357.601 M334.103 358.197 C 334.007 361.790,332.246 364.028,328.904 364.803 C 324.968 365.717,323.883 359.156,327.661 357.288 C 329.422 356.417,331.879 355.722,333.000 355.776 L 334.167 355.833 334.103 358.197 M311.008 361.983 C 310.363 362.478,310.182 362.921,310.182 364.000 C 310.182 366.370,312.401 367.437,314.168 365.917 C 316.690 363.747,313.645 359.956,311.008 361.983 M299.398 366.846 C 302.992 368.577,300.964 372.332,296.157 372.847 C 291.369 373.359,288.333 372.184,288.333 369.817 C 288.333 366.734,295.289 364.867,299.398 366.846 " stroke="none" fill="#261f25" fill-rule="evenodd"></path><path id="path1" d="M0.000 200.000 L 0.000 400.000 200.000 400.000 L 400.000 400.000 400.000 200.000 L 400.000 0.000 200.000 0.000 L 0.000 0.000 0.000 200.000 M216.833 18.111 C 218.850 18.397,221.625 18.789,223.000 18.983 C 227.014 19.548,230.554 20.263,234.833 21.373 C 237.033 21.943,239.442 22.533,240.186 22.683 C 240.930 22.833,241.905 23.104,242.353 23.284 C 242.800 23.465,244.517 24.015,246.167 24.507 C 247.817 24.999,250.367 25.859,251.833 26.417 C 253.300 26.975,255.475 27.804,256.667 28.260 C 275.850 35.596,298.747 51.423,313.433 67.500 C 330.906 86.628,341.701 107.143,348.160 133.500 C 358.780 176.832,345.870 225.121,314.208 260.500 C 302.564 273.511,290.072 283.462,273.828 292.664 C 270.897 294.324,266.117 296.644,261.333 298.728 C 260.508 299.087,259.598 299.505,259.310 299.656 C 259.022 299.807,257.747 300.331,256.476 300.819 C 255.206 301.307,253.492 301.980,252.667 302.313 C 251.269 302.878,244.641 305.021,240.833 306.139 C 239.124 306.640,234.309 307.843,230.167 308.804 C 228.883 309.101,226.500 309.496,224.871 309.681 C 223.241 309.866,221.797 310.086,221.662 310.169 C 221.527 310.253,219.936 310.480,218.125 310.674 C 216.315 310.868,213.314 311.245,211.457 311.513 C 203.084 312.721,186.670 312.129,174.500 310.182 C 172.850 309.918,170.675 309.612,169.667 309.501 C 168.658 309.391,167.083 309.095,166.167 308.844 C 165.250 308.593,162.775 307.989,160.667 307.503 C 158.558 307.017,156.233 306.423,155.500 306.184 C 154.767 305.944,152.142 305.111,149.667 304.333 C 147.192 303.554,144.550 302.636,143.797 302.292 C 143.043 301.948,142.294 301.667,142.131 301.667 C 141.598 301.667,134.689 298.625,128.750 295.776 C 91.378 277.845,60.681 242.162,49.941 204.168 C 42.362 177.353,43.504 140.115,52.637 116.225 C 67.455 77.466,97.905 45.790,135.667 29.852 C 136.858 29.349,138.118 28.786,138.465 28.602 C 139.131 28.249,142.033 27.207,144.000 26.615 C 144.642 26.422,145.317 26.155,145.500 26.021 C 145.683 25.888,147.408 25.293,149.333 24.700 C 151.258 24.107,153.193 23.475,153.633 23.295 C 154.073 23.116,155.348 22.764,156.467 22.514 C 157.585 22.264,160.450 21.593,162.833 21.023 C 170.598 19.165,171.456 18.999,175.000 18.665 C 176.925 18.483,179.700 18.184,181.167 18.000 C 187.508 17.203,210.943 17.277,216.833 18.111 M183.000 29.999 C 170.800 31.630,156.683 35.457,149.520 39.075 C 148.409 39.636,146.494 40.505,145.263 41.006 C 142.803 42.008,133.937 47.001,131.221 48.915 C 130.274 49.582,128.237 51.013,126.693 52.095 C 118.427 57.887,107.552 68.718,102.458 76.232 C 101.613 77.479,100.660 78.800,100.341 79.167 C 100.022 79.533,98.600 81.763,97.181 84.121 C 77.867 116.223,76.143 154.652,92.544 187.500 C 100.167 202.766,111.655 216.657,124.833 226.543 C 130.161 230.540,131.425 231.435,132.712 232.122 C 133.512 232.549,135.217 233.544,136.500 234.333 C 142.116 237.786,158.860 245.333,160.904 245.333 C 161.235 245.333,163.405 245.854,165.726 246.490 C 202.304 256.516,244.405 247.575,271.500 224.027 C 272.783 222.912,274.508 221.487,275.333 220.861 C 276.966 219.622,284.479 211.751,286.337 209.333 C 286.971 208.508,287.658 207.683,287.863 207.500 C 290.261 205.360,297.954 193.421,300.751 187.500 C 313.896 159.672,315.462 131.686,305.435 103.833 C 298.033 83.274,283.204 63.506,266.667 52.151 C 258.952 46.854,252.629 43.010,249.068 41.451 C 248.022 40.993,246.417 40.268,245.500 39.841 C 227.181 31.289,202.460 27.396,183.000 29.999 M208.833 34.214 C 215.249 34.913,223.720 36.644,228.833 38.299 C 247.757 44.424,260.686 52.127,273.744 65.056 C 277.348 68.624,284.998 78.122,286.327 80.679 C 286.562 81.131,287.394 82.475,288.175 83.667 C 296.890 96.957,301.744 115.669,301.232 134.000 C 300.739 151.668,296.618 164.821,286.295 181.675 C 281.064 190.216,269.679 202.112,261.000 208.106 C 252.222 214.169,244.296 218.592,238.500 220.660 C 227.392 224.625,221.286 226.327,215.167 227.166 C 213.333 227.418,210.633 227.810,209.167 228.038 C 201.014 229.304,181.563 228.244,172.437 226.036 C 158.282 222.612,143.482 216.163,135.104 209.768 C 134.257 209.122,132.762 208.080,131.783 207.453 C 129.473 205.976,120.834 198.288,117.826 195.033 C 78.967 152.988,85.395 89.324,132.010 54.558 C 142.711 46.577,158.332 39.442,171.500 36.521 C 185.490 33.418,195.730 32.785,208.833 34.214 M191.500 41.892 C 185.419 42.274,179.196 43.337,174.000 44.881 C 172.442 45.344,170.492 45.914,169.667 46.147 C 154.924 50.309,135.449 65.293,128.715 77.656 C 128.263 78.487,127.705 79.392,127.476 79.667 C 127.247 79.942,126.236 81.742,125.229 83.667 C 112.980 107.079,115.928 137.212,132.488 157.844 C 142.287 170.053,156.077 179.676,169.833 183.905 C 227.147 201.521,281.802 158.836,273.214 103.167 C 271.608 92.752,264.498 77.672,257.577 70.000 C 239.815 50.310,216.351 40.329,191.500 41.892 M205.500 47.171 C 211.161 48.083,215.907 49.532,223.000 52.512 C 227.968 54.599,235.102 59.772,240.678 65.331 C 256.805 81.409,262.600 106.909,255.072 128.667 C 252.226 136.895,251.285 138.931,248.687 142.493 C 248.016 143.414,247.071 144.842,246.587 145.667 C 245.442 147.620,238.642 154.943,236.500 156.531 C 235.583 157.210,234.308 158.252,233.667 158.847 C 223.584 168.184,201.545 173.288,184.833 170.157 C 165.608 166.554,149.243 154.043,140.807 136.500 C 130.435 114.931,132.600 91.182,146.710 71.753 C 160.083 53.340,183.366 43.605,205.500 47.171 M191.167 54.001 C 178.987 55.797,168.592 65.062,165.541 76.841 C 158.389 104.458,188.980 126.525,212.384 110.632 C 238.999 92.558,222.806 49.336,191.167 54.001 M61.333 348.448 C 61.333 364.653,61.201 363.804,63.792 364.225 C 64.791 364.387,65.000 364.559,65.000 365.222 C 65.000 366.022,64.995 366.023,61.596 365.928 L 58.193 365.833 57.983 364.804 C 57.600 362.924,57.385 362.891,55.656 364.447 C 49.701 369.800,41.485 362.690,43.066 353.552 C 44.310 346.357,51.485 342.857,56.141 347.172 C 57.520 348.450,57.667 348.020,57.667 342.692 C 57.667 337.112,57.280 336.000,55.336 336.000 C 54.099 336.000,53.333 335.693,53.333 335.198 C 53.333 334.233,54.190 334.000,57.733 334.000 L 61.333 334.000 61.333 348.448 M144.333 348.842 L 144.333 363.683 145.188 364.008 C 145.659 364.187,146.484 364.333,147.022 364.333 C 147.843 364.333,148.000 364.467,148.000 365.167 L 148.000 366.000 142.310 366.000 L 136.620 366.000 136.727 365.258 C 136.812 364.666,137.132 364.465,138.309 364.265 C 140.608 363.875,140.500 364.561,140.500 350.298 L 140.500 337.295 139.667 336.655 C 139.208 336.303,138.486 336.011,138.061 336.007 C 136.697 335.994,135.941 335.399,136.341 334.653 C 136.656 334.063,137.059 334.000,140.512 334.000 L 144.333 334.000 144.333 348.842 M250.229 334.725 C 251.197 335.635,251.215 336.894,250.275 337.895 C 249.338 338.893,248.178 338.875,247.152 337.848 C 245.007 335.704,248.018 332.648,250.229 334.725 M351.504 334.671 C 352.894 336.207,351.690 338.834,349.703 338.600 C 348.567 338.466,347.217 336.508,347.673 335.655 C 348.604 333.915,350.402 333.453,351.504 334.671 M305.333 345.667 C 306.068 346.402,306.184 347.367,305.655 348.355 C 305.176 349.250,304.056 349.161,303.274 348.167 C 302.055 346.617,300.471 347.315,301.538 348.931 C 302.486 350.366,302.399 354.218,301.390 355.508 C 299.490 357.937,297.096 358.925,292.365 359.233 C 288.372 359.493,287.188 360.336,288.635 361.889 C 289.208 362.504,289.784 362.586,294.571 362.739 C 302.131 362.980,303.833 363.911,303.833 367.803 C 303.833 372.120,300.238 374.481,293.670 374.478 C 285.847 374.474,281.878 369.654,287.363 366.818 C 288.598 366.179,288.588 365.648,287.328 364.930 C 284.910 363.554,285.360 359.338,288.015 358.495 C 288.903 358.213,288.833 357.605,287.802 356.641 C 281.975 351.198,289.951 342.762,297.835 346.030 L 299.517 346.727 301.142 345.864 C 303.089 344.828,304.432 344.765,305.333 345.667 M81.229 346.331 C 83.905 347.866,85.590 350.459,85.907 353.531 C 86.201 356.376,86.312 356.333,78.579 356.333 L 71.907 356.333 72.098 358.190 C 72.771 364.711,78.780 366.726,83.342 361.959 C 86.127 359.048,87.101 360.182,84.485 363.290 C 80.851 367.609,73.824 367.619,70.199 363.311 C 63.129 354.909,72.101 341.096,81.229 346.331 M102.928 346.136 C 105.674 347.537,107.238 349.773,108.028 353.428 C 108.627 356.199,108.775 356.138,100.901 356.333 L 94.167 356.500 94.284 358.477 C 94.648 364.618,100.907 366.594,105.335 361.966 C 108.350 358.815,109.289 360.184,106.356 363.454 C 101.251 369.147,92.115 366.700,90.139 359.112 C 87.862 350.374,95.683 342.439,102.928 346.136 M117.655 345.978 C 117.845 346.333,118.000 347.058,118.000 347.589 C 118.000 349.075,118.300 349.086,119.921 347.659 C 125.929 342.371,133.339 347.398,132.941 356.493 C 132.585 364.643,125.294 369.457,120.150 364.941 C 118.710 363.677,118.565 363.806,118.393 366.508 C 118.120 370.798,118.809 372.667,120.663 372.667 C 121.617 372.667,122.032 373.145,121.749 373.917 C 121.635 374.225,120.265 374.333,116.464 374.333 L 111.333 374.333 111.333 373.500 C 111.333 372.771,111.478 372.667,112.492 372.667 C 114.681 372.667,114.705 372.521,114.596 359.845 C 114.489 347.383,114.591 347.917,112.233 347.434 C 110.346 347.048,111.182 345.864,113.500 345.639 C 117.131 345.287,117.292 345.300,117.655 345.978 M164.319 346.222 C 167.045 347.637,168.799 350.342,169.200 353.747 C 169.500 356.307,169.424 356.333,161.641 356.333 L 155.238 356.333 155.448 358.337 C 156.196 365.496,162.920 366.778,167.781 360.689 C 169.012 359.148,169.671 360.643,168.504 362.328 C 163.769 369.161,153.552 367.327,151.345 359.249 C 148.949 350.474,156.977 342.413,164.319 346.222 M186.589 345.849 C 190.041 347.291,190.454 348.407,190.598 356.667 C 190.729 364.255,190.784 364.435,192.856 364.098 C 194.335 363.858,194.826 364.795,193.698 365.708 C 191.882 367.179,189.292 366.775,187.773 364.784 C 186.717 363.400,186.584 363.400,184.949 364.799 C 181.846 367.456,175.798 367.076,173.965 364.110 C 171.497 360.117,175.931 355.796,183.996 354.333 C 186.779 353.829,186.667 353.937,186.667 351.762 C 186.667 348.463,184.332 346.614,180.879 347.180 C 178.611 347.552,177.808 348.729,178.695 350.386 C 179.681 352.229,177.667 354.131,175.797 353.124 C 170.127 350.070,180.293 343.218,186.589 345.849 M203.826 346.083 C 203.921 346.496,204.037 348.033,204.083 349.500 L 204.167 352.167 205.167 350.202 C 207.590 345.439,211.642 343.973,213.813 347.072 C 214.993 348.756,213.935 352.000,212.206 352.000 C 210.759 352.000,210.162 351.207,210.217 349.360 C 210.335 345.404,206.783 349.183,205.201 354.696 C 204.629 356.691,204.462 362.827,204.958 363.611 C 205.118 363.862,206.128 364.135,207.287 364.240 C 209.163 364.410,209.333 364.491,209.333 365.213 L 209.333 366.000 203.143 366.000 L 196.954 366.000 197.060 365.258 C 197.145 364.666,197.465 364.465,198.643 364.265 C 200.829 363.894,200.822 363.913,200.941 357.401 C 201.097 348.797,200.638 347.339,197.770 347.335 C 195.398 347.331,196.810 345.887,199.433 345.634 C 203.454 345.247,203.638 345.266,203.826 346.083 M223.322 345.978 C 223.511 346.333,223.667 347.158,223.667 347.811 C 223.667 349.294,224.010 349.303,225.500 347.855 C 229.471 343.999,235.503 344.938,237.138 349.667 C 237.529 350.797,237.658 352.591,237.662 356.939 C 237.667 363.456,237.791 363.905,239.657 364.204 C 240.902 364.403,241.548 365.050,241.148 365.697 C 241.045 365.864,238.653 366.000,235.833 366.000 C 233.013 366.000,230.622 365.864,230.519 365.697 C 230.125 365.060,230.756 364.333,231.702 364.333 C 233.841 364.333,234.054 363.638,233.937 357.035 L 233.833 351.112 232.884 349.869 C 231.061 347.482,228.224 347.414,226.001 349.706 C 224.369 351.387,224.000 353.017,224.000 358.538 C 224.000 363.376,224.192 363.916,226.011 364.207 C 227.121 364.385,227.333 364.546,227.333 365.209 L 227.333 366.000 222.186 366.000 C 219.355 366.000,216.955 365.864,216.852 365.697 C 216.450 365.046,217.101 364.402,218.364 364.200 C 220.272 363.895,220.399 363.316,220.274 355.554 L 220.167 348.941 219.231 348.137 C 218.717 347.695,218.013 347.333,217.668 347.333 C 215.696 347.333,216.851 345.744,218.943 345.577 C 222.644 345.283,222.965 345.313,223.322 345.978 M264.131 345.861 C 264.242 346.151,264.336 346.788,264.338 347.277 C 264.349 349.044,264.780 349.122,266.529 347.672 C 270.700 344.216,275.519 344.819,277.699 349.070 C 278.253 350.151,278.333 351.065,278.333 356.304 C 278.333 363.309,278.481 363.859,280.466 364.249 C 281.528 364.458,281.857 364.686,281.941 365.268 L 282.049 366.017 276.774 365.925 C 271.794 365.838,271.500 365.797,271.500 365.182 C 271.500 364.691,271.826 364.462,272.819 364.256 C 274.652 363.875,274.656 363.861,274.662 357.328 C 274.668 349.535,273.551 347.542,269.516 348.147 C 266.351 348.621,265.019 351.111,264.778 357.000 C 264.542 362.770,264.788 363.744,266.582 364.145 C 267.923 364.444,268.542 365.059,268.148 365.697 C 268.045 365.864,265.645 366.000,262.814 366.000 L 257.667 366.000 257.667 365.210 C 257.667 364.562,257.881 364.386,258.863 364.226 C 261.021 363.876,261.000 363.952,261.000 356.475 C 261.000 348.511,260.636 347.333,258.171 347.333 C 256.330 347.333,257.641 345.734,259.610 345.577 C 263.295 345.284,263.925 345.324,264.131 345.861 M334.886 346.182 C 337.762 347.694,337.809 347.838,338.007 355.833 C 338.102 359.683,338.306 363.096,338.459 363.417 C 338.737 363.997,338.929 364.055,340.833 364.128 C 343.154 364.217,341.031 366.665,338.633 366.666 C 337.567 366.667,335.643 365.414,335.130 364.386 C 334.635 363.392,334.530 363.377,333.610 364.167 C 328.745 368.342,321.006 366.899,321.001 361.817 C 320.998 358.354,324.812 355.692,331.724 354.335 C 334.167 353.855,334.474 353.462,334.233 351.120 C 333.924 348.126,331.846 346.680,328.565 347.176 C 326.153 347.540,325.600 348.251,326.271 350.119 C 327.172 352.622,325.332 354.423,323.330 352.998 C 318.048 349.237,328.722 342.941,334.886 346.182 M251.000 354.270 C 251.000 363.997,250.998 363.988,253.369 364.305 C 254.546 364.462,254.833 364.631,254.833 365.167 C 254.833 365.884,244.280 366.414,243.598 365.731 C 242.973 365.107,243.734 364.412,245.228 364.244 C 247.321 364.008,247.323 364.000,247.324 356.500 C 247.324 348.218,247.387 348.464,245.127 347.808 C 243.794 347.420,243.333 347.128,243.333 346.671 C 243.333 345.811,243.715 345.723,247.583 345.693 L 251.000 345.667 251.000 354.270 M352.333 354.611 C 352.517 364.283,352.529 364.333,354.690 364.333 C 355.724 364.333,356.616 365.184,356.111 365.689 C 355.394 366.406,344.833 365.917,344.833 365.167 C 344.833 364.631,345.121 364.462,346.298 364.305 C 348.605 363.997,348.667 363.787,348.662 356.353 C 348.656 348.254,348.664 348.276,345.250 347.523 C 344.288 347.311,343.953 346.214,344.750 345.882 C 344.979 345.786,346.742 345.736,348.667 345.771 L 352.167 345.833 352.333 354.611 M75.771 347.031 C 73.738 347.626,71.774 351.058,72.056 353.527 L 72.167 354.500 76.193 354.593 C 80.992 354.704,82.004 354.262,81.995 352.059 C 81.980 348.757,78.761 346.156,75.771 347.031 M97.895 347.006 C 95.967 347.584,94.553 349.610,94.200 352.302 C 93.896 354.612,93.973 354.655,98.401 354.662 C 103.440 354.669,104.340 354.070,103.803 351.063 C 103.268 348.063,100.563 346.205,97.895 347.006 M159.167 347.034 C 156.717 347.787,154.082 352.949,155.449 354.315 C 156.040 354.906,163.375 354.767,164.259 354.148 C 166.715 352.428,163.291 345.993,160.295 346.697 C 160.224 346.713,159.717 346.865,159.167 347.034 M292.085 347.343 C 290.168 348.114,289.227 351.630,290.208 354.357 C 291.989 359.311,297.760 358.341,298.244 353.006 C 298.651 348.516,295.766 345.863,292.085 347.343 M49.414 348.261 C 46.270 351.068,46.579 361.337,49.873 363.495 C 56.471 367.819,60.887 352.412,54.342 347.901 C 53.002 346.978,50.660 347.149,49.414 348.261 M122.007 348.234 C 116.952 350.844,117.572 363.147,122.818 364.330 C 125.779 364.998,127.688 363.315,128.538 359.289 C 130.093 351.916,126.536 345.896,122.007 348.234 M182.344 356.289 C 177.670 357.686,175.788 362.319,179.077 364.337 C 182.234 366.276,186.667 362.342,186.667 357.601 L 186.667 355.667 185.417 355.705 C 184.729 355.727,183.347 355.989,182.344 356.289 M330.167 356.296 C 326.602 357.530,325.330 358.819,325.338 361.187 C 325.351 364.867,327.592 365.865,331.212 363.802 C 333.211 362.663,334.026 361.083,334.103 358.197 L 334.167 355.833 333.000 355.776 C 332.358 355.745,331.083 355.979,330.167 356.296 M314.326 362.159 C 316.515 364.489,313.532 367.957,311.008 366.017 C 310.363 365.522,310.182 365.079,310.182 364.000 C 310.182 361.584,312.725 360.454,314.326 362.159 M292.833 366.306 C 289.851 366.892,288.333 368.076,288.333 369.817 C 288.333 373.876,299.024 374.212,300.947 370.213 C 302.271 367.459,297.836 365.324,292.833 366.306 " stroke="none" fill="#fbfbfb" fill-rule="evenodd"></path></g></svg>