<svg id="svg" version="1.1" xmlns="http://www.w3.org/2000/svg" xmlns:xlink="http://www.w3.org/1999/xlink" width="400" height="266.5" viewBox="0, 0, 400,266.5"><g id="svgg"><path id="path0" d="M256.165 23.620 C 254.863 24.416,253.755 25.067,253.703 25.067 C 253.622 25.067,251.495 26.293,244.000 30.661 C 243.047 31.217,239.807 33.085,236.800 34.812 C 233.793 36.539,229.113 39.239,226.400 40.812 C 221.533 43.632,210.082 50.231,208.267 51.262 C 207.753 51.553,206.643 52.215,205.800 52.734 L 204.267 53.676 204.211 66.438 C 204.181 73.457,204.151 79.761,204.144 80.447 C 204.132 81.848,203.746 81.608,207.733 82.679 C 209.836 83.243,212.139 83.729,215.467 84.311 C 218.997 84.928,230.127 84.767,234.000 84.044 C 243.009 82.360,254.083 78.115,253.461 76.583 C 252.759 74.852,250.604 68.572,250.572 68.163 C 250.544 67.802,251.025 67.386,252.267 66.696 C 255.054 65.148,257.414 65.389,264.933 67.994 C 269.786 69.674,270.569 69.510,286.533 63.466 C 298.657 58.876,303.478 58.890,300.374 63.507 C 298.883 65.723,295.801 68.593,288.399 74.658 C 278.007 83.173,277.854 83.366,276.558 89.640 C 275.106 96.669,274.160 98.663,271.546 100.207 C 270.214 100.994,269.083 101.165,269.059 100.582 C 269.055 100.482,268.512 99.800,267.852 99.067 C 267.192 98.333,266.026 96.985,265.259 96.070 C 263.649 94.146,263.570 94.127,261.778 95.229 C 250.240 102.329,240.076 115.811,236.268 129.067 C 236.078 129.727,235.772 130.747,235.588 131.333 C 235.403 131.920,235.176 132.940,235.084 133.600 L 234.916 134.800 237.525 136.058 C 238.959 136.751,240.973 137.816,242.000 138.425 C 243.027 139.035,244.407 139.837,245.067 140.208 C 245.727 140.578,247.707 141.721,249.467 142.748 C 251.227 143.775,253.747 145.234,255.067 145.990 C 256.387 146.747,257.732 147.534,258.057 147.741 C 258.760 148.188,258.242 148.446,268.000 142.794 C 271.740 140.628,275.220 138.620,275.733 138.331 C 276.247 138.043,278.227 136.900,280.133 135.791 C 282.040 134.682,284.740 133.122,286.133 132.324 C 287.527 131.526,289.027 130.662,289.467 130.404 C 289.907 130.147,292.607 128.586,295.467 126.937 C 298.327 125.287,301.027 123.725,301.467 123.466 C 303.410 122.319,307.520 120.000,307.609 120.000 C 307.663 120.000,308.223 119.656,308.853 119.236 C 309.484 118.817,310.600 118.144,311.333 117.742 C 312.067 117.340,312.817 116.889,313.000 116.739 C 313.263 116.525,313.333 109.863,313.333 85.057 L 313.333 53.647 310.200 51.788 C 308.477 50.766,306.527 49.631,305.867 49.266 C 305.207 48.901,303.767 48.068,302.667 47.415 C 301.567 46.762,300.007 45.862,299.200 45.415 C 297.798 44.638,295.173 43.135,293.467 42.131 C 293.027 41.872,291.527 41.005,290.133 40.203 C 288.740 39.402,285.740 37.667,283.467 36.348 C 280.006 34.341,271.193 29.251,267.733 27.262 C 267.220 26.967,265.010 25.693,262.822 24.430 C 260.634 23.167,258.774 22.142,258.689 22.153 C 258.603 22.164,257.468 22.824,256.165 23.620 M139.244 23.646 C 137.590 24.587,137.017 25.214,137.494 25.560 C 137.626 25.655,138.027 26.273,138.385 26.933 C 140.023 29.946,145.785 38.253,149.023 42.267 C 152.039 46.005,157.381 51.943,159.564 53.981 C 160.024 54.411,161.300 55.611,162.400 56.648 C 170.244 64.045,178.782 70.117,188.120 74.937 C 195.780 78.891,196.074 78.962,195.875 76.814 C 195.827 76.293,195.775 70.974,195.760 64.994 L 195.733 54.122 194.156 53.128 C 193.288 52.581,191.303 51.413,189.746 50.533 C 188.188 49.653,185.645 48.183,184.096 47.267 C 182.546 46.350,181.236 45.600,181.184 45.600 C 181.132 45.600,180.455 45.223,179.678 44.763 C 178.027 43.783,177.796 43.649,173.067 40.933 C 171.087 39.795,166.947 37.400,163.867 35.609 C 157.863 32.120,155.063 30.507,147.733 26.320 C 145.167 24.853,142.748 23.431,142.359 23.160 C 141.410 22.499,141.204 22.531,139.244 23.646 M262.824 38.981 C 264.017 41.349,265.846 43.137,268.287 44.319 C 270.554 45.417,270.557 45.585,268.333 46.678 C 266.035 47.807,263.873 49.974,262.690 52.333 C 261.578 54.550,261.541 54.550,260.469 52.342 C 259.342 50.018,257.197 47.854,254.867 46.688 C 252.624 45.565,252.632 45.416,255.007 44.273 C 257.438 43.102,259.154 41.383,260.310 38.961 C 261.426 36.623,261.637 36.624,262.824 38.981 M268.880 116.210 C 269.483 117.717,271.486 119.793,273.039 120.520 C 274.695 121.296,274.737 121.615,273.268 122.264 C 271.791 122.915,269.467 125.254,268.908 126.652 C 268.446 127.807,268.098 127.915,267.619 127.055 C 266.072 124.277,265.293 123.460,263.267 122.495 C 261.531 121.668,261.514 121.323,263.170 120.547 C 265.088 119.649,267.031 117.558,267.581 115.800 C 267.864 114.899,268.426 115.076,268.880 116.210 M198.526 124.361 C 198.063 124.679,196.698 125.445,194.000 126.902 C 193.560 127.139,193.140 127.393,193.067 127.467 C 192.993 127.540,192.633 127.770,192.267 127.977 C 191.900 128.185,190.460 129.013,189.067 129.818 C 187.673 130.623,186.173 131.487,185.733 131.738 C 185.293 131.989,183.576 132.991,181.918 133.964 C 180.259 134.937,178.852 135.733,178.790 135.733 C 178.728 135.733,178.045 136.135,177.272 136.625 C 176.499 137.115,174.967 138.008,173.867 138.608 C 172.767 139.209,170.584 140.458,169.017 141.383 C 167.449 142.309,165.529 143.426,164.750 143.866 C 162.126 145.347,157.237 148.166,151.133 151.717 L 145.067 155.247 145.074 186.757 L 145.082 218.267 147.408 219.645 C 148.687 220.403,150.333 221.349,151.067 221.747 C 151.800 222.145,153.567 223.174,154.994 224.035 C 156.421 224.896,157.647 225.600,157.719 225.600 C 157.830 225.600,159.973 226.847,163.333 228.867 C 163.773 229.132,164.343 229.419,164.600 229.505 C 164.857 229.591,165.067 229.768,165.067 229.898 C 165.067 230.027,165.189 230.133,165.339 230.133 C 165.488 230.133,166.096 230.440,166.689 230.814 C 167.819 231.528,169.013 232.217,170.800 233.190 C 173.184 234.487,175.103 235.586,175.733 236.016 C 176.412 236.479,177.684 237.204,179.600 238.218 C 180.187 238.529,180.847 238.920,181.067 239.088 C 181.287 239.255,182.127 239.751,182.933 240.190 C 185.585 241.634,187.063 242.468,187.333 242.674 C 187.480 242.785,188.050 243.129,188.600 243.438 C 189.150 243.747,189.990 244.226,190.467 244.502 C 190.943 244.778,192.353 245.579,193.600 246.282 C 194.847 246.986,195.907 247.660,195.956 247.780 C 196.004 247.901,196.274 248.000,196.556 248.000 C 196.837 248.000,197.067 248.090,197.067 248.200 C 197.067 248.311,197.612 248.690,198.278 249.043 L 199.489 249.686 200.478 249.136 C 202.657 247.925,203.390 247.508,204.681 246.742 C 205.422 246.302,206.562 245.642,207.214 245.276 C 209.079 244.227,210.162 243.603,211.614 242.742 C 212.355 242.302,213.495 241.642,214.147 241.276 C 214.800 240.909,215.813 240.339,216.400 240.009 C 216.987 239.680,217.587 239.319,217.733 239.207 C 217.880 239.096,218.540 238.706,219.200 238.340 C 221.308 237.172,222.484 236.495,227.832 233.365 C 229.866 232.174,231.570 231.200,231.620 231.200 C 231.669 231.200,232.345 230.821,233.122 230.358 C 233.898 229.895,234.773 229.381,235.067 229.215 C 235.781 228.811,238.433 227.240,238.933 226.923 C 239.956 226.278,244.060 224.000,244.200 224.000 C 244.287 224.000,244.547 223.837,244.779 223.637 C 245.011 223.438,245.860 222.916,246.667 222.477 C 247.473 222.038,248.613 221.401,249.200 221.061 C 249.787 220.721,250.751 220.181,251.344 219.859 C 253.340 218.776,253.733 218.534,253.929 218.267 C 254.037 218.120,254.127 203.878,254.129 186.618 L 254.133 155.236 253.400 154.728 C 252.997 154.448,252.127 153.933,251.467 153.585 C 250.807 153.236,250.087 152.813,249.867 152.646 C 249.647 152.478,248.807 151.979,248.000 151.536 C 246.583 150.758,241.019 147.577,237.733 145.665 C 236.853 145.154,235.713 144.498,235.200 144.209 C 234.687 143.920,234.153 143.574,234.013 143.442 C 233.874 143.309,233.600 143.200,233.404 143.200 C 233.208 143.200,232.062 142.639,230.857 141.953 C 229.653 141.267,228.427 140.574,228.133 140.413 C 227.840 140.252,227.092 139.793,226.472 139.393 C 225.852 138.994,225.285 138.667,225.213 138.667 C 225.141 138.667,224.149 138.111,223.008 137.432 C 220.376 135.866,219.420 135.316,217.600 134.316 C 216.793 133.873,215.653 133.210,215.067 132.843 C 214.480 132.476,213.340 131.817,212.533 131.378 C 211.727 130.940,210.434 130.180,209.661 129.691 C 208.889 129.201,208.208 128.800,208.149 128.800 C 208.090 128.800,207.003 128.200,205.733 127.467 C 204.464 126.733,203.363 126.133,203.287 126.133 C 203.211 126.133,202.771 125.863,202.309 125.533 C 200.203 124.029,199.381 123.774,198.526 124.361 " stroke="none" fill="#416189" fill-rule="evenodd"></path><path id="path1" d="M0.000 133.333 L 0.000 266.667 200.000 266.667 L 400.000 266.667 400.000 133.333 L 400.000 0.000 200.000 0.000 L 0.000 0.000 0.000 133.333 M260.481 22.441 C 261.316 22.904,262.762 23.744,263.694 24.308 C 264.626 24.872,265.447 25.333,265.519 25.333 C 265.592 25.333,265.973 25.563,266.366 25.843 C 267.016 26.305,267.926 26.827,270.667 28.310 C 271.180 28.587,272.080 29.114,272.667 29.480 C 273.253 29.845,273.913 30.222,274.133 30.316 C 274.353 30.410,274.833 30.690,275.200 30.939 C 275.857 31.384,277.113 32.101,280.000 33.679 C 280.807 34.121,281.767 34.684,282.133 34.931 C 282.500 35.178,282.980 35.460,283.200 35.559 C 283.420 35.657,283.960 35.960,284.400 36.231 C 285.180 36.712,286.163 37.281,288.200 38.431 C 288.750 38.742,289.500 39.197,289.867 39.442 C 290.233 39.687,291.193 40.232,292.000 40.653 C 292.807 41.073,293.785 41.638,294.174 41.909 C 294.564 42.179,295.014 42.400,295.174 42.400 C 295.335 42.400,295.467 42.506,295.467 42.636 C 295.467 42.765,295.677 42.940,295.933 43.024 C 296.190 43.108,296.880 43.462,297.467 43.811 C 298.053 44.160,299.073 44.749,299.733 45.119 C 302.704 46.784,303.082 47.002,303.333 47.201 C 303.480 47.316,304.200 47.743,304.933 48.149 C 306.756 49.159,307.659 49.670,309.067 50.490 C 309.727 50.875,310.788 51.459,311.426 51.788 C 312.064 52.118,312.874 52.654,313.226 52.981 L 313.867 53.575 313.863 85.121 C 313.860 102.471,313.770 116.796,313.663 116.955 C 313.555 117.113,312.687 117.665,311.733 118.180 C 309.281 119.507,307.909 120.289,307.600 120.539 C 307.304 120.778,304.590 122.346,302.533 123.466 C 300.476 124.586,297.215 126.487,297.067 126.652 C 296.993 126.733,296.453 127.039,295.867 127.331 C 295.280 127.623,294.740 127.923,294.667 127.997 C 294.535 128.131,294.195 128.331,292.297 129.386 C 291.767 129.680,290.658 130.329,289.832 130.827 C 289.006 131.326,288.248 131.733,288.146 131.733 C 288.045 131.733,287.440 132.093,286.800 132.533 C 286.160 132.973,285.566 133.333,285.480 133.333 C 285.393 133.333,284.837 133.640,284.244 134.014 C 283.651 134.389,282.753 134.929,282.249 135.214 C 281.011 135.916,279.646 136.696,278.600 137.301 C 278.123 137.576,276.953 138.251,276.000 138.800 C 275.047 139.349,273.907 140.009,273.467 140.267 C 270.927 141.753,269.030 142.830,267.739 143.521 C 266.936 143.950,266.156 144.403,266.006 144.527 C 265.515 144.932,260.471 147.733,260.232 147.733 C 260.105 147.733,260.000 147.853,260.000 148.000 C 260.000 148.147,259.460 148.267,258.800 148.267 C 258.140 148.267,257.600 148.147,257.600 148.000 C 257.600 147.853,257.360 147.733,257.067 147.733 C 256.773 147.733,256.533 147.621,256.533 147.485 C 256.533 147.348,256.263 147.150,255.933 147.046 C 255.603 146.941,254.394 146.273,253.246 145.561 C 252.097 144.849,251.105 144.267,251.041 144.267 C 250.976 144.267,250.170 143.809,249.249 143.249 C 248.327 142.689,247.400 142.148,247.187 142.047 C 246.974 141.945,246.440 141.640,246.000 141.369 C 245.188 140.868,244.024 140.196,241.881 138.991 C 241.228 138.624,240.148 138.003,239.481 137.611 C 238.813 137.219,237.877 136.727,237.400 136.517 C 236.923 136.308,236.533 136.046,236.533 135.935 C 236.533 135.824,236.285 135.733,235.982 135.733 C 234.564 135.733,234.014 134.623,234.637 133.013 C 234.767 132.676,235.018 131.769,235.195 130.998 C 235.602 129.226,236.919 125.083,237.487 123.787 C 238.626 121.187,241.434 115.590,241.637 115.511 C 241.763 115.462,241.867 115.308,241.867 115.169 C 241.867 114.821,244.086 111.460,245.803 109.207 C 249.822 103.935,255.191 98.896,260.308 95.595 C 261.385 94.900,262.327 94.245,262.400 94.140 C 262.787 93.585,263.954 93.623,264.345 94.202 C 264.567 94.531,265.150 95.225,265.641 95.744 C 266.132 96.263,267.132 97.403,267.864 98.277 C 269.840 100.638,270.400 101.077,270.400 100.267 C 270.400 100.120,270.525 100.000,270.677 100.000 C 271.395 100.000,273.021 98.542,273.651 97.333 C 273.843 96.967,274.067 96.607,274.149 96.533 C 274.438 96.276,275.460 92.639,276.023 89.867 C 276.335 88.327,276.677 86.647,276.782 86.133 C 277.367 83.287,278.118 82.505,288.933 73.474 C 290.987 71.759,293.597 69.575,294.735 68.620 C 298.656 65.327,301.226 62.060,300.629 61.129 C 300.060 60.243,292.337 61.301,291.080 62.438 C 290.941 62.564,290.558 62.667,290.229 62.667 C 289.900 62.667,289.557 62.787,289.467 62.933 C 289.376 63.080,289.009 63.200,288.651 63.200 C 288.293 63.200,288.000 63.320,288.000 63.467 C 288.000 63.613,287.758 63.733,287.463 63.733 C 287.168 63.733,286.718 63.849,286.463 63.990 C 286.208 64.132,284.800 64.674,283.333 65.196 C 281.867 65.718,280.458 66.263,280.204 66.406 C 279.949 66.549,279.557 66.667,279.333 66.667 C 279.109 66.667,278.688 66.787,278.396 66.933 C 278.105 67.080,277.628 67.320,277.337 67.467 C 277.046 67.613,276.590 67.733,276.324 67.733 C 276.058 67.733,275.726 67.835,275.587 67.960 C 273.407 69.909,264.154 69.551,261.747 67.424 C 261.607 67.301,261.224 67.200,260.896 67.200 C 260.567 67.200,260.232 67.093,260.151 66.962 C 259.986 66.694,258.563 66.440,256.041 66.228 C 254.488 66.097,254.240 66.153,253.023 66.909 C 252.294 67.363,251.586 67.733,251.449 67.733 C 251.095 67.733,251.147 68.495,251.585 69.733 C 254.539 78.079,254.503 77.676,252.362 78.450 C 251.869 78.628,251.467 78.870,251.467 78.987 C 251.467 79.104,251.298 79.200,251.092 79.200 C 250.886 79.200,250.256 79.429,249.692 79.709 C 246.860 81.115,241.098 83.200,240.045 83.200 C 239.744 83.200,239.432 83.307,239.351 83.438 C 239.270 83.570,238.753 83.744,238.202 83.825 C 237.651 83.906,236.540 84.099,235.733 84.254 C 228.851 85.571,219.149 85.571,212.267 84.254 C 211.460 84.099,210.349 83.906,209.798 83.825 C 209.247 83.744,208.730 83.570,208.649 83.438 C 208.568 83.307,208.247 83.200,207.937 83.200 C 207.391 83.200,206.475 82.947,204.561 82.269 L 203.655 81.948 203.712 67.712 C 203.775 52.232,203.677 53.112,205.444 52.229 C 206.826 51.539,207.580 51.116,210.492 49.394 C 211.789 48.627,212.910 48.000,212.984 48.000 C 213.057 48.000,213.436 47.774,213.826 47.498 C 214.611 46.941,215.944 46.168,218.090 45.028 C 220.104 43.957,222.784 42.303,222.889 42.067 C 222.938 41.957,223.208 41.867,223.489 41.867 C 223.770 41.867,224.000 41.768,224.000 41.648 C 224.000 41.528,224.570 41.129,225.267 40.762 C 228.314 39.157,229.739 38.326,229.822 38.104 C 229.871 37.974,230.141 37.867,230.422 37.867 C 230.703 37.867,230.933 37.747,230.933 37.600 C 230.933 37.453,231.041 37.333,231.173 37.333 C 231.305 37.333,232.175 36.853,233.107 36.265 C 234.038 35.678,234.980 35.129,235.200 35.046 C 235.855 34.798,237.222 34.033,240.400 32.138 C 242.672 30.782,243.690 30.190,245.586 29.124 C 246.238 28.758,247.354 28.114,248.064 27.695 C 248.775 27.276,249.420 26.933,249.497 26.933 C 249.574 26.933,250.160 26.573,250.800 26.133 C 251.440 25.693,252.033 25.333,252.119 25.333 C 252.205 25.333,253.144 24.807,254.205 24.165 C 259.090 21.205,258.527 21.359,260.481 22.441 M144.267 23.669 C 145.513 24.388,147.073 25.279,147.733 25.651 C 148.393 26.022,149.353 26.580,149.867 26.890 C 150.380 27.200,151.460 27.814,152.267 28.253 C 154.479 29.458,155.324 29.979,155.422 30.200 C 155.471 30.310,155.618 30.400,155.748 30.400 C 155.878 30.400,156.898 30.940,158.014 31.600 C 159.131 32.260,160.106 32.800,160.181 32.800 C 160.256 32.800,160.636 33.026,161.026 33.302 C 161.725 33.799,162.734 34.389,165.067 35.666 C 166.805 36.618,169.978 38.493,170.133 38.660 C 170.207 38.739,170.927 39.155,171.733 39.583 C 173.979 40.775,175.004 41.354,175.733 41.841 C 176.100 42.086,176.759 42.462,177.197 42.676 C 177.635 42.891,178.715 43.498,179.597 44.025 C 180.479 44.552,181.800 45.321,182.533 45.733 C 184.722 46.963,184.894 47.064,185.867 47.681 C 186.380 48.007,187.310 48.523,187.933 48.827 C 188.557 49.132,189.067 49.490,189.067 49.624 C 189.067 49.757,189.307 49.867,189.600 49.867 C 189.893 49.867,190.133 49.987,190.133 50.133 C 190.133 50.280,190.313 50.400,190.533 50.400 C 190.753 50.400,190.933 50.491,190.933 50.602 C 190.933 50.712,191.323 50.976,191.800 51.186 C 193.028 51.729,195.829 53.398,196.063 53.725 C 196.372 54.160,196.312 116.750,196.001 117.331 C 195.856 117.603,195.406 117.996,195.001 118.203 C 194.149 118.640,192.482 119.594,191.333 120.302 C 190.893 120.573,190.353 120.879,190.133 120.982 C 189.771 121.151,187.819 122.284,185.733 123.535 C 185.293 123.799,184.723 124.085,184.467 124.172 C 184.210 124.258,184.000 124.435,184.000 124.564 C 184.000 124.694,183.890 124.800,183.755 124.800 C 183.621 124.800,182.571 125.357,181.422 126.038 C 179.291 127.302,178.377 127.830,176.281 129.009 C 175.628 129.376,174.513 130.019,173.802 130.438 C 173.091 130.857,172.395 131.200,172.255 131.200 C 172.115 131.200,171.999 131.290,171.998 131.400 C 171.997 131.510,171.727 131.731,171.398 131.892 C 171.069 132.052,169.600 132.876,168.133 133.722 C 166.667 134.569,164.927 135.562,164.267 135.931 C 163.607 136.299,162.407 136.990,161.600 137.467 C 160.793 137.943,159.593 138.631,158.933 138.995 C 158.273 139.360,157.313 139.900,156.800 140.196 C 156.287 140.492,155.105 141.169,154.175 141.700 C 153.245 142.231,152.165 142.880,151.775 143.143 C 151.385 143.405,150.707 143.795,150.267 144.010 C 149.827 144.224,148.567 144.927,147.467 145.572 C 144.447 147.341,143.668 147.786,142.872 148.194 C 142.472 148.399,142.074 148.680,141.990 148.817 C 141.750 149.205,140.616 149.111,140.171 148.667 C 139.951 148.447,139.607 148.267,139.406 148.267 C 139.205 148.267,138.926 148.158,138.787 148.025 C 138.647 147.892,138.113 147.547,137.600 147.258 C 137.087 146.969,135.887 146.279,134.933 145.725 C 133.980 145.172,132.931 144.587,132.602 144.426 C 132.273 144.265,132.003 144.043,132.002 143.933 C 132.001 143.823,131.767 143.733,131.482 143.733 C 131.198 143.733,130.893 143.617,130.805 143.475 C 130.717 143.333,129.660 142.666,128.456 141.994 C 127.252 141.322,125.787 140.476,125.200 140.114 C 124.613 139.752,123.953 139.376,123.733 139.278 C 123.513 139.181,122.553 138.626,121.600 138.046 C 120.647 137.465,118.967 136.485,117.867 135.867 C 116.767 135.250,115.147 134.326,114.267 133.815 C 113.387 133.304,111.498 132.206,110.069 131.376 C 108.640 130.546,107.390 129.867,107.290 129.867 C 107.190 129.867,106.919 129.701,106.688 129.499 C 106.456 129.296,105.427 128.678,104.400 128.124 C 103.373 127.571,102.233 126.926,101.866 126.692 C 100.547 125.852,100.121 125.602,99.333 125.205 C 98.893 124.984,98.173 124.579,97.733 124.306 C 97.293 124.032,96.513 123.567,96.000 123.270 C 93.529 121.845,91.514 120.686,90.667 120.203 C 90.153 119.910,89.433 119.471,89.067 119.226 C 88.700 118.981,88.072 118.616,87.671 118.414 C 85.679 117.413,85.867 120.830,85.867 85.636 L 85.867 54.226 86.467 53.691 C 87.082 53.142,94.994 48.533,95.322 48.533 C 95.422 48.533,96.027 48.173,96.667 47.733 C 97.306 47.293,97.958 46.933,98.115 46.933 C 98.272 46.933,98.400 46.813,98.400 46.667 C 98.400 46.520,98.531 46.400,98.692 46.400 C 98.853 46.400,99.303 46.179,99.692 45.908 C 100.081 45.638,101.180 44.996,102.133 44.483 C 104.492 43.212,105.947 42.385,106.267 42.133 C 106.413 42.017,107.133 41.590,107.867 41.184 C 109.322 40.378,110.462 39.737,111.800 38.971 C 114.397 37.484,115.642 36.764,116.000 36.540 C 116.544 36.201,119.208 34.624,119.867 34.252 C 120.160 34.086,120.880 33.672,121.467 33.332 C 122.053 32.991,122.893 32.535,123.333 32.317 C 123.773 32.100,124.313 31.775,124.533 31.596 C 124.753 31.416,125.473 30.971,126.133 30.606 C 126.793 30.241,128.533 29.247,130.000 28.397 C 131.467 27.547,133.207 26.554,133.867 26.191 C 134.527 25.828,135.965 24.976,137.062 24.299 C 141.252 21.712,140.921 21.741,144.267 23.669 M260.816 39.176 C 259.914 40.954,257.523 43.733,256.895 43.733 C 256.696 43.733,256.533 43.844,256.533 43.978 C 256.533 44.113,255.933 44.494,255.200 44.826 C 253.842 45.439,253.493 45.862,254.333 45.873 C 254.590 45.876,255.100 46.113,255.467 46.400 C 255.833 46.687,256.253 46.927,256.400 46.935 C 257.207 46.974,260.023 50.186,260.889 52.055 C 261.438 53.238,261.867 53.572,261.867 52.816 C 261.867 52.514,261.974 52.267,262.104 52.267 C 262.235 52.267,262.411 51.991,262.496 51.655 C 262.866 50.179,266.699 46.400,267.825 46.400 C 268.068 46.400,268.267 46.280,268.267 46.133 C 268.267 45.987,268.507 45.867,268.800 45.867 C 269.695 45.867,269.400 45.459,268.067 44.852 C 265.340 43.612,262.520 40.471,261.794 37.867 C 261.730 37.636,261.315 38.191,260.816 39.176 M267.596 116.904 C 267.076 117.999,265.044 120.267,264.581 120.267 C 264.408 120.267,264.267 120.387,264.267 120.533 C 264.267 120.680,264.087 120.800,263.867 120.800 C 263.647 120.800,263.467 120.911,263.467 121.047 C 263.467 121.183,263.269 121.333,263.026 121.380 C 262.746 121.435,263.012 121.679,263.760 122.053 C 265.193 122.769,266.689 124.281,267.475 125.808 C 268.045 126.916,268.757 126.868,268.792 125.720 C 268.810 125.110,271.343 122.615,272.463 122.105 C 273.634 121.571,273.561 120.840,272.333 120.808 C 272.150 120.804,272.000 120.700,272.000 120.578 C 272.000 120.457,271.672 120.187,271.272 119.978 C 270.415 119.534,269.354 118.409,269.342 117.933 C 269.337 117.750,269.213 117.600,269.067 117.600 C 268.920 117.600,268.796 117.450,268.792 117.267 C 268.764 116.175,268.045 115.957,267.596 116.904 M201.425 124.232 C 202.181 124.653,203.520 125.417,204.400 125.930 C 206.148 126.949,210.781 129.620,212.267 130.465 C 212.780 130.757,213.500 131.198,213.867 131.444 C 214.233 131.691,214.833 132.038,215.200 132.216 C 215.567 132.394,216.347 132.818,216.933 133.158 C 217.520 133.498,218.480 134.050,219.067 134.386 C 219.653 134.721,220.452 135.222,220.841 135.498 C 221.230 135.774,221.654 136.000,221.781 136.000 C 221.909 136.000,222.882 136.540,223.942 137.200 C 225.003 137.860,225.941 138.400,226.027 138.400 C 226.114 138.400,226.523 138.641,226.938 138.937 C 227.352 139.232,228.331 139.818,229.112 140.240 C 230.919 141.214,234.510 143.206,235.763 143.928 C 236.293 144.233,236.953 144.608,237.230 144.760 C 237.507 144.912,238.681 145.596,239.840 146.279 C 242.267 147.710,243.988 148.690,247.200 150.472 C 247.713 150.757,248.253 151.087,248.400 151.205 C 248.547 151.323,249.507 151.862,250.533 152.403 C 251.560 152.943,252.910 153.703,253.534 154.093 L 254.667 154.800 254.600 186.777 L 254.533 218.754 253.733 219.206 C 253.293 219.454,252.453 219.934,251.867 220.272 C 251.280 220.611,250.500 221.054,250.133 221.257 C 249.767 221.461,248.987 221.918,248.400 222.273 C 247.813 222.627,246.463 223.355,245.400 223.890 C 244.337 224.426,243.467 224.955,243.467 225.067 C 243.467 225.179,243.257 225.340,243.000 225.425 C 242.520 225.583,241.674 226.055,238.667 227.842 C 237.713 228.409,236.573 229.082,236.133 229.337 C 232.962 231.178,231.732 231.877,230.800 232.370 C 230.213 232.680,229.673 233.003,229.600 233.087 C 229.437 233.276,225.058 235.733,224.886 235.733 C 224.818 235.733,224.261 236.074,223.648 236.491 C 223.035 236.907,221.749 237.675,220.790 238.198 C 219.831 238.720,218.416 239.519,217.645 239.974 C 216.874 240.428,216.180 240.800,216.103 240.800 C 216.026 240.800,215.440 241.160,214.800 241.600 C 214.160 242.040,213.509 242.400,213.352 242.400 C 213.195 242.400,213.067 242.494,213.067 242.608 C 213.067 242.723,212.737 242.956,212.333 243.128 C 211.930 243.299,211.000 243.811,210.267 244.265 C 209.533 244.719,208.723 245.159,208.467 245.243 C 208.210 245.327,208.000 245.502,208.000 245.631 C 208.000 245.761,207.895 245.867,207.768 245.867 C 207.522 245.867,202.814 248.489,201.629 249.285 C 199.917 250.436,199.635 250.486,198.512 249.842 C 197.937 249.512,196.387 248.652,195.067 247.930 C 193.747 247.208,192.477 246.448,192.246 246.242 C 192.014 246.036,191.742 245.867,191.641 245.867 C 191.540 245.867,190.590 245.341,189.529 244.698 C 187.432 243.427,186.256 242.751,184.000 241.522 C 183.193 241.083,182.413 240.633,182.267 240.523 C 182.120 240.413,181.580 240.090,181.067 239.806 C 180.553 239.521,179.533 238.954,178.800 238.547 C 178.067 238.139,177.167 237.593,176.800 237.333 C 176.153 236.875,175.481 236.493,172.144 234.685 C 171.270 234.211,170.231 233.593,169.836 233.312 C 169.441 233.030,168.986 232.800,168.826 232.800 C 168.665 232.800,168.533 232.694,168.533 232.564 C 168.533 232.435,168.323 232.259,168.067 232.173 C 167.810 232.087,166.940 231.637,166.133 231.172 C 165.327 230.707,164.247 230.102,163.733 229.826 C 162.654 229.247,161.791 228.724,161.600 228.533 C 161.420 228.354,160.313 227.724,159.333 227.243 C 158.893 227.027,157.513 226.252,156.267 225.520 C 153.759 224.049,152.717 223.450,150.933 222.456 C 150.273 222.088,149.253 221.465,148.667 221.070 C 148.080 220.676,147.210 220.185,146.733 219.978 C 146.257 219.772,145.867 219.512,145.867 219.402 C 145.867 219.291,145.695 219.200,145.486 219.200 C 144.214 219.200,144.267 220.592,144.267 186.936 C 144.267 152.451,144.161 154.866,145.700 154.086 C 146.305 153.779,146.860 153.453,146.933 153.361 C 147.007 153.268,147.667 152.896,148.400 152.533 C 149.133 152.171,149.793 151.812,149.867 151.737 C 149.940 151.662,150.300 151.430,150.667 151.223 C 151.033 151.015,151.933 150.498,152.667 150.075 C 153.400 149.651,154.210 149.237,154.467 149.154 C 154.723 149.072,154.933 148.921,154.933 148.819 C 154.933 148.716,155.353 148.468,155.867 148.267 C 156.380 148.065,156.800 147.803,156.800 147.684 C 156.800 147.564,156.931 147.467,157.092 147.467 C 157.253 147.467,157.703 147.241,158.092 146.965 C 158.879 146.407,160.093 145.710,162.635 144.358 C 163.571 143.860,164.670 143.216,165.076 142.926 C 165.483 142.637,165.923 142.400,166.054 142.400 C 166.186 142.400,166.443 142.250,166.626 142.067 C 166.809 141.883,167.841 141.253,168.920 140.667 C 169.999 140.080,172.243 138.800,173.907 137.822 C 178.119 135.348,178.493 135.131,181.200 133.609 C 184.541 131.730,185.892 130.942,186.667 130.424 C 187.033 130.179,187.993 129.634,188.800 129.214 C 189.607 128.793,190.585 128.228,190.974 127.958 C 191.364 127.688,191.742 127.467,191.814 127.467 C 191.930 127.467,194.924 125.743,196.000 125.057 C 196.220 124.917,196.850 124.594,197.400 124.338 C 197.950 124.083,198.400 123.782,198.400 123.670 C 198.400 123.198,200.152 123.523,201.425 124.232 " stroke="none" fill="#fbfbfb" fill-rule="evenodd"></path><path id="path2" d="M136.323 26.010 C 136.134 26.225,135.744 26.400,135.456 26.400 C 135.169 26.400,134.933 26.516,134.933 26.658 C 134.933 26.800,134.754 26.848,134.536 26.764 C 134.309 26.677,134.068 26.795,133.974 27.037 C 133.884 27.272,133.717 27.406,133.602 27.335 C 133.488 27.264,133.245 27.385,133.064 27.603 C 132.883 27.821,132.613 28.000,132.465 28.000 C 132.316 28.000,131.941 28.270,131.631 28.600 C 130.773 29.513,129.795 30.067,129.041 30.067 C 128.398 30.067,126.188 31.260,125.837 31.796 C 125.747 31.933,125.598 32.039,125.506 32.030 C 124.866 31.971,122.607 33.443,122.878 33.743 C 122.982 33.858,122.927 33.873,122.757 33.775 C 122.325 33.528,121.566 33.862,121.779 34.207 C 121.889 34.385,121.789 34.427,121.510 34.320 C 121.266 34.227,121.067 34.266,121.067 34.408 C 121.067 34.550,120.935 34.667,120.774 34.667 C 120.613 34.667,120.144 35.027,119.732 35.468 C 119.214 36.023,118.840 36.214,118.515 36.089 C 118.194 35.966,118.107 36.008,118.239 36.221 C 118.345 36.393,118.304 36.548,118.149 36.567 C 117.609 36.630,117.462 36.675,116.603 37.034 C 116.122 37.236,115.817 37.519,115.914 37.676 C 116.023 37.852,115.918 37.892,115.634 37.783 C 115.353 37.675,115.122 37.760,115.028 38.004 C 114.945 38.222,114.709 38.400,114.505 38.400 C 114.300 38.400,114.133 38.534,114.133 38.698 C 114.133 38.864,113.898 38.934,113.600 38.856 C 113.307 38.779,113.067 38.825,113.067 38.958 C 113.067 39.091,112.893 39.200,112.680 39.200 C 112.467 39.200,112.197 39.350,112.080 39.533 C 111.963 39.717,111.327 40.142,110.667 40.478 C 108.703 41.478,108.352 41.723,108.452 42.023 C 108.562 42.353,107.417 42.933,106.654 42.933 C 106.368 42.933,106.133 43.059,106.133 43.212 C 106.133 43.365,105.983 43.466,105.800 43.436 C 105.358 43.363,104.177 43.863,103.708 44.321 C 103.502 44.522,102.613 45.088,101.733 45.579 C 100.853 46.070,100.060 46.586,99.970 46.725 C 99.880 46.865,99.730 46.969,99.637 46.956 C 99.171 46.894,99.100 46.963,99.422 47.167 C 99.662 47.319,99.433 47.447,98.707 47.563 C 97.999 47.676,97.294 48.058,96.622 48.692 C 96.063 49.219,95.364 49.676,95.070 49.707 C 94.199 49.800,91.196 51.511,91.380 51.809 C 91.484 51.977,91.415 52.000,91.201 51.867 C 90.984 51.733,90.726 51.825,90.517 52.110 C 90.333 52.363,90.141 52.548,90.091 52.524 C 89.815 52.386,88.000 53.489,88.000 53.794 C 88.000 53.994,87.790 54.121,87.533 54.078 C 86.826 53.960,86.745 57.474,86.718 89.157 C 86.697 113.471,86.744 117.094,87.080 116.965 C 87.317 116.874,87.467 116.979,87.467 117.237 C 87.467 117.497,87.616 117.600,87.859 117.507 C 88.075 117.424,88.426 117.531,88.640 117.745 C 88.854 117.958,89.247 118.136,89.514 118.139 C 90.124 118.147,91.329 119.054,91.345 119.518 C 91.352 119.710,91.502 119.837,91.679 119.800 C 91.855 119.763,92.000 119.873,92.000 120.044 C 92.000 120.216,92.081 120.274,92.180 120.175 C 92.279 120.076,92.659 120.266,93.023 120.598 C 93.388 120.929,93.587 121.030,93.466 120.821 C 93.300 120.535,93.360 120.486,93.711 120.621 C 93.967 120.720,94.227 120.800,94.288 120.800 C 94.350 120.800,94.400 120.976,94.400 121.192 C 94.400 121.429,94.556 121.523,94.798 121.431 C 95.020 121.345,95.264 121.457,95.351 121.683 C 95.562 122.233,97.600 123.564,97.600 123.153 C 97.600 122.954,97.727 122.991,97.933 123.250 C 98.117 123.481,98.626 123.753,99.065 123.856 C 100.012 124.078,100.585 124.501,100.381 124.830 C 100.301 124.960,100.422 125.067,100.651 125.067 C 100.880 125.067,101.067 125.174,101.067 125.305 C 101.067 125.436,101.253 125.614,101.481 125.702 C 101.715 125.792,101.825 125.748,101.733 125.600 C 101.642 125.452,101.751 125.408,101.985 125.498 C 102.211 125.585,102.326 125.771,102.238 125.912 C 102.151 126.054,102.242 126.147,102.440 126.120 C 103.268 126.006,103.706 126.162,103.852 126.621 C 104.000 127.087,105.991 128.267,106.629 128.267 C 106.796 128.267,106.933 128.411,106.933 128.587 C 106.933 128.836,107.004 128.836,107.253 128.587 C 107.616 128.224,108.104 128.150,107.894 128.490 C 107.604 128.958,108.559 129.894,109.156 129.727 C 109.536 129.620,109.617 129.647,109.392 129.803 C 108.974 130.095,110.262 130.793,111.029 130.690 C 111.302 130.653,111.453 130.740,111.365 130.882 C 111.171 131.196,112.105 131.834,113.200 132.136 C 113.640 132.257,114.090 132.381,114.200 132.412 C 114.310 132.442,114.501 132.482,114.624 132.500 C 114.748 132.518,115.394 133.043,116.062 133.667 C 116.729 134.290,117.858 135.097,118.571 135.460 C 119.283 135.823,119.927 136.183,120.000 136.260 C 120.393 136.672,121.394 137.061,121.652 136.901 C 121.822 136.796,121.875 136.838,121.776 136.998 C 121.596 137.289,122.309 137.719,122.836 137.637 C 123.003 137.612,123.208 137.771,123.293 137.991 C 123.388 138.240,123.618 138.325,123.900 138.217 C 124.202 138.101,124.291 138.145,124.166 138.347 C 124.051 138.534,124.329 138.797,124.890 139.031 C 125.391 139.241,125.883 139.544,125.983 139.706 C 126.083 139.868,126.463 140.000,126.828 140.000 C 127.193 140.000,127.764 140.270,128.097 140.600 C 129.001 141.495,129.733 142.050,129.502 141.667 C 129.368 141.443,129.483 141.333,129.851 141.333 C 130.153 141.333,130.400 141.456,130.400 141.606 C 130.400 141.862,130.911 142.135,132.126 142.526 C 132.566 142.668,132.587 142.736,132.259 142.944 C 131.927 143.153,131.937 143.192,132.320 143.196 C 132.569 143.198,132.869 143.356,132.987 143.547 C 133.293 144.044,134.937 145.152,135.110 144.978 C 135.191 144.898,135.507 145.065,135.812 145.349 C 136.117 145.634,136.525 145.867,136.717 145.867 C 136.909 145.867,137.067 146.000,137.067 146.162 C 137.067 146.324,137.253 146.386,137.481 146.298 C 137.708 146.211,137.831 146.241,137.754 146.366 C 137.677 146.490,138.091 146.807,138.674 147.070 C 139.257 147.333,139.733 147.655,139.733 147.787 C 139.733 147.919,140.329 147.979,141.058 147.921 C 142.486 147.806,146.500 145.711,146.205 145.234 C 146.118 145.092,146.197 145.075,146.389 145.193 C 146.574 145.308,146.803 145.291,146.896 145.156 C 146.990 145.021,147.787 144.557,148.667 144.126 C 149.547 143.695,150.835 142.950,151.531 142.471 C 152.226 141.992,152.893 141.600,153.014 141.600 C 153.134 141.600,153.493 141.357,153.811 141.061 C 154.129 140.765,154.456 140.532,154.537 140.543 C 154.618 140.555,155.550 140.080,156.609 139.489 C 157.667 138.897,158.353 138.400,158.133 138.383 C 157.724 138.353,159.064 137.845,159.667 137.802 C 159.850 137.789,160.000 137.686,160.000 137.574 C 160.000 137.461,160.268 137.284,160.595 137.180 C 161.185 136.993,162.455 136.173,163.145 135.533 C 163.343 135.350,163.706 135.198,163.952 135.196 C 164.288 135.193,164.314 135.137,164.055 134.973 C 163.815 134.821,164.127 134.538,165.080 134.044 C 166.564 133.274,166.777 133.206,166.549 133.575 C 166.467 133.708,166.691 133.679,167.047 133.511 C 167.403 133.343,167.653 133.164,167.603 133.114 C 167.370 132.881,168.602 132.000,169.159 132.000 C 169.503 132.000,170.062 131.760,170.400 131.467 C 170.738 131.173,171.150 130.933,171.315 130.933 C 171.480 130.933,171.825 130.688,172.081 130.389 C 172.338 130.089,172.683 129.928,172.848 130.030 C 173.032 130.143,173.075 130.096,172.959 129.908 C 172.840 129.715,172.964 129.600,173.289 129.600 C 173.575 129.600,173.879 129.420,173.963 129.200 C 174.048 128.980,174.247 128.800,174.407 128.800 C 174.567 128.800,174.616 128.934,174.515 129.097 C 174.414 129.260,174.977 128.989,175.766 128.494 C 176.555 128.000,177.545 127.418,177.966 127.202 C 178.387 126.986,178.787 126.664,178.854 126.488 C 178.922 126.311,179.155 126.235,179.371 126.318 C 179.623 126.415,179.818 126.265,179.913 125.903 C 180.012 125.524,180.401 125.246,181.094 125.059 C 181.662 124.906,182.098 124.635,182.064 124.457 C 182.026 124.268,182.367 124.098,182.882 124.049 C 183.367 124.002,183.830 123.792,183.910 123.582 C 183.991 123.372,184.291 123.200,184.578 123.200 C 184.878 123.200,185.024 123.080,184.922 122.915 C 184.826 122.759,184.908 122.666,185.107 122.709 C 185.523 122.799,187.733 121.606,187.733 121.290 C 187.733 120.923,189.050 120.199,189.896 120.100 C 190.826 119.992,192.137 119.140,192.543 118.381 C 192.695 118.098,192.971 117.867,193.157 117.867 C 193.343 117.867,193.941 117.459,194.485 116.961 L 195.473 116.055 195.463 97.389 L 195.453 78.722 189.793 75.887 C 186.680 74.327,183.255 72.512,182.182 71.854 C 181.109 71.196,180.101 70.738,179.941 70.836 C 179.767 70.944,179.728 70.892,179.842 70.706 C 179.953 70.527,179.830 70.321,179.550 70.218 C 179.284 70.119,179.007 69.958,178.933 69.859 C 178.571 69.371,176.476 68.271,176.216 68.432 C 176.052 68.533,175.989 68.500,176.076 68.359 C 176.217 68.131,175.296 67.384,170.718 64.012 C 170.030 63.506,169.631 63.296,169.833 63.546 C 170.143 63.931,170.143 63.999,169.833 63.992 C 169.249 63.978,168.491 63.286,168.583 62.850 C 168.629 62.630,168.414 62.229,168.104 61.959 C 161.702 56.356,158.767 53.563,155.625 50.088 C 154.190 48.500,153.399 47.818,153.101 47.913 C 152.777 48.015,152.754 47.987,153.013 47.802 C 153.291 47.602,153.278 47.486,152.946 47.210 C 152.644 46.960,152.533 46.953,152.533 47.183 C 152.533 47.356,152.405 47.419,152.248 47.322 C 152.092 47.225,152.026 46.983,152.103 46.783 C 152.232 46.446,151.727 45.721,149.534 43.096 C 149.057 42.525,148.209 41.445,147.649 40.696 C 147.090 39.946,146.391 39.033,146.095 38.667 C 145.800 38.300,144.882 37.015,144.054 35.812 C 143.033 34.327,142.477 33.727,142.324 33.945 C 142.189 34.138,142.166 34.026,142.267 33.667 C 142.360 33.337,142.336 33.067,142.215 33.067 C 142.093 33.067,141.874 32.797,141.727 32.467 C 141.571 32.113,141.272 31.899,140.998 31.945 C 140.742 31.988,140.533 31.891,140.533 31.729 C 140.533 31.568,140.653 31.509,140.800 31.600 C 141.291 31.903,141.078 31.506,139.160 28.545 C 137.231 25.566,136.942 25.308,136.323 26.010 M176.682 136.675 C 176.398 136.890,176.285 137.067,176.431 137.067 C 176.578 137.067,176.931 136.890,177.216 136.675 C 177.500 136.460,177.613 136.284,177.467 136.284 C 177.320 136.284,176.967 136.460,176.682 136.675 M150.533 142.933 C 150.443 143.080,150.196 143.200,149.984 143.200 C 149.773 143.200,149.600 143.080,149.600 142.933 C 149.600 142.787,149.847 142.667,150.149 142.667 C 150.451 142.667,150.624 142.787,150.533 142.933 M231.561 231.198 C 231.246 231.325,230.902 231.568,230.798 231.737 C 230.693 231.907,230.978 231.853,231.437 231.615 C 231.893 231.379,232.267 231.129,232.267 231.060 C 232.267 230.910,232.285 230.906,231.561 231.198 " stroke="none" fill="#6f9cbc" fill-rule="evenodd"></path><path id="path3" d="M136.926 24.769 C 136.637 25.046,135.860 25.573,135.200 25.942 C 134.540 26.310,131.660 27.958,128.800 29.604 C 125.940 31.250,123.049 32.913,122.375 33.299 C 115.698 37.122,113.358 38.541,113.599 38.622 C 113.756 38.674,114.031 38.596,114.209 38.448 C 114.387 38.300,115.313 37.734,116.267 37.190 C 117.220 36.646,118.374 35.987,118.830 35.726 C 119.287 35.464,119.947 35.089,120.297 34.892 C 120.647 34.695,120.993 34.459,121.067 34.368 C 121.140 34.278,121.800 33.886,122.533 33.499 C 123.267 33.112,124.102 32.646,124.390 32.464 C 125.303 31.887,126.750 31.045,128.400 30.132 C 130.525 28.956,131.884 28.187,134.600 26.625 C 135.150 26.309,135.880 25.900,136.223 25.718 C 136.566 25.535,137.023 25.134,137.238 24.826 C 137.724 24.132,137.613 24.112,136.926 24.769 M108.745 41.141 C 104.833 43.417,102.958 44.724,106.160 42.942 C 106.952 42.501,107.960 41.957,108.400 41.733 C 108.840 41.509,109.962 40.847,110.893 40.263 C 111.825 39.678,112.695 39.200,112.827 39.200 C 112.959 39.200,113.067 39.080,113.067 38.933 C 113.067 38.592,113.540 38.350,108.745 41.141 M258.119 42.333 L 257.200 43.333 258.200 42.414 C 259.131 41.559,259.323 41.333,259.119 41.333 C 259.074 41.333,258.624 41.783,258.119 42.333 M103.241 44.314 C 102.239 44.955,97.798 47.547,92.800 50.406 C 90.967 51.455,88.807 52.697,88.000 53.166 L 86.533 54.019 86.466 85.501 C 86.402 115.229,86.424 117.004,86.866 117.383 C 87.123 117.603,91.053 119.920,95.600 122.530 C 105.779 128.375,108.217 129.787,111.555 131.773 C 112.996 132.631,114.258 133.333,114.359 133.333 C 114.460 133.333,114.961 133.611,115.471 133.951 C 117.289 135.161,120.000 136.555,120.000 136.280 C 120.000 136.126,119.885 136.000,119.745 136.000 C 119.605 136.000,118.855 135.621,118.078 135.158 C 117.302 134.694,115.947 133.900,115.067 133.392 C 114.187 132.884,113.047 132.225,112.533 131.928 C 112.020 131.631,110.940 131.026,110.133 130.583 C 109.327 130.139,108.209 129.491,107.649 129.141 C 106.605 128.488,106.271 128.297,103.067 126.529 C 102.040 125.962,101.140 125.431,101.067 125.349 C 100.905 125.168,100.062 124.684,98.179 123.690 C 97.397 123.277,96.437 122.717,96.046 122.445 C 95.654 122.173,94.673 121.606,93.867 121.185 C 93.060 120.763,91.898 120.084,91.285 119.676 C 90.672 119.268,90.102 118.933,90.017 118.933 C 89.933 118.933,89.144 118.484,88.265 117.934 L 86.667 116.935 86.667 85.680 L 86.667 54.425 87.267 54.001 C 88.326 53.253,92.340 50.904,94.343 49.861 C 95.412 49.304,96.432 48.730,96.610 48.586 C 96.788 48.442,97.353 48.084,97.867 47.792 C 98.380 47.499,99.820 46.679,101.067 45.970 C 103.012 44.862,104.637 43.723,104.250 43.738 C 104.186 43.740,103.732 43.999,103.241 44.314 M298.603 60.189 C 298.935 60.252,299.415 60.250,299.670 60.183 C 299.925 60.116,299.653 60.064,299.067 60.067 C 298.480 60.070,298.271 60.125,298.603 60.189 M168.533 62.971 C 168.533 63.352,169.342 63.980,169.846 63.992 C 170.106 63.997,170.029 63.790,169.600 63.333 C 168.927 62.617,168.533 62.483,168.533 62.971 M297.592 66.333 L 295.867 68.133 297.667 66.408 C 299.339 64.805,299.589 64.533,299.392 64.533 C 299.351 64.533,298.541 65.343,297.592 66.333 M269.000 69.255 C 269.330 69.318,269.870 69.318,270.200 69.255 C 270.530 69.191,270.260 69.139,269.600 69.139 C 268.940 69.139,268.670 69.191,269.000 69.255 M195.644 78.578 C 195.547 78.676,195.467 87.118,195.467 97.338 C 195.467 118.059,195.540 117.224,193.656 118.081 C 192.965 118.396,192.040 118.971,191.600 119.360 L 190.800 120.068 192.133 119.322 C 194.124 118.210,195.403 117.386,195.578 117.102 C 195.695 116.912,195.960 78.400,195.844 78.400 C 195.832 78.400,195.742 78.480,195.644 78.578 M282.517 79.267 L 281.733 80.133 282.600 79.350 C 283.408 78.620,283.589 78.400,283.383 78.400 C 283.337 78.400,282.947 78.790,282.517 79.267 M279.458 82.067 L 278.000 83.600 279.533 82.142 C 280.958 80.788,281.189 80.533,280.991 80.533 C 280.949 80.533,280.259 81.223,279.458 82.067 M251.583 103.000 L 250.800 103.867 251.667 103.083 C 252.143 102.653,252.533 102.263,252.533 102.217 C 252.533 102.011,252.313 102.192,251.583 103.000 M189.867 120.276 C 188.802 120.928,184.729 123.240,183.067 124.136 C 182.040 124.689,181.020 125.293,180.800 125.477 C 180.580 125.662,179.950 126.065,179.400 126.373 C 176.752 127.857,176.382 128.071,176.133 128.260 C 175.816 128.501,173.418 129.825,171.733 130.689 C 171.073 131.028,170.473 131.388,170.400 131.490 C 170.327 131.592,169.787 131.938,169.200 132.259 C 168.613 132.579,167.413 133.259,166.533 133.768 C 165.653 134.277,164.513 134.881,164.000 135.110 C 163.487 135.339,163.007 135.603,162.933 135.697 C 162.652 136.055,161.163 137.000,160.595 137.180 C 160.268 137.284,160.000 137.481,160.000 137.618 C 160.000 137.755,159.760 137.867,159.467 137.867 C 159.173 137.867,158.933 137.968,158.933 138.093 C 158.933 138.217,158.453 138.536,157.865 138.801 C 156.910 139.232,155.947 140.000,156.362 140.000 C 156.451 140.000,157.180 139.580,157.982 139.067 C 158.784 138.553,159.505 138.133,159.582 138.133 C 159.660 138.133,160.508 137.653,161.467 137.067 C 162.425 136.480,163.256 136.000,163.312 136.000 C 163.393 136.000,168.479 133.055,170.667 131.742 C 171.402 131.301,184.361 123.824,187.333 122.126 C 188.947 121.205,190.381 120.349,190.520 120.225 C 190.862 119.921,190.386 119.959,189.867 120.276 M202.667 125.453 C 202.667 125.526,203.027 125.772,203.467 126.000 C 203.907 126.228,204.267 126.354,204.267 126.280 C 204.267 126.207,203.907 125.961,203.467 125.733 C 203.027 125.506,202.667 125.380,202.667 125.453 M120.413 136.784 C 120.658 137.026,123.723 138.808,128.133 141.272 C 129.307 141.928,130.571 142.680,130.944 142.944 C 131.873 143.602,134.930 145.203,134.267 144.685 C 133.973 144.456,133.493 144.045,133.200 143.772 C 132.907 143.499,132.367 143.183,132.000 143.069 C 131.633 142.955,131.273 142.788,131.200 142.697 C 131.127 142.607,130.544 142.263,129.905 141.932 C 128.277 141.088,127.090 140.423,126.933 140.267 C 126.736 140.069,125.855 139.539,124.800 138.982 C 122.957 138.009,121.195 136.997,120.947 136.767 C 120.597 136.444,120.086 136.460,120.413 136.784 M154.903 140.474 C 154.553 140.734,153.907 141.124,153.467 141.340 C 152.558 141.787,150.400 143.189,150.400 143.333 C 150.400 143.385,151.550 142.777,152.956 141.981 C 154.361 141.185,155.621 140.533,155.756 140.533 C 155.890 140.533,156.000 140.413,156.000 140.267 C 156.000 139.870,155.616 139.942,154.903 140.474 M147.867 144.491 C 147.427 144.734,147.007 144.999,146.933 145.079 C 146.860 145.160,146.230 145.555,145.533 145.957 C 144.837 146.360,144.267 146.755,144.267 146.837 C 144.267 146.918,144.777 146.686,145.400 146.322 C 146.023 145.958,147.013 145.396,147.600 145.072 C 148.187 144.748,148.781 144.374,148.920 144.242 C 149.317 143.863,148.767 143.993,147.867 144.491 M135.733 145.646 C 137.927 147.002,139.733 147.956,139.733 147.759 C 139.733 147.643,139.236 147.323,138.628 147.049 C 138.019 146.775,137.387 146.427,137.223 146.275 C 136.811 145.896,135.301 145.066,135.026 145.068 C 134.901 145.068,135.220 145.328,135.733 145.646 M143.133 147.353 C 142.730 147.571,142.400 147.807,142.400 147.875 C 142.400 148.133,142.821 147.971,143.467 147.467 C 144.259 146.847,144.140 146.806,143.133 147.353 M144.597 186.851 C 144.562 204.186,144.623 218.424,144.733 218.492 C 144.914 218.604,144.913 196.544,144.730 166.667 C 144.692 160.433,144.632 169.516,144.597 186.851 M243.467 224.557 C 243.024 224.919,242.979 225.010,243.333 224.827 C 244.203 224.377,244.685 224.008,244.400 224.010 C 244.253 224.011,243.833 224.257,243.467 224.557 " stroke="none" fill="#8ea5bd" fill-rule="evenodd"></path><path id="path4" d="M152.533 46.750 C 152.533 46.796,152.923 47.186,153.400 47.617 L 154.267 48.400 153.483 47.533 C 152.753 46.725,152.533 46.544,152.533 46.750 M156.933 51.467 C 157.506 52.053,158.035 52.533,158.108 52.533 C 158.182 52.533,157.773 52.053,157.200 51.467 C 156.627 50.880,156.098 50.400,156.025 50.400 C 155.952 50.400,156.360 50.880,156.933 51.467 M195.397 53.890 C 195.644 54.208,195.746 57.049,195.800 65.224 L 195.873 76.133 195.936 65.166 C 195.995 54.994,195.966 54.172,195.533 53.833 C 195.121 53.509,195.105 53.516,195.397 53.890 M204.123 66.400 C 204.123 73.513,204.158 76.423,204.200 72.867 C 204.242 69.310,204.242 63.490,204.200 59.933 C 204.158 56.377,204.123 59.287,204.123 66.400 M161.322 55.800 C 161.976 56.497,162.546 57.067,162.589 57.067 C 162.789 57.067,162.577 56.827,161.400 55.722 L 160.133 54.533 161.322 55.800 M313.462 83.467 C 313.462 99.087,313.494 105.477,313.533 97.667 C 313.573 89.857,313.573 77.077,313.533 69.267 C 313.494 61.457,313.462 67.847,313.462 83.467 M297.450 66.733 L 296.667 67.600 297.533 66.817 C 298.341 66.087,298.523 65.867,298.317 65.867 C 298.271 65.867,297.881 66.257,297.450 66.733 M174.911 67.030 C 175.267 67.468,176.267 68.129,176.267 67.926 C 176.267 67.875,175.877 67.548,175.400 67.199 C 174.864 66.807,174.677 66.742,174.911 67.030 M223.133 84.993 C 223.610 85.052,224.390 85.052,224.867 84.993 C 225.343 84.934,224.953 84.885,224.000 84.885 C 223.047 84.885,222.657 84.934,223.133 84.993 M251.058 103.800 L 249.467 105.467 251.133 103.875 C 252.050 103.000,252.800 102.250,252.800 102.208 C 252.800 102.011,252.537 102.252,251.058 103.800 M254.262 186.667 C 254.262 203.900,254.294 210.950,254.333 202.333 C 254.372 193.717,254.372 179.617,254.333 171.000 C 254.294 162.383,254.262 169.433,254.262 186.667 M144.880 157.600 C 144.880 158.407,144.930 158.737,144.991 158.333 C 145.052 157.930,145.052 157.270,144.991 156.867 C 144.930 156.463,144.880 156.793,144.880 157.600 M144.929 187.867 C 144.929 203.413,144.961 209.813,145.000 202.087 C 145.039 194.362,145.039 181.642,145.000 173.820 C 144.961 165.999,144.929 172.320,144.929 187.867 " stroke="none" fill="#7c7c94" fill-rule="evenodd"></path><path id="path5" d="M132.594 27.171 C 130.486 28.455,130.083 28.864,131.934 27.841 C 133.287 27.093,134.673 26.142,134.400 26.149 C 134.327 26.151,133.514 26.611,132.594 27.171 M128.333 29.608 C 127.563 30.049,126.933 30.473,126.933 30.550 C 126.933 30.696,129.281 29.409,129.720 29.023 C 130.187 28.612,129.744 28.799,128.333 29.608 M117.933 35.618 C 117.310 35.991,116.800 36.360,116.800 36.437 C 116.800 36.581,118.599 35.559,119.053 35.157 C 119.512 34.752,119.085 34.928,117.933 35.618 M99.267 46.408 C 98.497 46.849,97.867 47.273,97.867 47.350 C 97.867 47.496,100.214 46.209,100.653 45.823 C 101.121 45.412,100.677 45.599,99.267 46.408 M95.407 48.640 C 93.981 49.488,93.808 49.763,95.115 49.103 C 95.729 48.794,96.306 48.419,96.398 48.270 C 96.609 47.928,96.598 47.932,95.407 48.640 M257.600 48.083 C 257.600 48.129,257.990 48.519,258.467 48.950 L 259.333 49.733 258.550 48.867 C 257.820 48.059,257.600 47.877,257.600 48.083 M88.193 52.782 C 86.340 53.837,86.008 54.294,87.801 53.323 C 88.638 52.870,89.393 52.387,89.477 52.249 C 89.672 51.935,89.708 51.920,88.193 52.782 M86.262 84.800 C 86.262 100.713,86.294 107.223,86.333 99.267 C 86.373 91.310,86.373 78.290,86.333 70.333 C 86.294 62.377,86.262 68.887,86.262 84.800 M195.860 98.000 C 195.860 108.267,195.893 112.428,195.933 107.247 C 195.974 102.066,195.974 93.666,195.933 88.580 C 195.893 83.495,195.860 87.733,195.860 98.000 M215.800 84.717 C 216.057 84.784,216.477 84.784,216.733 84.717 C 216.990 84.650,216.780 84.595,216.267 84.595 C 215.753 84.595,215.543 84.650,215.800 84.717 M268.267 99.283 C 268.267 99.329,268.657 99.719,269.133 100.150 L 270.000 100.933 269.217 100.067 C 268.487 99.259,268.267 99.077,268.267 99.283 M253.183 101.400 L 252.400 102.267 253.267 101.483 C 253.743 101.053,254.133 100.663,254.133 100.617 C 254.133 100.411,253.913 100.592,253.183 101.400 M86.164 116.425 C 86.147 116.733,86.403 117.213,86.733 117.492 C 87.328 117.996,87.330 117.996,86.894 117.467 C 86.653 117.173,86.397 116.693,86.325 116.400 C 86.200 115.887,86.194 115.888,86.164 116.425 M195.172 117.423 C 194.790 117.740,194.250 118.152,193.972 118.337 C 193.694 118.523,193.827 118.502,194.267 118.291 C 195.317 117.787,196.166 117.144,196.000 116.978 C 195.926 116.905,195.554 117.105,195.172 117.423 M88.533 118.643 C 88.900 118.943,89.320 119.189,89.467 119.190 C 89.752 119.192,89.270 118.823,88.400 118.373 C 88.046 118.190,88.091 118.281,88.533 118.643 M190.533 120.267 C 190.093 120.558,189.853 120.795,190.000 120.792 C 190.267 120.788,191.717 119.749,191.467 119.741 C 191.393 119.739,190.973 119.975,190.533 120.267 M92.533 120.920 C 92.533 120.993,92.893 121.239,93.333 121.467 C 93.773 121.694,94.133 121.820,94.133 121.747 C 94.133 121.674,93.773 121.428,93.333 121.200 C 92.893 120.972,92.533 120.846,92.533 120.920 M185.133 123.351 C 184.510 123.725,184.000 124.093,184.000 124.170 C 184.000 124.314,185.799 123.292,186.253 122.891 C 186.712 122.485,186.285 122.661,185.133 123.351 M182.333 124.953 C 181.336 125.493,181.397 125.719,182.400 125.200 C 182.840 124.972,183.200 124.729,183.200 124.660 C 183.200 124.488,183.171 124.498,182.333 124.953 M100.533 125.576 C 100.900 125.876,101.320 126.122,101.467 126.123 C 101.752 126.125,101.270 125.756,100.400 125.307 C 100.046 125.123,100.091 125.214,100.533 125.576 M180.467 126.019 C 179.470 126.560,179.530 126.785,180.533 126.267 C 180.973 126.039,181.333 125.796,181.333 125.726 C 181.333 125.555,181.305 125.565,180.467 126.019 M102.667 126.789 C 102.667 126.862,103.147 127.167,103.733 127.467 C 104.320 127.766,104.800 127.951,104.800 127.878 C 104.800 127.804,104.320 127.499,103.733 127.200 C 103.147 126.901,102.667 126.716,102.667 126.789 M105.200 128.194 C 105.347 128.333,105.947 128.718,106.533 129.047 C 107.120 129.376,107.360 129.446,107.067 129.203 C 106.471 128.707,104.782 127.794,105.200 128.194 M172.715 130.506 C 171.862 130.996,171.022 131.541,170.849 131.718 C 170.675 131.896,171.403 131.541,172.467 130.931 C 173.530 130.320,174.400 129.771,174.400 129.710 C 174.400 129.542,174.375 129.554,172.715 130.506 M108.267 129.986 C 108.267 130.060,108.627 130.306,109.067 130.533 C 109.507 130.761,109.867 130.887,109.867 130.814 C 109.867 130.740,109.507 130.494,109.067 130.267 C 108.627 130.039,108.267 129.913,108.267 129.986 M110.133 131.053 C 110.133 131.126,110.493 131.372,110.933 131.600 C 111.373 131.828,111.733 131.954,111.733 131.880 C 111.733 131.807,111.373 131.561,110.933 131.333 C 110.493 131.106,110.133 130.980,110.133 131.053 M169.007 132.640 C 167.611 133.470,167.390 133.775,168.667 133.110 C 170.003 132.413,170.612 132.002,170.267 132.029 C 170.120 132.041,169.553 132.316,169.007 132.640 M117.067 135.053 C 117.067 135.126,117.427 135.372,117.867 135.600 C 118.307 135.828,118.667 135.954,118.667 135.880 C 118.667 135.807,118.307 135.561,117.867 135.333 C 117.427 135.106,117.067 134.980,117.067 135.053 M118.933 136.120 C 118.933 136.193,119.293 136.439,119.733 136.667 C 120.173 136.894,120.533 137.020,120.533 136.947 C 120.533 136.874,120.173 136.628,119.733 136.400 C 119.293 136.172,118.933 136.046,118.933 136.120 M121.600 137.720 C 121.600 137.793,121.960 138.039,122.400 138.267 C 122.840 138.494,123.200 138.620,123.200 138.547 C 123.200 138.474,122.840 138.228,122.400 138.000 C 121.960 137.772,121.600 137.646,121.600 137.720 M124.400 139.341 C 124.693 139.579,125.293 139.951,125.733 140.167 C 126.481 140.534,126.499 140.531,126.000 140.126 C 125.707 139.888,125.107 139.516,124.667 139.300 C 123.919 138.933,123.901 138.936,124.400 139.341 M127.733 141.159 C 127.733 141.227,128.303 141.614,129.000 142.019 C 129.697 142.424,130.567 142.929,130.933 143.142 L 131.600 143.530 131.000 143.032 C 130.300 142.449,127.733 140.979,127.733 141.159 M151.400 142.819 C 150.403 143.360,150.464 143.585,151.467 143.067 C 151.907 142.839,152.267 142.596,152.267 142.526 C 152.267 142.355,152.238 142.365,151.400 142.819 M134.133 144.922 C 134.133 144.996,134.613 145.301,135.200 145.600 C 135.787 145.899,136.267 146.084,136.267 146.011 C 136.267 145.938,135.787 145.633,135.200 145.333 C 134.613 145.034,134.133 144.849,134.133 144.922 M137.867 147.053 C 137.867 147.126,138.227 147.372,138.667 147.600 C 139.107 147.828,139.467 147.954,139.467 147.880 C 139.467 147.807,139.107 147.561,138.667 147.333 C 138.227 147.106,137.867 146.980,137.867 147.053 M254.529 185.733 C 254.529 202.600,254.561 209.461,254.600 200.979 C 254.639 192.498,254.639 178.698,254.600 170.313 C 254.561 161.927,254.529 168.867,254.529 185.733 " stroke="none" fill="#bcc4d6" fill-rule="evenodd"></path><path id="path6" d="M256.198 22.910 C 255.102 23.613,254.950 23.860,255.916 23.369 C 256.384 23.132,256.841 22.816,256.932 22.669 C 257.146 22.323,257.082 22.344,256.198 22.910 M135.762 25.073 C 133.640 26.377,133.301 26.714,135.067 25.764 C 136.319 25.090,137.895 24.004,137.600 24.018 C 137.527 24.022,136.699 24.497,135.762 25.073 M132.920 26.637 C 132.677 26.865,128.651 29.217,126.133 30.603 C 125.473 30.966,124.753 31.446,124.533 31.669 C 124.025 32.185,124.185 32.105,126.933 30.479 C 128.180 29.741,130.190 28.570,131.400 27.876 C 132.610 27.183,133.600 26.567,133.600 26.508 C 133.600 26.314,133.179 26.394,132.920 26.637 M247.667 27.886 C 246.670 28.427,246.730 28.652,247.733 28.133 C 248.173 27.906,248.533 27.663,248.533 27.593 C 248.533 27.422,248.505 27.431,247.667 27.886 M123.200 32.360 C 122.833 32.556,122.083 32.975,121.533 33.292 C 120.983 33.608,120.083 34.118,119.533 34.425 C 118.983 34.732,118.413 35.107,118.267 35.258 C 118.120 35.409,118.600 35.205,119.333 34.805 C 122.579 33.034,124.000 32.213,124.000 32.110 C 124.000 31.947,123.931 31.969,123.200 32.360 M280.267 33.986 C 280.267 34.060,280.627 34.306,281.067 34.533 C 281.507 34.761,281.867 34.887,281.867 34.814 C 281.867 34.740,281.507 34.494,281.067 34.267 C 280.627 34.039,280.267 33.913,280.267 33.986 M234.437 35.476 C 233.610 36.164,233.984 36.156,234.861 35.467 C 235.233 35.173,235.432 34.937,235.303 34.942 C 235.173 34.947,234.783 35.187,234.437 35.476 M116.867 35.997 C 115.973 36.542,115.635 37.019,116.467 36.562 C 117.086 36.222,118.035 35.486,117.867 35.476 C 117.793 35.472,117.343 35.706,116.867 35.997 M113.950 37.687 C 112.123 38.804,111.768 39.235,113.467 38.273 C 115.171 37.307,115.921 36.795,115.593 36.820 C 115.450 36.832,114.711 37.222,113.950 37.687 M227.600 39.467 C 227.160 39.758,226.920 39.995,227.067 39.992 C 227.334 39.988,228.784 38.949,228.533 38.941 C 228.460 38.939,228.040 39.175,227.600 39.467 M109.507 40.200 C 109.438 40.310,108.741 40.735,107.958 41.145 C 107.174 41.555,106.233 42.140,105.867 42.444 L 105.200 42.997 105.867 42.609 C 106.233 42.396,107.343 41.772,108.333 41.221 C 109.323 40.671,110.133 40.171,110.133 40.110 C 110.133 39.920,109.637 39.991,109.507 40.200 M224.416 41.208 C 224.131 41.424,224.018 41.600,224.165 41.600 C 224.311 41.600,224.664 41.424,224.949 41.208 C 225.234 40.993,225.347 40.817,225.200 40.817 C 225.053 40.817,224.700 40.993,224.416 41.208 M258.257 42.467 L 256.933 43.867 258.333 42.543 C 259.634 41.314,259.856 41.067,259.657 41.067 C 259.614 41.067,258.984 41.697,258.257 42.467 M101.200 44.975 C 100.320 45.486,99.480 46.034,99.333 46.193 C 99.045 46.506,102.634 44.614,103.053 44.231 C 103.593 43.739,102.746 44.079,101.200 44.975 M179.467 44.120 C 179.467 44.193,179.827 44.439,180.267 44.667 C 180.707 44.894,181.067 45.020,181.067 44.947 C 181.067 44.874,180.707 44.628,180.267 44.400 C 179.827 44.172,179.467 44.046,179.467 44.120 M97.067 47.489 L 96.400 48.032 97.267 47.609 C 97.743 47.377,98.133 47.129,98.133 47.060 C 98.133 46.795,97.709 46.965,97.067 47.489 M90.981 50.919 C 88.734 52.220,86.664 53.495,86.381 53.751 C 85.847 54.234,85.543 116.460,86.071 117.213 C 86.368 117.637,88.014 118.741,88.149 118.607 C 88.213 118.542,87.816 118.198,87.267 117.842 L 86.267 117.195 86.200 85.913 C 86.159 66.443,86.230 54.451,86.388 54.155 C 86.528 53.894,87.983 52.929,89.621 52.012 C 93.584 49.793,95.659 48.533,95.333 48.544 C 95.187 48.548,93.228 49.617,90.981 50.919 M310.933 51.747 C 311.628 52.220,312.800 52.818,312.800 52.700 C 312.800 52.552,310.960 51.465,310.718 51.471 C 310.616 51.473,310.713 51.597,310.933 51.747 M204.172 53.024 C 203.769 53.470,203.735 54.684,203.800 66.291 L 203.872 79.067 203.936 66.215 L 204.000 53.364 204.593 52.948 C 204.919 52.720,205.057 52.533,204.901 52.533 C 204.744 52.533,204.416 52.754,204.172 53.024 M313.729 85.200 C 313.729 102.653,313.761 109.754,313.800 100.979 C 313.839 92.205,313.839 77.925,313.800 69.246 C 313.761 60.567,313.729 67.747,313.729 85.200 M298.603 60.455 C 298.935 60.519,299.415 60.517,299.670 60.450 C 299.925 60.383,299.653 60.331,299.067 60.334 C 298.480 60.337,298.271 60.391,298.603 60.455 M282.800 65.209 C 282.133 65.531,282.111 65.568,282.667 65.432 C 283.422 65.247,284.272 64.814,283.867 64.820 C 283.720 64.822,283.240 64.997,282.800 65.209 M252.133 67.200 C 251.693 67.491,251.453 67.728,251.600 67.726 C 251.867 67.721,253.317 66.682,253.067 66.674 C 252.993 66.672,252.573 66.909,252.133 67.200 M267.467 69.333 C 267.833 69.451,268.373 69.547,268.667 69.547 C 269.089 69.547,269.061 69.502,268.533 69.333 C 268.167 69.216,267.627 69.120,267.333 69.120 C 266.911 69.120,266.939 69.164,267.467 69.333 M293.052 70.067 L 292.133 71.067 293.133 70.148 C 293.683 69.642,294.133 69.192,294.133 69.148 C 294.133 68.944,293.908 69.136,293.052 70.067 M196.127 97.467 C 196.127 108.320,196.160 112.721,196.200 107.247 C 196.240 101.773,196.240 92.893,196.200 87.514 C 196.160 82.134,196.127 86.613,196.127 97.467 M280.921 80.333 L 279.867 81.467 281.063 80.400 C 281.720 79.813,282.310 79.303,282.374 79.267 C 282.437 79.230,282.373 79.200,282.232 79.200 C 282.091 79.200,281.501 79.710,280.921 80.333 M203.488 80.718 C 203.476 81.332,203.562 81.894,203.678 81.966 C 203.794 82.037,203.845 81.654,203.792 81.115 C 203.646 79.639,203.511 79.463,203.488 80.718 M213.733 84.521 C 214.245 84.753,215.674 84.904,215.444 84.702 C 215.383 84.648,214.853 84.531,214.267 84.442 C 213.523 84.328,213.362 84.352,213.733 84.521 M233.200 84.533 C 232.474 84.718,232.462 84.738,233.067 84.750 C 233.433 84.757,233.973 84.659,234.267 84.533 C 234.924 84.251,234.310 84.251,233.200 84.533 M219.407 85.262 C 220.034 85.319,220.994 85.318,221.540 85.261 C 222.087 85.203,221.573 85.157,220.400 85.158 C 219.227 85.159,218.780 85.206,219.407 85.262 M226.607 85.262 C 227.234 85.319,228.194 85.318,228.740 85.261 C 229.287 85.203,228.773 85.157,227.600 85.158 C 226.427 85.159,225.980 85.206,226.607 85.262 M258.453 96.823 C 257.837 97.276,257.333 97.703,257.333 97.773 C 257.333 97.843,257.873 97.512,258.533 97.038 C 259.612 96.263,259.896 96.000,259.653 96.000 C 259.608 96.000,259.068 96.370,258.453 96.823 M266.133 96.617 C 266.133 96.663,266.516 97.053,266.983 97.483 L 267.833 98.267 267.183 97.415 C 266.631 96.691,266.133 96.313,266.133 96.617 M252.657 101.667 L 251.333 103.067 252.794 101.733 C 253.598 101.000,254.308 100.370,254.372 100.333 C 254.436 100.297,254.374 100.267,254.234 100.267 C 254.094 100.267,253.384 100.897,252.657 101.667 M249.721 104.600 L 248.667 105.733 249.800 104.679 C 250.854 103.699,251.056 103.467,250.854 103.467 C 250.811 103.467,250.301 103.977,249.721 104.600 M247.619 106.908 L 246.839 107.867 247.739 107.009 C 248.234 106.537,248.585 106.105,248.520 106.050 C 248.454 105.995,248.049 106.381,247.619 106.908 M267.840 116.067 C 267.734 116.250,267.745 116.312,267.864 116.204 C 267.983 116.096,268.236 116.216,268.427 116.471 C 268.740 116.889,268.759 116.876,268.622 116.333 C 268.455 115.668,268.132 115.558,267.840 116.067 M269.342 118.062 C 269.353 118.338,270.668 119.821,270.792 119.697 C 270.845 119.644,270.539 119.208,270.111 118.729 C 269.683 118.250,269.337 117.950,269.342 118.062 M193.800 118.553 C 193.397 118.771,193.067 119.007,193.067 119.075 C 193.067 119.333,193.488 119.171,194.133 118.667 C 194.926 118.047,194.807 118.006,193.800 118.553 M89.480 119.442 C 89.619 119.574,90.153 119.920,90.667 120.209 C 91.180 120.498,92.380 121.184,93.333 121.733 C 94.287 122.283,95.487 122.970,96.000 123.261 C 96.513 123.552,97.086 123.914,97.273 124.066 C 97.460 124.218,97.679 124.276,97.760 124.195 C 97.842 124.114,97.029 123.543,95.954 122.926 C 94.879 122.309,93.008 121.218,91.796 120.502 C 89.704 119.266,88.919 118.906,89.480 119.442 M191.933 119.619 C 191.530 119.838,191.200 120.073,191.200 120.142 C 191.200 120.399,191.621 120.238,192.267 119.733 C 193.059 119.113,192.940 119.073,191.933 119.619 M262.861 121.091 C 262.368 121.378,262.467 121.870,263.016 121.863 C 263.207 121.860,263.174 121.755,262.933 121.600 C 262.591 121.379,262.601 121.341,263.000 121.337 C 263.257 121.335,263.467 121.213,263.467 121.067 C 263.467 120.745,263.455 120.745,262.861 121.091 M305.800 121.351 C 305.250 121.642,304.800 121.939,304.800 122.012 C 304.800 122.085,305.280 121.899,305.867 121.600 C 306.453 121.301,306.933 120.998,306.933 120.928 C 306.933 120.753,306.931 120.754,305.800 121.351 M188.733 121.486 C 187.736 122.027,187.797 122.252,188.800 121.733 C 189.240 121.506,189.600 121.263,189.600 121.193 C 189.600 121.022,189.571 121.031,188.733 121.486 M186.667 122.667 C 186.300 122.953,186.120 123.188,186.267 123.188 C 186.413 123.188,186.833 122.953,187.200 122.667 C 187.567 122.380,187.747 122.145,187.600 122.145 C 187.453 122.145,187.033 122.380,186.667 122.667 M264.294 122.467 C 264.358 122.503,265.008 123.073,265.738 123.733 L 267.067 124.933 265.878 123.667 C 265.224 122.970,264.574 122.400,264.433 122.400 C 264.293 122.400,264.230 122.430,264.294 122.467 M270.652 123.400 L 269.733 124.400 270.797 123.467 C 271.382 122.953,271.912 122.503,271.975 122.467 C 272.038 122.430,271.972 122.400,271.830 122.400 C 271.688 122.400,271.158 122.850,270.652 123.400 M184.933 123.733 C 184.493 124.025,184.253 124.261,184.400 124.259 C 184.667 124.255,186.117 123.216,185.867 123.208 C 185.793 123.205,185.373 123.442,184.933 123.733 M98.391 124.656 C 98.569 124.871,98.974 125.125,99.291 125.221 C 99.608 125.318,100.077 125.581,100.335 125.808 C 100.593 126.034,100.869 126.154,100.948 126.074 C 101.086 125.937,98.574 124.267,98.230 124.267 C 98.141 124.267,98.214 124.442,98.391 124.656 M182.133 125.304 C 181.180 125.863,178.571 127.380,176.336 128.675 C 174.101 129.969,172.317 131.073,172.371 131.126 C 172.425 131.180,173.060 130.876,173.782 130.450 C 174.504 130.024,175.628 129.376,176.281 129.009 C 178.377 127.830,179.291 127.302,181.422 126.038 C 182.571 125.357,183.621 124.800,183.755 124.800 C 183.890 124.800,184.000 124.680,184.000 124.533 C 184.000 124.188,184.128 124.135,182.133 125.304 M202.133 124.813 C 203.058 125.441,203.585 125.624,202.933 125.090 C 202.567 124.791,202.147 124.544,202.000 124.543 C 201.853 124.542,201.913 124.664,202.133 124.813 M194.184 126.055 C 193.552 126.423,193.090 126.779,193.157 126.846 C 193.224 126.913,193.861 126.603,194.573 126.156 C 196.122 125.183,195.818 125.105,194.184 126.055 M203.867 125.793 C 204.013 125.932,204.733 126.373,205.467 126.773 C 206.200 127.173,206.560 127.303,206.267 127.063 C 205.670 126.573,203.449 125.398,203.867 125.793 M101.799 126.606 C 102.128 126.859,102.968 127.359,103.665 127.717 C 104.363 128.075,105.449 128.705,106.080 129.117 C 106.711 129.529,107.282 129.867,107.349 129.867 C 107.416 129.867,108.640 130.546,110.069 131.376 C 111.498 132.206,113.387 133.304,114.267 133.815 C 115.147 134.326,116.767 135.250,117.867 135.867 C 118.967 136.485,120.679 137.487,121.671 138.095 C 122.664 138.703,123.564 139.203,123.671 139.206 C 123.779 139.209,124.167 139.447,124.533 139.733 C 124.900 140.020,125.317 140.257,125.459 140.261 C 125.798 140.268,124.913 139.656,123.005 138.561 C 122.159 138.076,120.387 137.046,119.067 136.273 C 117.747 135.500,115.767 134.360,114.667 133.740 C 109.830 131.013,102.245 126.598,102.013 126.376 C 101.874 126.243,101.634 126.136,101.480 126.139 C 101.326 126.143,101.469 126.353,101.799 126.606 M187.733 129.770 C 186.173 130.655,185.688 131.151,187.067 130.450 C 188.099 129.926,189.338 129.081,189.067 129.086 C 188.993 129.088,188.393 129.396,187.733 129.770 M235.086 131.086 C 234.988 131.477,234.959 131.848,235.022 131.911 C 235.085 131.973,235.216 131.705,235.314 131.314 C 235.412 130.923,235.441 130.552,235.378 130.489 C 235.315 130.427,235.184 130.695,235.086 131.086 M165.126 135.123 C 161.418 137.259,158.435 139.057,158.495 139.117 C 158.555 139.178,159.609 138.638,160.836 137.918 C 162.063 137.198,163.607 136.305,164.267 135.935 C 164.927 135.564,166.667 134.569,168.133 133.722 C 169.600 132.876,171.069 132.052,171.398 131.892 C 171.727 131.731,171.997 131.510,171.998 131.400 C 172.001 131.136,172.713 130.751,165.126 135.123 M216.556 133.154 C 217.009 133.509,218.667 134.417,218.667 134.310 C 218.667 134.138,216.936 133.067,216.657 133.067 C 216.540 133.067,216.494 133.106,216.556 133.154 M179.684 134.409 C 179.143 134.695,178.631 135.043,178.544 135.182 C 178.458 135.322,178.930 135.133,179.594 134.762 C 180.257 134.391,180.800 134.038,180.800 133.977 C 180.800 133.822,180.781 133.830,179.684 134.409 M221.867 136.120 C 221.867 136.193,222.227 136.439,222.667 136.667 C 223.107 136.894,223.467 137.020,223.467 136.947 C 223.467 136.874,223.107 136.628,222.667 136.400 C 222.227 136.172,221.867 136.046,221.867 136.120 M174.215 137.581 C 171.900 138.936,171.753 139.219,174.000 137.994 C 176.122 136.837,176.128 136.833,175.978 136.707 C 175.917 136.656,175.123 137.049,174.215 137.581 M157.200 139.733 C 156.760 140.025,156.520 140.261,156.667 140.259 C 156.934 140.255,158.384 139.216,158.133 139.208 C 158.060 139.205,157.640 139.442,157.200 139.733 M125.977 140.497 C 126.067 140.642,127.154 141.313,128.393 141.988 C 129.632 142.664,130.717 143.333,130.805 143.475 C 130.893 143.617,131.168 143.733,131.416 143.733 C 131.855 143.732,130.542 142.879,127.374 141.105 C 126.516 140.625,125.887 140.351,125.977 140.497 M154.133 141.480 C 153.033 142.132,151.551 142.974,150.840 143.351 C 150.129 143.728,149.605 144.094,149.675 144.164 C 149.808 144.297,150.958 143.699,152.726 142.580 C 153.280 142.229,154.303 141.620,155.000 141.226 C 155.697 140.833,156.267 140.456,156.267 140.389 C 156.267 140.211,156.307 140.190,154.133 141.480 M167.920 141.185 C 167.363 141.516,166.763 141.936,166.587 142.118 C 166.318 142.396,168.982 140.950,169.311 140.638 C 169.632 140.335,168.805 140.660,167.920 141.185 M229.867 140.813 C 230.792 141.441,231.318 141.624,230.667 141.090 C 230.300 140.791,229.880 140.544,229.733 140.543 C 229.587 140.542,229.647 140.664,229.867 140.813 M271.400 141.219 C 270.403 141.760,270.464 141.985,271.467 141.467 C 271.907 141.239,272.267 140.996,272.267 140.926 C 272.267 140.755,272.238 140.765,271.400 141.219 M232.000 141.997 C 232.000 142.180,233.633 142.989,233.755 142.867 C 233.813 142.810,233.441 142.563,232.930 142.319 C 232.418 142.075,232.000 141.930,232.000 141.997 M132.933 144.478 C 133.169 144.728,134.191 145.337,137.600 147.258 C 138.113 147.547,138.647 147.892,138.787 148.025 C 138.926 148.158,139.224 148.267,139.449 148.267 C 139.853 148.267,138.165 147.221,134.533 145.223 C 133.507 144.658,132.787 144.323,132.933 144.478 M147.800 145.095 C 147.030 145.543,146.400 145.972,146.400 146.047 C 146.400 146.195,148.772 144.877,149.187 144.498 C 149.639 144.085,149.228 144.262,147.800 145.095 M161.265 145.044 C 160.199 145.727,160.002 146.004,160.933 145.510 C 162.051 144.918,162.581 144.539,162.267 144.557 C 162.120 144.565,161.669 144.784,161.265 145.044 M253.600 145.704 C 253.600 145.840,255.166 146.767,255.800 147.007 C 256.695 147.345,256.257 146.984,254.933 146.292 C 254.200 145.909,253.600 145.644,253.600 145.704 M158.933 146.400 C 158.567 146.687,158.387 146.921,158.533 146.921 C 158.680 146.921,159.100 146.687,159.467 146.400 C 159.833 146.113,160.013 145.879,159.867 145.879 C 159.720 145.879,159.300 146.113,158.933 146.400 M145.267 146.553 C 144.863 146.771,144.533 147.007,144.533 147.075 C 144.533 147.333,144.955 147.171,145.600 146.667 C 146.392 146.047,146.274 146.006,145.267 146.553 M143.400 147.619 C 142.997 147.838,142.667 148.073,142.667 148.142 C 142.667 148.399,143.088 148.238,143.733 147.733 C 144.526 147.113,144.407 147.073,143.400 147.619 M141.982 148.563 C 141.871 148.742,141.416 148.797,140.833 148.704 C 140.165 148.596,139.990 148.627,140.267 148.803 C 140.864 149.184,141.758 149.119,142.133 148.667 C 142.316 148.447,142.398 148.267,142.315 148.267 C 142.232 148.267,142.082 148.400,141.982 148.563 M251.867 153.260 C 252.013 153.400,252.613 153.784,253.200 154.114 C 253.787 154.443,254.027 154.513,253.733 154.269 C 253.138 153.774,251.448 152.861,251.867 153.260 M145.533 154.151 C 144.983 154.442,144.533 154.739,144.533 154.812 C 144.533 154.885,145.013 154.699,145.600 154.400 C 146.187 154.101,146.667 153.798,146.667 153.728 C 146.667 153.553,146.665 153.554,145.533 154.151 M144.396 186.800 C 144.396 204.253,144.428 211.354,144.467 202.579 C 144.506 193.805,144.506 179.525,144.467 170.846 C 144.428 162.167,144.396 169.347,144.396 186.800 M149.333 221.435 C 149.333 221.635,151.263 222.692,151.393 222.563 C 151.462 222.494,151.027 222.186,150.426 221.880 C 149.825 221.573,149.333 221.373,149.333 221.435 M247.400 222.553 C 246.997 222.771,246.667 223.007,246.667 223.075 C 246.667 223.333,247.088 223.171,247.733 222.667 C 248.526 222.047,248.407 222.006,247.400 222.553 M154.400 224.393 C 154.400 224.463,154.790 224.710,155.267 224.943 L 156.133 225.365 155.467 224.822 C 154.825 224.299,154.400 224.128,154.400 224.393 M156.400 225.521 C 156.547 225.672,157.267 226.131,158.000 226.542 C 158.733 226.952,159.213 227.164,159.067 227.013 C 158.920 226.861,158.200 226.402,157.467 225.992 C 156.733 225.581,156.253 225.369,156.400 225.521 M162.896 229.318 C 163.242 229.620,163.652 229.867,163.807 229.867 C 164.135 229.867,164.120 229.853,163.067 229.237 L 162.267 228.768 162.896 229.318 M233.800 230.418 C 233.250 230.709,232.800 231.006,232.800 231.078 C 232.800 231.151,233.280 230.966,233.867 230.667 C 234.453 230.367,234.933 230.065,234.933 229.995 C 234.933 229.820,234.931 229.821,233.800 230.418 M227.785 233.882 C 225.456 235.257,225.338 235.506,227.600 234.273 C 229.680 233.139,229.734 233.103,229.578 232.978 C 229.517 232.929,228.710 233.336,227.785 233.882 M170.667 233.843 C 171.033 234.143,171.453 234.389,171.600 234.390 C 171.885 234.392,171.403 234.023,170.533 233.573 C 170.179 233.390,170.224 233.481,170.667 233.843 M221.333 237.612 C 220.673 238.040,220.208 238.392,220.300 238.395 C 220.530 238.402,222.933 237.047,222.933 236.911 C 222.933 236.670,222.481 236.868,221.333 237.612 M177.213 237.575 C 177.353 237.709,178.067 238.137,178.800 238.527 C 179.804 239.061,179.969 239.101,179.467 238.691 C 179.100 238.391,178.665 238.143,178.499 238.139 C 178.334 238.136,178.049 237.953,177.867 237.733 C 177.684 237.513,177.405 237.333,177.247 237.333 C 177.067 237.333,177.054 237.423,177.213 237.575 M214.067 241.753 C 213.663 241.971,213.333 242.207,213.333 242.275 C 213.333 242.533,213.755 242.371,214.400 241.867 C 215.192 241.247,215.074 241.206,214.067 241.753 M185.600 242.376 C 185.967 242.676,186.387 242.922,186.533 242.923 C 186.819 242.925,186.336 242.556,185.467 242.107 C 185.112 241.923,185.157 242.014,185.600 242.376 M189.067 244.393 C 189.067 244.463,189.457 244.710,189.933 244.943 L 190.800 245.365 190.133 244.822 C 189.491 244.299,189.067 244.128,189.067 244.393 M208.933 244.800 C 208.493 245.091,208.253 245.328,208.400 245.326 C 208.667 245.321,210.117 244.282,209.867 244.274 C 209.793 244.272,209.373 244.509,208.933 244.800 M206.863 245.979 C 205.399 246.862,205.274 247.119,206.667 246.381 C 208.161 245.588,208.111 245.622,207.976 245.487 C 207.914 245.425,207.413 245.646,206.863 245.979 M192.267 246.237 C 192.487 246.452,193.627 247.123,194.800 247.727 C 197.339 249.034,196.967 248.717,194.000 247.046 C 192.827 246.385,192.047 246.021,192.267 246.237 M204.200 247.485 C 203.650 247.775,203.200 248.072,203.200 248.145 C 203.200 248.218,203.680 248.033,204.267 247.733 C 204.853 247.434,205.333 247.132,205.333 247.061 C 205.333 246.887,205.331 246.888,204.200 247.485 M201.471 249.060 C 201.188 249.518,199.505 250.188,199.147 249.985 C 198.872 249.829,198.868 249.861,199.126 250.140 C 199.394 250.429,199.669 250.380,200.674 249.863 C 201.899 249.233,202.398 248.800,201.898 248.800 C 201.751 248.800,201.559 248.917,201.471 249.060 " stroke="none" fill="#c9d7e8" fill-rule="evenodd"></path><path id="path7" d="M135.616 26.008 C 135.331 26.224,135.231 26.400,135.394 26.400 C 135.900 26.400,136.533 26.088,136.533 25.838 C 136.533 25.498,136.212 25.557,135.616 26.008 M130.333 29.017 C 129.132 29.685,128.734 30.133,129.343 30.133 C 129.686 30.133,130.901 29.355,131.529 28.733 C 132.166 28.102,131.842 28.179,130.333 29.017 M118.976 35.596 C 118.633 35.785,118.471 36.012,118.615 36.102 C 118.760 36.191,119.160 36.028,119.506 35.741 C 120.211 35.153,119.923 35.074,118.976 35.596 M107.467 42.267 C 107.284 42.487,106.939 42.676,106.701 42.688 C 106.404 42.702,106.376 42.753,106.614 42.848 C 107.032 43.015,108.533 42.431,108.533 42.101 C 108.533 41.723,107.827 41.832,107.467 42.267 M257.333 48.083 C 257.333 48.129,257.723 48.519,258.200 48.950 L 259.067 49.733 258.283 48.867 C 257.553 48.059,257.333 47.877,257.333 48.083 M95.067 49.511 C 94.598 49.887,94.593 49.918,95.022 49.769 C 95.290 49.676,95.620 49.600,95.755 49.600 C 95.890 49.600,96.000 49.480,96.000 49.333 C 96.000 48.956,95.685 49.016,95.067 49.511 M157.867 52.617 C 157.867 52.663,158.257 53.053,158.733 53.483 L 159.600 54.267 158.817 53.400 C 158.087 52.592,157.867 52.411,157.867 52.617 M86.766 57.200 C 86.767 58.813,86.811 59.439,86.864 58.590 C 86.917 57.742,86.917 56.422,86.863 55.657 C 86.809 54.892,86.766 55.587,86.766 57.200 M86.758 70.000 C 86.759 71.173,86.806 71.620,86.862 70.993 C 86.919 70.366,86.918 69.406,86.861 68.860 C 86.803 68.313,86.757 68.827,86.758 70.000 M220.604 84.991 C 221.009 85.053,221.609 85.051,221.937 84.988 C 222.265 84.924,221.933 84.874,221.200 84.876 C 220.467 84.878,220.198 84.930,220.604 84.991 M226.204 84.991 C 226.609 85.053,227.209 85.051,227.537 84.988 C 227.865 84.924,227.533 84.874,226.800 84.876 C 226.067 84.878,225.798 84.930,226.204 84.991 M86.758 102.000 C 86.759 103.173,86.806 103.620,86.862 102.993 C 86.919 102.366,86.918 101.406,86.861 100.860 C 86.803 100.313,86.757 100.827,86.758 102.000 M313.427 113.867 C 313.427 115.113,313.472 115.623,313.529 115.000 C 313.585 114.377,313.585 113.357,313.529 112.733 C 313.472 112.110,313.427 112.620,313.427 113.867 M194.332 117.054 C 194.132 117.341,193.628 117.704,193.213 117.862 C 192.799 118.019,192.532 118.221,192.620 118.309 C 192.816 118.505,194.723 117.637,194.996 117.227 C 195.528 116.430,194.887 116.262,194.332 117.054 M88.052 117.623 C 88.166 117.966,90.816 119.471,91.280 119.457 C 91.864 119.440,90.011 118.136,89.400 118.135 C 89.070 118.134,88.800 118.026,88.800 117.895 C 88.800 117.764,88.610 117.584,88.378 117.495 C 88.133 117.401,87.996 117.455,88.052 117.623 M188.570 120.549 C 188.077 120.849,187.732 121.154,187.804 121.226 C 187.974 121.396,189.852 120.460,189.860 120.200 C 189.871 119.874,189.521 119.969,188.570 120.549 M93.714 120.939 C 93.996 121.153,94.293 121.263,94.373 121.183 C 94.540 121.015,93.863 120.539,93.467 120.546 C 93.320 120.548,93.431 120.725,93.714 120.939 M99.295 124.257 C 99.861 124.573,100.374 124.782,100.435 124.721 C 100.636 124.520,99.880 124.047,99.065 123.862 C 98.325 123.695,98.342 123.723,99.295 124.257 M182.000 124.267 C 181.909 124.413,182.015 124.533,182.235 124.533 C 182.455 124.533,182.709 124.413,182.800 124.267 C 182.891 124.120,182.785 124.000,182.565 124.000 C 182.345 124.000,182.091 124.120,182.000 124.267 M180.274 125.323 C 180.059 125.459,179.971 125.660,180.081 125.770 C 180.190 125.879,180.482 125.765,180.730 125.517 C 181.212 125.035,180.924 124.912,180.274 125.323 M102.667 126.062 C 102.667 126.247,103.536 126.914,103.792 126.925 C 103.897 126.930,103.919 126.765,103.840 126.560 C 103.702 126.201,102.667 125.762,102.667 126.062 M107.200 128.749 C 107.200 128.892,107.390 129.083,107.622 129.172 C 107.882 129.271,108.004 129.212,107.939 129.017 C 107.806 128.618,107.200 128.399,107.200 128.749 M172.416 130.008 C 171.750 130.512,171.997 130.509,172.970 130.002 C 173.390 129.783,173.553 129.606,173.333 129.610 C 173.113 129.614,172.700 129.793,172.416 130.008 M113.233 132.273 C 113.702 132.741,116.000 133.844,116.000 133.602 C 116.000 133.464,115.730 133.201,115.400 133.017 C 114.549 132.542,112.954 131.994,113.233 132.273 M167.933 132.556 C 167.677 132.837,167.508 133.067,167.559 133.067 C 167.758 133.067,169.333 132.221,169.333 132.114 C 169.333 131.796,168.340 132.110,167.933 132.556 M164.944 134.087 C 164.115 134.532,163.784 134.828,164.059 134.881 C 164.433 134.953,166.667 133.712,166.667 133.431 C 166.667 133.231,166.232 133.397,164.944 134.087 M126.933 140.267 C 126.933 140.413,127.173 140.533,127.467 140.533 C 127.760 140.533,128.000 140.653,128.000 140.800 C 128.000 140.947,128.150 141.063,128.333 141.058 C 128.517 141.053,128.383 140.813,128.037 140.524 C 127.347 139.950,126.933 139.853,126.933 140.267 M129.867 141.867 C 130.233 142.153,130.683 142.391,130.867 142.394 C 131.050 142.397,131.200 142.520,131.200 142.667 C 131.200 142.813,131.507 142.933,131.882 142.933 C 132.269 142.933,132.493 142.818,132.400 142.667 C 132.309 142.520,132.002 142.400,131.718 142.400 C 131.433 142.400,130.960 142.160,130.667 141.867 C 130.373 141.573,129.923 141.336,129.667 141.339 C 129.288 141.344,129.326 141.444,129.867 141.867 M149.600 142.933 C 149.600 143.080,149.773 143.200,149.984 143.200 C 150.196 143.200,150.443 143.080,150.533 142.933 C 150.624 142.787,150.451 142.667,150.149 142.667 C 149.847 142.667,149.600 142.787,149.600 142.933 M140.933 147.990 C 140.449 148.189,140.442 148.227,140.860 148.397 C 141.140 148.512,141.486 148.419,141.746 148.159 C 142.223 147.682,141.864 147.607,140.933 147.990 " stroke="none" fill="#7c8c94" fill-rule="evenodd"></path><path id="path8" d="M196.122 66.667 C 196.122 72.607,196.157 75.037,196.200 72.067 C 196.243 69.097,196.243 64.237,196.200 61.267 C 196.157 58.297,196.122 60.727,196.122 66.667 M223.133 85.260 C 223.610 85.319,224.390 85.319,224.867 85.260 C 225.343 85.200,224.953 85.152,224.000 85.152 C 223.047 85.152,222.657 85.200,223.133 85.260 M254.467 217.200 C 254.470 217.787,254.525 217.995,254.589 217.664 C 254.652 217.332,254.650 216.852,254.583 216.597 C 254.516 216.342,254.464 216.613,254.467 217.200 " stroke="none" fill="#c8cccc" fill-rule="evenodd"></path></g></svg>