<svg id="svg" version="1.1" xmlns="http://www.w3.org/2000/svg" xmlns:xlink="http://www.w3.org/1999/xlink" width="400" height="400" viewBox="0, 0, 400,400"><g id="svgg"><path id="path0" d="M231.914 67.700 C 231.508 68.411,231.358 77.301,231.200 109.990 L 231.000 151.381 229.957 151.748 C 228.873 152.129,228.873 152.129,226.227 149.755 C 225.642 149.230,225.017 148.800,224.838 148.800 C 224.658 148.800,223.852 148.352,223.045 147.805 C 222.239 147.258,221.147 146.702,220.619 146.569 C 220.091 146.436,219.355 145.992,218.983 145.582 C 218.612 145.171,217.533 144.719,216.586 144.577 C 215.639 144.435,214.526 144.004,214.112 143.619 C 213.606 143.147,212.083 142.758,209.431 142.424 C 207.270 142.152,204.781 141.676,203.900 141.365 C 201.674 140.579,197.491 140.660,193.755 141.561 C 192.020 141.979,189.442 142.441,188.027 142.589 C 186.498 142.748,185.081 143.150,184.532 143.582 C 184.025 143.981,182.818 144.426,181.851 144.571 C 180.884 144.717,179.774 145.187,179.384 145.618 C 178.995 146.048,178.369 146.400,177.993 146.400 C 177.617 146.400,176.631 146.940,175.800 147.600 C 174.969 148.260,173.998 148.800,173.641 148.800 C 173.284 148.800,172.768 149.160,172.493 149.600 C 172.218 150.040,171.785 150.400,171.530 150.400 C 171.012 150.400,170.148 151.181,165.570 155.793 C 163.826 157.549,162.400 159.212,162.400 159.489 C 162.400 159.766,162.040 160.218,161.600 160.493 C 161.160 160.768,160.800 161.205,160.800 161.466 C 160.800 161.726,160.375 162.447,159.855 163.069 C 159.335 163.691,158.771 164.650,158.602 165.200 C 158.433 165.750,157.977 166.652,157.589 167.204 C 157.200 167.756,156.679 168.963,156.431 169.886 C 156.182 170.809,155.740 171.803,155.448 172.095 C 155.156 172.386,154.698 174.150,154.429 176.013 C 154.161 177.876,153.684 179.799,153.371 180.286 C 152.427 181.750,152.568 193.361,153.557 195.649 C 153.973 196.612,154.439 198.465,154.594 199.766 C 154.750 201.088,155.216 202.595,155.648 203.180 C 156.074 203.755,156.535 204.924,156.674 205.776 C 156.812 206.628,157.262 207.662,157.675 208.075 C 158.087 208.487,158.533 209.366,158.665 210.027 C 158.798 210.688,159.242 211.408,159.653 211.628 C 160.064 211.848,160.400 212.286,160.400 212.600 C 160.400 212.915,160.940 213.787,161.600 214.539 C 162.260 215.291,162.800 216.101,162.800 216.339 C 162.800 216.577,163.148 216.958,163.573 217.186 C 163.998 217.413,164.457 217.950,164.593 218.379 C 164.730 218.808,165.183 219.267,165.600 219.400 C 166.017 219.533,166.462 219.964,166.587 220.360 C 166.713 220.755,167.262 221.282,167.808 221.531 C 168.353 221.779,168.807 222.212,168.815 222.491 C 168.824 222.771,169.409 223.364,170.115 223.808 C 171.759 224.842,171.759 225.694,170.117 226.030 C 169.202 226.217,168.476 226.074,167.584 225.532 C 166.897 225.114,164.976 224.600,163.315 224.389 C 161.654 224.179,159.751 223.735,159.086 223.403 C 158.024 222.873,150.234 222.800,94.976 222.800 L 32.075 222.800 31.830 224.700 C 31.545 226.906,31.566 233.516,31.865 235.700 L 32.070 237.200 73.209 237.200 C 97.392 237.200,114.748 237.352,115.319 237.569 C 116.774 238.123,116.947 239.090,115.796 240.240 C 115.248 240.788,114.800 241.416,114.800 241.636 C 114.800 241.856,114.395 242.445,113.900 242.944 C 113.405 243.443,112.688 244.515,112.306 245.326 C 111.925 246.137,111.450 246.800,111.251 246.800 C 111.052 246.800,110.774 247.412,110.634 248.159 C 110.494 248.907,110.039 249.952,109.622 250.481 C 109.206 251.010,108.744 252.153,108.596 253.021 C 108.447 253.890,107.996 255.068,107.594 255.641 C 105.501 258.622,105.650 278.757,107.797 282.968 C 108.349 284.050,108.800 285.445,108.800 286.068 C 108.800 286.691,109.150 287.550,109.578 287.978 C 110.005 288.405,110.475 289.395,110.622 290.178 C 110.769 290.960,111.059 291.600,111.267 291.600 C 111.475 291.600,111.995 292.391,112.422 293.357 C 112.850 294.324,113.470 295.218,113.800 295.345 C 114.130 295.471,114.400 295.824,114.400 296.128 C 114.400 297.127,119.579 302.498,124.594 306.700 C 125.185 307.195,125.901 307.600,126.185 307.600 C 126.469 307.600,126.947 307.895,127.245 308.255 C 127.544 308.615,128.536 309.230,129.450 309.622 C 130.364 310.013,131.229 310.524,131.373 310.756 C 131.516 310.988,132.391 311.380,133.317 311.626 C 134.243 311.873,135.302 312.343,135.670 312.672 C 136.039 313.001,137.491 313.413,138.898 313.587 C 140.304 313.762,142.073 314.239,142.827 314.648 C 144.828 315.731,159.118 315.773,161.077 314.702 C 161.779 314.318,163.553 313.833,165.019 313.626 C 166.484 313.418,167.980 312.984,168.342 312.661 C 168.704 312.339,169.757 311.873,170.683 311.626 C 171.609 311.380,172.484 310.988,172.627 310.756 C 172.771 310.524,173.636 310.013,174.550 309.622 C 175.464 309.230,176.456 308.615,176.755 308.255 C 177.053 307.895,177.531 307.600,177.815 307.600 C 178.919 307.600,189.285 297.621,189.771 296.090 C 189.927 295.601,190.219 295.200,190.422 295.200 C 190.624 295.200,191.057 294.559,191.384 293.777 C 191.711 292.994,192.344 291.889,192.789 291.323 C 193.235 290.756,193.600 289.981,193.600 289.600 C 193.600 289.219,193.958 288.453,194.395 287.897 C 194.832 287.341,195.396 285.924,195.649 284.747 C 195.901 283.571,196.348 282.240,196.643 281.791 C 196.937 281.341,197.364 279.661,197.592 278.057 C 197.819 276.453,198.261 274.659,198.574 274.070 L 199.143 273.000 199.727 274.400 C 200.048 275.170,200.443 276.602,200.604 277.582 C 200.766 278.561,201.224 280.001,201.622 280.782 C 202.020 281.562,202.468 283.049,202.616 284.087 C 202.765 285.125,203.141 286.185,203.452 286.443 C 203.762 286.701,204.211 287.686,204.450 288.631 C 204.688 289.577,205.224 290.660,205.641 291.037 C 206.059 291.415,206.400 292.029,206.400 292.403 C 206.400 292.776,206.940 293.646,207.600 294.337 C 208.260 295.028,208.800 295.842,208.800 296.146 C 208.800 296.866,214.929 303.600,215.584 303.600 C 215.762 303.600,216.203 304.050,216.563 304.600 C 216.924 305.150,217.478 305.600,217.795 305.600 C 218.112 305.600,218.565 305.960,218.800 306.400 C 219.035 306.840,219.454 307.200,219.729 307.200 C 220.005 307.200,220.853 307.733,221.615 308.384 C 222.377 309.035,223.225 309.575,223.500 309.584 C 223.775 309.593,224.855 310.029,225.900 310.553 C 230.163 312.691,231.508 313.217,233.792 313.636 C 235.107 313.877,236.727 314.373,237.392 314.737 C 238.615 315.408,362.327 316.045,365.900 315.399 L 367.200 315.164 367.200 308.811 L 367.200 302.458 366.147 301.630 C 365.096 300.803,364.982 300.801,324.129 300.835 C 292.651 300.861,283.030 300.757,282.583 300.386 C 281.843 299.772,281.839 298.846,282.572 298.034 C 282.887 297.685,283.607 296.897,284.172 296.282 C 284.737 295.667,285.200 295.017,285.200 294.838 C 285.200 294.658,285.675 293.812,286.256 292.956 C 286.836 292.101,287.492 290.861,287.712 290.200 C 287.933 289.540,288.374 288.698,288.693 288.329 C 289.011 287.959,289.446 286.882,289.659 285.935 C 289.872 284.987,290.296 283.936,290.600 283.600 C 290.905 283.263,291.353 281.370,291.597 279.394 C 291.840 277.417,292.300 274.784,292.619 273.542 C 293.360 270.664,293.358 267.493,292.614 264.532 C 292.292 263.250,291.843 260.686,291.617 258.835 C 291.386 256.942,290.944 255.180,290.608 254.809 C 290.279 254.445,289.891 253.529,289.747 252.774 C 289.603 252.018,289.061 250.664,288.542 249.765 C 288.024 248.866,287.600 247.858,287.600 247.527 C 287.600 247.195,287.256 246.613,286.837 246.233 C 286.417 245.853,285.841 244.970,285.557 244.271 C 285.273 243.572,284.716 242.765,284.320 242.477 C 283.924 242.190,283.600 241.773,283.600 241.552 C 283.600 241.080,282.251 239.579,279.222 236.683 C 278.024 235.537,276.589 234.105,276.033 233.500 C 275.477 232.895,274.798 232.400,274.525 232.400 C 274.252 232.400,273.835 232.040,273.600 231.600 C 273.365 231.160,272.922 230.800,272.617 230.800 C 272.311 230.800,271.553 230.375,270.931 229.855 C 270.309 229.335,269.350 228.774,268.800 228.609 C 268.250 228.443,267.440 227.982,267.000 227.584 C 266.560 227.185,265.660 226.741,265.000 226.597 C 263.185 226.201,261.600 225.541,261.600 225.183 C 261.600 225.008,260.385 224.737,258.900 224.583 C 257.415 224.428,255.300 223.964,254.200 223.551 C 251.554 222.558,240.295 222.438,238.938 223.388 C 238.477 223.711,236.772 224.180,235.149 224.429 C 233.527 224.678,231.455 225.257,230.545 225.716 C 228.926 226.533,228.866 226.535,227.763 225.812 L 226.636 225.074 227.507 224.495 C 229.820 222.960,236.689 215.496,237.462 213.679 C 237.716 213.082,238.301 212.252,238.762 211.835 C 239.223 211.417,239.600 210.779,239.600 210.416 C 239.600 210.053,240.050 209.145,240.600 208.400 C 241.150 207.655,241.600 206.654,241.600 206.176 C 241.600 205.699,241.952 204.860,242.383 204.313 C 242.819 203.758,243.358 202.117,243.599 200.608 C 243.837 199.119,244.339 197.337,244.716 196.650 C 245.405 195.390,246.062 71.779,245.398 68.100 L 245.164 66.800 238.796 66.800 C 232.611 66.800,232.413 66.826,231.914 67.700 M207.000 156.255 C 207.880 156.595,209.482 157.124,210.561 157.430 C 211.640 157.736,212.810 158.245,213.161 158.562 C 213.512 158.879,214.308 159.264,214.928 159.419 C 215.549 159.574,216.267 160.038,216.524 160.450 C 216.782 160.863,217.204 161.200,217.464 161.200 C 218.834 161.200,226.110 168.904,226.606 170.881 C 226.752 171.464,227.116 172.036,227.414 172.150 C 227.712 172.264,228.176 173.132,228.447 174.079 C 228.717 175.025,229.150 176.070,229.408 176.400 C 230.316 177.558,230.595 179.172,231.244 187.000 C 231.426 189.188,230.276 197.153,229.657 198.000 C 229.255 198.550,228.802 199.657,228.652 200.460 C 228.502 201.263,228.103 202.148,227.766 202.428 C 227.429 202.708,226.910 203.520,226.612 204.233 C 225.973 205.763,225.577 206.248,222.030 209.860 C 218.580 213.374,216.810 214.800,215.901 214.800 C 215.502 214.800,215.072 215.068,214.946 215.396 C 214.820 215.724,213.971 216.208,213.059 216.472 C 212.146 216.736,210.988 217.264,210.484 217.646 C 209.953 218.049,208.444 218.452,206.884 218.608 C 205.408 218.756,203.429 219.130,202.486 219.439 C 200.300 220.155,198.023 220.153,196.108 219.433 C 195.279 219.122,193.340 218.756,191.800 218.621 C 190.113 218.473,188.603 218.094,188.000 217.668 C 187.450 217.279,186.235 216.737,185.300 216.464 C 184.365 216.191,183.600 215.798,183.600 215.589 C 183.600 215.381,182.986 214.954,182.235 214.640 C 180.726 214.010,180.299 213.669,176.690 210.219 C 174.024 207.670,171.600 204.546,171.600 203.659 C 171.600 203.360,171.150 202.581,170.600 201.927 C 170.050 201.273,169.600 200.381,169.600 199.945 C 169.600 199.508,169.119 198.134,168.531 196.891 C 166.944 193.537,166.922 181.332,168.496 177.946 C 169.045 176.766,169.616 175.287,169.765 174.660 C 169.913 174.033,170.359 173.043,170.755 172.460 C 171.151 171.877,171.991 170.590,172.623 169.600 C 174.039 167.379,179.600 161.781,180.753 161.415 C 181.219 161.267,181.600 160.968,181.600 160.751 C 181.600 160.533,182.403 160.000,183.383 159.566 C 184.364 159.132,185.266 158.616,185.388 158.419 C 185.510 158.223,186.192 157.937,186.905 157.785 C 187.617 157.633,188.830 157.224,189.600 156.875 C 191.973 155.800,192.802 155.696,199.200 155.665 C 203.899 155.642,205.787 155.785,207.000 156.255 M185.209 231.600 C 185.991 231.600,187.344 231.994,188.215 232.476 C 190.683 233.840,207.145 233.858,210.274 232.500 C 211.415 232.005,212.966 231.600,213.720 231.600 C 214.475 231.600,215.525 231.259,216.055 230.843 C 216.878 230.196,217.187 230.155,218.184 230.562 L 219.350 231.039 218.075 231.947 C 217.374 232.446,216.800 233.106,216.800 233.413 C 216.800 233.720,216.445 234.162,216.012 234.394 C 215.072 234.896,212.400 237.590,212.400 238.034 C 212.400 238.206,212.040 238.460,211.600 238.600 C 211.160 238.740,210.800 239.080,210.800 239.357 C 210.800 239.634,210.350 240.283,209.800 240.800 C 209.250 241.317,208.800 241.952,208.800 242.211 C 208.800 242.471,208.350 243.169,207.800 243.762 C 207.250 244.356,206.800 244.987,206.800 245.165 C 206.800 245.343,206.358 246.140,205.818 246.936 C 205.277 247.732,204.646 249.086,204.415 249.945 C 204.183 250.804,203.741 251.717,203.432 251.974 C 203.123 252.230,202.748 253.324,202.599 254.405 C 202.451 255.486,201.999 257.017,201.596 257.808 C 201.192 258.599,200.737 260.001,200.584 260.923 C 199.729 266.068,198.338 265.700,197.567 260.125 C 197.329 258.406,196.879 256.716,196.568 256.369 C 196.256 256.022,195.789 254.672,195.529 253.369 C 195.270 252.066,194.847 250.820,194.590 250.600 C 194.334 250.380,193.877 249.570,193.576 248.800 C 193.000 247.326,191.794 245.314,190.421 243.537 C 189.970 242.952,189.600 242.276,189.600 242.034 C 189.600 241.792,189.150 241.203,188.600 240.725 C 188.050 240.247,187.600 239.724,187.600 239.563 C 187.600 239.136,183.326 234.896,182.393 234.396 C 181.957 234.163,181.600 233.714,181.600 233.398 C 181.600 233.082,181.056 232.422,180.392 231.931 L 179.183 231.037 180.073 230.561 C 180.803 230.170,181.214 230.220,182.375 230.843 C 183.152 231.259,184.428 231.600,185.209 231.600 M157.061 237.576 C 159.074 237.771,161.144 238.201,161.661 238.533 C 162.177 238.864,163.357 239.334,164.282 239.578 C 165.207 239.822,166.197 240.243,166.482 240.515 C 166.767 240.787,167.521 241.240,168.159 241.523 C 172.051 243.248,180.800 252.746,180.800 255.246 C 180.800 255.624,180.986 255.995,181.214 256.071 C 181.757 256.252,182.760 259.094,182.782 260.514 C 182.792 261.127,183.115 262.109,183.500 262.696 C 184.510 264.238,184.527 274.020,183.523 275.800 C 183.150 276.460,182.736 277.842,182.602 278.872 C 182.469 279.901,182.036 281.161,181.641 281.672 C 181.245 282.182,180.805 283.081,180.661 283.669 C 180.518 284.257,179.950 285.273,179.400 285.927 C 178.850 286.581,178.400 287.313,178.400 287.554 C 178.400 287.796,178.040 288.218,177.600 288.493 C 177.160 288.768,176.800 289.150,176.800 289.343 C 176.800 289.855,173.773 292.800,173.247 292.800 C 173.001 292.800,172.800 293.065,172.800 293.390 C 172.800 293.714,172.260 294.259,171.600 294.600 C 170.940 294.941,170.400 295.374,170.400 295.562 C 170.400 295.749,169.815 296.134,169.100 296.416 C 168.385 296.699,167.440 297.241,167.000 297.622 C 166.560 298.002,165.577 298.446,164.816 298.607 C 164.054 298.768,162.974 299.234,162.416 299.641 C 160.090 301.335,143.925 301.345,141.600 299.653 C 141.050 299.253,139.943 298.802,139.140 298.652 C 138.337 298.502,137.447 298.098,137.163 297.755 C 136.878 297.412,135.960 296.857,135.123 296.522 C 134.285 296.187,133.600 295.663,133.600 295.357 C 133.600 295.050,133.336 294.800,133.014 294.800 C 132.359 294.800,127.200 289.993,127.200 289.383 C 127.200 289.168,126.840 288.768,126.400 288.493 C 125.960 288.218,125.600 287.747,125.600 287.446 C 125.600 287.144,125.341 286.683,125.024 286.420 C 124.073 285.630,121.710 280.638,121.397 278.756 C 121.237 277.790,120.812 276.460,120.453 275.800 C 119.484 274.019,119.505 263.835,120.480 262.400 C 120.854 261.850,121.288 260.590,121.445 259.600 C 122.316 254.119,131.331 242.845,136.000 241.400 C 136.550 241.229,137.429 240.755,137.954 240.345 C 138.479 239.935,139.206 239.600,139.569 239.600 C 139.933 239.600,140.944 239.217,141.815 238.748 C 144.243 237.444,150.625 236.953,157.061 237.576 M256.200 238.592 C 257.300 239.097,258.784 239.634,259.498 239.786 C 260.211 239.938,260.931 240.284,261.098 240.555 C 261.264 240.825,261.972 241.278,262.671 241.560 C 263.370 241.842,264.253 242.417,264.633 242.837 C 265.013 243.256,265.500 243.600,265.716 243.600 C 265.932 243.600,266.517 244.005,267.016 244.500 C 267.516 244.995,268.167 245.598,268.462 245.840 C 270.676 247.653,274.800 253.239,274.800 254.425 C 274.800 254.783,275.147 255.390,275.571 255.774 C 275.995 256.157,276.467 257.212,276.620 258.117 C 276.773 259.022,277.237 260.413,277.651 261.208 C 278.820 263.451,278.798 274.852,277.620 277.160 C 277.169 278.045,276.800 279.198,276.800 279.724 C 276.800 280.832,274.148 286.047,273.344 286.520 C 273.045 286.696,272.800 287.061,272.800 287.331 C 272.800 288.363,266.713 294.779,265.720 294.793 C 265.456 294.797,265.096 295.046,264.920 295.346 C 264.744 295.646,264.047 296.174,263.371 296.519 C 262.695 296.865,261.924 297.410,261.658 297.730 C 261.392 298.051,260.370 298.434,259.387 298.581 C 258.404 298.728,257.600 298.989,257.600 299.160 C 257.600 300.372,248.422 301.312,242.000 300.757 C 240.130 300.596,238.229 300.449,237.775 300.432 C 237.322 300.414,236.564 300.040,236.092 299.600 C 235.620 299.160,234.950 298.800,234.604 298.800 C 233.564 298.800,230.685 297.302,227.343 295.020 C 225.560 293.803,220.449 288.457,219.732 287.059 C 219.377 286.366,218.765 285.387,218.371 284.881 C 217.977 284.376,217.529 283.386,217.376 282.681 C 217.222 281.977,216.759 280.971,216.348 280.446 C 215.937 279.921,215.600 278.931,215.600 278.245 C 215.600 277.559,215.240 275.739,214.800 274.200 C 213.870 270.948,213.762 266.943,214.554 265.048 C 214.859 264.319,215.235 262.750,215.390 261.561 C 215.652 259.556,216.828 256.378,218.189 254.000 C 218.504 253.450,219.125 252.342,219.570 251.537 C 220.991 248.966,228.861 241.600,230.187 241.600 C 230.439 241.600,231.255 241.150,232.000 240.600 C 232.745 240.050,233.642 239.600,233.993 239.600 C 234.344 239.600,235.344 239.223,236.215 238.762 C 239.581 236.983,252.450 236.874,256.200 238.592 " stroke="none" fill="#252123" fill-rule="evenodd"></path><path id="path1" d="M0.000 200.000 L 0.000 400.000 200.000 400.000 L 400.000 400.000 400.000 200.000 L 400.000 0.000 200.000 0.000 L 0.000 0.000 0.000 200.000 M246.320 66.080 C 246.920 66.680,247.006 193.464,246.409 197.593 C 246.191 199.100,245.776 200.374,245.417 200.637 C 245.078 200.885,244.799 201.518,244.798 202.044 C 244.794 203.584,243.995 206.027,243.422 206.247 C 243.132 206.358,242.785 207.135,242.651 207.973 C 242.517 208.811,242.133 209.723,241.799 210.001 C 241.464 210.279,240.843 211.292,240.418 212.253 C 239.993 213.214,239.458 214.000,239.230 214.000 C 239.002 214.000,238.701 214.454,238.562 215.009 C 238.423 215.564,237.998 216.239,237.618 216.509 C 237.238 216.779,236.712 217.405,236.449 217.900 C 236.187 218.395,235.729 218.800,235.433 218.800 C 235.136 218.800,234.796 219.173,234.676 219.630 C 234.557 220.086,234.096 220.554,233.652 220.670 C 233.208 220.787,232.790 221.261,232.722 221.724 C 232.650 222.225,232.194 222.679,231.600 222.844 C 230.750 223.079,230.827 223.126,232.114 223.160 C 232.947 223.182,234.109 222.885,234.696 222.500 C 236.252 221.480,256.479 221.436,258.026 222.449 C 258.571 222.807,259.824 223.233,260.809 223.398 C 261.794 223.562,263.409 224.125,264.397 224.648 C 265.385 225.172,266.510 225.600,266.897 225.600 C 267.284 225.600,267.939 225.939,268.354 226.354 C 268.768 226.768,269.757 227.322,270.551 227.584 C 271.344 227.846,272.130 228.290,272.297 228.572 C 272.464 228.853,273.019 229.303,273.530 229.572 C 274.042 229.841,274.762 230.324,275.130 230.647 C 275.499 230.969,276.895 232.116,278.234 233.196 C 280.458 234.990,284.018 238.792,285.000 240.421 C 286.065 242.189,287.608 244.358,287.953 244.571 C 288.165 244.702,288.454 245.335,288.595 245.977 C 288.736 246.619,289.109 247.359,289.424 247.620 C 289.740 247.882,290.254 248.959,290.567 250.013 C 290.880 251.068,291.407 252.352,291.737 252.866 C 292.067 253.380,292.467 254.690,292.626 255.778 C 292.785 256.867,293.261 258.540,293.684 259.496 C 294.828 262.084,294.823 276.327,293.677 278.919 C 293.258 279.867,292.785 281.533,292.626 282.622 C 292.468 283.710,291.992 285.195,291.569 285.923 C 291.146 286.650,290.800 287.570,290.800 287.967 C 290.800 288.364,290.368 289.325,289.840 290.103 C 289.312 290.881,288.751 291.941,288.594 292.459 C 288.437 292.976,288.008 293.760,287.642 294.200 C 285.978 296.200,284.374 298.834,284.599 299.199 C 284.762 299.463,298.990 299.600,326.175 299.600 C 363.942 299.600,367.549 299.656,368.045 300.254 C 368.941 301.334,369.098 314.485,368.230 315.810 L 367.570 316.818 301.685 316.709 L 235.800 316.600 234.000 315.717 C 233.010 315.231,231.408 314.709,230.439 314.556 C 229.471 314.403,228.370 313.970,227.994 313.594 C 227.618 313.218,226.660 312.788,225.866 312.639 C 225.072 312.490,224.193 312.044,223.911 311.649 C 223.630 311.253,222.900 310.806,222.290 310.654 C 221.679 310.503,220.867 310.069,220.484 309.690 C 220.102 309.310,219.296 308.779,218.695 308.509 C 218.093 308.238,217.600 307.838,217.600 307.619 C 217.600 307.400,217.060 306.941,216.400 306.600 C 215.740 306.259,215.200 305.714,215.200 305.390 C 215.200 305.065,214.978 304.800,214.707 304.800 C 214.437 304.800,213.083 303.585,211.700 302.100 C 210.316 300.615,208.828 299.034,208.392 298.586 C 207.956 298.138,207.600 297.581,207.600 297.348 C 207.600 297.115,207.256 296.613,206.837 296.233 C 206.417 295.853,205.842 294.970,205.560 294.271 C 205.278 293.572,204.825 292.864,204.553 292.697 C 204.282 292.530,203.844 291.720,203.579 290.897 C 203.315 290.074,202.830 289.091,202.500 288.714 C 202.171 288.337,201.744 287.181,201.550 286.145 C 201.357 285.109,200.924 283.958,200.589 283.588 C 200.254 283.218,199.772 281.764,199.517 280.358 L 199.054 277.800 198.619 280.868 C 198.379 282.555,197.894 284.265,197.542 284.668 C 197.190 285.070,196.774 286.120,196.618 287.000 C 196.463 287.880,196.013 288.960,195.620 289.400 C 195.227 289.840,194.780 290.728,194.627 291.373 C 194.473 292.018,193.910 293.067,193.374 293.704 C 192.838 294.340,192.400 295.116,192.400 295.427 C 192.400 295.739,192.040 296.218,191.600 296.493 C 191.160 296.768,190.800 297.178,190.800 297.404 C 190.800 298.511,182.601 306.800,181.506 306.800 C 181.118 306.800,180.800 307.074,180.800 307.409 C 180.800 307.743,180.314 308.238,179.719 308.509 C 179.124 308.779,178.233 309.405,177.737 309.900 C 177.242 310.395,176.496 310.800,176.080 310.800 C 175.664 310.800,175.001 311.156,174.607 311.592 C 174.213 312.028,173.260 312.503,172.490 312.647 C 171.720 312.791,170.768 313.232,170.374 313.626 C 169.980 314.020,168.790 314.472,167.729 314.631 C 166.668 314.789,165.080 315.297,164.200 315.760 C 161.708 317.068,142.332 317.048,139.600 315.734 C 138.610 315.258,137.016 314.744,136.058 314.592 C 135.099 314.440,133.999 313.999,133.612 313.612 C 133.226 313.226,132.273 312.790,131.495 312.644 C 130.717 312.498,129.847 312.098,129.563 311.755 C 129.278 311.412,128.360 310.857,127.523 310.522 C 126.685 310.187,126.000 309.743,126.000 309.536 C 126.000 309.328,125.456 308.969,124.792 308.737 C 124.127 308.505,123.401 307.975,123.177 307.558 C 122.954 307.141,122.553 306.795,122.286 306.788 C 121.391 306.766,113.200 298.344,113.200 297.446 C 113.200 297.311,112.885 296.868,112.500 296.463 C 111.883 295.812,111.378 295.050,110.076 292.800 C 108.945 290.847,107.600 288.010,107.600 287.580 C 107.600 287.303,107.172 286.160,106.648 285.039 C 106.125 283.917,105.570 281.952,105.416 280.671 C 105.262 279.391,104.841 277.681,104.482 276.871 C 103.529 274.723,103.522 264.142,104.473 261.600 C 104.843 260.610,105.329 258.564,105.554 257.053 C 105.778 255.542,106.215 254.012,106.525 253.653 C 106.834 253.294,107.303 252.116,107.566 251.035 C 107.829 249.954,108.394 248.625,108.822 248.081 C 109.250 247.537,109.603 246.891,109.607 246.646 C 109.614 246.221,111.277 243.508,112.578 241.800 C 112.913 241.360,113.563 240.505,114.022 239.900 L 114.858 238.800 73.926 238.800 C 33.655 238.800,30.700 238.713,29.934 237.507 C 29.277 236.472,29.538 222.919,30.229 222.229 C 30.794 221.663,36.702 221.596,88.929 221.562 C 120.868 221.541,147.990 221.493,149.200 221.456 C 154.687 221.287,162.342 221.870,163.356 222.535 C 163.915 222.901,165.053 223.189,165.886 223.175 C 167.206 223.153,167.284 223.103,166.491 222.784 C 165.991 222.583,165.474 222.137,165.341 221.792 C 165.128 221.234,163.980 219.881,160.852 216.494 C 160.330 215.929,159.653 214.867,159.347 214.134 C 159.040 213.400,158.626 212.800,158.426 212.800 C 158.226 212.800,157.861 212.192,157.616 211.448 C 157.371 210.705,156.817 209.777,156.385 209.386 C 155.953 208.996,155.600 208.315,155.600 207.873 C 155.600 207.432,155.174 206.334,154.652 205.435 C 154.131 204.536,153.576 202.915,153.418 201.833 C 153.260 200.752,152.848 199.434,152.501 198.906 C 151.105 196.775,151.113 178.013,152.511 175.880 C 152.834 175.386,153.233 174.176,153.398 173.191 C 153.562 172.206,154.125 170.591,154.648 169.603 C 155.172 168.615,155.600 167.490,155.600 167.103 C 155.600 166.716,155.942 166.058,156.361 165.639 C 156.779 165.221,157.253 164.456,157.415 163.939 C 157.577 163.423,158.122 162.506,158.627 161.902 C 159.132 161.298,159.659 160.443,159.799 160.002 C 159.939 159.561,160.217 159.200,160.417 159.200 C 160.616 159.200,161.041 158.694,161.361 158.076 C 162.135 156.578,169.072 149.694,170.150 149.354 C 170.617 149.206,171.235 148.751,171.523 148.343 C 171.810 147.934,172.234 147.600,172.465 147.600 C 172.696 147.600,173.419 147.150,174.073 146.600 C 174.727 146.050,175.483 145.600,175.753 145.600 C 176.023 145.600,176.855 145.150,177.600 144.600 C 178.345 144.050,179.237 143.600,179.581 143.600 C 179.925 143.600,181.015 143.174,182.003 142.653 C 182.991 142.132,184.698 141.575,185.795 141.414 C 186.892 141.254,188.332 140.827,188.995 140.465 C 190.843 139.457,205.849 139.255,208.400 140.203 C 209.390 140.572,211.280 141.099,212.600 141.375 C 213.920 141.651,215.717 142.264,216.594 142.738 C 217.471 143.212,218.482 143.600,218.840 143.600 C 219.199 143.600,219.950 143.960,220.509 144.400 C 221.069 144.840,221.692 145.200,221.895 145.200 C 222.351 145.200,225.725 147.379,227.581 148.873 C 228.593 149.687,229.046 149.852,229.275 149.492 C 229.447 149.221,229.591 130.518,229.594 107.929 C 229.599 71.130,229.665 66.792,230.229 66.229 C 231.041 65.416,245.522 65.282,246.320 66.080 M194.286 157.471 C 193.673 157.794,191.980 158.243,190.525 158.469 C 189.031 158.702,187.545 159.192,187.112 159.596 C 186.690 159.989,185.812 160.418,185.162 160.548 C 184.512 160.678,183.526 161.238,182.972 161.792 C 182.417 162.346,181.708 162.800,181.396 162.800 C 181.084 162.800,180.635 163.160,180.400 163.600 C 180.165 164.040,179.792 164.400,179.573 164.400 C 179.130 164.400,176.400 167.017,176.400 167.441 C 176.400 167.588,175.995 168.120,175.500 168.623 C 174.026 170.122,172.960 171.715,172.467 173.155 C 172.212 173.900,171.752 174.710,171.444 174.955 C 171.137 175.200,170.690 176.551,170.452 177.958 C 170.214 179.364,169.745 180.819,169.410 181.189 C 168.423 182.280,168.540 192.121,169.565 194.130 C 169.985 194.955,170.450 196.509,170.598 197.583 C 170.753 198.715,171.185 199.825,171.625 200.223 C 172.043 200.601,172.498 201.515,172.637 202.255 C 172.775 202.995,173.047 203.600,173.239 203.600 C 173.432 203.600,174.022 204.275,174.550 205.100 C 176.431 208.038,182.380 213.600,183.642 213.600 C 183.881 213.600,184.613 213.982,185.270 214.450 C 185.926 214.917,187.211 215.467,188.125 215.673 C 189.040 215.878,190.125 216.351,190.536 216.723 C 191.711 217.786,206.510 217.732,208.092 216.659 C 208.692 216.252,209.891 215.760,210.755 215.566 C 212.365 215.204,214.113 214.237,216.663 212.300 C 217.459 211.695,218.343 211.200,218.628 211.200 C 218.913 211.200,219.257 210.849,219.394 210.420 C 219.530 209.992,219.964 209.538,220.360 209.413 C 220.755 209.287,221.282 208.738,221.531 208.192 C 221.779 207.647,222.221 207.200,222.511 207.200 C 222.802 207.200,223.267 206.570,223.546 205.800 C 223.824 205.030,224.229 204.400,224.446 204.400 C 224.663 204.400,225.120 203.725,225.460 202.900 C 225.801 202.075,226.322 201.127,226.617 200.794 C 226.913 200.460,227.355 199.293,227.600 198.200 C 227.845 197.107,228.350 195.876,228.723 195.464 C 229.714 194.369,229.733 181.473,228.746 179.966 C 228.386 179.417,227.881 177.956,227.625 176.719 C 227.368 175.482,226.932 174.383,226.657 174.277 C 226.381 174.171,225.912 173.346,225.614 172.443 C 225.316 171.539,224.925 170.800,224.746 170.800 C 224.567 170.800,224.155 170.305,223.831 169.700 C 222.905 167.970,217.047 162.400,216.155 162.400 C 215.865 162.400,215.447 162.061,215.225 161.647 C 215.003 161.232,214.212 160.779,213.466 160.639 C 212.720 160.499,211.797 160.039,211.414 159.616 C 210.964 159.119,209.921 158.753,208.459 158.580 C 207.217 158.433,205.412 157.973,204.449 157.557 C 202.254 156.608,196.026 156.555,194.286 157.471 M185.844 234.729 C 185.712 234.942,185.874 235.219,186.202 235.346 C 186.531 235.472,186.800 235.780,186.800 236.030 C 186.800 236.280,187.250 236.839,187.800 237.271 C 188.350 237.704,188.800 238.217,188.800 238.411 C 188.800 238.605,189.205 239.199,189.700 239.732 C 191.998 242.204,192.800 243.259,192.800 243.807 C 192.800 244.133,193.155 244.755,193.590 245.190 C 194.024 245.624,194.498 246.479,194.642 247.090 C 194.787 247.700,195.227 248.560,195.620 249.000 C 196.013 249.440,196.466 250.520,196.626 251.400 C 196.785 252.280,197.240 253.417,197.636 253.926 C 198.086 254.505,198.463 255.931,198.640 257.722 C 198.911 260.472,199.498 260.638,199.572 257.985 C 199.587 257.426,199.958 256.266,200.396 255.407 C 200.834 254.548,201.301 253.205,201.434 252.422 C 201.566 251.640,201.990 250.550,202.374 250.000 C 202.759 249.450,203.291 248.339,203.557 247.532 C 203.823 246.725,204.302 245.848,204.620 245.583 C 204.939 245.318,205.200 244.879,205.200 244.606 C 205.200 243.842,208.272 239.861,211.312 236.686 C 213.727 234.164,213.803 234.204,207.715 234.778 C 198.606 235.636,197.515 235.679,195.845 235.255 C 193.451 234.647,186.132 234.262,185.844 234.729 M145.200 239.566 C 144.430 239.967,142.960 240.418,141.933 240.568 C 140.906 240.717,139.856 241.091,139.601 241.399 C 139.345 241.707,138.485 242.174,137.689 242.437 C 136.893 242.699,135.784 243.339,135.225 243.857 C 134.666 244.376,133.891 244.800,133.504 244.800 C 133.117 244.800,132.800 245.074,132.800 245.409 C 132.800 245.743,132.353 246.221,131.808 246.469 C 131.262 246.718,130.713 247.245,130.587 247.640 C 130.462 248.036,130.008 248.470,129.580 248.606 C 129.151 248.743,128.800 249.113,128.800 249.430 C 128.800 249.746,128.350 250.397,127.800 250.875 C 127.250 251.353,126.800 251.990,126.800 252.290 C 126.800 252.591,126.387 253.249,125.883 253.754 C 125.378 254.258,124.743 255.412,124.472 256.318 C 124.201 257.223,123.721 258.222,123.406 258.537 C 121.671 260.272,121.679 278.741,123.415 279.712 C 123.724 279.885,124.179 280.781,124.428 281.702 C 124.676 282.624,125.311 283.892,125.839 284.520 C 126.368 285.148,126.800 285.988,126.800 286.388 C 126.800 286.787,127.072 287.219,127.403 287.346 C 127.735 287.473,128.213 288.029,128.464 288.581 C 128.716 289.133,129.245 289.687,129.640 289.813 C 130.036 289.938,130.470 290.392,130.606 290.820 C 130.743 291.249,131.091 291.600,131.381 291.600 C 131.671 291.600,132.203 292.050,132.563 292.600 C 132.924 293.150,133.462 293.600,133.760 293.600 C 134.058 293.600,134.547 293.895,134.845 294.255 C 135.144 294.615,136.156 295.238,137.094 295.640 C 138.032 296.043,138.800 296.542,138.800 296.751 C 138.800 296.959,139.565 297.251,140.500 297.399 C 141.435 297.547,143.010 298.058,144.000 298.534 C 146.719 299.842,157.322 299.831,160.000 298.517 C 160.990 298.031,162.565 297.513,163.500 297.366 C 164.435 297.218,165.200 296.932,165.200 296.728 C 165.200 296.525,165.873 296.078,166.697 295.734 C 167.520 295.390,168.735 294.681,169.397 294.158 C 170.058 293.635,171.027 292.890,171.550 292.504 C 172.406 291.869,173.655 290.617,176.300 287.742 C 176.795 287.204,177.200 286.617,177.200 286.438 C 177.200 286.258,177.676 285.412,178.258 284.556 C 178.840 283.700,179.488 282.370,179.698 281.600 C 179.908 280.830,180.333 279.914,180.643 279.565 C 182.360 277.630,182.360 260.750,180.642 258.844 C 180.323 258.490,179.937 257.660,179.784 257.000 C 179.418 255.424,175.413 249.412,173.614 247.740 C 172.836 247.017,171.821 246.059,171.358 245.613 C 170.895 245.166,170.355 244.795,170.158 244.789 C 169.961 244.783,169.093 244.243,168.229 243.589 C 167.365 242.935,166.444 242.400,166.183 242.400 C 165.922 242.400,165.279 242.063,164.754 241.651 C 164.229 241.239,162.990 240.772,162.000 240.613 C 161.010 240.454,159.605 239.981,158.877 239.562 C 156.972 238.464,147.306 238.467,145.200 239.566 M239.976 239.395 C 239.649 239.723,238.310 240.206,237.000 240.469 C 235.691 240.732,234.005 241.364,233.254 241.873 C 232.503 242.383,231.652 242.800,231.362 242.800 C 231.073 242.800,230.386 243.250,229.836 243.800 C 229.286 244.350,228.601 244.800,228.313 244.800 C 228.025 244.800,227.452 245.250,227.039 245.800 C 226.626 246.350,226.038 246.800,225.731 246.800 C 225.425 246.800,225.057 247.115,224.912 247.500 C 224.767 247.885,224.188 248.665,223.625 249.232 C 221.759 251.112,220.400 252.963,220.400 253.624 C 220.400 253.983,220.053 254.590,219.629 254.974 C 219.205 255.357,218.740 256.370,218.596 257.224 C 218.452 258.078,217.944 259.272,217.467 259.878 C 216.121 261.589,216.126 277.310,217.473 278.755 C 217.953 279.271,218.471 280.436,218.624 281.345 C 218.778 282.254,219.220 283.219,219.606 283.489 C 219.992 283.760,220.421 284.429,220.558 284.977 C 220.696 285.524,221.256 286.420,221.804 286.968 C 222.352 287.515,222.800 288.230,222.800 288.555 C 222.800 288.880,223.151 289.257,223.580 289.394 C 224.008 289.530,224.470 289.992,224.606 290.420 C 224.743 290.849,225.014 291.200,225.211 291.200 C 225.407 291.200,226.070 291.659,226.684 292.219 C 228.571 293.942,230.885 295.600,231.401 295.600 C 231.671 295.600,232.342 295.954,232.891 296.386 C 233.441 296.818,234.770 297.368,235.845 297.608 C 236.920 297.848,238.250 298.349,238.800 298.722 C 240.456 299.845,252.412 299.713,254.600 298.548 C 255.480 298.079,256.951 297.571,257.869 297.418 C 258.786 297.265,259.629 296.902,259.741 296.610 C 259.852 296.319,260.632 295.855,261.472 295.579 C 262.312 295.303,263.235 294.745,263.523 294.339 C 263.810 293.932,264.239 293.600,264.475 293.600 C 264.896 293.600,267.873 290.947,269.151 289.432 C 269.508 289.009,270.205 288.269,270.700 287.786 C 271.195 287.303,271.600 286.642,271.600 286.316 C 271.600 285.990,271.953 285.404,272.385 285.014 C 272.817 284.623,273.379 283.650,273.636 282.852 C 273.892 282.053,274.355 281.109,274.664 280.753 C 274.974 280.398,275.408 278.986,275.628 277.617 C 275.849 276.247,276.290 274.378,276.609 273.463 C 277.419 271.137,277.332 267.453,276.395 264.464 C 275.958 263.070,275.600 261.267,275.600 260.457 C 275.600 259.547,275.219 258.425,274.600 257.514 C 274.050 256.705,273.600 255.777,273.600 255.452 C 273.600 255.127,273.150 254.327,272.600 253.673 C 272.050 253.019,271.600 252.284,271.600 252.040 C 271.600 251.795,271.150 251.203,270.600 250.725 C 270.050 250.247,269.600 249.733,269.600 249.584 C 269.600 249.214,266.924 246.400,266.573 246.400 C 266.418 246.400,265.880 245.995,265.377 245.500 C 263.814 243.963,262.259 242.938,260.735 242.440 C 259.930 242.177,259.184 241.735,259.077 241.458 C 258.971 241.180,257.667 240.729,256.179 240.455 C 254.691 240.181,253.102 239.697,252.648 239.378 C 251.438 238.531,240.826 238.545,239.976 239.395 " stroke="none" fill="#fbfbfb" fill-rule="evenodd"></path><path id="path2" d="M231.500 66.676 C 231.059 66.791,230.794 67.255,230.784 67.929 C 230.775 68.518,230.730 87.239,230.684 109.532 C 230.590 155.014,230.765 152.438,227.908 150.286 C 224.789 147.938,218.884 144.528,217.300 144.160 C 216.695 144.020,215.785 143.646,215.278 143.329 C 214.771 143.012,213.056 142.504,211.466 142.200 C 209.877 141.896,208.046 141.446,207.398 141.199 C 205.632 140.528,197.406 140.246,194.200 140.747 C 189.842 141.428,184.695 142.608,183.669 143.160 C 183.156 143.436,181.873 143.918,180.817 144.232 C 179.760 144.546,178.672 145.072,178.399 145.401 C 178.126 145.731,177.693 146.000,177.438 146.000 C 176.537 146.000,171.857 149.173,168.222 152.249 C 165.354 154.676,164.045 156.107,161.495 159.600 C 160.451 161.030,159.462 162.380,159.296 162.600 C 158.941 163.072,156.881 167.282,155.480 170.400 C 154.936 171.610,154.290 173.500,154.043 174.600 C 153.796 175.700,153.318 177.590,152.980 178.800 C 151.950 182.497,152.145 195.127,153.266 197.299 C 153.464 197.683,153.817 199.033,154.051 200.299 C 155.076 205.866,160.189 214.706,165.604 220.277 C 167.142 221.859,168.400 223.406,168.400 223.716 C 168.400 224.025,168.805 224.473,169.300 224.712 L 170.200 225.146 169.300 225.173 C 168.805 225.188,168.400 225.043,168.400 224.852 C 168.400 224.660,167.294 224.378,165.942 224.225 C 164.590 224.072,162.835 223.705,162.042 223.409 C 161.249 223.113,159.970 222.757,159.200 222.618 C 157.447 222.302,32.230 222.337,31.404 222.654 C 30.897 222.849,30.800 224.024,30.800 230.004 L 30.800 237.122 32.060 237.561 C 32.943 237.869,45.552 238.000,74.211 238.000 C 115.589 238.000,117.751 238.071,115.675 239.354 C 114.288 240.211,109.021 249.550,107.979 253.000 C 107.713 253.880,107.322 254.819,107.109 255.087 C 106.551 255.791,104.811 266.575,104.805 269.365 C 104.783 279.606,109.508 292.009,116.393 299.789 C 118.922 302.647,124.803 308.000,125.413 308.000 C 125.591 308.000,126.026 308.262,126.380 308.582 C 127.665 309.745,135.866 313.560,138.400 314.174 C 139.830 314.520,141.984 315.073,143.187 315.402 C 146.221 316.232,157.779 316.232,160.813 315.402 C 162.016 315.073,164.156 314.521,165.569 314.177 C 176.145 311.598,187.946 301.842,193.599 291.002 C 195.561 287.240,197.969 280.744,198.031 279.047 C 198.048 278.581,198.289 277.480,198.567 276.600 L 199.072 275.000 199.773 277.400 C 203.645 290.656,207.482 297.234,215.613 304.558 C 218.122 306.818,225.296 311.600,226.177 311.600 C 226.327 311.600,227.402 312.051,228.566 312.601 C 230.478 313.506,234.248 314.650,238.600 315.646 C 239.543 315.862,266.318 315.969,303.800 315.906 L 367.400 315.800 367.509 308.494 L 367.618 301.187 366.583 300.794 C 365.929 300.545,350.569 300.400,324.850 300.400 C 279.180 300.400,281.579 300.556,283.839 297.736 C 288.515 291.900,291.378 285.019,293.216 275.200 C 293.658 272.835,293.659 265.431,293.217 263.400 C 293.026 262.520,292.564 260.270,292.191 258.400 C 291.818 256.530,291.198 254.370,290.813 253.600 C 290.428 252.830,289.995 251.705,289.849 251.100 C 289.613 250.118,288.391 247.779,285.944 243.627 C 283.181 238.939,271.977 228.400,269.756 228.400 C 269.536 228.400,268.758 227.959,268.028 227.421 C 267.299 226.882,266.139 226.325,265.451 226.182 C 264.763 226.039,263.801 225.669,263.312 225.360 C 262.512 224.853,258.911 223.847,254.000 222.757 C 250.188 221.911,240.568 222.244,236.256 223.370 C 231.391 224.641,230.000 224.697,230.000 223.623 C 230.000 223.195,230.326 222.610,230.724 222.323 C 233.022 220.662,238.672 213.616,240.284 210.400 C 240.559 209.850,240.961 209.130,241.177 208.800 C 241.838 207.788,244.000 202.501,244.000 201.896 C 244.000 201.582,244.405 200.262,244.900 198.963 L 245.800 196.600 245.907 131.828 C 245.993 79.871,245.914 66.992,245.507 66.734 C 244.983 66.402,232.744 66.351,231.500 66.676 M245.398 68.100 C 246.062 71.779,245.405 195.390,244.716 196.650 C 244.339 197.337,243.837 199.119,243.599 200.608 C 243.358 202.117,242.819 203.758,242.383 204.313 C 241.952 204.860,241.600 205.699,241.600 206.176 C 241.600 206.654,241.150 207.655,240.600 208.400 C 240.050 209.145,239.600 210.053,239.600 210.416 C 239.600 210.779,239.223 211.417,238.762 211.835 C 238.301 212.252,237.716 213.082,237.462 213.679 C 236.689 215.496,229.820 222.960,227.507 224.495 L 226.636 225.074 227.763 225.812 C 228.866 226.535,228.926 226.533,230.545 225.716 C 231.455 225.257,233.527 224.678,235.149 224.429 C 236.772 224.180,238.477 223.711,238.938 223.388 C 240.295 222.438,251.554 222.558,254.200 223.551 C 255.300 223.964,257.415 224.428,258.900 224.583 C 260.385 224.737,261.600 225.008,261.600 225.183 C 261.600 225.541,263.185 226.201,265.000 226.597 C 265.660 226.741,266.560 227.185,267.000 227.584 C 267.440 227.982,268.250 228.443,268.800 228.609 C 269.350 228.774,270.309 229.335,270.931 229.855 C 271.553 230.375,272.311 230.800,272.617 230.800 C 272.922 230.800,273.365 231.160,273.600 231.600 C 273.835 232.040,274.252 232.400,274.525 232.400 C 274.798 232.400,275.477 232.895,276.033 233.500 C 276.589 234.105,278.024 235.537,279.222 236.683 C 282.251 239.579,283.600 241.080,283.600 241.552 C 283.600 241.773,283.924 242.190,284.320 242.477 C 284.716 242.765,285.273 243.572,285.557 244.271 C 285.841 244.970,286.417 245.853,286.837 246.233 C 287.256 246.613,287.600 247.195,287.600 247.527 C 287.600 247.858,288.024 248.866,288.542 249.765 C 289.061 250.664,289.603 252.018,289.747 252.774 C 289.891 253.529,290.279 254.445,290.608 254.809 C 290.944 255.180,291.386 256.942,291.617 258.835 C 291.843 260.686,292.292 263.250,292.614 264.532 C 293.358 267.493,293.360 270.664,292.619 273.542 C 292.300 274.784,291.840 277.417,291.597 279.394 C 291.353 281.370,290.905 283.263,290.600 283.600 C 290.296 283.936,289.872 284.987,289.659 285.935 C 289.446 286.882,289.011 287.959,288.693 288.329 C 288.374 288.698,287.933 289.540,287.712 290.200 C 287.492 290.861,286.836 292.101,286.256 292.956 C 285.675 293.812,285.200 294.658,285.200 294.838 C 285.200 295.017,284.737 295.667,284.172 296.282 C 283.607 296.897,282.887 297.685,282.572 298.034 C 281.839 298.846,281.843 299.772,282.583 300.386 C 283.030 300.757,292.651 300.861,324.129 300.835 C 364.982 300.801,365.096 300.803,366.147 301.630 L 367.200 302.458 367.200 308.811 L 367.200 315.164 365.900 315.399 C 362.327 316.045,238.615 315.408,237.392 314.737 C 236.727 314.373,235.107 313.877,233.792 313.636 C 231.508 313.217,230.163 312.691,225.900 310.553 C 224.855 310.029,223.775 309.593,223.500 309.584 C 223.225 309.575,222.377 309.035,221.615 308.384 C 220.853 307.733,220.005 307.200,219.729 307.200 C 219.454 307.200,219.035 306.840,218.800 306.400 C 218.565 305.960,218.112 305.600,217.795 305.600 C 217.478 305.600,216.924 305.150,216.563 304.600 C 216.203 304.050,215.762 303.600,215.584 303.600 C 214.929 303.600,208.800 296.866,208.800 296.146 C 208.800 295.842,208.260 295.028,207.600 294.337 C 206.940 293.646,206.400 292.776,206.400 292.403 C 206.400 292.029,206.059 291.415,205.641 291.037 C 205.224 290.660,204.688 289.577,204.450 288.631 C 204.211 287.686,203.762 286.701,203.452 286.443 C 203.141 286.185,202.765 285.125,202.616 284.087 C 202.468 283.049,202.020 281.562,201.622 280.782 C 201.224 280.001,200.766 278.561,200.604 277.582 C 200.443 276.602,200.048 275.170,199.727 274.400 L 199.143 273.000 198.574 274.070 C 198.261 274.659,197.819 276.453,197.592 278.057 C 197.364 279.661,196.937 281.341,196.643 281.791 C 196.348 282.240,195.901 283.571,195.649 284.747 C 195.396 285.924,194.832 287.341,194.395 287.897 C 193.958 288.453,193.600 289.219,193.600 289.600 C 193.600 289.981,193.235 290.756,192.789 291.323 C 192.344 291.889,191.711 292.994,191.384 293.777 C 191.057 294.559,190.624 295.200,190.422 295.200 C 190.219 295.200,189.927 295.601,189.771 296.090 C 189.285 297.621,178.919 307.600,177.815 307.600 C 177.531 307.600,177.053 307.895,176.755 308.255 C 176.456 308.615,175.464 309.230,174.550 309.622 C 173.636 310.013,172.771 310.524,172.627 310.756 C 172.484 310.988,171.609 311.380,170.683 311.626 C 169.757 311.873,168.704 312.339,168.342 312.661 C 167.980 312.984,166.484 313.418,165.019 313.626 C 163.553 313.833,161.779 314.318,161.077 314.702 C 159.118 315.773,144.828 315.731,142.827 314.648 C 142.073 314.239,140.304 313.762,138.898 313.587 C 137.491 313.413,136.039 313.001,135.670 312.672 C 135.302 312.343,134.243 311.873,133.317 311.626 C 132.391 311.380,131.516 310.988,131.373 310.756 C 131.229 310.524,130.364 310.013,129.450 309.622 C 128.536 309.230,127.544 308.615,127.245 308.255 C 126.947 307.895,126.469 307.600,126.185 307.600 C 124.791 307.600,114.400 297.485,114.400 296.128 C 114.400 295.824,114.130 295.471,113.800 295.345 C 113.470 295.218,112.850 294.324,112.422 293.357 C 111.995 292.391,111.475 291.600,111.267 291.600 C 111.059 291.600,110.769 290.960,110.622 290.178 C 110.475 289.395,110.005 288.405,109.578 287.978 C 109.150 287.550,108.800 286.691,108.800 286.068 C 108.800 285.445,108.349 284.050,107.797 282.968 C 105.650 278.757,105.501 258.622,107.594 255.641 C 107.996 255.068,108.447 253.890,108.596 253.021 C 108.744 252.153,109.206 251.010,109.622 250.481 C 110.039 249.952,110.494 248.907,110.634 248.159 C 110.774 247.412,111.052 246.800,111.251 246.800 C 111.450 246.800,111.925 246.137,112.306 245.326 C 112.688 244.515,113.405 243.443,113.900 242.944 C 114.395 242.445,114.800 241.856,114.800 241.636 C 114.800 241.416,115.248 240.788,115.796 240.240 C 116.947 239.090,116.774 238.123,115.319 237.569 C 114.748 237.352,97.392 237.200,73.209 237.200 L 32.070 237.200 31.865 235.700 C 31.566 233.516,31.545 226.906,31.830 224.700 L 32.075 222.800 94.976 222.800 C 150.234 222.800,158.024 222.873,159.086 223.403 C 159.751 223.735,161.654 224.179,163.315 224.389 C 164.976 224.600,166.897 225.114,167.584 225.532 C 168.476 226.074,169.202 226.217,170.117 226.030 C 171.759 225.694,171.759 224.842,170.115 223.808 C 169.409 223.364,168.824 222.771,168.815 222.491 C 168.807 222.212,168.353 221.779,167.808 221.531 C 167.262 221.282,166.713 220.755,166.587 220.360 C 166.462 219.964,166.017 219.533,165.600 219.400 C 165.183 219.267,164.730 218.808,164.593 218.379 C 164.457 217.950,163.998 217.413,163.573 217.186 C 163.148 216.958,162.800 216.577,162.800 216.339 C 162.800 216.101,162.260 215.291,161.600 214.539 C 160.940 213.787,160.400 212.915,160.400 212.600 C 160.400 212.286,160.064 211.848,159.653 211.628 C 159.242 211.408,158.798 210.688,158.665 210.027 C 158.533 209.366,158.087 208.487,157.675 208.075 C 157.262 207.662,156.812 206.628,156.674 205.776 C 156.535 204.924,156.074 203.755,155.648 203.180 C 155.216 202.595,154.750 201.088,154.594 199.766 C 154.439 198.465,153.973 196.612,153.557 195.649 C 152.568 193.361,152.427 181.750,153.371 180.286 C 153.684 179.799,154.161 177.876,154.429 176.013 C 154.698 174.150,155.156 172.386,155.448 172.095 C 155.740 171.803,156.182 170.809,156.431 169.886 C 156.679 168.963,157.200 167.756,157.589 167.204 C 157.977 166.652,158.433 165.750,158.602 165.200 C 158.771 164.650,159.335 163.691,159.855 163.069 C 160.375 162.447,160.800 161.726,160.800 161.466 C 160.800 161.205,161.160 160.768,161.600 160.493 C 162.040 160.218,162.400 159.766,162.400 159.489 C 162.400 159.212,163.826 157.549,165.570 155.793 C 170.148 151.181,171.012 150.400,171.530 150.400 C 171.785 150.400,172.218 150.040,172.493 149.600 C 172.768 149.160,173.284 148.800,173.641 148.800 C 173.998 148.800,174.969 148.260,175.800 147.600 C 176.631 146.940,177.617 146.400,177.993 146.400 C 178.369 146.400,178.995 146.048,179.384 145.618 C 179.774 145.187,180.884 144.717,181.851 144.571 C 182.818 144.426,184.025 143.981,184.532 143.582 C 185.081 143.150,186.498 142.748,188.027 142.589 C 189.442 142.441,192.020 141.979,193.755 141.561 C 197.491 140.660,201.674 140.579,203.900 141.365 C 204.781 141.676,207.270 142.152,209.431 142.424 C 212.083 142.758,213.606 143.147,214.112 143.619 C 214.526 144.004,215.639 144.435,216.586 144.577 C 217.533 144.719,218.612 145.171,218.983 145.582 C 219.355 145.992,220.091 146.436,220.619 146.569 C 221.147 146.702,222.239 147.258,223.045 147.805 C 223.852 148.352,224.658 148.800,224.838 148.800 C 225.017 148.800,225.642 149.230,226.227 149.755 C 228.873 152.129,228.873 152.129,229.957 151.748 L 231.000 151.381 231.200 109.990 C 231.358 77.301,231.508 68.411,231.914 67.700 C 232.413 66.826,232.611 66.800,238.796 66.800 L 245.164 66.800 245.398 68.100 M192.000 155.968 C 191.450 156.118,190.370 156.526,189.600 156.875 C 188.830 157.224,187.617 157.633,186.905 157.785 C 186.192 157.937,185.510 158.223,185.388 158.419 C 185.266 158.616,184.364 159.132,183.383 159.566 C 182.403 160.000,181.600 160.533,181.600 160.751 C 181.600 160.968,181.219 161.267,180.753 161.415 C 179.600 161.781,174.039 167.379,172.623 169.600 C 171.991 170.590,171.151 171.877,170.755 172.460 C 170.359 173.043,169.913 174.033,169.765 174.660 C 169.616 175.287,169.045 176.766,168.496 177.946 C 166.922 181.332,166.944 193.537,168.531 196.891 C 169.119 198.134,169.600 199.508,169.600 199.945 C 169.600 200.381,170.050 201.273,170.600 201.927 C 171.150 202.581,171.600 203.360,171.600 203.659 C 171.600 204.546,174.024 207.670,176.690 210.219 C 180.299 213.669,180.726 214.010,182.235 214.640 C 182.986 214.954,183.600 215.381,183.600 215.589 C 183.600 215.798,184.365 216.191,185.300 216.464 C 186.235 216.737,187.450 217.279,188.000 217.668 C 188.603 218.094,190.113 218.473,191.800 218.621 C 193.340 218.756,195.279 219.122,196.108 219.433 C 198.023 220.153,200.300 220.155,202.486 219.439 C 203.429 219.130,205.408 218.756,206.884 218.608 C 208.444 218.452,209.953 218.049,210.484 217.646 C 210.988 217.264,212.146 216.736,213.059 216.472 C 213.971 216.208,214.820 215.724,214.946 215.396 C 215.072 215.068,215.502 214.800,215.901 214.800 C 216.810 214.800,218.580 213.374,222.030 209.860 C 225.577 206.248,225.973 205.763,226.612 204.233 C 226.910 203.520,227.429 202.708,227.766 202.428 C 228.103 202.148,228.502 201.263,228.652 200.460 C 228.802 199.657,229.255 198.550,229.657 198.000 C 230.276 197.153,231.426 189.188,231.244 187.000 C 230.595 179.172,230.316 177.558,229.408 176.400 C 229.150 176.070,228.717 175.025,228.447 174.079 C 228.176 173.132,227.712 172.264,227.414 172.150 C 227.116 172.036,226.752 171.464,226.606 170.881 C 226.110 168.904,218.834 161.200,217.464 161.200 C 217.204 161.200,216.782 160.863,216.524 160.450 C 216.267 160.038,215.549 159.574,214.928 159.419 C 214.308 159.264,213.512 158.879,213.161 158.562 C 212.810 158.245,211.640 157.736,210.561 157.430 C 209.482 157.124,207.880 156.595,207.000 156.255 C 205.321 155.604,194.115 155.390,192.000 155.968 M208.400 157.411 C 210.270 158.023,212.070 158.745,212.400 159.015 C 212.730 159.285,213.450 159.636,214.000 159.796 C 216.250 160.450,222.224 165.634,224.837 169.200 C 232.608 179.806,232.448 195.829,224.467 206.346 C 222.295 209.207,216.492 214.400,215.466 214.400 C 215.244 214.400,214.779 214.650,214.431 214.955 C 210.215 218.657,195.219 219.990,189.001 217.215 C 188.121 216.822,186.739 216.289,185.932 216.030 C 185.125 215.771,184.248 215.298,183.983 214.980 C 183.718 214.661,183.262 214.400,182.968 214.400 C 182.288 214.400,177.403 210.306,175.569 208.200 C 165.527 196.669,165.193 179.806,174.771 167.900 C 179.647 161.839,185.234 158.488,194.200 156.248 C 196.665 155.632,205.071 156.320,208.400 157.411 M180.073 230.561 L 179.183 231.037 180.392 231.931 C 181.056 232.422,181.600 233.082,181.600 233.398 C 181.600 233.714,181.957 234.163,182.393 234.396 C 183.326 234.896,187.600 239.136,187.600 239.563 C 187.600 239.724,188.050 240.247,188.600 240.725 C 189.150 241.203,189.600 241.792,189.600 242.034 C 189.600 242.276,189.970 242.952,190.421 243.537 C 191.794 245.314,193.000 247.326,193.576 248.800 C 193.877 249.570,194.334 250.380,194.590 250.600 C 194.847 250.820,195.270 252.066,195.529 253.369 C 195.789 254.672,196.256 256.022,196.568 256.369 C 196.879 256.716,197.329 258.406,197.567 260.125 C 198.338 265.700,199.729 266.068,200.584 260.923 C 200.737 260.001,201.192 258.599,201.596 257.808 C 201.999 257.017,202.451 255.486,202.599 254.405 C 202.748 253.324,203.123 252.230,203.432 251.974 C 203.741 251.717,204.183 250.804,204.415 249.945 C 204.646 249.086,205.277 247.732,205.818 246.936 C 206.358 246.140,206.800 245.343,206.800 245.165 C 206.800 244.987,207.250 244.356,207.800 243.762 C 208.350 243.169,208.800 242.471,208.800 242.211 C 208.800 241.952,209.250 241.317,209.800 240.800 C 210.350 240.283,210.800 239.634,210.800 239.357 C 210.800 239.080,211.160 238.740,211.600 238.600 C 212.040 238.460,212.400 238.206,212.400 238.034 C 212.400 237.590,215.072 234.896,216.012 234.394 C 216.445 234.162,216.800 233.720,216.800 233.413 C 216.800 233.106,217.374 232.446,218.075 231.947 L 219.350 231.039 218.184 230.562 C 217.187 230.155,216.878 230.196,216.055 230.843 C 215.525 231.259,214.475 231.600,213.720 231.600 C 212.966 231.600,211.415 232.005,210.274 232.500 C 207.145 233.858,190.683 233.840,188.215 232.476 C 187.344 231.994,185.991 231.600,185.209 231.600 C 184.428 231.600,183.152 231.259,182.375 230.843 C 181.214 230.220,180.803 230.170,180.073 230.561 M186.800 232.808 C 192.240 234.741,206.645 234.757,211.515 232.835 C 216.039 231.049,217.373 232.088,214.284 234.991 C 210.366 238.672,205.430 245.381,204.229 248.658 C 203.918 249.506,203.289 250.913,202.832 251.785 C 202.374 252.656,201.999 253.736,201.998 254.185 C 201.996 254.633,201.756 255.457,201.465 256.017 C 201.173 256.576,200.605 258.248,200.203 259.732 C 199.140 263.661,198.515 263.324,197.823 258.450 C 197.686 257.488,197.220 255.923,196.787 254.972 C 196.354 254.022,196.000 252.994,196.000 252.688 C 196.000 250.229,189.528 240.411,184.774 235.656 C 181.147 232.029,181.845 231.047,186.800 232.808 M146.400 237.609 C 144.582 237.783,142.776 238.232,141.815 238.748 C 140.944 239.217,139.933 239.600,139.569 239.600 C 139.206 239.600,138.479 239.935,137.954 240.345 C 137.429 240.755,136.550 241.229,136.000 241.400 C 131.331 242.845,122.316 254.119,121.445 259.600 C 121.288 260.590,120.854 261.850,120.480 262.400 C 119.505 263.835,119.484 274.019,120.453 275.800 C 120.812 276.460,121.237 277.790,121.397 278.756 C 121.710 280.638,124.073 285.630,125.024 286.420 C 125.341 286.683,125.600 287.144,125.600 287.446 C 125.600 287.747,125.960 288.218,126.400 288.493 C 126.840 288.768,127.200 289.168,127.200 289.383 C 127.200 289.993,132.359 294.800,133.014 294.800 C 133.336 294.800,133.600 295.050,133.600 295.357 C 133.600 295.663,134.285 296.187,135.123 296.522 C 135.960 296.857,136.878 297.412,137.163 297.755 C 137.447 298.098,138.337 298.502,139.140 298.652 C 139.943 298.802,141.050 299.253,141.600 299.653 C 143.925 301.345,160.090 301.335,162.416 299.641 C 162.974 299.234,164.054 298.768,164.816 298.607 C 165.577 298.446,166.560 298.002,167.000 297.622 C 167.440 297.241,168.385 296.699,169.100 296.416 C 169.815 296.134,170.400 295.749,170.400 295.562 C 170.400 295.374,170.940 294.941,171.600 294.600 C 172.260 294.259,172.800 293.714,172.800 293.390 C 172.800 293.065,173.001 292.800,173.247 292.800 C 173.773 292.800,176.800 289.855,176.800 289.343 C 176.800 289.150,177.160 288.768,177.600 288.493 C 178.040 288.218,178.400 287.796,178.400 287.554 C 178.400 287.313,178.850 286.581,179.400 285.927 C 179.950 285.273,180.518 284.257,180.661 283.669 C 180.805 283.081,181.245 282.182,181.641 281.672 C 182.036 281.161,182.469 279.901,182.602 278.872 C 182.736 277.842,183.150 276.460,183.523 275.800 C 184.527 274.020,184.510 264.238,183.500 262.696 C 183.115 262.109,182.792 261.127,182.782 260.514 C 182.760 259.094,181.757 256.252,181.214 256.071 C 180.986 255.995,180.800 255.624,180.800 255.246 C 180.800 252.746,172.051 243.248,168.159 241.523 C 167.521 241.240,166.767 240.787,166.482 240.515 C 166.197 240.243,165.207 239.822,164.282 239.578 C 163.357 239.334,162.177 238.864,161.661 238.533 C 159.975 237.451,152.655 237.008,146.400 237.609 M241.000 237.603 C 239.070 237.797,237.171 238.257,236.215 238.762 C 235.344 239.223,234.344 239.600,233.993 239.600 C 233.642 239.600,232.745 240.050,232.000 240.600 C 231.255 241.150,230.439 241.600,230.187 241.600 C 228.861 241.600,220.991 248.966,219.570 251.537 C 219.125 252.342,218.504 253.450,218.189 254.000 C 216.828 256.378,215.652 259.556,215.390 261.561 C 215.235 262.750,214.859 264.319,214.554 265.048 C 213.762 266.943,213.870 270.948,214.800 274.200 C 215.240 275.739,215.600 277.559,215.600 278.245 C 215.600 278.931,215.937 279.921,216.348 280.446 C 216.759 280.971,217.222 281.977,217.376 282.681 C 217.529 283.386,217.977 284.376,218.371 284.881 C 218.765 285.387,219.377 286.366,219.732 287.059 C 220.449 288.457,225.560 293.803,227.343 295.020 C 230.685 297.302,233.564 298.800,234.604 298.800 C 234.950 298.800,235.620 299.160,236.092 299.600 C 236.564 300.040,237.322 300.414,237.775 300.432 C 238.229 300.449,240.130 300.596,242.000 300.757 C 248.422 301.312,257.600 300.372,257.600 299.160 C 257.600 298.989,258.404 298.728,259.387 298.581 C 260.370 298.434,261.392 298.051,261.658 297.730 C 261.924 297.410,262.695 296.865,263.371 296.519 C 264.047 296.174,264.744 295.646,264.920 295.346 C 265.096 295.046,265.456 294.797,265.720 294.793 C 266.713 294.779,272.800 288.363,272.800 287.331 C 272.800 287.061,273.045 286.696,273.344 286.520 C 274.148 286.047,276.800 280.832,276.800 279.724 C 276.800 279.198,277.169 278.045,277.620 277.160 C 278.798 274.852,278.820 263.451,277.651 261.208 C 277.237 260.413,276.773 259.022,276.620 258.117 C 276.467 257.212,275.995 256.157,275.571 255.774 C 275.147 255.390,274.800 254.783,274.800 254.425 C 274.800 253.239,270.676 247.653,268.462 245.840 C 268.167 245.598,267.516 244.995,267.016 244.500 C 266.517 244.005,265.932 243.600,265.716 243.600 C 265.500 243.600,265.013 243.256,264.633 242.837 C 264.253 242.417,263.370 241.842,262.671 241.560 C 261.972 241.278,261.264 240.825,261.098 240.555 C 260.931 240.284,260.211 239.938,259.498 239.786 C 258.784 239.634,257.300 239.097,256.200 238.592 C 253.870 237.525,246.528 237.046,241.000 237.603 M161.128 239.176 C 180.438 245.592,189.514 267.849,179.569 284.400 C 179.371 284.730,178.861 285.630,178.437 286.400 C 176.316 290.249,167.641 297.408,164.076 298.251 C 163.484 298.392,162.190 298.887,161.200 299.353 C 158.496 300.625,145.524 300.622,142.800 299.348 C 141.810 298.885,140.510 298.390,139.910 298.248 C 139.311 298.106,138.161 297.542,137.355 296.995 C 136.548 296.448,135.708 296.000,135.487 296.000 C 134.277 296.000,127.849 289.749,125.835 286.614 C 118.486 275.172,118.772 261.713,126.597 250.711 C 134.149 240.095,148.981 235.141,161.128 239.176 M256.000 239.186 C 264.609 242.749,268.927 246.128,273.100 252.567 C 273.815 253.670,274.400 254.731,274.400 254.925 C 274.400 255.118,274.738 255.754,275.150 256.338 C 275.563 256.922,276.032 258.030,276.192 258.800 C 276.353 259.570,276.825 261.229,277.242 262.487 C 277.802 264.179,278.000 265.928,278.000 269.200 C 278.000 272.472,277.802 274.221,277.242 275.913 C 276.825 277.171,276.352 278.827,276.190 279.593 C 274.688 286.702,265.956 295.394,256.600 299.093 C 252.708 300.632,240.237 300.780,237.186 299.324 C 236.188 298.848,234.851 298.328,234.213 298.167 C 233.575 298.007,232.468 297.499,231.752 297.038 C 231.036 296.577,229.696 295.750,228.774 295.200 C 225.105 293.011,220.138 287.205,218.166 282.800 C 217.821 282.030,217.215 280.680,216.819 279.800 C 213.100 271.532,215.253 258.111,221.606 249.965 C 224.260 246.562,226.395 244.767,231.800 241.390 C 232.460 240.977,234.710 240.042,236.800 239.312 L 240.600 237.985 247.200 238.130 C 252.952 238.256,254.083 238.392,256.000 239.186 " stroke="none" fill="#7c7a7c" fill-rule="evenodd"></path><path id="path3" d="M235.700 66.297 C 237.405 66.372,240.195 66.372,241.900 66.297 C 243.605 66.222,242.210 66.161,238.800 66.161 C 235.390 66.161,233.995 66.222,235.700 66.297 M230.554 66.977 C 230.432 67.294,230.417 67.879,230.520 68.277 C 230.646 68.763,230.722 68.649,230.754 67.929 C 230.782 67.272,231.071 66.788,231.500 66.676 C 232.156 66.504,232.155 66.490,231.487 66.446 C 231.096 66.421,230.675 66.659,230.554 66.977 M246.195 130.000 C 246.195 164.430,246.242 178.515,246.300 161.300 C 246.358 144.085,246.358 115.915,246.300 98.700 C 246.242 81.485,246.195 95.570,246.195 130.000 M230.592 109.800 C 230.592 129.380,230.640 137.331,230.700 127.470 C 230.760 117.608,230.759 101.588,230.700 91.870 C 230.640 82.151,230.591 90.220,230.592 109.800 M197.900 140.289 C 198.615 140.378,199.785 140.378,200.500 140.289 C 201.215 140.201,200.630 140.128,199.200 140.128 C 197.770 140.128,197.185 140.201,197.900 140.289 M193.300 140.676 C 193.685 140.776,194.315 140.776,194.700 140.676 C 195.085 140.575,194.770 140.493,194.000 140.493 C 193.230 140.493,192.915 140.575,193.300 140.676 M190.200 141.200 C 189.696 141.417,189.622 141.544,190.000 141.544 C 190.330 141.544,190.960 141.389,191.400 141.200 C 191.904 140.983,191.978 140.856,191.600 140.856 C 191.270 140.856,190.640 141.011,190.200 141.200 M222.930 146.978 C 224.614 148.121,226.000 148.890,226.000 148.681 C 226.000 148.461,222.134 146.000,221.788 146.000 C 221.623 146.000,222.137 146.440,222.930 146.978 M173.897 147.566 C 172.253 148.619,172.025 148.991,173.475 148.254 C 174.176 147.897,174.861 147.424,174.998 147.203 C 175.319 146.684,175.223 146.715,173.897 147.566 M165.600 154.200 C 164.628 155.190,163.923 156.000,164.033 156.000 C 164.143 156.000,165.028 155.190,166.000 154.200 C 166.972 153.210,167.677 152.400,167.567 152.400 C 167.457 152.400,166.572 153.210,165.600 154.200 M196.900 156.296 C 198.165 156.375,200.235 156.375,201.500 156.296 C 202.765 156.216,201.730 156.151,199.200 156.151 C 196.670 156.151,195.635 156.216,196.900 156.296 M161.775 158.668 C 161.159 159.476,160.859 160.011,161.109 159.856 C 161.621 159.540,163.353 157.200,163.075 157.200 C 162.976 157.200,162.391 157.861,161.775 158.668 M221.000 165.200 C 221.859 166.080,222.652 166.800,222.762 166.800 C 222.872 166.800,222.259 166.080,221.400 165.200 C 220.541 164.320,219.748 163.600,219.638 163.600 C 219.528 163.600,220.141 164.320,221.000 165.200 M157.292 165.692 C 156.799 166.593,156.455 167.388,156.527 167.460 C 156.599 167.532,157.068 166.861,157.569 165.969 C 158.071 165.077,158.415 164.282,158.335 164.201 C 158.255 164.121,157.785 164.792,157.292 165.692 M176.975 165.300 L 175.800 166.600 177.100 165.425 C 178.312 164.330,178.584 164.000,178.275 164.000 C 178.206 164.000,177.621 164.585,176.975 165.300 M171.478 172.605 C 171.112 173.372,170.895 174.000,170.996 174.000 C 171.270 174.000,172.484 171.551,172.301 171.368 C 172.214 171.281,171.844 171.838,171.478 172.605 M226.015 171.400 C 226.020 171.620,226.468 172.520,227.010 173.400 C 227.552 174.280,227.991 174.820,227.985 174.600 C 227.980 174.380,227.532 173.480,226.990 172.600 C 226.448 171.720,226.009 171.180,226.015 171.400 M228.814 177.654 C 228.806 177.794,229.063 178.514,229.384 179.254 C 229.706 179.994,229.969 180.330,229.970 180.000 C 229.972 179.424,228.843 177.134,228.814 177.654 M168.093 182.400 C 168.093 183.170,168.175 183.485,168.276 183.100 C 168.376 182.715,168.376 182.085,168.276 181.700 C 168.175 181.315,168.093 181.630,168.093 182.400 M152.128 184.000 C 152.128 185.430,152.201 186.015,152.289 185.300 C 152.378 184.585,152.378 183.415,152.289 182.700 C 152.201 181.985,152.128 182.570,152.128 184.000 M230.101 183.000 C 230.105 183.880,230.187 184.193,230.283 183.695 C 230.379 183.198,230.375 182.478,230.275 182.095 C 230.175 181.713,230.096 182.120,230.101 183.000 M152.131 190.600 C 152.133 192.140,152.205 192.721,152.292 191.891 C 152.379 191.061,152.377 189.801,152.289 189.091 C 152.200 188.381,152.129 189.060,152.131 190.600 M230.093 192.000 C 230.093 192.770,230.175 193.085,230.276 192.700 C 230.376 192.315,230.376 191.685,230.276 191.300 C 230.175 190.915,230.093 191.230,230.093 192.000 M170.015 199.400 C 170.020 199.620,170.468 200.520,171.010 201.400 C 171.552 202.280,171.991 202.820,171.985 202.600 C 171.980 202.380,171.532 201.480,170.990 200.600 C 170.448 199.720,170.009 199.180,170.015 199.400 M224.723 205.500 C 224.018 206.321,223.490 207.200,223.701 207.200 C 223.783 207.200,224.249 206.660,224.737 206.000 C 225.701 204.696,225.692 204.372,224.723 205.500 M173.914 206.200 C 174.141 206.640,174.838 207.449,175.463 207.999 L 176.600 208.997 175.403 207.599 C 173.507 205.382,173.480 205.358,173.914 206.200 M240.555 209.812 C 240.190 210.369,239.964 210.898,240.053 210.987 C 240.142 211.076,240.518 210.620,240.889 209.974 C 241.714 208.536,241.469 208.417,240.555 209.812 M179.200 211.684 C 179.754 212.366,182.567 214.400,182.955 214.399 C 183.200 214.398,182.860 214.042,182.200 213.608 C 181.540 213.174,180.550 212.508,180.000 212.128 C 179.450 211.749,179.090 211.549,179.200 211.684 M216.441 213.434 C 215.693 213.965,215.278 214.400,215.519 214.400 C 215.759 214.400,216.460 213.956,217.078 213.413 C 218.491 212.169,218.208 212.179,216.441 213.434 M237.964 214.100 C 237.709 214.595,237.118 215.449,236.650 215.997 L 235.800 216.994 236.741 216.198 C 237.633 215.443,239.042 213.200,238.624 213.200 C 238.516 213.200,238.219 213.605,237.964 214.100 M162.400 217.325 C 162.400 217.394,162.985 217.979,163.700 218.625 L 165.000 219.800 163.825 218.500 C 162.730 217.288,162.400 217.016,162.400 217.325 M233.785 219.300 L 231.800 221.400 233.900 219.415 C 235.851 217.571,236.183 217.200,235.885 217.200 C 235.822 217.200,234.877 218.145,233.785 219.300 M196.300 218.682 C 196.795 218.778,197.605 218.778,198.100 218.682 C 198.595 218.587,198.190 218.509,197.200 218.509 C 196.210 218.509,195.805 218.587,196.300 218.682 M200.100 218.687 C 200.705 218.778,201.695 218.778,202.300 218.687 C 202.905 218.595,202.410 218.520,201.200 218.520 C 199.990 218.520,199.495 218.595,200.100 218.687 M60.731 222.300 C 76.644 222.358,102.564 222.358,118.331 222.300 C 134.099 222.242,121.080 222.195,89.400 222.195 C 57.720 222.195,44.819 222.242,60.731 222.300 M147.905 222.283 C 148.402 222.379,149.122 222.375,149.505 222.275 C 149.887 222.175,149.480 222.096,148.600 222.101 C 147.720 222.105,147.407 222.187,147.905 222.283 M154.300 222.289 C 155.015 222.378,156.185 222.378,156.900 222.289 C 157.615 222.201,157.030 222.128,155.600 222.128 C 154.170 222.128,153.585 222.201,154.300 222.289 M167.563 222.517 C 168.216 223.349,167.849 223.852,166.400 224.112 C 165.671 224.242,165.807 224.306,166.900 224.346 C 167.725 224.375,168.400 224.580,168.400 224.800 C 168.400 225.020,168.805 225.188,169.300 225.173 L 170.200 225.146 169.300 224.712 C 168.805 224.473,168.400 223.967,168.400 223.588 C 168.400 223.208,168.085 222.651,167.700 222.349 C 167.062 221.849,167.050 221.863,167.563 222.517 M230.480 222.480 C 229.433 223.527,229.912 224.403,231.500 224.346 C 232.593 224.306,232.729 224.242,232.000 224.112 C 230.592 223.859,230.178 223.349,230.786 222.617 C 231.391 221.888,231.170 221.790,230.480 222.480 M241.500 222.289 C 242.215 222.378,243.385 222.378,244.100 222.289 C 244.815 222.201,244.230 222.128,242.800 222.128 C 241.370 222.128,240.785 222.201,241.500 222.289 M248.300 222.289 C 249.015 222.378,250.185 222.378,250.900 222.289 C 251.615 222.201,251.030 222.128,249.600 222.128 C 248.170 222.128,247.585 222.201,248.300 222.289 M30.577 222.915 C 30.469 223.198,30.434 226.483,30.500 230.215 L 30.621 237.000 30.710 229.933 C 30.776 224.724,30.931 222.814,31.300 222.665 C 31.692 222.507,31.689 222.456,31.287 222.432 C 31.006 222.414,30.686 222.632,30.577 222.915 M268.344 227.576 C 268.864 228.029,269.479 228.400,269.711 228.400 C 270.203 228.400,270.179 228.380,268.600 227.455 L 267.400 226.753 268.344 227.576 M276.000 232.640 C 278.828 235.122,281.439 237.733,283.359 240.000 C 284.507 241.355,284.653 241.454,283.951 240.400 C 282.765 238.620,277.950 233.807,275.600 232.053 C 274.113 230.943,274.183 231.045,276.000 232.640 M182.450 232.539 C 181.993 233.090,182.577 233.860,184.000 234.583 C 184.330 234.751,184.060 234.432,183.400 233.875 C 182.158 232.827,182.217 232.709,184.200 232.270 C 184.813 232.134,184.755 232.082,183.949 232.046 C 183.371 232.021,182.697 232.243,182.450 232.539 M214.000 232.274 C 216.159 232.631,216.268 232.805,215.000 233.875 C 214.340 234.432,214.070 234.751,214.400 234.583 C 216.701 233.414,216.615 231.952,214.251 232.054 C 213.184 232.101,213.147 232.133,214.000 232.274 M211.000 233.014 C 210.340 233.317,210.070 233.566,210.400 233.568 C 210.730 233.570,211.450 233.314,212.000 233.000 C 213.265 232.277,212.589 232.287,211.000 233.014 M193.105 234.283 C 193.602 234.379,194.322 234.375,194.705 234.275 C 195.087 234.175,194.680 234.096,193.800 234.101 C 192.920 234.105,192.607 234.187,193.105 234.283 M203.905 234.283 C 204.402 234.379,205.122 234.375,205.505 234.275 C 205.887 234.175,205.480 234.096,204.600 234.101 C 203.720 234.105,203.407 234.187,203.905 234.283 M198.105 234.687 C 198.714 234.779,199.614 234.777,200.105 234.682 C 200.597 234.587,200.100 234.511,199.000 234.514 C 197.900 234.517,197.497 234.595,198.105 234.687 M186.000 236.925 C 186.000 236.994,186.585 237.579,187.300 238.225 L 188.600 239.400 187.425 238.100 C 186.330 236.888,186.000 236.616,186.000 236.925 M189.194 240.603 C 190.787 242.521,190.921 242.645,190.486 241.796 C 190.259 241.353,189.652 240.634,189.137 240.198 C 188.233 239.434,188.235 239.448,189.194 240.603 M208.944 240.500 C 208.506 240.995,207.834 241.940,207.450 242.600 L 206.753 243.800 207.559 242.800 C 209.969 239.812,210.859 238.334,208.944 240.500 M113.113 242.300 C 112.507 242.995,111.280 245.193,111.723 244.790 C 112.083 244.462,113.991 241.600,113.850 241.600 C 113.781 241.600,113.449 241.915,113.113 242.300 M134.703 242.900 C 134.185 243.395,134.040 243.600,134.380 243.356 C 134.721 243.112,135.360 242.712,135.800 242.468 C 136.240 242.224,136.385 242.019,136.122 242.012 C 135.860 242.005,135.221 242.405,134.703 242.900 M226.887 244.700 C 225.930 245.635,225.914 245.681,226.781 245.006 C 228.488 243.676,228.569 243.600,228.286 243.600 C 228.136 243.600,227.506 244.095,226.887 244.700 M286.000 243.897 C 286.000 244.120,286.251 244.510,286.557 244.764 C 286.863 245.019,287.338 245.766,287.611 246.426 C 287.884 247.086,288.188 247.545,288.286 247.447 C 288.384 247.349,288.243 246.848,287.973 246.334 C 287.260 244.980,286.000 243.424,286.000 243.897 M268.400 247.000 C 269.146 247.770,269.847 248.400,269.957 248.400 C 270.067 248.400,269.546 247.770,268.800 247.000 C 268.054 246.230,267.353 245.600,267.243 245.600 C 267.133 245.600,267.654 246.230,268.400 247.000 M128.344 248.300 C 127.193 249.689,126.706 250.400,126.904 250.400 C 127.014 250.400,127.586 249.770,128.173 249.000 C 129.263 247.571,129.395 247.032,128.344 248.300 M194.002 248.079 C 194.001 248.232,194.450 249.204,195.000 250.238 C 195.550 251.273,195.994 251.867,195.988 251.560 C 195.975 251.002,194.006 247.549,194.002 248.079 M203.178 250.298 C 202.274 252.101,202.287 252.279,203.220 250.883 C 203.704 250.159,204.017 249.483,203.915 249.382 C 203.813 249.280,203.481 249.692,203.178 250.298 M217.072 257.819 C 216.132 259.789,216.264 260.124,217.247 258.262 C 217.693 257.416,217.987 256.654,217.901 256.567 C 217.814 256.481,217.441 257.044,217.072 257.819 M292.456 260.000 C 292.456 260.330,292.611 260.960,292.800 261.400 C 293.017 261.904,293.144 261.978,293.144 261.600 C 293.144 261.270,292.989 260.640,292.800 260.200 C 292.583 259.696,292.456 259.622,292.456 260.000 M277.714 266.200 C 277.717 267.300,277.795 267.703,277.887 267.095 C 277.979 266.486,277.977 265.586,277.882 265.095 C 277.787 264.603,277.711 265.100,277.714 266.200 M215.059 266.288 C 214.921 267.119,214.830 268.520,214.856 269.400 C 214.887 270.447,215.023 269.973,215.248 268.030 C 215.611 264.896,215.483 263.719,215.059 266.288 M183.346 269.000 C 183.347 271.200,183.414 272.049,183.495 270.887 C 183.576 269.724,183.576 267.924,183.493 266.887 C 183.411 265.849,183.345 266.800,183.346 269.000 M293.742 269.000 C 293.741 270.980,293.808 271.840,293.892 270.912 C 293.976 269.984,293.977 268.364,293.895 267.312 C 293.812 266.260,293.743 267.020,293.742 269.000 M120.542 269.400 C 120.541 271.380,120.608 272.240,120.692 271.312 C 120.776 270.384,120.777 268.764,120.695 267.712 C 120.612 266.660,120.543 267.420,120.542 269.400 M104.493 270.000 C 104.493 270.770,104.575 271.085,104.676 270.700 C 104.776 270.315,104.776 269.685,104.676 269.300 C 104.575 268.915,104.493 269.230,104.493 270.000 M215.293 272.400 C 215.293 273.170,215.375 273.485,215.476 273.100 C 215.576 272.715,215.576 272.085,215.476 271.700 C 215.375 271.315,215.293 271.630,215.293 272.400 M277.701 272.600 C 277.705 273.480,277.787 273.793,277.883 273.295 C 277.979 272.798,277.975 272.078,277.875 271.695 C 277.775 271.313,277.696 271.720,277.701 272.600 M120.856 274.000 C 120.856 274.330,121.011 274.960,121.200 275.400 C 121.417 275.904,121.544 275.978,121.544 275.600 C 121.544 275.270,121.389 274.640,121.200 274.200 C 120.983 273.696,120.856 273.622,120.856 274.000 M290.865 284.617 C 290.195 286.088,290.323 286.402,291.047 285.065 C 291.386 284.440,291.588 283.854,291.496 283.763 C 291.405 283.671,291.121 284.056,290.865 284.617 M177.964 286.500 C 177.709 286.995,177.118 287.849,176.650 288.397 L 175.800 289.394 176.741 288.598 C 177.633 287.843,179.042 285.600,178.624 285.600 C 178.516 285.600,178.219 286.005,177.964 286.500 M108.403 287.690 C 108.401 287.850,108.759 288.570,109.199 289.290 C 109.638 290.011,109.996 290.420,109.996 290.200 C 109.995 289.980,109.637 289.260,109.200 288.600 C 108.763 287.940,108.404 287.531,108.403 287.690 M127.583 289.100 C 128.326 290.035,129.006 290.800,129.094 290.800 C 129.377 290.800,127.663 288.549,126.935 287.964 C 126.548 287.654,126.840 288.165,127.583 289.100 M268.581 291.300 L 267.000 293.000 268.700 291.419 C 269.635 290.549,270.400 289.784,270.400 289.719 C 270.400 289.416,270.052 289.719,268.581 291.300 M110.000 291.089 C 110.000 291.321,110.371 291.936,110.824 292.456 L 111.647 293.400 110.945 292.200 C 110.020 290.621,110.000 290.597,110.000 291.089 M225.000 292.187 C 225.660 292.767,226.920 293.788,227.800 294.458 L 229.400 295.676 227.800 294.222 C 226.920 293.423,225.660 292.401,225.000 291.951 L 223.800 291.134 225.000 292.187 M206.260 294.100 C 207.453 296.044,208.888 297.968,209.489 298.430 C 210.026 298.842,210.000 298.734,209.380 297.988 C 208.929 297.445,208.049 296.235,207.426 295.300 C 206.420 293.792,205.473 292.818,206.260 294.100 M112.364 295.133 C 112.580 295.536,113.071 296.121,113.455 296.433 C 113.887 296.784,113.790 296.504,113.201 295.700 C 112.151 294.265,111.757 293.998,112.364 295.133 M190.000 296.800 C 189.303 297.680,188.823 298.400,188.933 298.400 C 189.043 298.400,189.703 297.680,190.400 296.800 C 191.097 295.920,191.577 295.200,191.467 295.200 C 191.357 295.200,190.697 295.920,190.000 296.800 M260.600 297.010 C 259.720 297.552,259.180 297.991,259.400 297.985 C 259.620 297.980,260.520 297.532,261.400 296.990 C 262.280 296.448,262.820 296.009,262.600 296.015 C 262.380 296.020,261.480 296.468,260.600 297.010 M283.393 298.267 C 282.674 299.365,283.265 300.425,284.576 300.388 C 284.809 300.381,284.640 300.175,284.200 299.929 C 283.760 299.683,283.341 299.434,283.268 299.376 C 283.195 299.317,283.441 298.804,283.814 298.235 C 284.187 297.666,284.402 297.200,284.292 297.200 C 284.182 297.200,283.777 297.680,283.393 298.267 M142.609 299.161 C 142.824 299.371,143.540 299.671,144.200 299.828 C 145.748 300.195,145.400 299.854,143.609 299.249 C 142.844 298.990,142.394 298.950,142.609 299.161 M115.600 299.325 C 115.600 299.394,116.185 299.979,116.900 300.625 L 118.200 301.800 117.025 300.500 C 115.930 299.288,115.600 299.016,115.600 299.325 M186.360 301.112 C 184.400 303.190,183.231 304.826,184.869 303.200 C 186.239 301.841,188.520 299.200,188.324 299.200 C 188.237 299.200,187.353 300.061,186.360 301.112 M210.000 299.325 C 210.000 299.394,210.585 299.979,211.300 300.625 L 212.600 301.800 211.425 300.500 C 210.330 299.288,210.000 299.016,210.000 299.325 M147.505 300.283 C 148.002 300.379,148.722 300.375,149.105 300.275 C 149.487 300.175,149.080 300.096,148.200 300.101 C 147.320 300.105,147.007 300.187,147.505 300.283 M155.100 300.282 C 155.595 300.378,156.405 300.378,156.900 300.282 C 157.395 300.187,156.990 300.109,156.000 300.109 C 155.010 300.109,154.605 300.187,155.100 300.282 M241.700 300.276 C 242.085 300.376,242.715 300.376,243.100 300.276 C 243.485 300.175,243.170 300.093,242.400 300.093 C 241.630 300.093,241.315 300.175,241.700 300.276 M249.305 300.287 C 249.914 300.379,250.814 300.377,251.305 300.282 C 251.797 300.187,251.300 300.111,250.200 300.114 C 249.100 300.117,248.697 300.195,249.305 300.287 M367.764 308.600 C 367.763 312.340,367.823 313.924,367.897 312.120 C 367.971 310.315,367.972 307.255,367.898 305.320 C 367.825 303.384,367.764 304.860,367.764 308.600 M213.200 302.525 C 213.200 302.594,213.785 303.179,214.500 303.825 L 215.800 305.000 214.625 303.700 C 213.530 302.488,213.200 302.216,213.200 302.525 M120.600 304.400 C 121.459 305.280,122.252 306.000,122.362 306.000 C 122.472 306.000,121.859 305.280,121.000 304.400 C 120.141 303.520,119.348 302.800,119.238 302.800 C 119.128 302.800,119.741 303.520,120.600 304.400 M180.606 306.390 C 180.321 306.851,177.101 308.967,174.000 310.731 C 172.790 311.419,171.948 311.986,172.129 311.991 C 172.526 312.002,175.450 310.358,178.230 308.562 C 180.107 307.349,181.604 306.000,181.073 306.000 C 180.949 306.000,180.739 306.176,180.606 306.390 M218.400 307.379 C 218.400 307.489,218.940 307.859,219.600 308.200 C 220.260 308.541,220.800 308.731,220.800 308.621 C 220.800 308.511,220.260 308.141,219.600 307.800 C 218.940 307.459,218.400 307.269,218.400 307.379 M127.600 309.800 C 128.150 310.114,128.780 310.372,129.000 310.372 C 129.220 310.372,128.950 310.114,128.400 309.800 C 127.850 309.486,127.220 309.228,127.000 309.228 C 126.780 309.228,127.050 309.486,127.600 309.800 M149.700 316.296 C 150.965 316.375,153.035 316.375,154.300 316.296 C 155.565 316.216,154.530 316.151,152.000 316.151 C 149.470 316.151,148.435 316.216,149.700 316.296 M273.731 316.300 C 290.854 316.358,318.754 316.358,335.731 316.300 C 352.709 316.242,338.700 316.195,304.600 316.195 C 270.500 316.195,256.609 316.242,273.731 316.300 " stroke="none" fill="#868484" fill-rule="evenodd"></path><path id="path4" d="M230.229 66.229 C 229.665 66.792,229.599 71.130,229.594 107.929 C 229.591 130.518,229.447 149.221,229.275 149.492 C 229.046 149.852,228.593 149.687,227.581 148.873 C 225.725 147.379,222.351 145.200,221.895 145.200 C 221.692 145.200,221.069 144.840,220.509 144.400 C 219.950 143.960,219.199 143.600,218.840 143.600 C 218.482 143.600,217.471 143.212,216.594 142.738 C 215.717 142.264,213.920 141.651,212.600 141.375 C 211.280 141.099,209.390 140.572,208.400 140.203 C 205.849 139.255,190.843 139.457,188.995 140.465 C 188.332 140.827,186.892 141.254,185.795 141.414 C 184.698 141.575,182.991 142.132,182.003 142.653 C 181.015 143.174,179.925 143.600,179.581 143.600 C 179.237 143.600,178.345 144.050,177.600 144.600 C 176.855 145.150,176.023 145.600,175.753 145.600 C 175.483 145.600,174.727 146.050,174.073 146.600 C 173.419 147.150,172.696 147.600,172.465 147.600 C 172.234 147.600,171.810 147.934,171.523 148.343 C 171.235 148.751,170.617 149.206,170.150 149.354 C 169.072 149.694,162.135 156.578,161.361 158.076 C 161.041 158.694,160.616 159.200,160.417 159.200 C 160.217 159.200,159.939 159.561,159.799 160.002 C 159.659 160.443,159.132 161.298,158.627 161.902 C 158.122 162.506,157.577 163.423,157.415 163.939 C 157.253 164.456,156.779 165.221,156.361 165.639 C 155.942 166.058,155.600 166.716,155.600 167.103 C 155.600 167.490,155.172 168.615,154.648 169.603 C 154.125 170.591,153.562 172.206,153.398 173.191 C 153.233 174.176,152.834 175.386,152.511 175.880 C 151.113 178.013,151.105 196.775,152.501 198.906 C 152.848 199.434,153.260 200.752,153.418 201.833 C 153.576 202.915,154.131 204.536,154.652 205.435 C 155.174 206.334,155.600 207.432,155.600 207.873 C 155.600 208.315,155.953 208.996,156.385 209.386 C 156.817 209.777,157.371 210.705,157.616 211.448 C 157.861 212.192,158.226 212.800,158.426 212.800 C 158.626 212.800,159.040 213.400,159.347 214.134 C 159.653 214.867,160.330 215.929,160.852 216.494 C 163.980 219.881,165.128 221.234,165.341 221.792 C 165.474 222.137,165.991 222.583,166.491 222.784 C 167.284 223.103,167.206 223.153,165.886 223.175 C 165.053 223.189,163.915 222.901,163.356 222.535 C 162.342 221.870,154.687 221.287,149.200 221.456 C 147.990 221.493,120.868 221.541,88.929 221.562 C 36.702 221.596,30.794 221.663,30.229 222.229 C 29.538 222.919,29.277 236.472,29.934 237.507 C 30.700 238.713,33.655 238.800,73.926 238.800 L 114.858 238.800 114.022 239.900 C 113.563 240.505,112.913 241.360,112.578 241.800 C 111.277 243.508,109.614 246.221,109.607 246.646 C 109.603 246.891,109.250 247.537,108.822 248.081 C 108.394 248.625,107.829 249.954,107.566 251.035 C 107.303 252.116,106.834 253.294,106.525 253.653 C 106.215 254.012,105.778 255.542,105.554 257.053 C 105.329 258.564,104.843 260.610,104.473 261.600 C 103.522 264.142,103.529 274.723,104.482 276.871 C 104.841 277.681,105.262 279.391,105.416 280.671 C 105.570 281.952,106.125 283.917,106.648 285.039 C 107.172 286.160,107.600 287.303,107.600 287.580 C 107.600 288.010,108.945 290.847,110.076 292.800 C 111.378 295.050,111.883 295.812,112.500 296.463 C 112.885 296.868,113.200 297.311,113.200 297.446 C 113.200 298.344,121.391 306.766,122.286 306.788 C 122.553 306.795,122.954 307.141,123.177 307.558 C 123.401 307.975,124.127 308.505,124.792 308.737 C 125.456 308.969,126.000 309.328,126.000 309.536 C 126.000 309.743,126.685 310.187,127.523 310.522 C 128.360 310.857,129.278 311.412,129.563 311.755 C 129.847 312.098,130.717 312.498,131.495 312.644 C 132.273 312.790,133.226 313.226,133.612 313.612 C 133.999 313.999,135.099 314.440,136.058 314.592 C 137.016 314.744,138.610 315.258,139.600 315.734 C 142.332 317.048,161.708 317.068,164.200 315.760 C 165.080 315.297,166.668 314.789,167.729 314.631 C 168.790 314.472,169.980 314.020,170.374 313.626 C 170.768 313.232,171.720 312.791,172.490 312.647 C 173.260 312.503,174.213 312.028,174.607 311.592 C 175.001 311.156,175.664 310.800,176.080 310.800 C 176.496 310.800,177.242 310.395,177.737 309.900 C 178.233 309.405,179.124 308.779,179.719 308.509 C 180.314 308.238,180.800 307.743,180.800 307.409 C 180.800 307.074,181.118 306.800,181.506 306.800 C 182.601 306.800,190.800 298.511,190.800 297.404 C 190.800 297.178,191.160 296.768,191.600 296.493 C 192.040 296.218,192.400 295.739,192.400 295.427 C 192.400 295.116,192.838 294.340,193.374 293.704 C 193.910 293.067,194.473 292.018,194.627 291.373 C 194.780 290.728,195.227 289.840,195.620 289.400 C 196.013 288.960,196.463 287.880,196.618 287.000 C 196.774 286.120,197.190 285.070,197.542 284.668 C 197.894 284.265,198.379 282.555,198.619 280.868 L 199.054 277.800 199.517 280.358 C 199.772 281.764,200.254 283.218,200.589 283.588 C 200.924 283.958,201.357 285.109,201.550 286.145 C 201.744 287.181,202.171 288.337,202.500 288.714 C 202.830 289.091,203.315 290.074,203.579 290.897 C 203.844 291.720,204.282 292.530,204.553 292.697 C 204.825 292.864,205.278 293.572,205.560 294.271 C 205.842 294.970,206.417 295.853,206.837 296.233 C 207.256 296.613,207.600 297.115,207.600 297.348 C 207.600 297.581,207.956 298.138,208.392 298.586 C 208.828 299.034,210.316 300.615,211.700 302.100 C 213.083 303.585,214.437 304.800,214.707 304.800 C 214.978 304.800,215.200 305.065,215.200 305.390 C 215.200 305.714,215.740 306.259,216.400 306.600 C 217.060 306.941,217.600 307.400,217.600 307.619 C 217.600 307.838,218.093 308.238,218.695 308.509 C 219.296 308.779,220.102 309.310,220.484 309.690 C 220.867 310.069,221.679 310.503,222.290 310.654 C 222.900 310.806,223.630 311.253,223.911 311.649 C 224.193 312.044,225.072 312.490,225.866 312.639 C 226.660 312.788,227.618 313.218,227.994 313.594 C 228.370 313.970,229.471 314.403,230.439 314.556 C 231.408 314.709,233.010 315.231,234.000 315.717 L 235.800 316.600 301.685 316.709 L 367.570 316.818 368.230 315.810 C 369.098 314.485,368.941 301.334,368.045 300.254 C 367.549 299.656,363.942 299.600,326.175 299.600 C 298.990 299.600,284.762 299.463,284.599 299.199 C 284.374 298.834,285.978 296.200,287.642 294.200 C 288.008 293.760,288.437 292.976,288.594 292.459 C 288.751 291.941,289.312 290.881,289.840 290.103 C 290.368 289.325,290.800 288.364,290.800 287.967 C 290.800 287.570,291.146 286.650,291.569 285.923 C 291.992 285.195,292.468 283.710,292.626 282.622 C 292.785 281.533,293.258 279.867,293.677 278.919 C 294.823 276.327,294.828 262.084,293.684 259.496 C 293.261 258.540,292.785 256.867,292.626 255.778 C 292.467 254.690,292.067 253.380,291.737 252.866 C 291.407 252.352,290.880 251.068,290.567 250.013 C 290.254 248.959,289.740 247.882,289.424 247.620 C 289.109 247.359,288.736 246.619,288.595 245.977 C 288.454 245.335,288.165 244.702,287.953 244.571 C 287.608 244.358,286.065 242.189,285.000 240.421 C 284.018 238.792,280.458 234.990,278.234 233.196 C 276.895 232.116,275.499 230.969,275.130 230.647 C 274.762 230.324,274.042 229.841,273.530 229.572 C 273.019 229.303,272.464 228.853,272.297 228.572 C 272.130 228.290,271.344 227.846,270.551 227.584 C 269.757 227.322,268.768 226.768,268.354 226.354 C 267.939 225.939,267.284 225.600,266.897 225.600 C 266.510 225.600,265.385 225.172,264.397 224.648 C 263.409 224.125,261.794 223.562,260.809 223.398 C 259.824 223.233,258.571 222.807,258.026 222.449 C 256.479 221.436,236.252 221.480,234.696 222.500 C 234.109 222.885,232.947 223.182,232.114 223.160 C 230.827 223.126,230.750 223.079,231.600 222.844 C 232.194 222.679,232.650 222.225,232.722 221.724 C 232.790 221.261,233.208 220.787,233.652 220.670 C 234.096 220.554,234.557 220.086,234.676 219.630 C 234.796 219.173,235.136 218.800,235.433 218.800 C 235.729 218.800,236.187 218.395,236.449 217.900 C 236.712 217.405,237.238 216.779,237.618 216.509 C 237.998 216.239,238.423 215.564,238.562 215.009 C 238.701 214.454,239.002 214.000,239.230 214.000 C 239.458 214.000,239.993 213.214,240.418 212.253 C 240.843 211.292,241.464 210.279,241.799 210.001 C 242.133 209.723,242.517 208.811,242.651 207.973 C 242.785 207.135,243.132 206.358,243.422 206.247 C 243.995 206.027,244.794 203.584,244.798 202.044 C 244.799 201.518,245.078 200.885,245.417 200.637 C 245.776 200.374,246.191 199.100,246.409 197.593 C 247.006 193.464,246.920 66.680,246.320 66.080 C 245.522 65.282,231.041 65.416,230.229 66.229 M245.612 66.812 C 246.421 67.621,246.423 67.776,246.311 131.712 L 246.199 195.800 245.351 198.200 C 244.884 199.520,244.369 201.230,244.206 202.000 C 243.104 207.203,238.510 214.731,232.930 220.480 C 229.378 224.139,230.340 224.978,236.000 223.157 C 246.764 219.694,263.579 223.190,274.400 231.143 C 281.290 236.206,290.322 247.989,290.413 252.032 C 290.420 252.344,290.682 252.939,290.995 253.353 C 291.309 253.767,291.759 255.117,291.995 256.353 C 292.232 257.589,292.727 259.680,293.095 261.000 C 294.785 267.065,293.530 279.182,290.443 286.600 C 288.686 290.824,285.893 295.887,284.817 296.800 C 284.399 297.155,283.132 299.266,283.268 299.381 C 284.401 300.334,287.174 300.400,326.184 300.400 L 367.220 300.400 367.610 301.426 C 368.111 302.743,368.109 314.808,367.608 315.600 C 367.274 316.129,359.670 316.200,303.115 316.200 L 239.000 316.200 235.000 315.075 C 230.826 313.901,225.361 311.742,224.498 310.927 C 224.221 310.666,223.618 310.333,223.156 310.186 C 218.160 308.600,208.626 298.690,204.505 290.800 C 202.839 287.610,201.416 283.815,199.778 278.200 L 199.078 275.800 198.532 278.200 C 195.253 292.622,186.322 304.640,174.200 310.942 C 171.412 312.391,166.582 314.400,165.885 314.400 C 165.566 314.400,164.156 314.785,162.752 315.256 C 159.794 316.248,146.057 316.556,143.000 315.700 C 142.120 315.453,140.103 314.900,138.519 314.470 C 135.876 313.754,133.017 312.623,131.000 311.496 C 130.560 311.250,129.480 310.699,128.600 310.272 C 127.720 309.844,126.910 309.382,126.800 309.244 C 126.690 309.105,125.820 308.487,124.866 307.868 C 121.255 305.526,114.229 298.127,111.727 294.030 C 110.482 291.991,108.000 286.903,108.000 286.389 C 108.000 286.151,107.656 285.201,107.235 284.278 C 106.604 282.891,105.445 277.230,104.600 271.400 C 104.188 268.561,105.664 258.572,107.082 254.600 C 109.391 248.133,113.332 240.982,115.394 239.517 C 117.137 238.279,114.947 238.201,72.965 238.000 C 36.397 237.825,31.123 237.725,30.791 237.200 C 30.583 236.870,30.409 233.491,30.406 229.690 L 30.400 222.780 31.426 222.390 C 33.341 221.662,156.889 221.896,160.000 222.633 C 168.894 224.742,169.450 224.498,165.337 220.295 C 162.702 217.602,158.000 211.309,158.000 210.475 C 158.000 210.273,157.666 209.679,157.258 209.154 C 156.850 208.629,156.283 207.480,155.998 206.600 C 155.712 205.720,155.254 204.640,154.979 204.200 C 154.704 203.760,154.275 202.413,154.024 201.207 C 153.774 200.001,153.282 198.201,152.931 197.207 C 151.989 194.535,151.744 183.510,152.544 179.800 C 154.897 168.887,158.723 161.385,165.389 154.610 C 169.511 150.419,178.822 144.000,180.777 144.000 C 181.034 144.000,182.005 143.653,182.936 143.229 C 183.866 142.805,185.072 142.359,185.614 142.238 C 186.156 142.116,188.220 141.626,190.200 141.148 C 194.240 140.173,203.108 139.950,206.400 140.740 C 207.390 140.978,209.484 141.441,211.053 141.768 C 212.622 142.096,214.782 142.755,215.853 143.232 C 220.226 145.180,223.086 146.643,224.600 147.706 C 229.115 150.876,229.280 150.953,229.760 150.143 C 230.069 149.622,230.260 137.055,230.400 108.004 L 230.600 66.608 231.800 66.351 C 235.070 65.652,244.776 65.976,245.612 66.812 M191.000 157.427 C 188.139 158.299,183.291 160.412,182.208 161.260 C 168.161 172.259,164.154 187.291,171.452 201.600 C 174.753 208.071,181.372 214.269,187.036 216.192 C 188.059 216.539,189.253 217.014,189.689 217.248 C 192.997 219.018,205.898 218.736,209.892 216.806 C 210.810 216.363,211.785 216.000,212.059 216.000 C 212.548 216.000,213.077 215.681,217.714 212.590 C 229.862 204.492,233.971 186.463,226.764 172.880 C 220.008 160.148,204.322 153.370,191.000 157.427 M204.449 157.557 C 205.412 157.973,207.217 158.433,208.459 158.580 C 209.921 158.753,210.964 159.119,211.414 159.616 C 211.797 160.039,212.720 160.499,213.466 160.639 C 214.212 160.779,215.003 161.232,215.225 161.647 C 215.447 162.061,215.865 162.400,216.155 162.400 C 217.047 162.400,222.905 167.970,223.831 169.700 C 224.155 170.305,224.567 170.800,224.746 170.800 C 224.925 170.800,225.316 171.539,225.614 172.443 C 225.912 173.346,226.381 174.171,226.657 174.277 C 226.932 174.383,227.368 175.482,227.625 176.719 C 227.881 177.956,228.386 179.417,228.746 179.966 C 229.733 181.473,229.714 194.369,228.723 195.464 C 228.350 195.876,227.845 197.107,227.600 198.200 C 227.355 199.293,226.913 200.460,226.617 200.794 C 226.322 201.127,225.801 202.075,225.460 202.900 C 225.120 203.725,224.663 204.400,224.446 204.400 C 224.229 204.400,223.824 205.030,223.546 205.800 C 223.267 206.570,222.802 207.200,222.511 207.200 C 222.221 207.200,221.779 207.647,221.531 208.192 C 221.282 208.738,220.755 209.287,220.360 209.413 C 219.964 209.538,219.530 209.992,219.394 210.420 C 219.257 210.849,218.913 211.200,218.628 211.200 C 218.343 211.200,217.459 211.695,216.663 212.300 C 214.113 214.237,212.365 215.204,210.755 215.566 C 209.891 215.760,208.692 216.252,208.092 216.659 C 206.510 217.732,191.711 217.786,190.536 216.723 C 190.125 216.351,189.040 215.878,188.125 215.673 C 187.211 215.467,185.926 214.917,185.270 214.450 C 184.613 213.982,183.881 213.600,183.642 213.600 C 182.380 213.600,176.431 208.038,174.550 205.100 C 174.022 204.275,173.432 203.600,173.239 203.600 C 173.047 203.600,172.775 202.995,172.637 202.255 C 172.498 201.515,172.043 200.601,171.625 200.223 C 171.185 199.825,170.753 198.715,170.598 197.583 C 170.450 196.509,169.985 194.955,169.565 194.130 C 168.540 192.121,168.423 182.280,169.410 181.189 C 169.745 180.819,170.214 179.364,170.452 177.958 C 170.690 176.551,171.137 175.200,171.444 174.955 C 171.752 174.710,172.212 173.900,172.467 173.155 C 172.960 171.715,174.026 170.122,175.500 168.623 C 175.995 168.120,176.400 167.588,176.400 167.441 C 176.400 167.017,179.130 164.400,179.573 164.400 C 179.792 164.400,180.165 164.040,180.400 163.600 C 180.635 163.160,181.084 162.800,181.396 162.800 C 181.708 162.800,182.417 162.346,182.972 161.792 C 183.526 161.238,184.512 160.678,185.162 160.548 C 185.812 160.418,186.690 159.989,187.112 159.596 C 187.545 159.192,189.031 158.702,190.525 158.469 C 191.980 158.243,193.673 157.794,194.286 157.471 C 196.026 156.555,202.254 156.608,204.449 157.557 M182.666 232.668 C 182.518 232.815,183.163 233.670,184.099 234.569 C 185.035 235.467,186.932 237.552,188.315 239.201 C 191.582 243.096,191.394 242.844,192.370 244.644 C 192.833 245.500,193.840 247.340,194.607 248.734 C 195.373 250.127,196.004 251.567,196.009 251.934 C 196.014 252.300,196.385 253.410,196.834 254.400 C 197.284 255.390,197.906 257.531,198.218 259.159 C 198.937 262.920,199.020 262.971,199.794 260.143 C 200.147 258.854,200.674 257.259,200.965 256.598 C 201.255 255.938,201.629 254.768,201.795 253.998 C 202.850 249.111,207.463 241.758,213.277 235.699 C 216.701 232.131,216.043 231.443,211.000 233.319 C 206.539 234.979,191.485 234.872,187.085 233.150 C 185.152 232.393,183.158 232.175,182.666 232.668 M195.845 235.255 C 197.515 235.679,198.606 235.636,207.715 234.778 C 213.803 234.204,213.727 234.164,211.312 236.686 C 208.272 239.861,205.200 243.842,205.200 244.606 C 205.200 244.879,204.939 245.318,204.620 245.583 C 204.302 245.848,203.823 246.725,203.557 247.532 C 203.291 248.339,202.759 249.450,202.374 250.000 C 201.990 250.550,201.566 251.640,201.434 252.422 C 201.301 253.205,200.834 254.548,200.396 255.407 C 199.958 256.266,199.587 257.426,199.572 257.985 C 199.498 260.638,198.911 260.472,198.640 257.722 C 198.463 255.931,198.086 254.505,197.636 253.926 C 197.240 253.417,196.785 252.280,196.626 251.400 C 196.466 250.520,196.013 249.440,195.620 249.000 C 195.227 248.560,194.787 247.700,194.642 247.090 C 194.498 246.479,194.024 245.624,193.590 245.190 C 193.155 244.755,192.800 244.133,192.800 243.807 C 192.800 243.259,191.998 242.204,189.700 239.732 C 189.205 239.199,188.800 238.605,188.800 238.411 C 188.800 238.217,188.350 237.704,187.800 237.271 C 187.250 236.839,186.800 236.280,186.800 236.030 C 186.800 235.780,186.531 235.472,186.202 235.346 C 183.578 234.338,191.927 234.260,195.845 235.255 M147.000 238.288 C 118.295 242.318,111.370 282.559,136.974 296.548 C 165.281 312.014,195.459 279.286,178.052 252.000 C 174.915 247.082,165.951 240.010,162.840 239.998 C 162.488 239.996,161.686 239.727,161.058 239.400 C 158.840 238.243,151.473 237.660,147.000 238.288 M241.400 238.288 C 233.545 239.391,223.574 246.103,220.010 252.688 C 219.560 253.520,219.024 254.470,218.820 254.800 C 214.757 261.358,214.250 273.194,217.690 281.200 C 227.499 304.027,258.563 307.129,272.327 286.654 C 273.979 284.196,276.000 280.212,276.000 279.413 C 276.000 279.078,276.393 277.677,276.874 276.302 C 278.079 272.850,278.060 265.795,276.835 262.048 C 276.376 260.644,276.000 259.308,276.000 259.080 C 276.000 258.851,275.423 257.479,274.718 256.032 C 268.507 243.277,255.439 236.318,241.400 238.288 M158.877 239.562 C 159.605 239.981,161.010 240.454,162.000 240.613 C 162.990 240.772,164.229 241.239,164.754 241.651 C 165.279 242.063,165.922 242.400,166.183 242.400 C 166.444 242.400,167.365 242.935,168.229 243.589 C 169.093 244.243,169.961 244.783,170.158 244.789 C 170.355 244.795,170.895 245.166,171.358 245.613 C 171.821 246.059,172.836 247.017,173.614 247.740 C 175.413 249.412,179.418 255.424,179.784 257.000 C 179.937 257.660,180.323 258.490,180.642 258.844 C 182.360 260.750,182.360 277.630,180.643 279.565 C 180.333 279.914,179.908 280.830,179.698 281.600 C 179.488 282.370,178.840 283.700,178.258 284.556 C 177.676 285.412,177.200 286.258,177.200 286.438 C 177.200 286.617,176.795 287.204,176.300 287.742 C 173.655 290.617,172.406 291.869,171.550 292.504 C 171.027 292.890,170.058 293.635,169.397 294.158 C 168.735 294.681,167.520 295.390,166.697 295.734 C 165.873 296.078,165.200 296.525,165.200 296.728 C 165.200 296.932,164.435 297.218,163.500 297.366 C 162.565 297.513,160.990 298.031,160.000 298.517 C 157.322 299.831,146.719 299.842,144.000 298.534 C 143.010 298.058,141.435 297.547,140.500 297.399 C 139.565 297.251,138.800 296.959,138.800 296.751 C 138.800 296.542,138.032 296.043,137.094 295.640 C 136.156 295.238,135.144 294.615,134.845 294.255 C 134.547 293.895,134.058 293.600,133.760 293.600 C 133.462 293.600,132.924 293.150,132.563 292.600 C 132.203 292.050,131.671 291.600,131.381 291.600 C 131.091 291.600,130.743 291.249,130.606 290.820 C 130.470 290.392,130.036 289.938,129.640 289.813 C 129.245 289.687,128.716 289.133,128.464 288.581 C 128.213 288.029,127.735 287.473,127.403 287.346 C 127.072 287.219,126.800 286.787,126.800 286.388 C 126.800 285.988,126.368 285.148,125.839 284.520 C 125.311 283.892,124.676 282.624,124.428 281.702 C 124.179 280.781,123.724 279.885,123.415 279.712 C 121.679 278.741,121.671 260.272,123.406 258.537 C 123.721 258.222,124.201 257.223,124.472 256.318 C 124.743 255.412,125.378 254.258,125.883 253.754 C 126.387 253.249,126.800 252.591,126.800 252.290 C 126.800 251.990,127.250 251.353,127.800 250.875 C 128.350 250.397,128.800 249.746,128.800 249.430 C 128.800 249.113,129.151 248.743,129.580 248.606 C 130.008 248.470,130.462 248.036,130.587 247.640 C 130.713 247.245,131.262 246.718,131.808 246.469 C 132.353 246.221,132.800 245.743,132.800 245.409 C 132.800 245.074,133.117 244.800,133.504 244.800 C 133.891 244.800,134.666 244.376,135.225 243.857 C 135.784 243.339,136.893 242.699,137.689 242.437 C 138.485 242.174,139.345 241.707,139.601 241.399 C 139.856 241.091,140.906 240.717,141.933 240.568 C 142.960 240.418,144.430 239.967,145.200 239.566 C 147.306 238.467,156.972 238.464,158.877 239.562 M252.648 239.378 C 253.102 239.697,254.691 240.181,256.179 240.455 C 257.667 240.729,258.971 241.180,259.077 241.458 C 259.184 241.735,259.930 242.177,260.735 242.440 C 262.259 242.938,263.814 243.963,265.377 245.500 C 265.880 245.995,266.418 246.400,266.573 246.400 C 266.924 246.400,269.600 249.214,269.600 249.584 C 269.600 249.733,270.050 250.247,270.600 250.725 C 271.150 251.203,271.600 251.795,271.600 252.040 C 271.600 252.284,272.050 253.019,272.600 253.673 C 273.150 254.327,273.600 255.127,273.600 255.452 C 273.600 255.777,274.050 256.705,274.600 257.514 C 275.219 258.425,275.600 259.547,275.600 260.457 C 275.600 261.267,275.958 263.070,276.395 264.464 C 277.332 267.453,277.419 271.137,276.609 273.463 C 276.290 274.378,275.849 276.247,275.628 277.617 C 275.408 278.986,274.974 280.398,274.664 280.753 C 274.355 281.109,273.892 282.053,273.636 282.852 C 273.379 283.650,272.817 284.623,272.385 285.014 C 271.953 285.404,271.600 285.990,271.600 286.316 C 271.600 286.642,271.195 287.303,270.700 287.786 C 270.205 288.269,269.508 289.009,269.151 289.432 C 267.873 290.947,264.896 293.600,264.475 293.600 C 264.239 293.600,263.810 293.932,263.523 294.339 C 263.235 294.745,262.312 295.303,261.472 295.579 C 260.632 295.855,259.852 296.319,259.741 296.610 C 259.629 296.902,258.786 297.265,257.869 297.418 C 256.951 297.571,255.480 298.079,254.600 298.548 C 252.412 299.713,240.456 299.845,238.800 298.722 C 238.250 298.349,236.920 297.848,235.845 297.608 C 234.770 297.368,233.441 296.818,232.891 296.386 C 232.342 295.954,231.671 295.600,231.401 295.600 C 230.885 295.600,228.571 293.942,226.684 292.219 C 226.070 291.659,225.407 291.200,225.211 291.200 C 225.014 291.200,224.743 290.849,224.606 290.420 C 224.470 289.992,224.008 289.530,223.580 289.394 C 223.151 289.257,222.800 288.880,222.800 288.555 C 222.800 288.230,222.352 287.515,221.804 286.968 C 221.256 286.420,220.696 285.524,220.558 284.977 C 220.421 284.429,219.992 283.760,219.606 283.489 C 219.220 283.219,218.778 282.254,218.624 281.345 C 218.471 280.436,217.953 279.271,217.473 278.755 C 216.126 277.310,216.121 261.589,217.467 259.878 C 217.944 259.272,218.452 258.078,218.596 257.224 C 218.740 256.370,219.205 255.357,219.629 254.974 C 220.053 254.590,220.400 253.983,220.400 253.624 C 220.400 252.963,221.759 251.112,223.625 249.232 C 224.188 248.665,224.767 247.885,224.912 247.500 C 225.057 247.115,225.425 246.800,225.731 246.800 C 226.038 246.800,226.626 246.350,227.039 245.800 C 227.452 245.250,228.025 244.800,228.313 244.800 C 228.601 244.800,229.286 244.350,229.836 243.800 C 230.386 243.250,231.073 242.800,231.362 242.800 C 231.652 242.800,232.503 242.383,233.254 241.873 C 234.005 241.364,235.691 240.732,237.000 240.469 C 238.310 240.206,239.649 239.723,239.976 239.395 C 240.826 238.545,251.438 238.531,252.648 239.378 " stroke="none" fill="#a6a4a5" fill-rule="evenodd"></path></g></svg>