<svg id="svg" version="1.1" xmlns="http://www.w3.org/2000/svg" xmlns:xlink="http://www.w3.org/1999/xlink"  width="400" height="400"  style="background-color:white;padding: 0.0em" viewBox="0, 0, 400,400"><g id="svgg"><path id="path0" d="M99.495 258.057 C 99.360 258.192,98.496 258.459,97.574 258.651 C 96.652 258.842,95.723 259.051,95.508 259.113 C 93.148 259.803,92.661 259.989,89.844 261.285 C 82.234 264.785,70.703 277.557,70.703 282.486 C 70.703 282.855,70.527 283.266,70.313 283.398 C 70.098 283.531,69.922 284.034,69.922 284.515 C 69.922 284.997,69.753 285.560,69.546 285.766 C 67.967 287.346,67.932 304.043,69.502 306.976 C 69.733 307.408,69.922 308.127,69.922 308.573 C 69.922 309.020,70.082 309.691,70.277 310.064 C 70.472 310.437,71.343 312.236,72.212 314.063 C 76.455 322.975,85.226 330.586,95.143 333.960 C 99.024 335.280,113.158 335.164,116.994 333.780 C 120.588 332.483,124.135 330.711,126.448 329.054 L 128.320 327.714 131.743 331.240 L 135.166 334.766 138.062 334.766 C 140.931 334.766,140.970 334.752,142.159 333.309 C 143.381 331.827,143.989 327.344,142.969 327.344 C 142.754 327.344,142.578 327.120,142.578 326.847 C 142.578 326.574,141.102 324.881,139.298 323.087 L 136.017 319.823 137.713 317.202 C 138.645 315.760,139.714 313.805,140.087 312.857 C 140.461 311.909,140.889 311.045,141.039 310.938 C 141.188 310.830,141.440 309.951,141.598 308.984 C 141.756 308.018,142.020 307.051,142.185 306.836 C 143.129 305.607,143.495 291.673,142.672 288.281 C 142.438 287.314,142.050 285.732,141.810 284.766 C 139.659 276.086,131.252 266.186,122.070 261.522 C 119.243 260.085,117.761 259.568,112.650 258.233 C 110.948 257.788,99.911 257.641,99.495 258.057 M154.850 259.135 L 153.320 260.458 153.320 296.414 L 153.320 332.371 154.468 333.568 C 156.077 335.248,160.865 335.379,162.343 333.784 C 164.096 331.893,164.106 331.651,163.984 295.365 L 163.867 260.848 162.157 259.330 C 159.774 257.216,157.151 257.146,154.850 259.135 M233.678 258.887 C 231.257 260.962,231.249 261.058,231.262 285.498 C 231.276 309.579,231.779 316.596,233.630 318.535 C 233.825 318.739,233.984 319.131,233.984 319.406 C 233.984 320.522,237.334 325.216,240.143 328.038 C 241.839 329.741,246.859 333.203,247.632 333.203 C 247.866 333.203,248.451 333.406,248.931 333.655 C 249.412 333.903,250.110 334.255,250.483 334.436 C 251.416 334.889,265.083 334.854,265.923 334.396 C 266.296 334.193,267.955 333.379,269.610 332.588 C 273.071 330.934,277.754 326.869,279.855 323.696 C 281.496 321.217,283.203 317.854,283.203 317.098 C 283.203 316.789,283.327 316.413,283.478 316.261 C 284.398 315.342,284.499 302.351,283.609 299.609 C 280.813 291.004,273.904 284.271,264.948 281.424 C 262.463 280.634,252.154 280.770,250.195 281.619 C 247.898 282.614,244.723 284.150,244.531 284.358 C 244.424 284.475,243.940 284.792,243.457 285.062 L 242.578 285.553 242.578 273.668 C 242.578 263.286,242.496 261.638,241.927 260.647 C 240.259 257.742,236.060 256.845,233.678 258.887 M110.108 269.774 C 113.685 270.376,119.922 272.722,119.922 273.466 C 119.922 273.636,120.263 273.884,120.680 274.016 C 123.709 274.977,130.095 283.806,131.282 288.672 C 132.366 293.116,132.582 301.669,131.643 302.930 C 131.483 303.145,131.231 303.993,131.082 304.815 C 130.934 305.637,130.474 306.912,130.060 307.650 C 129.646 308.387,129.321 309.033,129.338 309.085 C 129.355 309.137,129.148 309.666,128.877 310.260 L 128.384 311.341 125.032 308.069 C 119.570 302.738,116.747 302.185,113.973 305.900 C 111.826 308.776,112.535 311.175,116.843 315.608 L 120.399 319.267 119.477 319.979 C 118.970 320.370,117.764 320.987,116.797 321.350 C 115.830 321.713,114.863 322.132,114.648 322.282 C 114.434 322.432,113.555 322.693,112.695 322.863 C 111.836 323.033,110.869 323.246,110.547 323.337 C 109.814 323.543,102.034 323.547,100.977 323.342 C 91.998 321.600,83.907 314.617,80.947 306.055 C 80.724 305.410,80.411 304.531,80.251 304.102 C 79.600 302.349,79.523 301.538,79.535 296.484 C 79.547 291.389,79.626 290.549,80.251 288.867 C 80.411 288.438,80.729 287.559,80.958 286.914 C 82.795 281.733,86.273 277.203,90.820 274.067 C 92.947 272.601,93.726 272.176,96.875 270.766 C 97.910 270.303,103.335 269.280,105.225 269.193 C 105.843 269.164,108.040 269.425,110.108 269.774 M192.578 281.105 C 191.607 281.281,191.341 281.380,188.613 282.577 C 187.828 282.922,186.993 283.203,186.757 283.203 C 186.521 283.203,186.328 283.336,186.328 283.498 C 186.328 283.661,185.757 284.046,185.059 284.355 C 183.555 285.021,176.563 291.960,176.563 292.787 C 176.563 293.102,176.415 293.359,176.235 293.359 C 175.871 293.359,173.398 298.577,173.180 299.805 C 173.103 300.234,172.830 301.729,172.573 303.125 C 171.994 306.265,172.004 309.570,172.603 312.891 C 172.854 314.287,173.130 315.829,173.215 316.316 C 173.382 317.268,175.680 322.071,176.434 323.043 C 180.474 328.252,183.325 330.732,187.891 333.013 C 189.072 333.604,190.344 334.240,190.717 334.426 C 191.608 334.872,205.280 334.867,206.158 334.421 C 206.531 334.231,207.363 333.858,208.008 333.592 C 209.117 333.134,210.573 332.414,212.290 331.474 C 212.711 331.243,213.326 330.802,213.657 330.492 C 214.188 329.996,214.273 330.059,214.386 331.031 C 214.457 331.636,214.940 332.591,215.460 333.152 C 215.981 333.713,216.406 334.305,216.406 334.469 C 216.406 334.632,217.800 334.766,219.503 334.766 L 222.599 334.766 223.808 333.301 L 225.017 331.836 224.887 317.188 C 224.764 303.223,224.544 300.204,223.480 297.852 C 221.218 292.852,220.839 292.313,216.574 288.050 C 214.835 286.311,212.855 284.642,212.174 284.341 C 211.494 284.040,210.938 283.661,210.938 283.498 C 210.938 283.336,210.744 283.203,210.508 283.203 C 210.041 283.203,207.696 282.233,206.445 281.522 C 205.667 281.079,194.553 280.745,192.578 281.105 M307.227 281.017 C 307.012 281.093,306.045 281.387,305.078 281.671 C 299.559 283.290,294.406 287.257,292.188 291.595 C 289.289 297.263,292.149 305.953,297.722 308.412 C 298.653 308.822,299.502 309.273,299.609 309.413 C 299.717 309.553,300.414 309.800,301.159 309.962 C 301.904 310.123,302.783 310.389,303.112 310.551 C 304.425 311.199,305.770 311.690,308.008 312.339 C 309.297 312.713,310.527 313.145,310.742 313.300 C 310.957 313.455,311.748 313.710,312.500 313.867 C 313.252 314.024,314.043 314.275,314.258 314.424 C 314.473 314.573,316.230 315.202,318.164 315.821 C 324.629 317.891,325.107 320.052,319.682 322.678 C 313.396 325.721,307.349 324.656,301.675 319.507 L 298.633 316.746 296.130 316.891 C 292.455 317.105,290.740 319.467,291.332 323.499 C 291.670 325.802,298.261 331.522,302.930 333.563 C 303.574 333.845,304.407 334.231,304.780 334.421 C 305.794 334.936,319.281 334.852,320.587 334.322 C 329.986 330.508,333.992 325.855,333.976 318.771 C 333.963 313.087,331.838 309.549,327.068 307.264 C 325.823 306.668,324.535 306.043,324.206 305.874 C 323.877 305.706,323.003 305.435,322.266 305.273 C 321.528 305.111,320.655 304.846,320.325 304.683 C 319.013 304.036,317.668 303.545,315.430 302.895 C 314.141 302.522,312.910 302.084,312.695 301.924 C 312.480 301.764,311.644 301.509,310.836 301.358 C 310.027 301.207,309.270 300.927,309.152 300.737 C 309.035 300.546,308.544 300.391,308.063 300.391 C 307.581 300.391,307.021 300.251,306.816 300.080 C 306.612 299.910,305.435 299.442,304.199 299.040 C 298.511 297.193,304.916 291.601,312.695 291.622 C 316.927 291.633,320.298 293.128,324.017 296.641 C 328.859 301.216,333.789 299.778,333.789 293.791 L 333.789 291.009 331.109 288.457 C 327.799 285.307,325.406 283.763,320.508 281.621 C 319.438 281.153,308.279 280.646,307.227 281.017 M202.120 292.001 C 207.290 293.026,213.672 299.765,213.672 304.200 C 213.672 304.872,213.848 305.531,214.063 305.664 C 216.638 307.256,210.062 321.875,206.770 321.875 C 206.484 321.875,206.249 322.007,206.247 322.168 C 206.239 322.931,201.026 324.379,198.438 324.337 C 192.263 324.235,186.435 319.962,184.159 313.867 C 180.725 304.672,186.618 293.367,195.580 291.957 C 196.400 291.828,197.158 291.634,197.266 291.525 C 197.461 291.328,199.958 291.573,202.120 292.001 M262.695 292.279 C 265.996 293.238,270.559 297.100,271.516 299.745 C 271.800 300.530,272.172 301.172,272.344 301.172 C 272.516 301.172,272.656 301.494,272.656 301.888 C 272.656 302.282,272.786 302.733,272.944 302.891 C 273.525 303.473,273.827 309.491,273.367 311.328 C 273.233 311.865,272.991 312.832,272.829 313.477 C 272.668 314.121,272.431 314.736,272.303 314.844 C 272.175 314.951,271.720 315.727,271.291 316.567 C 268.878 321.299,260.645 325.667,256.854 324.226 C 256.279 324.007,255.358 323.828,254.808 323.828 C 250.716 323.828,243.359 316.625,243.359 312.619 C 243.359 312.124,243.184 311.719,242.969 311.719 C 242.736 311.719,242.578 310.229,242.578 308.031 C 242.578 305.994,242.753 304.235,242.969 304.102 C 243.184 303.969,243.359 303.500,243.359 303.059 C 243.359 298.969,249.959 292.797,255.273 291.917 C 255.918 291.811,256.533 291.635,256.641 291.526 C 256.914 291.249,260.821 291.735,262.695 292.279 " stroke="none" fill="#3c6cbb" fill-rule="evenodd"></path><path id="path1" d="M160.372 42.183 C 158.879 42.334,157.590 42.661,157.507 42.909 C 157.409 43.204,156.162 43.359,153.887 43.359 C 151.702 43.359,149.726 43.595,148.549 43.997 C 147.521 44.348,145.625 44.665,144.336 44.702 C 143.047 44.740,141.608 44.980,141.139 45.237 C 140.670 45.493,139.044 45.703,137.526 45.703 C 135.526 45.703,134.793 45.838,134.863 46.191 C 134.931 46.530,134.224 46.715,132.553 46.795 C 131.042 46.868,129.968 47.122,129.673 47.479 C 129.394 47.815,128.514 48.047,127.519 48.047 C 126.545 48.047,125.591 48.293,125.251 48.633 C 124.929 48.955,124.071 49.219,123.345 49.219 C 122.619 49.219,121.683 49.477,121.266 49.792 C 120.849 50.108,119.673 50.371,118.652 50.378 C 117.381 50.387,116.828 50.544,116.895 50.879 C 116.958 51.194,116.404 51.410,115.332 51.487 C 114.202 51.569,113.672 51.787,113.672 52.171 C 113.672 52.555,113.234 52.734,112.292 52.734 C 111.427 52.734,110.829 52.953,110.688 53.320 C 110.562 53.650,109.980 53.906,109.361 53.906 C 108.755 53.906,107.995 54.170,107.673 54.492 C 107.351 54.814,106.710 55.078,106.250 55.078 C 105.790 55.078,105.149 55.342,104.827 55.664 C 104.505 55.986,103.726 56.250,103.097 56.250 C 102.401 56.250,101.991 56.438,102.051 56.729 C 102.104 56.992,101.709 57.273,101.172 57.353 C 100.635 57.432,100.055 57.744,99.883 58.045 C 99.711 58.347,99.249 58.594,98.857 58.594 C 98.464 58.594,97.924 58.857,97.656 59.180 C 97.389 59.502,96.861 59.766,96.484 59.766 C 96.107 59.766,95.580 60.029,95.313 60.352 C 95.045 60.674,94.496 60.938,94.093 60.938 C 93.689 60.938,93.359 61.110,93.359 61.321 C 93.359 61.531,92.920 61.814,92.383 61.949 C 91.846 62.084,91.406 62.355,91.406 62.552 C 91.406 62.749,90.967 63.077,90.430 63.281 C 89.893 63.485,89.453 63.833,89.453 64.053 C 89.453 64.273,89.102 64.453,88.672 64.453 C 88.242 64.453,87.891 64.633,87.891 64.853 C 87.891 65.074,87.495 65.433,87.012 65.651 C 85.355 66.401,84.380 67.062,84.602 67.284 C 84.724 67.407,84.476 67.617,84.050 67.753 C 83.624 67.888,83.177 68.255,83.056 68.570 C 82.936 68.884,82.674 69.141,82.474 69.141 C 82.133 69.141,80.474 70.437,78.848 71.973 C 78.451 72.349,77.949 72.656,77.734 72.656 C 77.520 72.656,77.343 72.788,77.342 72.949 C 77.340 73.110,75.495 75.158,73.240 77.499 C 70.985 79.841,69.141 81.905,69.141 82.086 C 69.141 82.431,68.003 83.881,66.504 85.446 C 66.021 85.951,65.625 86.535,65.625 86.744 C 65.625 86.954,65.148 87.868,64.565 88.777 C 63.981 89.686,63.540 90.556,63.584 90.711 C 63.628 90.866,63.314 91.180,62.887 91.408 C 62.448 91.643,62.109 92.226,62.109 92.745 C 62.109 93.252,61.846 93.768,61.523 93.891 C 61.201 94.015,60.938 94.452,60.938 94.862 C 60.938 95.272,60.666 95.833,60.334 96.109 C 60.002 96.384,59.816 96.832,59.920 97.104 C 60.024 97.376,59.857 97.809,59.547 98.066 C 59.238 98.323,58.984 98.942,58.984 99.442 C 58.984 99.943,58.708 100.506,58.370 100.696 C 58.032 100.885,57.658 101.769,57.539 102.660 C 57.419 103.551,57.186 104.197,57.022 104.096 C 56.599 103.834,56.250 104.910,56.250 106.477 C 56.250 107.363,56.065 107.813,55.702 107.813 C 55.338 107.813,55.082 108.436,54.942 109.668 C 54.514 113.414,54.069 115.835,53.703 116.406 C 53.497 116.729,53.207 118.135,53.060 119.531 C 52.912 120.928,52.558 123.828,52.274 125.977 C 51.500 131.836,51.544 157.319,52.330 157.804 C 52.721 158.046,52.951 159.060,53.057 161.012 C 53.142 162.582,53.382 164.078,53.590 164.335 C 53.972 164.808,54.513 167.543,55.005 171.484 C 55.158 172.710,55.441 173.549,55.664 173.438 C 55.879 173.330,56.111 173.824,56.179 174.534 C 56.247 175.245,56.555 175.923,56.862 176.041 C 57.170 176.159,57.422 176.766,57.422 177.389 C 57.422 178.040,57.755 178.808,58.203 179.192 C 58.633 179.560,58.984 180.147,58.984 180.496 C 58.984 180.844,59.260 181.682,59.596 182.357 C 59.933 183.032,60.096 183.766,59.958 183.989 C 59.820 184.212,59.936 184.346,60.216 184.287 C 60.495 184.228,60.782 184.562,60.854 185.030 C 60.926 185.498,61.238 186.091,61.547 186.348 C 61.856 186.604,62.109 187.031,62.109 187.295 C 62.109 187.560,62.572 188.276,63.138 188.886 C 63.703 189.496,64.409 190.576,64.705 191.287 C 65.002 191.997,65.389 192.578,65.564 192.578 C 65.740 192.578,66.128 193.062,66.427 193.652 C 67.070 194.924,67.256 195.152,70.307 198.396 C 71.599 199.770,72.656 201.033,72.656 201.202 C 72.656 201.371,73.004 201.620,73.430 201.755 C 73.855 201.890,74.163 202.138,74.113 202.305 C 74.064 202.472,74.595 203.092,75.294 203.684 C 75.993 204.275,76.463 204.923,76.339 205.123 C 76.215 205.324,76.281 205.440,76.486 205.381 C 76.868 205.270,79.310 207.086,80.412 208.301 C 80.754 208.677,81.258 208.984,81.532 208.984 C 81.807 208.984,82.031 209.258,82.031 209.593 C 82.031 209.928,82.187 210.106,82.378 209.988 C 82.568 209.871,82.941 210.036,83.207 210.356 C 83.472 210.676,83.937 210.938,84.240 210.938 C 84.542 210.938,84.891 211.201,85.015 211.523 C 85.139 211.846,85.446 212.109,85.697 212.109 C 85.949 212.109,86.456 212.461,86.823 212.891 C 87.191 213.320,87.758 213.672,88.082 213.672 C 88.406 213.672,88.672 213.844,88.672 214.055 C 88.672 214.266,89.111 214.549,89.648 214.683 C 90.186 214.818,90.625 215.085,90.625 215.277 C 90.625 215.468,90.955 215.625,91.358 215.625 C 91.762 215.625,92.311 215.889,92.578 216.211 C 92.846 216.533,93.376 216.797,93.756 216.797 C 94.136 216.797,94.549 217.061,94.673 217.383 C 94.796 217.705,95.260 217.969,95.703 217.969 C 96.146 217.969,96.606 218.222,96.725 218.531 C 96.843 218.840,97.453 219.205,98.080 219.343 C 98.706 219.481,99.219 219.755,99.219 219.953 C 99.219 220.151,99.637 220.313,100.147 220.313 C 100.658 220.313,101.295 220.576,101.562 220.898 C 101.830 221.221,102.533 221.484,103.125 221.484 C 103.717 221.484,104.420 221.748,104.688 222.070 C 104.955 222.393,105.583 222.656,106.083 222.656 C 106.583 222.656,107.133 222.906,107.305 223.211 C 107.477 223.516,108.232 223.824,108.984 223.895 C 109.820 223.973,110.314 224.213,110.254 224.512 C 110.195 224.807,110.581 225.002,111.230 225.005 C 112.781 225.013,114.088 225.424,113.840 225.826 C 113.722 226.016,114.306 226.172,115.137 226.172 C 115.968 226.172,116.989 226.430,117.406 226.745 C 117.823 227.061,118.802 227.324,119.581 227.331 C 120.360 227.338,121.217 227.607,121.484 227.930 C 121.795 228.304,122.659 228.516,123.876 228.516 C 125.309 228.516,125.781 228.661,125.781 229.102 C 125.781 229.550,126.277 229.688,127.898 229.688 C 130.424 229.688,131.581 230.019,130.794 230.517 C 130.482 230.715,131.376 230.850,133.031 230.853 C 134.842 230.857,136.048 231.056,136.546 231.433 C 137.031 231.800,138.239 232.011,139.897 232.019 C 141.413 232.026,142.953 232.273,143.608 232.615 C 144.344 232.999,145.868 233.199,148.066 233.201 C 150.215 233.202,151.580 233.377,151.893 233.691 C 152.898 234.700,164.644 234.836,264.746 234.996 L 367.188 235.161 367.188 220.119 L 367.188 205.078 327.516 205.078 C 301.168 205.078,287.926 204.947,288.086 204.688 C 288.219 204.473,288.674 204.297,289.098 204.297 C 289.522 204.297,289.969 204.033,290.093 203.711 C 290.217 203.389,290.484 203.125,290.686 203.125 C 290.889 203.125,291.683 202.515,292.450 201.769 C 293.218 201.024,294.352 200.190,294.970 199.916 C 295.588 199.642,296.094 199.198,296.094 198.928 C 296.094 198.658,296.288 198.438,296.525 198.438 C 296.989 198.437,297.943 197.554,304.297 191.239 C 308.814 186.750,310.938 184.416,310.938 183.943 C 310.938 183.772,311.245 183.453,311.621 183.234 C 311.997 183.015,312.153 182.831,311.967 182.824 C 311.782 182.818,312.265 182.158,313.041 181.359 C 313.818 180.560,314.453 179.681,314.453 179.406 C 314.453 179.131,314.717 178.906,315.039 178.906 C 315.361 178.906,315.625 178.615,315.625 178.260 C 315.625 177.904,316.064 177.037,316.602 176.332 C 317.139 175.628,317.578 174.904,317.578 174.722 C 317.578 174.541,317.930 174.091,318.359 173.723 C 318.789 173.356,319.141 172.701,319.141 172.269 C 319.141 171.838,319.313 171.484,319.524 171.484 C 319.735 171.484,320.017 171.045,320.152 170.508 C 320.287 169.971,320.652 169.531,320.964 169.531 C 321.275 169.531,321.417 169.348,321.278 169.123 C 321.140 168.899,321.277 168.328,321.584 167.854 C 321.891 167.380,322.261 166.509,322.407 165.918 C 322.552 165.327,322.836 164.844,323.037 164.844 C 323.238 164.844,323.515 164.241,323.654 163.504 C 323.792 162.767,324.151 162.069,324.452 161.953 C 324.761 161.835,325.000 161.208,325.000 160.517 C 325.000 159.588,325.142 159.346,325.586 159.516 C 326.052 159.695,326.172 159.389,326.172 158.019 C 326.172 157.071,326.348 156.187,326.563 156.055 C 326.777 155.922,326.953 155.242,326.953 154.544 C 326.953 153.846,327.211 152.933,327.527 152.516 C 327.842 152.099,328.106 150.944,328.113 149.950 C 328.120 148.833,328.349 147.957,328.711 147.656 C 329.033 147.389,329.297 146.934,329.297 146.646 C 329.297 146.357,329.648 145.933,330.078 145.703 C 330.826 145.303,330.859 144.885,330.859 135.978 C 330.859 126.732,330.625 122.904,330.081 123.241 C 329.924 123.337,329.703 121.918,329.589 120.086 C 329.447 117.811,329.182 116.536,328.753 116.062 C 328.373 115.642,328.125 114.678,328.125 113.618 C 328.125 112.656,327.867 111.527,327.551 111.110 C 327.236 110.693,326.972 109.791,326.966 109.105 C 326.959 108.420,326.777 107.750,326.563 107.617 C 326.348 107.484,326.172 106.783,326.172 106.060 C 326.172 105.336,325.908 104.480,325.586 104.157 C 325.264 103.835,324.998 103.251,324.995 102.860 C 324.985 101.620,324.534 100.391,324.170 100.616 C 323.977 100.735,323.712 100.298,323.581 99.644 C 323.450 98.990,323.101 98.254,322.804 98.008 C 322.508 97.762,322.266 97.339,322.266 97.067 C 322.266 96.796,322.016 96.092,321.711 95.504 C 321.405 94.915,321.251 94.185,321.368 93.881 C 321.493 93.554,321.370 93.374,321.067 93.441 C 320.785 93.504,320.485 93.203,320.400 92.773 C 320.316 92.344,320.023 91.816,319.750 91.600 C 319.478 91.384,319.127 90.807,318.972 90.318 C 318.816 89.828,318.264 88.968,317.743 88.407 C 317.223 87.845,316.790 87.192,316.781 86.955 C 316.772 86.717,316.245 85.915,315.609 85.171 C 314.973 84.427,314.453 83.592,314.453 83.316 C 314.453 83.039,314.189 82.813,313.867 82.813 C 313.545 82.813,313.281 82.550,313.281 82.230 C 313.281 81.909,312.930 81.428,312.500 81.159 C 312.070 80.891,311.719 80.522,311.719 80.340 C 311.719 80.158,310.444 78.723,308.887 77.152 C 307.329 75.581,305.680 73.883,305.223 73.378 C 304.765 72.874,303.807 72.021,303.093 71.484 C 302.379 70.947,301.527 70.200,301.201 69.824 C 300.875 69.448,300.422 69.141,300.195 69.141 C 299.969 69.141,299.341 68.657,298.801 68.066 C 297.746 66.912,296.805 66.237,295.410 65.634 C 294.927 65.425,294.531 65.074,294.531 64.853 C 294.531 64.633,294.180 64.453,293.750 64.453 C 293.320 64.453,292.969 64.273,292.969 64.053 C 292.969 63.833,292.529 63.485,291.992 63.281 C 291.455 63.077,291.016 62.749,291.016 62.552 C 291.016 62.355,290.576 62.084,290.039 61.949 C 289.502 61.814,289.063 61.531,289.063 61.321 C 289.063 61.110,288.732 60.938,288.329 60.938 C 287.926 60.938,287.377 60.674,287.109 60.352 C 286.842 60.029,286.315 59.766,285.938 59.766 C 285.560 59.766,285.033 59.502,284.766 59.180 C 284.498 58.857,283.958 58.594,283.565 58.594 C 283.173 58.594,282.711 58.347,282.539 58.045 C 282.367 57.744,281.787 57.432,281.250 57.353 C 280.713 57.273,280.317 56.992,280.371 56.729 C 280.431 56.438,280.021 56.250,279.325 56.250 C 278.696 56.250,277.917 55.986,277.595 55.664 C 277.273 55.342,276.632 55.078,276.172 55.078 C 275.711 55.078,275.071 54.814,274.749 54.492 C 274.427 54.170,273.667 53.906,273.061 53.906 C 272.455 53.906,271.862 53.654,271.743 53.345 C 271.622 53.029,270.880 52.731,270.041 52.662 C 269.108 52.585,268.591 52.357,268.652 52.051 C 268.715 51.736,268.275 51.563,267.415 51.563 C 265.592 51.563,264.602 51.175,265.299 50.733 C 265.627 50.525,265.148 50.400,264.009 50.397 C 263.014 50.393,261.695 50.128,261.080 49.807 C 260.464 49.486,259.465 49.222,258.859 49.221 C 258.253 49.220,257.493 48.955,257.171 48.633 C 256.808 48.270,255.850 48.047,254.660 48.047 C 253.236 48.047,252.734 47.899,252.734 47.479 C 252.734 47.049,252.091 46.883,250.098 46.795 C 248.244 46.714,247.490 46.535,247.559 46.191 C 247.630 45.833,246.820 45.703,244.519 45.703 C 242.326 45.703,241.324 45.552,241.189 45.202 C 241.060 44.865,240.031 44.675,238.057 44.625 C 236.440 44.583,234.329 44.281,233.365 43.954 C 232.354 43.611,230.249 43.359,228.385 43.359 C 226.609 43.359,224.972 43.176,224.748 42.951 C 223.699 41.902,169.523 41.256,160.372 42.183 M204.407 76.752 C 205.632 77.071,209.141 77.449,212.204 77.592 C 215.542 77.748,217.885 78.024,218.052 78.282 C 218.207 78.520,219.853 78.773,221.763 78.851 C 223.651 78.928,225.301 79.160,225.430 79.365 C 225.558 79.571,226.845 79.792,228.288 79.856 C 229.731 79.921,231.111 80.173,231.354 80.417 C 231.598 80.660,232.509 80.865,233.379 80.872 C 234.249 80.879,235.302 81.142,235.719 81.458 C 236.136 81.773,237.138 82.031,237.946 82.031 C 238.875 82.031,239.541 82.257,239.758 82.645 C 239.947 82.983,240.831 83.358,241.723 83.477 C 242.614 83.597,243.251 83.844,243.138 84.027 C 243.025 84.210,243.647 84.474,244.522 84.614 C 245.396 84.754,246.205 85.021,246.321 85.208 C 246.436 85.394,246.938 85.547,247.436 85.547 C 247.934 85.547,248.561 85.811,248.828 86.133 C 249.096 86.455,249.714 86.719,250.201 86.719 C 250.689 86.719,251.189 86.982,251.313 87.305 C 251.437 87.627,251.988 87.891,252.539 87.891 C 253.090 87.891,253.635 88.138,253.751 88.441 C 253.868 88.744,254.390 89.099,254.911 89.230 C 255.433 89.361,255.859 89.640,255.859 89.851 C 255.859 90.062,256.097 90.234,256.387 90.234 C 256.677 90.234,257.642 90.762,258.532 91.406 C 259.422 92.051,260.327 92.578,260.543 92.578 C 260.760 92.578,260.938 92.842,260.938 93.164 C 260.938 93.486,261.162 93.750,261.437 93.750 C 261.711 93.750,262.217 94.058,262.561 94.434 C 262.905 94.810,263.705 95.508,264.338 95.986 C 266.193 97.386,267.578 98.760,267.578 99.200 C 267.578 99.425,267.842 99.609,268.164 99.609 C 268.486 99.609,268.750 99.814,268.750 100.065 C 268.750 100.315,269.021 100.799,269.353 101.139 C 270.942 102.770,272.266 104.484,272.266 104.911 C 272.266 105.172,272.529 105.486,272.852 105.610 C 273.174 105.734,273.438 106.173,273.438 106.587 C 273.438 107.000,273.701 107.439,274.023 107.563 C 274.346 107.687,274.609 108.135,274.609 108.558 C 274.609 108.982,274.770 109.428,274.966 109.549 C 275.479 109.866,276.953 113.016,276.953 113.795 C 276.953 114.157,277.118 114.453,277.320 114.453 C 277.521 114.453,277.803 115.232,277.946 116.185 C 278.089 117.137,278.451 118.010,278.751 118.126 C 279.104 118.261,279.297 118.943,279.297 120.057 C 279.297 121.111,279.524 121.968,279.883 122.266 C 280.276 122.592,280.470 123.477,280.473 124.950 C 280.475 126.159,280.739 128.011,281.059 129.066 C 281.898 131.832,281.895 148.400,281.055 150.781 C 280.732 151.695,280.469 153.365,280.469 154.493 C 280.469 155.840,280.268 156.712,279.883 157.031 C 279.561 157.299,279.297 158.097,279.297 158.805 C 279.297 160.393,278.939 161.395,278.475 161.108 C 278.282 160.989,278.125 161.523,278.125 162.294 C 278.125 163.180,277.909 163.779,277.539 163.921 C 277.213 164.046,276.953 164.627,276.953 165.228 C 276.953 165.824,276.689 166.529,276.367 166.797 C 276.045 167.064,275.781 167.533,275.781 167.838 C 275.781 168.384,275.468 168.856,274.121 170.340 C 273.745 170.755,273.438 171.326,273.438 171.609 C 273.438 172.073,272.159 173.747,270.525 175.423 C 270.193 175.764,269.922 176.247,269.922 176.498 C 269.922 176.748,269.658 176.953,269.336 176.953 C 269.014 176.953,268.750 177.217,268.750 177.539 C 268.750 177.861,268.486 178.125,268.164 178.125 C 267.842 178.125,267.578 178.389,267.578 178.711 C 267.578 179.033,267.432 179.297,267.253 179.297 C 267.074 179.297,266.414 179.819,265.788 180.458 C 265.161 181.096,264.448 181.624,264.202 181.630 C 263.956 181.636,263.654 181.904,263.531 182.227 C 263.407 182.549,263.055 182.812,262.749 182.812 C 262.443 182.812,262.092 183.076,261.968 183.398 C 261.844 183.721,261.483 183.984,261.164 183.984 C 260.846 183.984,260.445 184.208,260.273 184.482 C 259.783 185.263,257.921 186.328,257.045 186.328 C 256.608 186.328,256.294 186.544,256.348 186.807 C 256.401 187.071,256.039 187.348,255.543 187.423 C 255.046 187.499,254.544 187.811,254.427 188.116 C 254.309 188.422,253.787 188.672,253.266 188.672 C 252.745 188.672,252.218 188.936,252.094 189.258 C 251.971 189.580,251.470 189.844,250.983 189.844 C 250.495 189.844,249.877 190.107,249.609 190.430 C 249.342 190.752,248.519 191.016,247.781 191.016 C 247.042 191.016,246.535 191.171,246.652 191.362 C 246.884 191.737,245.623 192.174,244.280 192.182 C 243.820 192.185,243.342 192.451,243.218 192.773 C 243.069 193.161,242.457 193.359,241.406 193.359 C 240.356 193.359,239.743 193.558,239.594 193.945 C 239.444 194.338,238.827 194.531,237.728 194.531 C 236.825 194.531,235.746 194.789,235.329 195.105 C 234.912 195.420,233.771 195.684,232.793 195.691 C 231.815 195.698,230.809 195.910,230.555 196.163 C 230.302 196.416,228.600 196.702,226.773 196.798 C 224.946 196.894,223.531 197.101,223.629 197.259 C 223.826 197.578,219.654 198.040,216.536 198.044 C 215.271 198.046,214.458 198.229,214.355 198.535 C 214.135 199.197,169.653 199.255,169.224 198.594 C 169.066 198.351,166.997 198.049,164.453 197.899 C 161.982 197.752,159.902 197.462,159.831 197.254 C 159.759 197.046,158.441 196.869,156.901 196.861 C 155.214 196.853,153.713 196.625,153.125 196.289 C 152.588 195.982,151.347 195.725,150.368 195.717 C 149.388 195.709,148.246 195.445,147.829 195.130 C 147.412 194.814,146.332 194.551,145.430 194.544 C 144.424 194.536,143.668 194.315,143.476 193.973 C 143.297 193.653,142.413 193.360,141.406 193.289 C 140.258 193.207,139.682 192.995,139.746 192.676 C 139.809 192.361,139.368 192.187,138.504 192.187 C 137.768 192.187,136.902 191.924,136.579 191.602 C 136.257 191.279,135.585 191.010,135.086 191.003 C 134.588 190.996,133.838 190.733,133.421 190.417 C 133.004 190.102,132.276 189.844,131.803 189.844 C 131.330 189.844,130.842 189.580,130.718 189.258 C 130.594 188.936,130.048 188.672,129.504 188.672 C 128.906 188.672,128.516 188.451,128.516 188.112 C 128.516 187.791,128.056 187.499,127.441 187.428 C 126.837 187.359,126.410 187.091,126.465 186.816 C 126.519 186.548,126.205 186.328,125.768 186.328 C 124.985 186.328,123.348 185.445,122.335 184.478 C 122.051 184.206,121.568 183.984,121.261 183.984 C 120.954 183.984,120.703 183.721,120.703 183.398 C 120.703 183.073,120.356 182.813,119.922 182.813 C 119.492 182.813,119.141 182.569,119.141 182.272 C 119.141 181.975,118.771 181.635,118.320 181.517 C 117.798 181.381,117.607 181.129,117.794 180.825 C 117.975 180.533,117.927 180.449,117.669 180.608 C 116.944 181.056,108.989 172.647,108.986 171.429 C 108.985 171.076,108.721 170.686,108.398 170.562 C 108.076 170.438,107.813 170.089,107.813 169.787 C 107.813 169.484,107.549 169.017,107.227 168.750 C 106.904 168.483,106.641 167.942,106.641 167.550 C 106.641 167.157,106.421 166.695,106.152 166.523 C 105.601 166.171,104.753 164.150,104.300 162.109 C 104.133 161.357,103.958 160.918,103.912 161.133 C 103.781 161.742,103.207 159.698,103.164 158.468 C 103.143 157.862,102.861 157.102,102.539 156.780 C 102.160 156.401,101.949 155.413,101.941 153.976 C 101.933 152.648,101.698 151.453,101.355 151.000 C 100.507 149.879,100.530 129.077,101.380 127.953 C 101.762 127.448,101.953 126.247,101.953 124.359 C 101.953 122.394,102.115 121.427,102.480 121.211 C 102.770 121.039,103.124 120.020,103.267 118.945 C 103.410 117.871,103.700 116.934,103.912 116.862 C 104.124 116.790,104.297 116.065,104.297 115.250 C 104.297 114.409,104.550 113.557,104.883 113.281 C 105.205 113.014,105.469 112.486,105.469 112.109 C 105.469 111.732,105.732 111.205,106.055 110.938 C 106.377 110.670,106.641 110.033,106.641 109.522 C 106.641 108.957,106.870 108.594,107.227 108.594 C 107.581 108.594,107.813 108.232,107.813 107.678 C 107.813 107.174,108.157 106.450,108.578 106.069 C 108.999 105.688,109.309 105.265,109.267 105.129 C 109.143 104.734,111.719 101.172,112.128 101.172 C 112.333 101.172,112.500 100.820,112.500 100.391 C 112.500 99.957,112.760 99.609,113.086 99.609 C 113.408 99.609,113.672 99.431,113.672 99.214 C 113.672 98.882,115.501 96.987,118.392 94.320 C 118.732 94.007,119.216 93.750,119.466 93.750 C 119.717 93.750,119.922 93.486,119.922 93.164 C 119.922 92.839,120.269 92.578,120.703 92.578 C 121.133 92.578,121.489 92.358,121.494 92.090 C 121.504 91.557,123.892 90.234,124.844 90.234 C 125.170 90.234,125.327 90.057,125.192 89.839 C 125.057 89.620,125.480 89.338,126.146 89.204 C 126.805 89.073,127.344 88.723,127.344 88.428 C 127.344 88.113,127.754 87.891,128.333 87.891 C 128.876 87.891,129.423 87.627,129.546 87.305 C 129.670 86.982,130.170 86.719,130.658 86.719 C 131.146 86.719,131.764 86.455,132.031 86.133 C 132.299 85.811,133.023 85.547,133.642 85.547 C 134.260 85.547,134.766 85.371,134.766 85.156 C 134.766 84.941,135.280 84.766,135.910 84.766 C 136.539 84.766,137.287 84.533,137.571 84.248 C 137.856 83.963,138.670 83.614,139.380 83.472 C 140.090 83.330,140.936 82.948,141.262 82.622 C 141.587 82.297,142.522 82.031,143.339 82.031 C 144.184 82.031,145.036 81.778,145.313 81.445 C 145.603 81.096,146.457 80.859,147.431 80.859 C 148.328 80.859,149.263 80.658,149.509 80.413 C 149.754 80.167,151.053 79.904,152.395 79.828 C 153.737 79.752,154.934 79.535,155.054 79.346 C 155.175 79.157,157.020 78.927,159.154 78.835 C 161.687 78.726,163.089 78.506,163.191 78.201 C 163.294 77.890,164.474 77.725,166.732 77.707 C 170.513 77.676,175.945 77.167,178.320 76.621 C 181.102 75.981,201.850 76.086,204.407 76.752 M143.978 118.307 C 143.863 118.493,143.177 118.741,142.454 118.858 C 139.439 119.347,133.959 124.108,132.100 127.853 C 127.754 136.607,131.438 147.600,140.107 151.747 C 141.359 152.346,142.791 153.025,143.290 153.257 C 144.469 153.804,152.016 153.804,153.194 153.257 C 157.629 151.197,158.963 150.363,160.924 148.419 C 162.161 147.195,163.415 145.643,163.713 144.971 C 164.010 144.300,164.386 143.750,164.548 143.750 C 164.711 143.750,164.844 143.434,164.844 143.047 C 164.844 142.660,165.063 142.124,165.332 141.856 C 166.338 140.850,165.979 130.929,164.855 128.685 C 162.475 123.932,157.503 119.422,154.022 118.857 C 153.303 118.740,152.621 118.493,152.507 118.307 C 152.392 118.121,150.473 117.969,148.242 117.969 C 146.012 117.969,144.093 118.121,143.978 118.307 M222.884 118.307 C 222.769 118.493,222.087 118.740,221.369 118.857 C 217.836 119.430,210.547 126.318,210.547 129.083 C 210.547 129.415,210.411 129.688,210.245 129.688 C 209.907 129.688,208.984 134.166,208.984 135.806 C 208.984 140.111,211.379 145.467,214.734 148.664 C 216.645 150.486,217.922 151.272,222.197 153.257 C 223.375 153.804,230.922 153.804,232.100 153.257 C 232.599 153.025,234.032 152.346,235.283 151.747 C 239.707 149.631,244.531 143.558,244.531 140.106 C 244.531 139.618,244.722 139.028,244.956 138.794 C 245.731 138.019,245.059 132.004,243.910 129.433 C 243.607 128.756,243.359 128.069,243.359 127.906 C 243.359 126.737,239.217 122.275,236.523 120.542 C 233.091 118.335,223.807 116.813,222.884 118.307 " stroke="none" fill="#3c444c" fill-rule="evenodd"></path></g></svg>