<svg id="svg" version="1.1" xmlns="http://www.w3.org/2000/svg" xmlns:xlink="http://www.w3.org/1999/xlink" width="400" height="400"  style="background-color:white;padding: 0.2em" viewBox="0, 0, 440,204.29752066115702"><g id="svgg"><path id="path0" d="M210.220 0.228 C 205.716 0.651,197.014 2.288,196.348 2.838 C 196.221 2.943,195.564 3.172,194.888 3.347 C 192.958 3.847,188.971 5.290,188.895 5.517 C 188.857 5.631,188.725 5.723,188.602 5.723 C 188.161 5.723,185.181 7.034,185.181 7.228 C 185.181 7.337,185.907 8.905,186.794 10.713 C 187.680 12.522,188.924 15.082,189.558 16.403 C 190.192 17.724,190.802 18.804,190.914 18.804 C 191.026 18.804,191.966 18.478,193.004 18.080 C 194.041 17.681,195.166 17.250,195.503 17.121 C 195.841 16.991,196.162 16.827,196.219 16.756 C 196.507 16.391,205.252 14.106,206.370 14.104 C 206.614 14.104,206.844 14.017,206.881 13.912 C 207.001 13.577,212.321 13.059,216.914 12.936 C 219.359 12.871,221.361 12.762,221.363 12.694 C 221.365 12.626,221.548 9.811,221.770 6.438 C 221.991 3.066,222.174 0.238,222.175 0.153 C 222.178 -0.051,212.553 0.009,210.220 0.228 M261.932 13.646 C 261.652 13.852,259.785 16.712,259.785 16.934 C 259.785 17.033,259.574 17.333,259.315 17.601 C 259.056 17.869,257.936 19.455,256.826 21.125 C 254.481 24.651,254.464 24.254,257.046 26.218 C 259.812 28.322,267.757 35.953,267.757 36.505 C 267.757 36.589,269.709 39.212,270.479 40.164 C 271.334 41.219,274.894 47.179,274.904 47.573 C 274.911 47.847,275.649 47.932,275.762 47.672 C 275.800 47.586,277.019 46.965,278.473 46.292 C 279.926 45.619,281.214 44.977,281.334 44.865 C 281.546 44.668,283.130 43.915,285.590 42.844 C 286.306 42.532,286.765 42.207,286.765 42.011 C 286.765 41.585,284.765 37.609,284.551 37.609 C 284.460 37.609,284.168 37.172,283.902 36.638 C 283.347 35.524,281.731 32.978,281.480 32.823 C 281.388 32.766,280.869 32.049,280.326 31.229 C 279.784 30.410,279.066 29.463,278.729 29.126 C 278.393 28.789,277.960 28.256,277.768 27.942 C 276.744 26.270,269.803 19.278,267.591 17.688 C 267.008 17.269,266.530 16.853,266.530 16.764 C 266.530 16.674,265.719 16.045,264.727 15.366 C 263.736 14.686,262.804 13.986,262.658 13.810 C 262.363 13.455,262.233 13.425,261.932 13.646 M223.199 18.430 C 223.202 20.236,222.719 26.548,222.552 26.896 C 222.037 27.970,222.383 28.500,223.710 28.667 C 225.957 28.950,228.799 29.480,230.659 29.963 C 233.432 30.683,233.503 30.705,233.750 30.896 C 233.876 30.994,234.658 31.311,235.487 31.599 C 237.284 32.225,239.816 33.311,239.959 33.518 C 240.015 33.600,241.009 34.158,242.167 34.760 L 244.273 35.853 244.979 35.083 C 245.367 34.659,245.830 34.031,246.008 33.688 C 246.186 33.344,246.645 32.626,247.029 32.092 C 247.412 31.558,247.726 31.017,247.726 30.890 C 247.726 30.763,247.810 30.659,247.912 30.659 C 248.186 30.659,249.974 27.788,249.974 27.348 C 249.974 26.983,248.319 25.754,247.827 25.754 C 247.701 25.754,247.401 25.570,247.160 25.345 C 246.742 24.956,242.931 23.078,241.955 22.781 C 241.700 22.703,241.342 22.508,241.159 22.348 C 240.784 22.019,234.960 20.086,233.776 19.897 C 233.355 19.829,233.010 19.708,233.010 19.628 C 233.010 19.366,227.666 18.390,224.578 18.089 C 223.231 17.957,223.199 17.965,223.199 18.430 M189.985 24.664 C 189.647 24.845,189.298 25.119,189.208 25.272 C 189.118 25.424,188.942 25.549,188.817 25.549 C 188.466 25.549,185.393 27.383,184.364 28.208 C 183.858 28.613,183.198 29.066,182.897 29.215 C 182.596 29.364,181.873 29.934,181.290 30.481 C 180.707 31.029,180.142 31.477,180.035 31.477 C 179.711 31.477,172.797 38.482,172.444 39.168 C 172.263 39.520,171.986 39.857,171.828 39.918 C 171.528 40.033,169.645 42.745,169.651 43.053 C 169.655 43.260,171.589 44.558,171.893 44.558 C 172.007 44.558,172.100 44.637,172.100 44.733 C 172.100 44.915,173.798 46.074,174.842 46.605 C 175.170 46.772,175.676 47.142,175.967 47.426 C 177.501 48.931,178.419 49.111,179.029 48.026 C 179.283 47.573,179.786 46.906,180.147 46.545 C 180.507 46.183,181.213 45.381,181.714 44.762 C 182.882 43.323,184.984 41.266,186.357 40.218 C 186.947 39.768,187.430 39.321,187.430 39.226 C 187.430 39.131,188.189 38.537,189.116 37.906 C 190.043 37.276,191.170 36.496,191.620 36.173 C 192.069 35.851,193.116 35.238,193.944 34.810 C 194.773 34.382,195.499 33.910,195.556 33.761 C 195.661 33.490,194.870 31.599,194.478 31.185 C 194.364 31.065,193.868 30.027,193.377 28.880 C 191.545 24.609,191.105 24.061,189.985 24.664 M214.819 32.708 C 211.934 32.886,209.096 33.301,209.096 33.544 C 209.096 33.644,208.905 33.725,208.673 33.725 C 207.437 33.725,200.280 35.953,200.136 36.382 C 200.099 36.495,199.938 36.587,199.779 36.587 C 199.407 36.587,199.407 36.974,199.779 37.388 C 199.938 37.566,200.629 38.938,201.315 40.437 C 202.001 41.937,202.691 43.292,202.847 43.449 C 203.004 43.605,203.171 43.850,203.220 43.992 C 203.291 44.200,203.447 44.197,204.005 43.978 C 205.274 43.481,209.160 42.304,209.952 42.178 C 210.380 42.109,210.731 41.989,210.731 41.911 C 210.731 41.668,213.781 41.268,216.591 41.143 C 219.696 41.005,219.512 41.159,219.517 38.699 C 219.518 37.893,219.598 37.203,219.693 37.166 C 219.789 37.128,219.921 36.120,219.987 34.925 L 220.107 32.752 219.354 32.628 C 218.525 32.491,218.249 32.496,214.819 32.708 M222.094 33.360 C 222.036 33.729,221.937 35.089,221.874 36.382 C 221.810 37.675,221.706 39.289,221.642 39.968 L 221.525 41.204 223.435 41.472 C 224.485 41.619,225.437 41.810,225.549 41.896 C 225.662 41.982,226.260 42.170,226.878 42.314 C 229.911 43.023,232.276 43.946,235.096 45.521 L 237.160 46.674 237.647 46.076 C 237.915 45.747,238.375 45.041,238.670 44.507 C 238.965 43.973,239.276 43.536,239.361 43.536 C 239.446 43.536,239.920 42.869,240.413 42.054 C 240.906 41.239,241.439 40.371,241.596 40.124 C 242.052 39.411,239.234 37.503,236.536 36.697 C 236.283 36.621,236.076 36.482,236.076 36.388 C 236.076 36.010,228.731 33.725,227.518 33.725 C 227.278 33.725,227.082 33.643,227.082 33.542 C 227.082 33.441,226.277 33.254,225.294 33.125 C 224.310 32.997,223.211 32.846,222.852 32.790 C 222.243 32.696,222.191 32.735,222.094 33.360 M195.861 38.443 C 195.271 38.789,194.788 39.157,194.788 39.261 C 194.788 39.364,194.672 39.448,194.530 39.448 C 194.144 39.448,191.512 41.283,190.023 42.591 C 189.302 43.223,188.631 43.745,188.531 43.752 C 188.146 43.776,183.186 49.277,182.237 50.732 C 181.803 51.396,181.902 51.595,182.929 52.118 C 183.361 52.339,184.007 52.786,184.364 53.113 C 184.722 53.439,185.259 53.830,185.558 53.981 C 185.857 54.132,186.625 54.603,187.265 55.028 C 188.772 56.027,189.055 56.006,189.964 54.829 C 191.193 53.238,194.170 50.276,195.810 49.013 C 196.653 48.364,197.435 47.759,197.547 47.669 C 198.207 47.140,199.684 46.230,200.249 46.004 C 201.397 45.544,201.443 45.333,200.726 43.801 C 200.371 43.043,200.010 42.374,199.923 42.315 C 199.836 42.256,199.352 41.242,198.848 40.061 C 197.774 37.551,197.569 37.439,195.861 38.443 M243.146 41.583 C 242.957 41.982,242.567 42.562,242.280 42.871 C 241.993 43.181,241.444 43.970,241.060 44.626 C 240.676 45.281,240.041 46.237,239.649 46.750 C 238.755 47.922,238.722 47.784,240.135 48.813 C 241.599 49.879,245.153 53.435,246.342 55.024 C 248.332 57.682,248.584 58.056,249.064 59.051 C 249.362 59.669,249.701 60.092,249.898 60.092 C 250.247 60.092,252.660 59.076,252.836 58.855 C 252.892 58.785,253.926 58.275,255.133 57.723 C 257.712 56.544,257.894 55.923,256.165 54.194 C 255.989 54.018,255.720 53.574,255.566 53.207 C 254.686 51.100,249.605 45.351,246.114 42.514 C 243.864 40.685,243.610 40.605,243.146 41.583 M167.348 46.262 C 166.926 46.970,166.582 47.647,166.582 47.766 C 166.582 47.885,166.429 48.109,166.243 48.263 C 165.888 48.557,164.596 51.221,163.876 53.143 C 163.644 53.761,163.382 54.315,163.293 54.373 C 163.072 54.519,161.820 58.175,161.265 60.296 C 161.015 61.252,160.687 62.356,160.537 62.749 C 160.111 63.863,159.573 66.961,159.132 70.838 L 159.014 71.876 163.360 72.125 C 165.750 72.262,168.132 72.427,168.654 72.491 L 169.603 72.607 169.740 71.510 C 170.165 68.109,171.449 62.195,171.885 61.625 C 171.971 61.513,172.326 60.639,172.674 59.683 C 173.631 57.056,174.365 55.345,174.664 55.047 C 174.811 54.899,175.182 54.250,175.488 53.603 C 175.793 52.956,176.267 52.073,176.540 51.640 L 177.037 50.852 176.562 50.343 C 176.300 50.063,175.472 49.475,174.722 49.036 C 173.973 48.597,173.099 48.028,172.781 47.772 C 171.666 46.874,168.583 44.963,168.262 44.970 C 168.181 44.972,167.770 45.553,167.348 46.262 M270.415 52.463 C 269.797 52.744,269.240 53.058,269.176 53.160 C 269.113 53.263,268.515 53.566,267.847 53.834 C 265.834 54.642,263.448 55.787,263.144 56.091 C 262.987 56.248,262.742 56.416,262.599 56.465 C 262.393 56.536,262.397 56.694,262.620 57.250 C 262.774 57.633,263.277 59.050,263.739 60.399 C 264.201 61.748,264.642 62.898,264.719 62.955 C 264.885 63.077,265.575 66.021,266.011 68.472 C 266.446 70.922,266.734 74.316,266.735 77.006 C 266.735 79.058,266.773 79.305,267.092 79.308 C 267.289 79.310,269.382 79.446,271.742 79.610 C 274.103 79.775,276.334 79.912,276.699 79.914 L 277.363 79.918 277.363 77.393 C 277.363 73.254,276.581 65.283,276.147 64.997 C 276.061 64.941,275.927 64.527,275.848 64.078 C 275.350 61.245,274.073 57.022,273.058 54.851 C 272.719 54.126,272.330 53.199,272.194 52.791 C 271.883 51.858,271.784 51.840,270.415 52.463 M180.219 53.740 C 179.845 54.118,177.619 58.511,177.619 58.869 C 177.619 58.980,177.547 59.070,177.458 59.070 C 177.134 59.070,175.630 63.663,175.039 66.455 C 174.840 67.396,174.617 68.212,174.543 68.268 C 174.379 68.392,173.940 71.285,173.940 72.238 C 173.940 73.027,174.052 73.053,178.334 73.274 C 179.571 73.338,180.960 73.437,181.421 73.494 L 182.260 73.598 182.630 71.239 C 182.833 69.942,183.062 68.881,183.138 68.881 C 183.214 68.881,183.395 68.352,183.539 67.706 C 183.767 66.683,184.492 64.530,185.505 61.869 C 185.668 61.441,185.966 60.913,186.167 60.697 C 186.369 60.481,186.801 59.743,187.129 59.058 L 187.725 57.811 187.220 57.423 C 186.942 57.210,186.438 56.901,186.101 56.738 C 185.764 56.574,185.179 56.164,184.801 55.826 C 184.423 55.488,183.825 55.071,183.472 54.899 C 183.119 54.728,182.417 54.309,181.911 53.968 C 180.854 53.256,180.715 53.237,180.219 53.740 M257.668 58.763 C 257.500 58.932,257.306 59.070,257.238 59.070 C 257.020 59.070,252.220 61.305,251.961 61.527 C 251.824 61.645,251.533 61.864,251.315 62.015 C 250.929 62.283,250.940 62.354,251.762 64.819 C 252.226 66.210,252.760 68.084,252.949 68.983 C 253.138 69.882,253.374 70.802,253.474 71.027 C 253.713 71.566,254.054 74.932,254.059 76.801 L 254.062 78.283 254.863 78.283 C 255.303 78.283,255.694 78.366,255.732 78.467 C 255.769 78.569,257.308 78.719,259.152 78.801 L 262.504 78.951 262.394 74.913 C 262.334 72.693,262.199 70.818,262.095 70.747 C 261.991 70.676,261.791 69.858,261.652 68.928 C 261.241 66.188,259.525 60.092,259.165 60.092 C 259.065 60.092,258.874 59.724,258.739 59.274 C 258.480 58.409,258.171 58.261,257.668 58.763 M158.881 74.573 C 158.405 76.468,159.680 89.664,160.488 91.222 C 160.594 91.424,160.864 92.298,161.088 93.163 C 161.701 95.522,163.132 99.745,163.319 99.745 C 163.409 99.745,163.638 100.211,163.827 100.781 C 164.304 102.217,164.302 102.217,168.044 100.394 C 169.881 99.499,171.728 98.624,172.146 98.450 C 173.405 97.928,173.824 97.424,173.569 96.743 C 173.450 96.426,173.069 95.386,172.721 94.430 C 172.373 93.475,171.952 92.399,171.784 92.040 C 170.664 89.645,169.535 82.301,169.385 76.444 L 169.341 74.706 165.355 74.465 C 163.163 74.333,160.838 74.189,160.189 74.145 C 159.073 74.070,159.001 74.094,158.881 74.573 M173.736 77.619 C 173.736 80.339,174.257 85.660,174.542 85.842 C 174.632 85.900,174.768 86.270,174.845 86.663 C 175.399 89.514,177.028 94.676,177.415 94.805 C 177.527 94.842,177.619 95.003,177.619 95.163 C 177.619 95.486,178.248 95.555,178.549 95.265 C 178.656 95.162,179.979 94.508,181.489 93.811 C 182.999 93.115,184.362 92.417,184.518 92.261 C 184.674 92.105,184.898 91.978,185.015 91.978 C 185.306 91.978,185.140 91.229,184.309 88.797 C 183.922 87.666,183.538 86.378,183.455 85.936 C 183.372 85.493,183.223 85.081,183.124 85.020 C 182.863 84.859,182.336 81.050,182.162 78.079 L 182.013 75.524 178.641 75.288 C 176.786 75.159,174.923 75.044,174.502 75.033 L 173.735 75.013 173.736 77.619 M253.745 81.692 C 253.664 82.346,253.540 82.928,253.470 82.984 C 253.399 83.040,253.176 83.914,252.974 84.926 C 252.415 87.721,251.373 90.582,249.852 93.496 L 248.476 96.132 249.055 96.593 C 249.373 96.847,249.871 97.175,250.162 97.322 C 250.452 97.469,250.889 97.776,251.132 98.003 C 251.914 98.735,255.570 100.842,255.649 100.607 C 255.690 100.482,255.971 100.067,256.273 99.684 C 256.575 99.301,257.224 98.123,257.716 97.067 C 258.209 96.010,258.867 94.594,259.180 93.919 C 260.148 91.835,261.222 87.970,261.652 85.028 C 261.791 84.073,261.986 83.236,262.084 83.169 C 262.183 83.102,262.234 82.596,262.199 82.045 L 262.136 81.042 260.603 80.919 C 259.760 80.851,257.905 80.729,256.481 80.648 L 253.891 80.502 253.745 81.692 M281.984 82.899 C 281.916 83.076,281.860 83.628,281.860 84.125 C 281.860 84.622,281.768 85.028,281.656 85.028 C 281.543 85.028,281.451 85.271,281.451 85.567 C 281.451 87.324,279.634 95.533,278.855 97.292 C 278.631 97.798,278.241 98.809,277.988 99.540 C 277.402 101.232,276.324 103.861,276.086 104.178 C 275.985 104.312,275.346 105.553,274.665 106.937 C 273.984 108.321,273.360 109.499,273.279 109.555 C 272.241 110.276,271.839 112.075,272.611 112.545 C 272.920 112.733,273.793 113.287,274.550 113.776 C 275.308 114.265,276.021 114.665,276.134 114.665 C 276.248 114.665,276.341 114.744,276.341 114.841 C 276.341 115.020,278.030 116.176,279.064 116.704 C 279.381 116.866,279.841 117.198,280.086 117.443 C 281.948 119.301,282.941 119.349,283.815 117.621 C 284.126 117.007,284.448 116.505,284.532 116.505 C 284.616 116.505,285.267 115.332,285.979 113.899 C 286.691 112.466,287.345 111.241,287.431 111.177 C 287.614 111.042,288.810 108.241,289.564 106.183 C 289.852 105.396,290.157 104.706,290.241 104.650 C 290.448 104.512,291.741 100.472,292.305 98.203 C 292.556 97.196,292.826 96.326,292.905 96.270 C 293.234 96.038,294.570 88.208,294.858 84.817 L 294.990 83.277 289.191 82.922 C 282.153 82.490,282.141 82.490,281.984 82.899 M184.776 94.444 C 184.047 94.789,183.404 95.136,183.345 95.216 C 183.287 95.295,182.287 95.768,181.122 96.266 C 179.957 96.765,178.952 97.308,178.888 97.474 C 178.765 97.796,180.038 100.358,180.321 100.358 C 180.414 100.358,180.572 100.565,180.671 100.818 C 180.770 101.071,181.227 101.810,181.688 102.462 C 182.148 103.113,182.524 103.729,182.524 103.830 C 182.524 103.931,182.688 104.134,182.887 104.281 C 183.087 104.428,183.616 105.007,184.063 105.569 C 184.509 106.130,185.703 107.418,186.715 108.430 C 187.728 109.443,189.016 110.636,189.577 111.083 C 190.138 111.530,190.718 112.058,190.865 112.258 C 191.012 112.458,191.235 112.621,191.360 112.621 C 191.485 112.621,191.754 112.772,191.958 112.956 C 192.423 113.378,192.730 113.154,193.449 111.868 C 193.731 111.363,194.200 110.659,194.490 110.304 C 195.262 109.360,197.036 106.518,197.036 106.228 C 197.035 106.022,195.659 104.807,194.439 103.935 C 193.941 103.578,191.313 100.907,191.313 100.756 C 191.313 100.677,191.159 100.486,190.971 100.332 C 190.347 99.821,187.639 96.049,187.088 94.923 C 186.453 93.628,186.487 93.635,184.776 94.444 M246.342 99.004 C 245.139 100.613,242.420 103.384,240.816 104.637 C 239.951 105.312,239.097 105.991,238.918 106.146 C 238.382 106.607,236.857 107.579,235.821 108.120 C 235.032 108.532,234.874 108.703,234.974 109.040 C 235.269 110.036,238.449 116.294,238.661 116.297 C 239.035 116.302,241.097 115.162,241.571 114.688 C 241.809 114.451,242.105 114.257,242.230 114.257 C 242.427 114.257,245.199 112.353,245.478 112.026 C 245.534 111.960,246.132 111.454,246.806 110.900 C 249.286 108.867,254.265 103.379,254.266 102.677 C 254.267 102.547,253.774 102.163,253.172 101.823 C 252.570 101.483,251.949 101.079,251.792 100.926 C 251.271 100.414,247.934 98.322,247.469 98.215 C 247.107 98.131,246.870 98.297,246.342 99.004 M173.224 100.087 C 172.662 100.378,172.172 100.695,172.134 100.793 C 172.097 100.891,171.944 100.971,171.794 100.971 C 171.463 100.971,166.222 103.463,165.689 103.874 C 165.281 104.188,165.565 105.093,166.301 105.830 C 166.455 105.984,166.582 106.192,166.582 106.293 C 166.582 106.587,168.789 110.143,169.344 110.741 C 169.623 111.042,169.987 111.574,170.153 111.923 C 170.318 112.272,170.962 113.127,171.584 113.823 C 172.205 114.520,172.713 115.173,172.713 115.275 C 172.713 115.582,179.406 122.190,180.059 122.528 C 180.392 122.700,180.738 122.959,180.828 123.104 C 181.144 123.613,183.810 125.498,184.213 125.498 C 184.361 125.498,185.795 123.278,185.795 123.049 C 185.795 122.934,185.874 122.841,185.970 122.841 C 186.150 122.841,187.305 121.153,187.833 120.119 C 187.995 119.801,188.327 119.342,188.570 119.097 C 190.030 117.627,190.165 116.688,189.014 116.012 C 188.536 115.732,187.735 115.084,187.234 114.573 C 186.733 114.062,186.240 113.643,186.138 113.643 C 185.896 113.643,181.502 109.248,181.502 109.006 C 181.502 108.904,181.128 108.457,180.672 108.013 C 180.215 107.568,179.330 106.446,178.705 105.519 C 178.080 104.591,177.488 103.832,177.390 103.832 C 177.291 103.832,177.210 103.742,177.210 103.632 C 177.210 103.521,176.860 102.854,176.433 102.150 C 176.005 101.445,175.534 100.570,175.386 100.204 C 175.054 99.386,174.626 99.363,173.224 100.087 M257.282 105.768 C 257.085 106.038,256.924 106.320,256.924 106.393 C 256.924 106.467,256.464 106.996,255.902 107.571 C 255.340 108.145,254.880 108.690,254.880 108.783 C 254.880 109.002,250.784 113.021,249.120 114.433 C 247.120 116.131,243.824 118.412,242.118 119.278 C 240.204 120.249,240.169 119.858,242.616 124.813 C 243.740 127.089,244.660 129.036,244.660 129.141 C 244.660 129.887,246.498 129.598,247.009 128.772 C 247.079 128.658,247.614 128.337,248.198 128.058 C 248.782 127.778,249.857 127.137,250.588 126.633 C 251.318 126.128,252.422 125.377,253.040 124.963 C 253.659 124.550,254.642 123.765,255.225 123.220 C 255.809 122.674,256.384 122.228,256.504 122.228 C 256.800 122.228,263.668 115.315,263.674 115.010 C 263.676 114.877,264.182 114.222,264.798 113.555 C 265.413 112.888,265.917 112.251,265.917 112.140 C 265.917 112.029,266.066 111.773,266.249 111.572 C 266.713 111.059,266.503 110.696,265.368 110.050 C 264.827 109.742,264.292 109.385,264.180 109.257 C 263.920 108.959,262.106 107.716,261.932 107.716 C 261.789 107.716,259.951 106.493,259.785 106.288 C 259.060 105.390,257.753 105.119,257.282 105.768 M198.314 108.227 C 198.061 108.617,197.854 109.009,197.854 109.098 C 197.854 109.187,197.579 109.560,197.244 109.928 C 196.909 110.295,196.384 111.028,196.077 111.557 C 195.771 112.086,195.229 112.925,194.873 113.421 L 194.226 114.323 194.736 114.796 C 196.407 116.345,206.028 120.184,208.239 120.184 C 208.467 120.184,208.684 120.278,208.722 120.393 C 208.804 120.637,213.398 121.324,213.832 121.158 C 214.115 121.049,214.763 113.111,214.510 112.858 C 214.458 112.806,213.545 112.643,212.480 112.496 C 211.416 112.348,210.380 112.136,210.178 112.023 C 209.976 111.911,209.079 111.626,208.185 111.391 C 206.274 110.890,202.321 109.430,202.157 109.165 C 202.020 108.942,199.265 107.513,198.978 107.515 C 198.866 107.516,198.567 107.836,198.314 108.227 M231.070 110.404 C 230.172 110.740,228.700 111.207,227.800 111.442 C 226.899 111.677,226.117 111.935,226.060 112.016 C 225.912 112.229,221.638 112.790,218.971 112.947 L 216.685 113.081 216.577 113.822 C 216.517 114.230,216.415 115.759,216.350 117.220 C 216.284 118.682,216.178 120.236,216.115 120.675 L 215.998 121.473 219.650 121.346 C 223.163 121.224,227.124 120.760,227.579 120.416 C 227.699 120.326,228.350 120.134,229.024 119.990 C 231.882 119.379,236.183 117.869,236.358 117.415 C 236.522 116.985,233.151 109.724,232.811 109.777 C 232.752 109.786,231.968 110.068,231.070 110.404 M191.151 118.869 C 190.821 119.269,190.426 119.844,190.274 120.146 C 189.816 121.055,188.804 122.524,188.517 122.698 C 188.369 122.788,188.247 122.955,188.247 123.070 C 188.247 123.185,187.982 123.663,187.659 124.134 C 186.838 125.326,186.203 126.485,186.203 126.790 C 186.203 127.053,188.191 128.360,188.590 128.360 C 188.711 128.360,188.937 128.512,189.091 128.698 C 189.391 129.060,193.843 131.221,194.288 131.221 C 194.434 131.221,194.699 131.366,194.875 131.542 C 195.362 132.029,202.231 134.290,203.219 134.288 C 203.416 134.287,203.577 134.367,203.577 134.464 C 203.577 134.778,210.229 135.922,212.058 135.922 C 212.876 135.922,212.980 135.871,212.983 135.462 C 212.986 135.210,213.122 133.071,213.287 130.710 C 213.682 125.041,213.716 125.534,212.928 125.421 C 208.326 124.758,204.268 123.887,202.888 123.267 C 202.424 123.058,201.375 122.648,200.556 122.356 C 198.525 121.629,196.151 120.608,196.020 120.405 C 195.961 120.312,195.314 119.937,194.584 119.571 C 193.853 119.205,193.011 118.734,192.712 118.523 C 191.973 118.001,191.842 118.030,191.151 118.869 M237.302 121.715 C 230.171 124.537,226.414 125.350,219.190 125.635 C 217.348 125.707,215.839 125.775,215.837 125.786 C 215.781 126.133,215.235 134.647,215.232 135.230 L 215.227 136.071 216.607 136.184 C 220.309 136.487,232.073 135.250,232.601 134.503 C 232.657 134.423,233.393 134.194,234.236 133.994 C 236.214 133.523,241.005 131.919,241.165 131.674 C 241.232 131.570,241.639 131.370,242.068 131.230 C 243.205 130.860,243.205 130.567,242.064 128.278 C 241.499 127.142,240.500 125.133,239.846 123.812 C 238.581 121.261,238.538 121.225,237.302 121.715 M59.274 166.786 L 59.274 173.735 60.501 173.735 L 61.727 173.735 61.727 166.786 L 61.727 159.836 60.501 159.836 L 59.274 159.836 59.274 166.786 M68.881 166.786 L 68.881 173.735 70.210 173.735 L 71.538 173.735 71.538 168.226 L 71.538 162.716 73.224 163.748 C 74.152 164.315,75.049 164.902,75.217 165.052 C 75.672 165.455,78.681 167.399,78.851 167.399 C 78.932 167.399,79.354 167.716,79.788 168.102 C 80.223 168.489,80.867 168.945,81.219 169.115 C 81.572 169.285,82.320 169.749,82.882 170.146 C 84.861 171.542,87.292 173.122,87.463 173.122 C 87.558 173.122,87.750 173.260,87.890 173.429 C 88.081 173.659,88.595 173.735,89.959 173.735 L 91.773 173.735 91.773 166.786 L 91.773 159.836 90.445 159.836 L 89.116 159.836 89.116 165.496 L 89.116 171.155 88.701 170.710 C 88.473 170.465,87.990 170.114,87.628 169.929 C 87.266 169.745,85.866 168.844,84.517 167.928 C 83.168 167.012,81.820 166.139,81.521 165.989 C 81.222 165.838,80.686 165.449,80.330 165.123 C 79.974 164.798,79.390 164.383,79.034 164.200 C 78.677 164.018,77.420 163.202,76.239 162.388 C 72.746 159.976,72.434 159.836,70.528 159.836 L 68.881 159.836 68.881 166.786 M99.131 161.063 L 99.131 162.289 104.139 162.289 L 109.147 162.289 109.147 168.012 L 109.147 173.735 110.475 173.735 L 111.804 173.735 111.804 168.012 L 111.804 162.289 116.914 162.289 L 122.024 162.289 122.024 161.063 L 122.024 159.836 110.577 159.836 L 99.131 159.836 99.131 161.063 M129.021 166.735 L 129.075 173.633 140.470 173.686 L 151.865 173.739 151.865 172.408 L 151.865 171.078 141.748 171.078 L 131.630 171.078 131.630 169.647 L 131.630 168.217 141.748 168.217 L 151.865 168.217 151.865 166.888 L 151.865 165.560 141.748 165.560 L 131.630 165.560 131.630 163.924 L 131.630 162.289 141.748 162.289 L 151.865 162.289 151.865 161.063 L 151.865 159.836 140.416 159.836 L 128.967 159.836 129.021 166.735 M159.223 166.786 L 159.223 173.735 170.669 173.735 L 182.115 173.735 182.115 172.407 L 182.115 171.078 171.998 171.078 L 161.880 171.078 161.880 165.457 L 161.880 159.836 160.552 159.836 L 159.223 159.836 159.223 166.786 M189.269 166.786 L 189.269 173.735 200.715 173.735 L 212.161 173.735 212.161 172.407 L 212.161 171.078 202.044 171.078 L 191.926 171.078 191.926 165.457 L 191.926 159.836 190.598 159.836 L 189.269 159.836 189.269 166.786 M219.159 166.735 L 219.213 173.633 220.491 173.694 L 221.768 173.755 221.768 166.796 L 221.768 159.836 220.437 159.836 L 219.105 159.836 219.159 166.735 M232.294 160.021 C 229.617 160.692,229.246 161.405,229.160 166.044 C 229.063 171.284,229.500 172.761,231.277 173.207 C 231.556 173.277,231.783 173.425,231.783 173.535 C 231.783 173.663,234.898 173.735,240.384 173.735 L 248.985 173.735 250.101 172.995 C 251.701 171.933,251.878 171.488,251.980 168.268 L 252.066 165.560 247.341 165.560 L 242.616 165.560 242.616 166.888 L 242.616 168.217 245.989 168.217 L 249.361 168.217 249.361 168.959 C 249.361 169.367,249.170 170.011,248.936 170.390 L 248.510 171.078 240.594 171.078 L 232.678 171.078 232.231 170.473 C 231.142 169.000,231.690 162.698,232.908 162.698 C 233.076 162.698,233.214 162.606,233.214 162.494 C 233.214 162.361,235.871 162.289,240.777 162.289 C 245.682 162.289,248.339 162.361,248.339 162.494 C 248.339 162.606,248.479 162.698,248.650 162.698 C 248.821 162.698,249.066 162.928,249.194 163.209 C 249.407 163.677,249.537 163.720,250.749 163.720 L 252.071 163.720 251.936 162.881 C 251.476 160.003,251.271 159.946,241.185 159.903 C 236.633 159.884,232.632 159.937,232.294 160.021 M259.016 166.735 L 259.070 173.633 270.516 173.633 L 281.962 173.633 282.023 172.356 L 282.084 171.078 271.854 171.078 L 261.625 171.078 261.625 169.649 L 261.625 168.220 271.794 168.167 L 281.962 168.114 282.023 166.837 L 282.084 165.560 271.854 165.560 L 261.625 165.560 261.625 163.924 L 261.625 162.289 271.845 162.289 L 282.064 162.289 282.064 161.063 L 282.064 159.836 270.513 159.836 L 258.962 159.836 259.016 166.735 M289.218 166.766 L 289.218 173.735 290.547 173.735 L 291.875 173.735 291.875 168.222 L 291.875 162.709 292.948 163.340 C 293.539 163.688,294.987 164.632,296.168 165.437 C 297.348 166.243,298.552 167.022,298.844 167.168 C 299.135 167.314,299.727 167.748,300.158 168.132 C 300.590 168.516,301.019 168.830,301.113 168.830 C 301.310 168.830,304.076 170.623,304.589 171.085 C 304.781 171.257,305.676 171.837,306.577 172.373 C 307.478 172.909,308.270 173.435,308.336 173.542 C 308.402 173.648,309.278 173.735,310.283 173.735 L 312.110 173.735 312.110 166.786 L 312.110 159.836 310.782 159.836 L 309.453 159.836 309.447 165.508 C 309.441 170.148,309.393 171.118,309.180 170.838 C 309.036 170.649,308.143 170.020,307.193 169.439 C 306.244 168.858,305.330 168.261,305.161 168.111 C 304.672 167.677,301.691 165.764,301.503 165.764 C 301.410 165.764,301.112 165.543,300.843 165.273 C 300.573 165.004,299.572 164.305,298.618 163.722 C 297.664 163.138,296.745 162.538,296.576 162.388 C 296.408 162.238,295.534 161.628,294.635 161.033 L 292.999 159.949 291.109 159.873 L 289.218 159.797 289.218 166.766 M319.264 161.063 L 319.264 162.289 324.269 162.289 L 329.273 162.289 329.327 167.961 L 329.382 173.633 330.659 173.694 L 331.937 173.755 331.937 168.022 L 331.937 162.289 337.046 162.289 L 342.156 162.289 342.156 161.063 L 342.156 159.836 330.710 159.836 L 319.264 159.836 319.264 161.063 M0.409 180.991 L 0.409 182.320 25.447 182.320 L 50.485 182.320 50.485 180.991 L 50.485 179.663 25.447 179.663 L 0.409 179.663 0.409 180.991 M348.901 180.991 L 348.901 182.320 374.042 182.320 L 399.182 182.320 399.182 180.991 L 399.182 179.663 374.042 179.663 L 348.901 179.663 348.901 180.991 M91.569 194.175 L 91.569 201.124 92.897 201.124 L 94.226 201.124 94.226 196.179 L 94.226 191.233 94.900 191.886 C 95.271 192.246,95.646 192.540,95.735 192.540 C 95.824 192.540,96.383 193.022,96.978 193.613 C 98.486 195.109,100.949 197.330,101.848 198.004 C 102.263 198.315,102.746 198.776,102.922 199.029 C 103.424 199.751,103.969 199.371,108.390 195.214 C 108.930 194.707,109.577 194.151,109.829 193.978 C 110.080 193.805,110.707 193.237,111.222 192.715 C 111.737 192.192,112.355 191.660,112.594 191.532 L 113.030 191.299 113.030 196.212 L 113.030 201.124 114.361 201.124 L 115.693 201.124 115.639 194.226 L 115.585 187.328 114.403 187.266 C 113.105 187.198,113.146 187.173,110.708 189.525 C 110.154 190.059,109.654 190.496,109.597 190.496 C 109.498 190.496,108.047 191.786,106.490 193.260 C 106.096 193.632,105.274 194.348,104.662 194.851 L 103.550 195.766 102.537 194.919 C 101.980 194.454,101.009 193.575,100.379 192.967 C 99.749 192.359,98.874 191.600,98.434 191.279 C 97.995 190.959,97.321 190.330,96.936 189.881 C 96.552 189.432,96.115 189.065,95.965 189.065 C 95.814 189.065,95.327 188.651,94.882 188.145 C 94.088 187.243,94.048 187.225,92.820 187.225 L 91.569 187.225 91.569 194.175 M133.872 188.121 C 133.482 188.614,131.750 190.615,130.023 192.567 C 128.296 194.519,126.411 196.653,125.833 197.310 C 125.255 197.966,124.300 199.024,123.711 199.660 C 122.337 201.144,122.328 201.124,124.363 201.124 L 126.089 201.124 127.095 200.102 L 128.101 199.080 135.774 199.080 L 143.447 199.080 144.366 200.102 L 145.285 201.124 146.940 201.124 C 147.886 201.124,148.595 201.038,148.595 200.924 C 148.595 200.724,146.441 198.206,143.626 195.116 C 142.818 194.228,142.003 193.250,141.816 192.942 C 141.629 192.635,141.283 192.248,141.047 192.082 C 140.811 191.917,140.147 191.193,139.572 190.474 C 138.997 189.755,138.171 188.836,137.736 188.432 C 137.300 188.028,136.944 187.591,136.944 187.461 C 136.944 186.706,134.592 187.211,133.872 188.121 M161.829 187.374 C 161.408 187.418,161.063 187.541,161.063 187.646 C 161.063 187.752,160.856 187.839,160.603 187.840 C 160.101 187.841,159.019 188.454,158.042 189.292 C 155.265 191.673,155.304 196.986,158.116 199.461 C 159.962 201.086,159.451 201.015,169.699 201.081 L 178.845 201.140 178.845 199.804 L 178.845 198.467 170.312 198.463 C 160.823 198.458,160.749 198.448,159.580 197.059 C 157.873 195.030,158.386 192.538,160.921 190.551 C 161.623 190.000,163.251 189.892,170.925 189.887 L 178.845 189.882 178.845 188.554 L 178.845 187.225 170.720 187.260 C 166.252 187.279,162.251 187.330,161.829 187.374 M186.203 194.165 L 186.203 201.124 187.532 201.124 L 188.861 201.124 188.861 198.365 L 188.861 195.606 197.649 195.606 L 206.438 195.606 206.438 198.365 L 206.438 201.124 207.770 201.124 L 209.101 201.124 209.047 194.226 L 208.993 187.328 207.716 187.267 L 206.438 187.206 206.438 190.077 L 206.438 192.948 197.655 192.948 L 188.872 192.948 188.815 190.138 L 188.758 187.328 187.481 187.267 L 186.203 187.206 186.203 194.165 M216.045 194.175 L 216.045 201.124 217.374 201.124 L 218.702 201.124 218.702 194.175 L 218.702 187.225 217.374 187.225 L 216.045 187.225 216.045 194.175 M226.060 194.175 L 226.060 201.124 227.389 201.124 L 228.717 201.124 228.724 195.554 C 228.729 190.998,228.778 190.047,228.991 190.327 C 229.134 190.516,230.028 191.145,230.977 191.726 C 231.926 192.307,232.841 192.904,233.010 193.054 C 233.464 193.458,236.473 195.401,236.644 195.401 C 236.725 195.401,237.134 195.707,237.553 196.080 C 237.972 196.453,238.570 196.887,238.882 197.045 C 239.193 197.203,239.989 197.702,240.650 198.155 C 241.310 198.608,242.593 199.461,243.500 200.051 L 245.148 201.124 247.053 201.124 L 248.958 201.124 248.904 194.226 L 248.850 187.328 247.573 187.267 L 246.295 187.206 246.295 192.831 L 246.295 198.456 245.222 197.825 C 244.632 197.477,243.183 196.529,242.003 195.717 C 240.823 194.905,239.466 194.025,238.988 193.761 C 238.510 193.498,238.120 193.211,238.120 193.124 C 238.120 193.037,237.683 192.715,237.149 192.408 C 236.615 192.101,235.060 191.086,233.694 190.151 C 232.328 189.216,231.129 188.452,231.029 188.452 C 230.930 188.452,230.530 188.180,230.140 187.847 C 229.483 187.285,229.314 187.241,227.747 187.234 L 226.060 187.225 226.060 194.175 M256.040 187.360 C 255.964 187.436,255.902 190.564,255.902 194.311 L 255.902 201.124 267.460 201.124 L 279.018 201.124 278.957 199.847 L 278.896 198.569 268.728 198.516 L 258.559 198.463 258.559 197.034 L 258.559 195.606 268.788 195.606 L 279.018 195.606 278.957 194.328 L 278.896 193.051 268.728 192.998 L 258.559 192.945 258.559 191.414 L 258.559 189.882 268.788 189.882 L 279.018 189.882 278.957 188.605 L 278.896 187.328 267.537 187.275 C 261.289 187.246,256.116 187.284,256.040 187.360 M289.525 187.377 C 289.189 187.426,288.867 187.528,288.810 187.603 C 288.753 187.679,288.319 187.992,287.843 188.300 C 285.242 189.986,285.614 193.889,288.503 195.220 C 289.252 195.565,289.986 195.597,297.328 195.601 C 306.080 195.606,305.738 195.560,306.210 196.801 C 306.365 197.208,306.323 197.434,306.018 197.843 L 305.628 198.365 296.197 198.418 L 286.765 198.471 286.765 199.798 L 286.765 201.124 296.465 201.124 C 306.762 201.124,306.774 201.123,307.877 200.120 C 309.960 198.226,308.755 193.357,306.203 193.357 C 306.080 193.357,305.979 193.265,305.979 193.153 C 305.979 193.020,303.148 192.948,297.896 192.948 L 289.813 192.948 289.311 192.447 C 288.463 191.598,288.815 190.423,290.017 190.089 C 290.453 189.968,294.343 189.884,299.591 189.884 L 308.431 189.882 308.431 188.554 L 308.431 187.225 299.285 187.256 C 294.254 187.273,289.862 187.327,289.525 187.377 M136.289 190.956 C 136.589 191.321,137.176 191.988,137.594 192.437 C 138.012 192.887,138.793 193.761,139.328 194.379 C 139.864 194.997,140.483 195.710,140.703 195.963 L 141.103 196.423 135.743 196.423 C 131.206 196.423,130.408 196.379,130.547 196.137 C 130.637 195.979,131.323 195.174,132.072 194.348 C 133.412 192.871,135.010 191.058,135.411 190.560 C 135.690 190.214,135.676 190.208,136.289 190.956 " stroke="none" fill="#0484fc" fill-rule="evenodd"></path><path id="path1" d="M0.000 77.057 L 0.000 136.127 10.424 136.127 L 20.848 136.127 20.848 115.585 L 20.848 95.043 33.572 95.044 L 46.295 95.044 46.901 96.003 C 47.234 96.530,47.717 97.144,47.974 97.368 C 48.231 97.591,48.441 97.860,48.441 97.966 C 48.441 98.157,49.041 99.028,51.005 101.686 C 51.586 102.473,52.203 103.393,52.377 103.730 C 52.551 104.067,52.938 104.607,53.237 104.930 C 53.536 105.252,54.019 105.896,54.309 106.361 C 55.097 107.620,57.873 111.464,58.182 111.722 C 58.330 111.845,58.401 111.995,58.341 112.055 C 58.281 112.115,58.606 112.596,59.063 113.124 C 59.520 113.652,60.040 114.367,60.219 114.713 C 60.681 115.607,61.705 116.987,62.048 117.179 C 62.209 117.269,62.340 117.433,62.340 117.543 C 62.340 117.868,64.632 121.108,64.823 121.053 C 64.919 121.025,64.997 121.090,64.997 121.199 C 64.997 121.456,67.160 124.808,67.436 124.978 C 67.552 125.050,68.046 125.726,68.534 126.479 C 69.021 127.232,69.999 128.630,70.708 129.585 C 71.416 130.540,72.067 131.506,72.156 131.731 C 72.244 131.957,72.652 132.509,73.063 132.959 C 73.475 133.408,73.958 134.052,74.137 134.389 C 74.316 134.727,74.650 135.255,74.878 135.565 L 75.294 136.127 87.724 136.127 C 96.990 136.127,100.153 136.067,100.153 135.891 C 100.153 135.761,99.923 135.353,99.642 134.984 C 99.361 134.616,99.131 134.231,99.131 134.128 C 99.131 134.026,98.935 133.767,98.695 133.552 C 98.455 133.338,97.767 132.404,97.166 131.477 C 96.566 130.549,95.996 129.790,95.900 129.790 C 95.804 129.790,95.597 129.538,95.440 129.228 C 95.113 128.585,94.833 128.181,92.857 125.498 C 92.070 124.430,91.280 123.281,91.101 122.943 C 90.922 122.606,90.402 121.916,89.946 121.410 C 89.490 120.904,89.116 120.413,89.116 120.319 C 89.116 120.068,87.449 117.731,87.271 117.731 C 87.188 117.731,87.066 117.570,87.001 117.374 C 86.865 116.964,85.298 114.657,84.536 113.746 C 83.781 112.842,83.314 112.177,83.010 111.576 C 82.862 111.282,82.337 110.592,81.843 110.043 C 81.350 109.494,80.945 108.969,80.943 108.877 C 80.940 108.721,79.156 106.105,78.896 105.876 C 78.621 105.633,77.261 103.659,77.258 103.498 C 77.257 103.401,76.751 102.728,76.134 102.002 C 75.517 101.277,75.013 100.605,75.013 100.510 C 75.013 100.415,74.290 99.353,73.407 98.150 C 72.525 96.947,71.631 95.687,71.422 95.350 C 71.213 95.013,70.716 94.356,70.319 93.890 C 69.580 93.025,68.748 91.622,68.899 91.496 C 68.945 91.457,70.202 91.041,71.691 90.571 C 73.181 90.101,74.400 89.628,74.400 89.519 C 74.400 89.410,74.499 89.320,74.619 89.320 C 74.911 89.320,79.564 87.105,79.706 86.899 C 79.850 86.689,81.583 85.521,81.906 85.416 C 82.770 85.135,89.116 79.137,89.116 78.600 C 89.116 78.482,89.470 77.987,89.903 77.499 C 90.655 76.652,91.224 75.727,92.374 73.480 C 92.662 72.918,92.956 72.412,93.028 72.356 C 93.579 71.923,95.657 65.301,95.657 63.976 C 95.657 63.770,95.740 63.570,95.843 63.533 C 96.696 63.221,96.726 48.667,95.876 47.522 C 95.792 47.409,95.613 46.765,95.477 46.091 C 94.899 43.222,93.599 39.525,92.531 37.712 C 92.200 37.151,91.848 36.477,91.748 36.215 C 90.755 33.602,83.804 26.324,81.502 25.488 C 81.306 25.416,81.145 25.257,81.145 25.135 C 81.145 25.012,81.053 24.969,80.940 25.038 C 80.828 25.108,80.736 25.076,80.736 24.967 C 80.736 24.676,75.025 21.838,74.764 22.000 C 74.641 22.076,74.598 22.045,74.668 21.931 C 74.789 21.736,72.461 20.910,69.596 20.132 C 68.922 19.948,68.232 19.744,68.063 19.678 C 67.895 19.611,67.678 19.575,67.582 19.597 C 67.486 19.618,67.302 19.551,67.173 19.448 C 66.858 19.194,62.362 18.453,59.581 18.195 C 58.182 18.066,46.505 17.987,28.666 17.987 L 0.000 17.987 0.000 77.057 M117.118 77.057 L 117.118 136.127 127.747 136.127 L 138.375 136.127 138.375 77.057 L 138.375 17.987 127.747 17.987 L 117.118 17.987 117.118 77.057 M348.288 18.218 C 346.019 18.450,341.978 19.210,341.841 19.431 C 341.783 19.526,341.599 19.552,341.434 19.489 C 341.269 19.426,341.134 19.476,341.134 19.600 C 341.134 19.724,340.973 19.827,340.777 19.829 C 339.798 19.836,334.646 21.762,333.492 22.552 C 333.055 22.852,332.603 23.097,332.487 23.097 C 332.277 23.097,329.267 24.901,329.075 25.142 C 329.019 25.213,328.375 25.726,327.644 26.283 C 324.499 28.681,321.178 32.669,319.432 36.146 C 318.887 37.231,318.348 38.233,318.235 38.371 C 318.122 38.509,318.023 38.693,318.015 38.780 C 318.007 38.866,317.866 39.259,317.700 39.653 C 315.536 44.810,315.208 55.441,317.008 62.034 C 317.223 62.821,317.544 63.809,317.721 64.230 C 317.898 64.651,318.034 65.055,318.023 65.127 C 318.012 65.199,318.091 65.315,318.199 65.383 C 318.307 65.452,318.735 66.198,319.150 67.041 C 321.031 70.859,326.535 76.331,329.820 77.648 C 330.174 77.790,330.647 78.078,330.872 78.287 C 331.318 78.703,333.322 79.661,335.395 80.449 C 336.117 80.724,336.807 81.024,336.928 81.117 C 337.296 81.400,344.149 83.596,344.671 83.599 C 344.805 83.599,345.178 83.736,345.498 83.903 C 346.057 84.195,349.106 84.976,354.318 86.163 C 355.667 86.470,356.817 86.781,356.873 86.853 C 356.929 86.925,358.125 87.281,359.530 87.644 C 363.766 88.737,365.075 89.118,365.950 89.512 C 366.410 89.718,367.430 90.121,368.217 90.407 C 370.726 91.318,372.293 92.004,372.713 92.377 C 372.938 92.577,373.582 93.000,374.144 93.317 C 377.694 95.322,379.458 98.271,379.708 102.619 C 379.891 105.802,378.981 109.331,377.561 110.946 C 377.255 111.294,376.760 111.891,376.459 112.274 C 376.158 112.657,375.376 113.319,374.721 113.746 C 374.067 114.173,373.341 114.693,373.108 114.901 C 372.340 115.589,367.231 117.338,365.866 117.379 C 365.585 117.388,365.289 117.494,365.209 117.614 C 365.015 117.906,353.241 117.920,353.033 117.629 C 352.953 117.517,352.565 117.425,352.172 117.425 C 351.778 117.425,351.410 117.374,351.354 117.311 C 351.298 117.249,350.233 116.999,348.987 116.757 C 346.321 116.237,343.687 115.462,342.259 114.775 C 341.696 114.505,340.156 113.798,338.835 113.204 C 337.514 112.609,336.433 112.051,336.433 111.964 C 336.433 111.876,335.993 111.592,335.455 111.333 C 334.228 110.741,331.901 109.328,331.630 109.010 C 331.389 108.727,328.218 106.694,328.018 106.694 C 327.819 106.694,326.223 108.340,325.838 108.942 C 325.525 109.433,324.273 110.963,321.028 114.822 C 320.199 115.808,319.302 116.934,319.034 117.326 C 318.766 117.717,318.111 118.491,317.577 119.045 C 317.044 119.599,316.607 120.160,316.607 120.291 C 316.607 120.422,316.423 120.696,316.198 120.899 C 315.635 121.409,315.684 121.643,316.467 122.177 C 316.839 122.429,317.322 122.797,317.542 122.994 C 318.187 123.572,320.784 125.294,321.010 125.294 C 321.124 125.294,321.494 125.547,321.833 125.856 C 322.172 126.165,323.457 126.924,324.689 127.542 C 325.921 128.160,326.975 128.723,327.031 128.792 C 327.219 129.024,328.750 129.731,330.710 130.492 C 331.778 130.907,333.020 131.426,333.470 131.645 C 334.506 132.151,338.172 133.273,340.828 133.897 C 341.952 134.161,342.918 134.440,342.974 134.517 C 343.084 134.667,346.969 135.344,350.128 135.764 C 352.818 136.121,365.340 136.116,367.808 135.756 C 370.902 135.306,373.936 134.680,374.008 134.479 C 374.045 134.373,374.229 134.285,374.417 134.283 C 375.357 134.271,381.755 132.049,382.002 131.648 C 382.072 131.534,382.470 131.300,382.885 131.126 C 383.745 130.767,386.764 129.011,386.919 128.780 C 386.975 128.697,387.573 128.223,388.248 127.727 C 389.530 126.786,392.846 123.624,392.846 123.342 C 392.846 123.253,393.288 122.666,393.827 122.039 C 394.777 120.935,396.730 117.805,396.730 117.387 C 396.730 117.273,396.909 116.974,397.128 116.721 C 397.579 116.202,398.608 113.247,399.173 110.851 C 400.876 103.630,399.863 90.851,397.338 87.685 C 397.114 87.404,396.834 86.944,396.716 86.663 C 396.413 85.938,394.459 82.984,394.283 82.984 C 394.202 82.984,393.694 82.433,393.154 81.759 C 392.613 81.085,391.702 80.176,391.129 79.738 C 390.556 79.300,389.865 78.730,389.594 78.472 C 388.959 77.866,386.290 76.122,385.721 75.942 C 385.480 75.865,385.284 75.702,385.284 75.578 C 385.284 75.455,385.230 75.407,385.164 75.473 C 385.099 75.538,384.862 75.408,384.638 75.184 C 384.413 74.960,384.094 74.829,383.929 74.892 C 383.763 74.956,383.673 74.934,383.729 74.844 C 383.820 74.697,380.957 73.401,379.816 73.073 C 379.563 73.001,379.356 72.858,379.356 72.757 C 379.356 72.656,379.218 72.626,379.050 72.691 C 378.881 72.755,378.743 72.710,378.743 72.589 C 378.743 72.370,371.961 70.107,371.303 70.107 C 371.110 70.107,371.009 70.015,371.078 69.903 C 371.148 69.790,371.151 69.699,371.086 69.699 C 371.022 69.699,370.303 69.521,369.490 69.303 C 366.266 68.441,363.270 67.693,362.494 67.557 C 362.044 67.478,361.571 67.327,361.442 67.220 C 361.313 67.114,361.129 67.045,361.033 67.067 C 360.937 67.088,360.720 67.047,360.552 66.975 C 360.383 66.902,358.774 66.467,356.975 66.009 C 352.008 64.742,351.265 64.524,351.102 64.292 C 351.019 64.174,350.950 64.158,350.948 64.256 C 350.947 64.354,350.830 64.341,350.690 64.226 C 350.549 64.112,350.112 63.925,349.719 63.811 C 345.727 62.653,341.027 60.131,339.397 58.271 C 338.947 57.757,338.383 57.152,338.143 56.924 C 335.707 54.620,335.635 46.083,338.029 43.392 C 338.332 43.051,338.922 42.355,339.341 41.844 C 341.550 39.150,346.880 36.588,350.281 36.587 C 350.646 36.587,350.945 36.495,350.945 36.382 C 350.945 36.253,352.342 36.178,354.727 36.178 C 356.806 36.178,358.508 36.257,358.508 36.353 C 358.508 36.449,359.083 36.583,359.785 36.650 C 362.523 36.913,369.586 38.694,369.947 39.213 C 370.007 39.299,370.378 39.494,370.772 39.647 C 373.159 40.572,375.426 41.590,375.779 41.895 C 376.004 42.089,376.985 42.644,377.960 43.129 L 379.731 44.011 380.374 43.416 C 380.727 43.088,381.298 42.407,381.644 41.901 C 381.990 41.395,382.677 40.521,383.171 39.959 C 383.665 39.397,385.036 37.741,386.216 36.280 C 387.397 34.819,388.769 33.163,389.266 32.601 C 389.762 32.039,390.411 31.211,390.709 30.761 C 391.006 30.312,391.439 29.795,391.671 29.612 C 392.067 29.301,392.061 28.445,391.665 28.690 C 391.576 28.745,391.122 28.452,390.656 28.038 C 390.190 27.625,388.814 26.781,387.597 26.163 C 386.381 25.545,385.277 24.937,385.143 24.811 C 384.824 24.511,380.657 22.688,380.289 22.688 C 380.132 22.688,379.973 22.596,379.935 22.484 C 379.840 22.198,376.437 21.030,373.633 20.319 C 372.340 19.992,371.224 19.643,371.152 19.545 C 371.080 19.446,370.909 19.435,370.772 19.520 C 370.634 19.605,370.463 19.588,370.391 19.483 C 369.698 18.465,354.430 17.591,348.288 18.218 M56.515 37.387 C 59.956 37.898,63.771 38.878,63.771 39.250 C 63.771 39.335,64.024 39.466,64.333 39.542 C 65.024 39.712,68.052 41.434,68.472 41.896 C 68.641 42.081,69.400 42.767,70.158 43.420 C 70.917 44.074,71.538 44.694,71.538 44.799 C 71.538 44.903,71.929 45.559,72.407 46.255 C 75.219 50.354,75.826 58.098,73.784 63.812 C 73.463 64.709,73.063 65.550,72.895 65.680 C 72.728 65.811,72.378 66.331,72.119 66.837 C 71.469 68.108,68.861 70.783,67.419 71.659 C 66.762 72.058,66.224 72.476,66.224 72.587 C 66.224 72.698,66.132 72.732,66.019 72.662 C 65.907 72.593,65.815 72.623,65.815 72.728 C 65.815 73.018,63.717 73.953,61.527 74.639 C 60.457 74.974,59.443 75.305,59.274 75.374 C 59.106 75.444,58.876 75.515,58.763 75.532 C 58.651 75.549,58.421 75.620,58.252 75.688 C 56.980 76.208,54.021 76.310,37.864 76.387 L 20.848 76.469 20.848 56.717 L 20.848 36.965 37.864 37.054 C 49.514 37.115,55.396 37.220,56.515 37.387 " stroke="none" fill="#0c1c2c" fill-rule="evenodd"></path><path id="path2" d="" stroke="none" fill="#0c1c34" fill-rule="evenodd"></path><path id="path3" d="" stroke="none" fill="#0888cc" fill-rule="evenodd"></path><path id="path4" d="" stroke="none" fill="#085460" fill-rule="evenodd"></path></g></svg>