<svg id="svg" version="1.1" xmlns="http://www.w3.org/2000/svg" xmlns:xlink="http://www.w3.org/1999/xlink" width="440" height="440"  style="background-color:white" viewBox="0, 0, 400,266.6666666666667"><g id="svgg"><path id="path0" d="M70.250 86.005 C 67.225 86.074,63.962 86.215,63.000 86.318 C 61.976 86.428,58.264 86.505,54.049 86.504 C 46.090 86.502,46.000 86.513,46.000 87.423 C 46.000 88.725,46.690 89.000,49.953 89.000 C 52.860 89.000,53.844 89.216,54.664 90.036 C 55.032 90.405,55.333 90.763,55.333 90.833 C 55.333 90.902,55.462 91.250,55.619 91.605 C 56.374 93.309,56.374 93.321,56.444 122.917 C 56.514 152.405,56.536 151.457,55.791 151.856 C 55.623 151.946,54.270 152.054,52.784 152.097 C 48.432 152.222,48.000 152.363,48.000 153.660 C 48.000 154.961,49.530 155.268,53.833 154.829 C 56.689 154.538,64.097 154.629,67.000 154.990 C 76.288 156.148,83.605 155.702,88.920 153.656 C 89.380 153.478,89.822 153.333,89.901 153.333 C 90.418 153.333,94.500 151.090,94.500 150.805 C 94.500 150.729,94.583 150.667,94.685 150.667 C 95.223 150.667,97.549 148.369,98.565 146.833 C 101.036 143.099,102.087 137.211,100.991 133.250 C 100.814 132.608,100.634 131.879,100.593 131.629 C 100.494 131.037,99.006 128.000,98.814 128.000 C 98.733 128.000,98.667 127.883,98.667 127.740 C 98.667 127.402,95.265 124.000,94.926 124.000 C 94.784 124.000,94.667 123.926,94.667 123.835 C 94.667 123.516,90.668 121.142,88.667 120.274 C 88.071 120.016,87.347 119.698,87.058 119.569 C 86.769 119.439,86.390 119.333,86.215 119.333 C 85.256 119.333,85.397 118.058,86.362 118.006 C 86.556 117.996,89.247 116.292,89.306 116.142 C 89.336 116.064,89.434 116.000,89.523 116.000 C 90.037 116.000,93.400 113.079,94.831 111.389 C 95.869 110.164,97.035 107.829,97.606 105.833 C 97.922 104.732,98.069 99.092,97.804 98.238 C 97.745 98.048,97.583 97.509,97.444 97.041 C 97.134 95.998,96.088 93.875,95.653 93.406 C 95.477 93.217,95.333 92.998,95.333 92.919 C 95.333 92.627,92.708 90.221,91.583 89.484 C 88.785 87.648,83.700 86.045,80.583 86.016 C 80.125 86.012,78.850 85.980,77.750 85.944 C 76.650 85.909,73.275 85.936,70.250 86.005 M185.583 86.667 C 181.873 87.601,179.538 87.981,176.750 88.102 C 175.375 88.161,174.156 88.284,174.042 88.375 C 173.927 88.466,173.833 88.485,173.833 88.417 C 173.833 88.348,173.721 88.386,173.583 88.500 C 173.200 88.818,173.245 90.274,173.644 90.488 C 173.815 90.579,175.017 90.696,176.315 90.746 C 181.191 90.936,181.090 90.630,181.069 105.167 C 181.045 121.334,180.832 150.021,180.730 150.878 C 180.603 151.940,180.392 152.028,177.763 152.110 C 174.412 152.216,173.746 152.489,173.865 153.712 C 173.959 154.678,174.100 154.696,180.500 154.571 C 183.662 154.509,186.325 154.464,186.417 154.471 C 186.508 154.479,188.762 154.535,191.425 154.597 C 196.800 154.721,196.833 154.716,196.833 153.644 C 196.833 152.389,196.396 152.232,192.525 152.091 C 189.400 151.978,188.978 151.861,188.624 151.013 C 188.423 150.532,188.232 142.261,188.405 141.570 C 188.543 141.021,190.455 139.333,190.938 139.333 C 190.986 139.333,191.576 138.963,192.249 138.511 C 194.646 136.901,194.638 136.902,195.689 138.345 C 196.085 138.889,196.467 139.333,196.538 139.333 C 196.609 139.333,196.667 139.421,196.667 139.528 C 196.667 139.635,196.781 139.841,196.920 139.986 C 197.059 140.131,197.545 140.737,198.000 141.333 C 198.455 141.929,198.926 142.529,199.047 142.667 C 199.168 142.804,199.664 143.460,200.149 144.125 C 200.635 144.790,201.099 145.333,201.182 145.333 C 201.265 145.333,201.333 145.442,201.333 145.575 C 201.333 145.708,201.430 145.877,201.549 145.950 C 201.668 146.023,202.317 146.758,202.992 147.583 C 203.667 148.408,204.319 149.167,204.443 149.268 C 204.566 149.370,204.667 149.536,204.667 149.638 C 204.667 149.739,204.817 149.902,205.000 150.000 C 205.183 150.098,205.333 150.282,205.333 150.409 C 205.333 150.535,205.390 150.664,205.460 150.694 C 205.530 150.725,206.083 151.387,206.690 152.167 C 207.912 153.736,208.770 154.675,208.880 154.564 C 208.920 154.525,209.047 154.606,209.163 154.746 C 209.345 154.964,210.159 155.000,214.959 155.000 C 221.453 155.000,221.879 154.940,221.800 154.029 C 221.719 153.094,221.142 152.788,219.208 152.655 C 216.881 152.495,216.494 152.286,214.104 149.895 C 212.420 148.209,212.467 148.263,210.407 145.674 C 209.602 144.662,208.881 143.833,208.805 143.833 C 208.729 143.833,208.667 143.755,208.667 143.659 C 208.667 143.498,207.504 142.030,206.578 141.020 C 206.357 140.780,205.595 139.871,204.884 139.000 C 204.173 138.129,203.548 137.379,203.495 137.333 C 203.442 137.287,202.892 136.612,202.273 135.833 C 201.654 135.054,201.041 134.287,200.911 134.128 C 200.280 133.357,200.384 133.032,201.650 131.815 C 202.307 131.184,202.888 130.667,202.940 130.667 C 203.038 130.667,205.623 128.578,205.917 128.261 C 206.008 128.162,206.346 127.868,206.667 127.607 C 210.446 124.537,213.880 120.947,216.972 116.833 C 218.318 115.042,217.963 114.729,214.699 114.833 C 211.591 114.932,207.090 114.928,204.694 114.825 C 202.818 114.743,202.333 114.965,202.333 115.903 C 202.333 116.878,203.050 117.120,206.141 117.189 C 208.830 117.250,208.917 117.314,208.791 119.148 C 208.642 121.313,206.504 124.111,202.154 127.833 C 201.117 128.721,200.570 129.194,199.989 129.706 C 199.754 129.914,199.154 130.421,198.656 130.833 C 198.158 131.246,197.499 131.827,197.192 132.125 C 196.885 132.423,196.602 132.667,196.564 132.667 C 196.505 132.667,194.726 134.029,193.562 134.965 C 193.367 135.122,193.097 135.325,192.962 135.417 C 190.817 136.873,190.807 136.879,189.670 137.417 C 188.316 138.057,188.280 137.971,188.401 134.333 C 188.455 132.729,188.537 127.292,188.584 122.250 C 188.632 117.208,188.707 111.846,188.753 110.333 C 188.798 108.821,188.870 104.658,188.914 101.083 C 188.957 97.508,189.041 92.779,189.099 90.573 C 189.238 85.325,189.547 85.668,185.583 86.667 M268.083 86.280 C 267.717 86.421,267.117 86.605,266.750 86.688 C 266.383 86.771,266.008 86.862,265.917 86.890 C 264.670 87.267,260.036 87.999,258.833 88.009 C 255.855 88.032,254.833 88.394,254.833 89.426 C 254.833 90.441,255.374 90.678,257.894 90.769 C 261.537 90.901,262.048 91.214,262.485 93.580 C 262.611 94.263,262.667 103.165,262.667 122.835 L 262.667 151.109 262.240 151.509 C 261.752 151.968,260.517 152.135,257.450 152.155 C 255.295 152.169,254.736 152.379,254.576 153.233 C 254.450 153.903,254.744 154.570,255.105 154.432 C 255.240 154.380,255.312 154.400,255.264 154.478 C 255.154 154.656,275.815 154.608,276.210 154.429 C 276.371 154.356,276.537 154.136,276.578 153.940 C 276.866 152.566,276.200 152.175,273.375 152.060 C 270.345 151.936,270.305 151.903,269.805 149.086 C 269.511 147.426,269.488 137.054,269.769 132.417 C 269.819 131.592,269.895 122.404,269.939 112.000 C 270.001 97.120,270.069 92.590,270.259 90.770 C 270.743 86.126,270.388 85.393,268.083 86.280 M76.567 89.165 C 76.832 89.258,77.187 89.333,77.355 89.333 C 79.035 89.333,83.388 92.558,84.964 94.970 C 85.304 95.491,85.631 95.954,85.690 96.000 C 86.229 96.418,87.676 100.030,88.195 102.250 C 89.067 105.985,88.127 111.754,86.259 114.141 C 85.522 115.082,84.368 116.224,83.167 117.202 L 81.750 118.355 80.750 118.242 C 79.252 118.073,78.380 118.028,72.833 117.832 C 70.037 117.733,67.508 117.615,67.213 117.569 C 66.113 117.400,66.167 118.117,66.167 103.713 L 66.167 90.668 66.737 90.037 C 67.773 88.890,74.152 88.324,76.567 89.165 M120.583 113.998 C 119.603 114.115,117.657 114.655,117.054 114.977 C 116.887 115.067,116.248 115.371,115.634 115.654 C 114.363 116.239,112.699 117.446,111.277 118.814 C 107.852 122.108,105.773 126.474,104.879 132.250 C 104.279 136.127,105.205 143.593,106.525 145.519 C 106.689 145.758,106.780 145.998,106.726 146.052 C 106.619 146.159,107.295 147.344,107.575 147.539 C 107.671 147.606,107.693 147.663,107.623 147.664 C 107.053 147.676,111.699 152.667,112.280 152.667 C 112.341 152.667,112.509 152.771,112.654 152.899 C 113.468 153.620,116.042 154.708,119.000 155.582 C 121.001 156.174,126.754 156.295,128.583 155.785 C 128.767 155.733,129.425 155.571,130.046 155.425 C 130.666 155.278,131.416 155.054,131.712 154.928 C 132.008 154.801,132.737 154.496,133.333 154.251 C 134.869 153.617,136.444 152.840,137.110 152.388 C 137.425 152.174,137.717 152.000,137.761 152.000 C 137.850 152.000,139.137 151.177,139.454 150.917 C 139.566 150.825,139.956 150.525,140.321 150.250 C 141.812 149.126,140.641 148.157,138.796 148.988 C 132.702 151.732,124.331 151.363,119.089 148.119 C 117.133 146.909,113.954 143.661,113.915 142.833 C 113.911 142.747,113.250 141.286,113.002 140.817 C 112.485 139.835,112.013 136.927,111.991 134.586 C 111.962 131.521,112.013 131.435,113.966 131.268 C 117.454 130.969,122.465 130.430,123.250 130.269 C 123.433 130.232,124.071 130.152,124.667 130.091 C 125.902 129.966,128.802 129.476,131.250 128.979 C 132.167 128.793,133.029 128.643,133.167 128.645 C 133.440 128.649,135.683 128.157,137.687 127.653 C 138.385 127.477,139.073 127.333,139.215 127.333 C 140.458 127.333,141.466 126.293,140.922 125.574 C 140.787 125.396,140.675 125.160,140.672 125.050 C 140.669 124.940,140.423 124.501,140.125 124.075 C 139.827 123.648,139.508 123.176,139.417 123.025 C 139.325 122.874,139.212 122.712,139.167 122.667 C 139.121 122.621,138.787 122.208,138.425 121.750 C 137.281 120.302,136.394 119.477,134.083 117.708 C 133.804 117.494,133.052 117.024,132.450 116.685 C 132.136 116.509,131.737 116.284,131.565 116.185 C 128.346 114.346,124.346 113.549,120.583 113.998 M234.583 113.942 C 233.882 114.001,232.296 114.415,231.333 114.790 C 231.196 114.844,231.046 114.897,231.000 114.909 C 229.048 115.396,224.290 119.028,223.212 120.852 C 223.056 121.117,222.869 121.333,222.797 121.333 C 222.725 121.333,222.667 121.421,222.667 121.529 C 222.667 121.636,222.548 121.855,222.403 122.015 C 221.842 122.635,220.000 126.312,220.000 126.812 C 220.000 126.979,219.892 127.333,219.761 127.599 C 218.590 129.967,218.144 137.969,218.987 141.500 C 219.571 143.946,220.374 146.044,221.349 147.667 C 224.975 153.704,232.022 156.688,241.083 156.025 C 243.305 155.862,249.032 153.675,251.522 152.038 C 251.764 151.880,252.270 151.567,252.647 151.344 C 253.025 151.121,253.333 150.877,253.333 150.803 C 253.333 150.728,253.427 150.666,253.542 150.666 C 253.797 150.665,254.833 149.714,254.833 149.481 C 254.833 148.706,253.816 148.409,252.859 148.904 C 248.635 151.088,240.610 151.436,236.083 149.631 C 233.688 148.676,231.668 147.503,230.760 146.540 C 230.490 146.254,230.209 146.057,230.135 146.103 C 230.061 146.149,230.000 146.083,230.000 145.957 C 230.000 145.830,229.813 145.564,229.583 145.364 C 229.354 145.165,229.167 144.927,229.167 144.834 C 229.167 144.742,229.054 144.667,228.917 144.667 C 228.779 144.667,228.667 144.558,228.667 144.425 C 228.667 144.292,228.449 143.861,228.183 143.467 C 226.624 141.156,225.620 137.214,225.688 133.667 C 225.729 131.510,225.822 131.433,228.681 131.174 C 232.853 130.795,234.356 130.635,236.083 130.385 C 237.092 130.240,238.442 130.066,239.083 130.000 C 242.302 129.669,252.705 127.555,254.271 126.914 C 254.979 126.624,255.037 126.479,254.755 125.682 C 254.461 124.848,253.073 122.667,252.837 122.667 C 252.743 122.667,252.667 122.548,252.667 122.402 C 252.667 122.061,248.557 117.945,248.347 118.075 C 248.259 118.129,248.126 118.071,248.052 117.944 C 247.929 117.736,246.923 117.037,246.083 116.575 C 245.900 116.475,245.600 116.308,245.417 116.204 C 244.670 115.782,242.517 114.845,242.066 114.745 C 241.801 114.686,241.291 114.529,240.935 114.394 C 239.953 114.025,236.516 113.780,234.583 113.942 M290.583 113.989 C 290.033 114.063,289.246 114.249,288.833 114.403 C 288.421 114.556,287.927 114.704,287.736 114.732 C 287.546 114.759,287.133 114.916,286.820 115.081 C 286.506 115.246,286.108 115.452,285.935 115.539 C 284.038 116.496,282.740 117.445,281.221 118.987 C 279.404 120.831,279.333 120.911,279.333 121.125 C 279.333 121.224,279.274 121.331,279.202 121.361 C 279.017 121.439,278.000 122.981,278.000 123.182 C 278.000 123.273,277.850 123.508,277.667 123.705 C 277.483 123.902,277.333 124.194,277.333 124.355 C 277.333 124.516,277.269 124.687,277.189 124.736 C 276.992 124.858,276.124 127.149,275.700 128.667 C 273.295 137.286,275.710 147.767,280.981 151.583 C 281.361 151.858,281.894 152.276,282.165 152.511 C 282.437 152.747,282.867 153.044,283.121 153.171 C 283.375 153.298,283.696 153.490,283.833 153.596 C 284.484 154.101,287.407 155.175,289.500 155.678 C 291.880 156.251,297.302 156.258,299.250 155.691 C 302.243 154.820,306.333 153.156,306.333 152.809 C 306.333 152.731,306.478 152.667,306.655 152.667 C 306.832 152.667,307.079 152.564,307.205 152.438 C 307.330 152.313,307.683 152.069,307.988 151.897 C 309.241 151.190,310.480 150.320,310.901 149.852 C 311.753 148.906,310.319 148.283,308.891 148.979 C 304.305 151.215,297.228 151.453,292.167 149.541 C 291.153 149.158,288.852 148.039,288.667 147.839 C 288.621 147.790,288.152 147.421,287.625 147.021 C 287.098 146.620,286.667 146.227,286.667 146.146 C 286.667 146.066,286.554 146.000,286.417 146.000 C 286.279 146.000,286.167 145.928,286.167 145.840 C 286.167 145.752,286.029 145.545,285.860 145.381 C 284.767 144.319,282.996 141.012,282.675 139.432 C 282.598 139.057,282.414 138.194,282.265 137.515 C 282.098 136.758,281.991 135.488,281.988 134.234 C 281.981 131.591,282.092 131.426,283.969 131.272 C 290.189 130.761,296.408 129.950,301.500 128.985 C 305.117 128.300,306.607 127.975,309.834 127.167 C 310.247 127.064,310.772 126.839,311.000 126.667 L 311.415 126.354 310.867 125.302 C 310.151 123.928,310.050 123.765,309.183 122.583 C 308.264 121.332,305.967 118.979,305.083 118.383 C 304.717 118.136,304.248 117.785,304.042 117.604 C 303.835 117.423,303.667 117.332,303.667 117.402 C 303.667 117.472,303.456 117.354,303.198 117.140 C 302.529 116.583,298.617 114.672,298.127 114.663 C 298.011 114.660,297.470 114.509,296.924 114.326 C 295.793 113.948,292.282 113.761,290.583 113.989 M154.583 114.712 C 153.850 114.804,151.825 114.849,150.083 114.814 C 142.860 114.668,143.167 114.604,143.167 116.272 C 143.167 117.405,143.149 117.397,146.000 117.512 C 148.707 117.622,149.157 117.760,149.712 118.654 L 150.083 119.250 150.083 135.450 C 150.083 148.166,150.039 151.694,149.876 151.858 C 149.736 151.997,148.769 152.102,146.952 152.175 C 144.069 152.291,143.568 152.420,143.401 153.088 C 143.277 153.582,143.450 154.365,143.722 154.537 C 144.042 154.741,147.455 154.671,149.333 154.423 C 151.298 154.162,157.680 154.192,161.083 154.477 C 166.703 154.948,167.852 154.770,167.802 153.437 C 167.762 152.380,167.476 152.302,163.131 152.162 C 157.120 151.968,157.663 153.385,157.677 137.946 C 157.689 125.584,157.714 125.167,158.532 123.900 C 160.572 120.738,167.014 120.243,170.018 123.016 C 170.405 123.374,170.797 123.667,170.889 123.667 C 170.981 123.667,171.009 123.713,170.952 123.770 C 170.734 123.988,172.238 125.182,172.667 125.132 C 173.059 125.086,174.470 122.748,174.243 122.521 C 174.203 122.480,174.251 122.349,174.351 122.228 C 174.532 122.010,174.745 121.260,174.931 120.182 C 175.260 118.276,173.225 116.209,170.079 115.255 C 167.829 114.572,165.368 115.281,161.909 117.608 C 160.996 118.222,159.822 119.011,159.300 119.362 C 157.688 120.444,157.583 120.296,157.755 117.188 C 157.916 114.282,157.934 114.296,154.583 114.712 M325.667 114.712 C 325.583 114.794,321.425 114.983,318.917 115.019 C 318.183 115.029,316.233 114.987,314.583 114.924 C 310.754 114.779,310.417 114.893,310.417 116.333 C 310.417 116.837,310.492 117.255,310.583 117.260 C 314.309 117.489,314.517 117.680,316.919 123.083 C 317.041 123.358,317.340 124.071,317.583 124.667 C 317.826 125.263,318.159 126.050,318.324 126.417 C 318.488 126.783,318.940 127.833,319.327 128.750 C 319.714 129.667,320.188 130.754,320.380 131.167 C 320.572 131.579,320.734 131.957,320.739 132.005 C 320.751 132.103,321.207 133.206,321.668 134.250 C 321.830 134.617,322.163 135.404,322.409 136.000 C 322.655 136.596,322.922 137.233,323.002 137.417 C 323.082 137.600,323.381 138.313,323.668 139.000 C 323.954 139.688,324.289 140.475,324.413 140.750 C 324.536 141.025,324.950 142.000,325.333 142.917 C 326.222 145.043,326.370 145.383,326.898 146.517 C 327.138 147.030,327.333 147.539,327.333 147.648 C 327.333 147.757,327.497 148.162,327.697 148.548 C 327.896 148.934,328.077 149.362,328.097 149.500 C 328.118 149.637,328.542 150.733,329.039 151.935 C 330.303 154.988,330.427 155.485,330.164 156.427 C 329.942 157.218,329.001 159.123,328.193 160.417 C 328.135 160.508,328.087 160.621,328.085 160.667 C 328.083 160.712,327.946 160.938,327.780 161.167 C 327.613 161.396,327.014 162.304,326.447 163.186 C 325.127 165.239,325.211 165.113,324.333 166.333 C 323.921 166.907,323.508 167.498,323.417 167.646 C 323.325 167.795,323.209 167.954,323.159 168.000 C 323.108 168.046,322.888 168.346,322.670 168.667 C 319.655 173.090,317.367 175.709,315.333 177.061 C 314.325 177.731,313.841 177.982,311.544 179.022 C 309.455 179.968,311.285 181.045,314.333 180.664 C 315.495 180.519,315.607 180.496,316.500 180.215 C 316.821 180.114,317.983 179.869,319.083 179.671 C 320.183 179.473,321.235 179.281,321.420 179.245 C 321.605 179.209,321.924 179.024,322.128 178.833 C 322.333 178.643,322.500 178.533,322.500 178.590 C 322.500 179.112,323.858 176.595,326.953 170.333 C 330.598 162.958,331.153 161.813,332.161 159.583 C 332.452 158.942,332.829 158.117,333.000 157.750 C 333.172 157.383,333.509 156.633,333.751 156.083 C 333.992 155.533,334.288 154.896,334.409 154.667 C 334.530 154.438,334.680 154.006,334.744 153.708 C 334.808 153.410,334.929 153.167,335.013 153.167 C 335.098 153.167,335.167 153.085,335.167 152.986 C 335.167 152.836,335.564 151.844,336.331 150.083 C 336.411 149.900,336.669 149.281,336.905 148.708 C 337.814 146.498,338.204 145.564,338.431 145.058 C 338.561 144.769,338.667 144.417,338.667 144.276 C 338.667 144.135,338.743 143.973,338.836 143.915 C 338.929 143.857,338.968 143.749,338.921 143.674 C 338.875 143.599,338.949 143.445,339.085 143.332 C 339.222 143.219,339.333 143.025,339.333 142.901 C 339.333 142.777,339.475 142.355,339.649 141.963 C 339.823 141.571,340.131 140.837,340.335 140.333 C 341.104 138.431,341.389 137.735,341.595 137.250 C 342.248 135.718,343.558 132.471,343.940 131.438 C 344.071 131.084,344.290 130.578,344.426 130.315 C 344.562 130.052,344.664 129.794,344.652 129.742 C 344.640 129.690,344.783 129.333,344.969 128.949 C 345.155 128.564,345.624 127.500,346.010 126.583 C 348.751 120.083,350.465 117.333,351.778 117.333 C 353.013 117.333,354.000 116.630,354.000 115.750 C 354.000 114.653,353.815 114.603,350.339 114.752 C 346.487 114.918,345.267 114.928,341.029 114.829 C 337.213 114.740,337.167 114.754,337.167 116.000 C 337.167 117.167,337.340 117.245,340.028 117.290 C 342.722 117.336,343.200 117.465,343.572 118.249 C 343.914 118.970,343.911 120.785,343.566 121.985 C 342.854 124.459,339.330 135.436,338.986 136.250 C 338.797 136.696,338.212 138.404,337.929 139.333 C 337.804 139.746,337.502 140.608,337.259 141.250 C 337.016 141.892,336.755 142.604,336.680 142.833 C 336.074 144.679,335.434 145.246,334.805 144.496 C 334.313 143.909,332.671 140.696,332.661 140.299 C 332.658 140.180,332.510 139.783,332.333 139.417 C 332.156 139.050,332.009 138.693,332.006 138.623 C 332.003 138.553,331.861 138.178,331.691 137.790 C 331.522 137.401,331.228 136.708,331.039 136.250 C 329.902 133.491,329.570 132.744,329.458 132.694 C 329.390 132.664,329.333 132.488,329.333 132.303 C 329.333 132.119,329.225 131.769,329.093 131.526 C 328.961 131.282,328.203 129.583,327.409 127.750 C 326.615 125.917,325.832 124.117,325.670 123.750 C 324.388 120.848,324.379 118.441,325.648 117.819 C 325.887 117.702,326.946 117.526,328.000 117.428 L 329.917 117.250 329.965 116.332 C 330.012 115.453,329.991 115.400,329.478 115.097 C 328.969 114.796,325.897 114.486,325.667 114.712 M123.263 116.349 C 123.885 116.542,124.587 116.816,124.822 116.959 C 126.293 117.855,126.757 118.236,128.333 119.846 C 130.166 121.717,130.233 121.793,130.725 122.559 C 132.576 125.441,132.482 126.412,130.333 126.612 C 129.921 126.650,128.796 126.825,127.833 126.999 C 125.832 127.363,122.971 127.866,120.667 128.260 C 117.720 128.765,112.631 129.014,112.415 128.664 C 112.221 128.349,112.999 125.153,113.628 123.687 C 113.760 123.378,113.882 123.039,113.897 122.934 C 113.912 122.830,114.097 122.446,114.308 122.080 C 114.519 121.715,114.773 121.267,114.872 121.083 C 115.300 120.291,115.433 120.082,115.709 119.769 C 115.869 119.586,116.159 119.207,116.353 118.927 C 117.058 117.905,119.143 116.620,120.709 116.240 C 121.907 115.950,121.980 115.953,123.263 116.349 M237.281 116.424 C 238.031 116.662,238.734 116.963,238.843 117.095 C 238.952 117.226,239.115 117.333,239.205 117.333 C 239.361 117.333,239.624 117.529,241.041 118.697 C 243.376 120.624,246.000 124.350,246.000 125.741 C 246.000 126.089,245.159 126.489,244.211 126.592 C 243.774 126.640,242.629 126.820,241.667 126.993 C 239.525 127.378,236.426 127.916,234.417 128.252 C 233.592 128.389,232.756 128.533,232.559 128.572 C 231.964 128.687,227.182 128.900,226.375 128.847 C 225.986 128.821,226.188 127.507,226.965 125.000 C 227.122 124.496,227.250 124.041,227.250 123.988 C 227.250 123.936,227.427 123.524,227.643 123.072 C 228.676 120.913,229.322 119.904,230.484 118.632 C 231.495 117.526,232.514 116.879,233.984 116.409 C 235.472 115.934,235.736 115.935,237.281 116.424 M293.455 116.362 C 294.076 116.562,294.782 116.862,295.026 117.029 C 295.269 117.196,295.519 117.333,295.581 117.333 C 295.643 117.333,296.013 117.595,296.404 117.915 C 296.795 118.235,297.163 118.460,297.224 118.415 C 297.284 118.370,297.305 118.374,297.270 118.424 C 297.236 118.474,297.642 118.930,298.173 119.437 C 300.178 121.349,301.997 124.131,302.052 125.371 C 302.088 126.175,301.659 126.502,300.423 126.612 C 299.689 126.677,296.653 127.206,294.667 127.614 C 293.979 127.755,293.079 127.906,292.667 127.949 C 292.254 127.991,291.095 128.171,290.092 128.347 C 289.087 128.524,286.960 128.717,285.361 128.778 L 282.455 128.887 282.566 127.902 C 282.794 125.881,283.611 123.644,285.283 120.460 C 285.610 119.837,287.983 117.333,288.247 117.333 C 288.364 117.333,288.544 117.231,288.649 117.105 C 288.928 116.768,291.008 116.104,292.038 116.023 C 292.197 116.010,292.834 116.163,293.455 116.362 M74.373 120.496 C 75.405 120.669,76.574 120.927,76.969 121.069 C 77.365 121.210,77.740 121.312,77.802 121.296 C 77.865 121.279,78.282 121.430,78.730 121.632 C 79.177 121.835,79.627 122.002,79.730 122.004 C 79.832 122.006,80.104 122.154,80.333 122.333 C 80.563 122.513,80.840 122.661,80.951 122.663 C 81.061 122.665,81.436 122.856,81.784 123.086 C 82.132 123.317,82.560 123.598,82.736 123.711 C 84.649 124.943,87.075 127.467,88.061 129.250 C 88.213 129.525,88.401 129.862,88.478 130.000 C 90.581 133.731,91.026 138.927,89.627 143.417 C 89.194 144.805,88.410 146.600,88.171 146.748 C 88.077 146.806,88.000 146.949,88.000 147.066 C 88.000 147.557,85.577 150.051,84.304 150.871 C 82.576 151.983,81.965 152.259,79.750 152.925 C 76.388 153.936,69.264 153.097,67.670 151.503 C 67.353 151.186,66.645 149.311,66.632 148.753 C 66.628 148.568,66.503 147.517,66.355 146.417 C 65.912 143.122,65.953 122.362,66.404 121.398 C 67.060 119.999,69.652 119.705,74.373 120.496 M123.961 165.933 C 120.112 167.116,120.509 171.709,124.614 173.498 C 126.787 174.444,127.382 175.077,126.989 176.026 C 126.415 177.413,124.109 177.541,122.286 176.288 C 121.796 175.952,121.333 175.999,121.333 176.386 C 121.333 176.512,121.183 176.789,121.000 177.000 C 120.461 177.621,120.881 178.516,121.750 178.599 C 121.842 178.608,122.254 178.775,122.667 178.971 C 125.058 180.104,128.682 178.897,129.442 176.713 C 130.198 174.542,129.211 172.698,126.777 171.736 C 124.560 170.860,124.000 170.393,124.000 169.417 C 124.000 168.145,125.872 167.383,127.246 168.095 C 127.464 168.209,127.675 168.269,127.714 168.230 C 127.754 168.191,127.881 168.273,127.997 168.413 C 128.328 168.811,128.801 168.712,129.072 168.188 C 129.209 167.924,129.284 167.673,129.239 167.628 C 129.195 167.584,129.273 167.453,129.413 167.337 C 130.536 166.404,126.123 165.268,123.961 165.933 M169.914 165.909 C 168.193 166.331,167.127 167.346,166.412 169.247 C 165.887 170.640,165.864 174.657,166.375 175.651 C 166.535 175.963,166.667 176.319,166.667 176.442 C 166.667 176.566,166.742 176.667,166.833 176.667 C 166.925 176.667,167.000 176.770,167.000 176.896 C 167.000 177.972,169.273 179.197,171.452 179.294 C 175.442 179.473,177.391 177.244,177.394 172.500 C 177.397 167.255,174.572 164.766,169.914 165.909 M200.583 165.869 C 195.317 167.136,194.659 176.763,199.690 178.935 C 201.454 179.696,205.115 179.287,205.935 178.237 C 206.037 178.107,206.194 178.000,206.284 178.000 C 207.106 178.000,207.085 177.085,206.241 176.117 L 205.835 175.650 205.126 176.121 C 202.144 178.104,199.794 177.303,199.072 174.058 C 198.703 172.398,199.077 169.725,199.758 169.160 C 199.891 169.050,200.000 168.856,200.000 168.730 C 200.000 168.603,200.056 168.517,200.125 168.537 C 200.194 168.557,200.468 168.428,200.735 168.250 C 201.608 167.668,203.400 167.819,204.581 168.574 C 205.106 168.911,205.551 169.163,205.569 169.135 C 205.588 169.106,205.842 168.773,206.135 168.393 C 206.842 167.474,206.811 167.284,205.856 166.696 C 204.395 165.798,202.268 165.464,200.583 165.869 M250.250 165.852 C 249.342 166.059,248.667 166.344,248.667 166.520 C 248.667 166.601,248.586 166.667,248.487 166.667 C 248.265 166.667,247.333 167.582,247.333 167.800 C 247.333 167.888,247.225 168.049,247.094 168.158 C 246.143 168.947,245.764 173.224,246.456 175.364 C 247.536 178.706,251.013 180.320,254.219 178.969 C 255.020 178.631,256.196 177.833,255.892 177.833 C 255.819 177.833,255.927 177.716,256.132 177.572 C 256.338 177.428,256.462 177.241,256.410 177.155 C 256.357 177.070,256.379 177.000,256.459 177.000 C 256.635 177.000,257.195 175.884,257.254 175.417 C 257.277 175.233,257.372 174.783,257.466 174.417 C 257.885 172.761,257.535 169.485,256.832 168.498 C 256.649 168.242,256.500 167.964,256.500 167.882 C 256.500 167.694,255.580 166.827,254.917 166.390 C 253.944 165.749,251.793 165.501,250.250 165.852 M68.375 165.957 L 67.333 166.016 67.333 172.591 L 67.333 179.167 68.583 179.167 L 69.833 179.167 69.834 174.958 L 69.836 170.750 70.178 171.250 C 70.366 171.525,70.590 171.900,70.677 172.083 C 70.763 172.267,71.206 172.979,71.662 173.667 C 72.117 174.354,72.613 175.160,72.764 175.458 C 72.915 175.756,73.104 176.000,73.186 176.000 C 73.267 176.000,73.333 176.079,73.333 176.175 C 73.333 176.271,73.615 176.778,73.958 177.301 C 74.302 177.825,74.690 178.459,74.820 178.710 C 75.043 179.140,75.122 179.167,76.195 179.167 L 77.333 179.167 77.333 172.583 L 77.333 166.000 76.083 166.000 L 74.833 166.000 74.833 170.023 L 74.833 174.047 74.417 173.433 C 74.188 173.095,74.000 172.780,74.000 172.733 C 74.000 172.687,73.719 172.219,73.375 171.695 C 72.599 170.512,72.424 170.233,71.997 169.500 C 71.810 169.179,71.511 168.692,71.333 168.417 C 70.989 167.885,70.391 166.880,70.033 166.228 C 69.913 166.011,69.725 165.848,69.616 165.865 C 69.506 165.883,68.948 165.924,68.375 165.957 M98.667 172.500 L 98.667 179.167 102.667 179.167 C 104.867 179.167,106.670 179.148,106.674 179.125 C 106.679 179.102,106.725 178.615,106.778 178.042 L 106.873 177.000 104.020 177.000 L 101.167 177.000 101.167 175.250 L 101.167 173.500 103.583 173.500 L 106.000 173.500 106.000 172.458 L 106.000 171.417 103.584 171.471 L 101.167 171.525 101.167 169.762 L 101.167 168.000 103.917 168.000 L 106.667 168.000 106.667 166.917 L 106.667 165.833 102.667 165.833 L 98.667 165.833 98.667 172.500 M180.206 172.458 L 180.250 179.083 181.458 179.132 L 182.667 179.181 182.667 176.341 L 182.667 173.500 185.092 173.500 L 187.518 173.500 187.484 172.458 L 187.451 171.417 185.059 171.467 L 182.667 171.517 182.667 169.759 L 182.667 168.000 185.333 168.000 L 188.000 168.000 188.000 166.917 L 188.000 165.833 184.081 165.833 L 180.163 165.833 180.206 172.458 M214.982 165.907 C 214.942 165.947,214.401 165.996,213.779 166.017 C 212.880 166.046,212.617 166.115,212.487 166.358 C 212.288 166.729,211.523 168.896,211.347 169.583 C 211.277 169.858,211.095 170.323,210.943 170.617 C 210.791 170.910,210.667 171.306,210.667 171.498 C 210.667 171.689,210.547 172.028,210.400 172.252 C 210.253 172.476,210.070 172.905,209.994 173.205 C 209.917 173.505,209.658 174.275,209.418 174.917 C 207.675 179.580,207.698 179.193,209.171 179.133 L 210.384 179.083 210.704 178.167 C 210.881 177.662,211.110 176.969,211.214 176.625 L 211.402 176.000 213.928 176.000 L 216.453 176.000 216.818 177.042 C 217.018 177.615,217.238 178.308,217.306 178.583 C 217.429 179.080,217.438 179.084,218.735 179.132 L 220.040 179.181 219.954 178.716 C 219.842 178.114,219.033 175.826,218.849 175.594 C 218.772 175.497,218.667 175.192,218.617 174.917 C 218.523 174.406,217.946 172.684,217.667 172.083 C 217.492 171.707,216.893 170.006,216.669 169.250 C 216.588 168.975,216.291 168.116,216.011 167.341 C 215.730 166.567,215.500 165.910,215.500 165.883 C 215.500 165.805,215.064 165.825,214.982 165.907 M237.000 172.500 L 237.000 179.167 238.250 179.167 L 239.500 179.167 239.500 176.333 L 239.500 173.500 241.917 173.500 L 244.333 173.500 244.334 172.458 L 244.334 171.417 241.917 171.471 L 239.500 171.525 239.500 169.762 L 239.500 168.000 242.167 168.000 L 244.833 168.000 244.833 166.917 L 244.833 165.833 240.917 165.833 L 237.000 165.833 237.000 172.500 M271.542 165.957 L 270.500 166.016 270.500 172.591 L 270.500 179.167 271.747 179.167 L 272.994 179.167 273.039 174.958 L 273.083 170.750 273.406 171.375 C 273.583 171.719,273.790 172.000,273.864 172.000 C 273.939 172.000,274.000 172.079,274.000 172.175 C 274.000 172.271,274.300 172.801,274.667 173.353 C 275.033 173.905,275.333 174.390,275.333 174.430 C 275.333 174.470,275.764 175.159,276.290 175.960 C 277.404 177.655,277.554 177.897,277.941 178.625 C 278.225 179.161,278.242 179.167,279.448 179.167 L 280.667 179.167 280.667 172.583 L 280.667 166.000 279.336 166.000 L 278.006 166.000 277.961 169.958 L 277.917 173.917 277.167 172.700 C 276.754 172.031,276.212 171.169,275.962 170.784 C 275.711 170.398,275.429 169.933,275.333 169.750 C 275.238 169.567,274.938 169.079,274.666 168.667 C 274.395 168.254,274.115 167.804,274.044 167.667 C 273.564 166.727,272.938 165.838,272.776 165.865 C 272.670 165.883,272.115 165.924,271.542 165.957 M294.312 165.910 C 294.270 165.952,293.699 166.000,293.042 166.016 C 292.386 166.033,291.861 166.092,291.876 166.148 C 291.892 166.204,291.801 166.438,291.674 166.667 C 291.547 166.896,291.447 167.121,291.451 167.167 C 291.460 167.274,291.368 167.558,290.994 168.583 C 290.827 169.042,290.535 169.848,290.345 170.375 C 290.155 170.902,289.845 171.765,289.655 172.292 C 289.465 172.819,289.171 173.625,289.002 174.083 C 288.832 174.542,288.504 175.479,288.272 176.167 C 288.041 176.854,287.735 177.696,287.593 178.036 C 287.135 179.130,287.183 179.187,288.523 179.132 L 289.712 179.083 290.114 177.917 C 290.335 177.275,290.559 176.581,290.611 176.375 C 290.704 176.006,290.750 176.000,293.266 176.000 L 295.827 176.000 295.927 176.458 C 295.982 176.710,296.164 177.292,296.331 177.750 C 296.498 178.208,296.677 178.715,296.729 178.875 C 296.808 179.119,297.030 179.167,298.097 179.167 L 299.371 179.167 299.286 178.708 C 299.239 178.456,299.009 177.725,298.775 177.083 C 298.099 175.233,296.996 172.145,296.751 171.417 C 296.627 171.050,296.288 170.112,295.997 169.333 C 295.705 168.554,295.411 167.692,295.343 167.417 C 295.093 166.406,294.575 165.647,294.312 165.910 M54.528 171.125 C 54.592 176.774,54.619 176.920,55.837 178.176 C 57.508 179.899,61.795 179.730,63.319 177.882 C 64.232 176.774,64.333 176.061,64.333 170.766 L 64.333 166.000 63.083 166.000 L 61.833 166.000 61.813 170.750 C 61.789 176.196,61.811 175.755,61.542 176.025 C 61.427 176.140,61.331 176.312,61.329 176.408 C 61.322 176.701,60.195 177.167,59.494 177.167 C 57.223 177.167,57.000 176.567,57.000 170.470 L 57.000 166.000 55.736 166.000 L 54.471 166.000 54.528 171.125 M80.333 172.583 L 80.333 179.167 81.583 179.167 L 82.833 179.167 82.833 172.583 L 82.833 166.000 81.583 166.000 L 80.333 166.000 80.333 172.583 M84.833 166.079 C 84.833 166.130,84.902 166.301,84.986 166.461 C 85.133 166.740,85.692 168.384,85.991 169.417 C 86.071 169.692,86.373 170.554,86.662 171.333 C 86.951 172.112,87.250 172.975,87.326 173.250 C 87.402 173.525,87.596 174.125,87.757 174.583 C 87.918 175.042,88.180 175.792,88.338 176.250 C 88.497 176.708,88.804 177.552,89.019 178.125 L 89.411 179.167 90.765 179.167 L 92.120 179.167 92.480 178.042 C 92.678 177.423,92.940 176.654,93.063 176.333 C 93.303 175.705,93.661 174.687,93.736 174.417 C 93.762 174.325,93.826 174.137,93.879 174.000 C 94.179 173.213,95.068 170.640,95.261 170.000 C 95.466 169.316,96.293 166.997,96.583 166.292 C 96.691 166.028,96.574 166.000,95.392 166.000 L 94.082 166.000 93.862 166.625 C 93.741 166.969,93.538 167.587,93.411 168.000 C 93.283 168.412,92.795 169.837,92.325 171.167 C 91.856 172.496,91.414 173.846,91.343 174.167 C 91.273 174.487,91.104 175.012,90.969 175.333 L 90.724 175.917 90.610 175.208 C 90.547 174.819,90.418 174.500,90.322 174.500 C 90.226 174.500,90.186 174.437,90.233 174.361 C 90.324 174.213,89.806 172.358,89.566 171.976 C 89.489 171.852,89.402 171.582,89.374 171.376 C 89.345 171.170,89.168 170.645,88.979 170.209 C 88.790 169.773,88.611 169.267,88.582 169.083 C 88.553 168.900,88.316 168.150,88.055 167.417 L 87.581 166.083 86.207 166.035 C 85.452 166.008,84.833 166.028,84.833 166.079 M109.667 172.583 L 109.667 179.167 110.917 179.167 L 112.167 179.167 112.167 176.583 L 112.167 174.000 112.905 174.000 C 113.615 174.000,114.667 174.831,114.667 175.393 C 114.667 175.476,114.835 175.815,115.041 176.147 C 115.246 176.479,115.417 176.787,115.420 176.833 C 115.423 176.879,115.667 177.423,115.963 178.042 L 116.500 179.167 117.916 179.167 C 118.696 179.167,119.333 179.146,119.333 179.120 C 119.333 179.060,118.528 177.520,117.833 176.250 C 117.532 175.700,117.109 174.920,116.893 174.517 C 116.677 174.115,116.416 173.683,116.313 173.559 C 116.171 173.387,116.182 173.333,116.363 173.333 C 116.625 173.333,118.017 172.061,117.963 171.870 C 117.944 171.804,118.013 171.600,118.115 171.417 C 118.700 170.366,118.346 168.014,117.470 167.135 C 116.463 166.126,115.932 166.000,112.674 166.000 L 109.667 166.000 109.667 172.583 M132.167 172.583 L 132.167 179.167 133.417 179.167 L 134.667 179.167 134.667 172.583 L 134.667 166.000 133.417 166.000 L 132.167 166.000 132.167 172.583 M137.000 167.000 L 137.000 168.000 138.750 168.000 L 140.500 168.000 140.500 173.583 L 140.500 179.167 141.750 179.167 L 143.000 179.167 143.000 173.583 L 143.000 168.000 144.667 168.000 L 146.333 168.000 146.355 167.375 C 146.366 167.031,146.394 166.581,146.415 166.375 L 146.454 166.000 141.727 166.000 L 137.000 166.000 137.000 167.000 M148.343 167.292 C 148.723 168.002,149.101 168.608,149.183 168.639 C 149.266 168.669,149.333 168.822,149.333 168.977 C 149.333 169.132,149.463 169.445,149.622 169.671 C 149.781 169.898,150.144 170.533,150.430 171.083 C 150.716 171.633,151.149 172.451,151.392 172.900 C 151.818 173.688,151.833 173.810,151.833 176.441 L 151.833 179.167 153.083 179.167 L 154.333 179.167 154.333 176.338 C 154.333 173.752,154.364 173.456,154.691 172.880 C 154.888 172.534,155.273 171.838,155.547 171.333 C 155.820 170.829,156.177 170.192,156.339 169.917 C 156.501 169.642,156.856 169.004,157.128 168.500 C 157.400 167.996,157.822 167.227,158.066 166.792 L 158.511 166.000 157.047 166.000 L 155.583 166.001 154.956 167.333 C 154.612 168.066,154.337 168.713,154.346 168.772 C 154.355 168.831,154.299 168.925,154.222 168.981 C 154.056 169.103,153.418 170.415,153.246 170.990 C 153.138 171.351,153.047 171.240,152.426 169.990 C 152.043 169.216,151.652 168.433,151.557 168.250 C 151.026 167.217,150.666 166.391,150.666 166.208 C 150.667 166.057,150.254 166.000,149.160 166.000 L 147.653 166.000 148.343 167.292 M221.706 172.542 L 221.750 179.083 225.572 179.128 C 229.862 179.179,229.615 179.248,229.767 177.956 L 229.879 177.000 227.023 177.000 L 224.167 177.000 224.167 171.500 L 224.167 166.000 222.915 166.000 L 221.663 166.000 221.706 172.542 M231.833 172.583 L 231.833 179.167 233.083 179.167 L 234.333 179.167 234.333 172.583 L 234.333 166.000 233.083 166.000 L 231.833 166.000 231.833 172.583 M259.333 172.578 L 259.333 179.167 260.667 179.167 L 262.000 179.167 262.000 176.583 L 262.000 174.000 262.652 174.000 C 263.522 174.000,263.940 174.511,265.206 177.125 L 266.195 179.167 267.597 179.167 C 268.369 179.167,269.000 179.130,269.000 179.086 C 269.000 179.042,268.573 178.198,268.050 177.211 C 267.528 176.224,266.949 175.117,266.765 174.750 C 266.580 174.383,266.293 173.936,266.126 173.755 C 265.834 173.438,265.835 173.423,266.138 173.311 C 266.556 173.157,267.333 172.427,267.333 172.189 C 267.333 172.085,267.410 172.000,267.504 172.000 C 267.905 172.000,268.102 170.559,267.970 168.583 C 267.930 167.996,267.175 166.998,266.396 166.504 L 265.640 166.025 262.487 166.007 L 259.333 165.990 259.333 172.578 M283.333 172.417 C 283.333 175.946,283.315 178.890,283.292 178.958 C 283.269 179.027,283.794 179.105,284.458 179.132 L 285.667 179.181 285.667 172.591 L 285.667 166.000 284.500 166.000 L 283.333 166.000 283.333 172.417 M173.333 168.419 C 175.256 169.752,175.369 175.124,173.503 176.517 C 173.272 176.689,172.990 176.908,172.875 177.005 C 172.760 177.101,172.667 177.149,172.667 177.112 C 172.667 177.075,172.370 177.099,172.007 177.165 C 168.135 177.873,167.059 168.954,170.899 167.984 C 171.677 167.787,172.680 167.967,173.333 168.419 M253.479 168.364 C 255.775 170.226,255.511 175.885,253.082 176.890 C 252.235 177.240,250.947 177.254,250.667 176.917 C 250.553 176.779,250.385 176.667,250.295 176.667 C 250.205 176.667,249.971 176.463,249.774 176.214 C 248.225 174.250,248.333 170.180,249.976 168.606 C 250.849 167.770,252.599 167.649,253.479 168.364 M115.349 168.630 C 116.656 170.093,115.521 171.833,113.258 171.833 L 112.167 171.833 112.167 169.899 L 112.167 167.965 113.515 168.026 C 114.793 168.084,114.890 168.116,115.349 168.630 M264.669 168.310 C 266.582 169.330,265.427 171.833,263.044 171.833 L 262.000 171.833 262.000 169.917 L 262.000 168.000 263.044 168.000 C 263.742 168.000,264.281 168.103,264.669 168.310 M293.404 169.102 C 293.513 169.667,294.528 172.579,294.681 172.765 C 294.763 172.865,294.788 172.990,294.736 173.042 C 294.684 173.093,294.762 173.368,294.909 173.651 L 295.175 174.167 293.278 174.167 L 291.380 174.167 292.309 171.425 C 292.820 169.917,293.262 168.706,293.291 168.735 C 293.320 168.764,293.371 168.930,293.404 169.102 M214.742 171.297 C 214.807 171.592,214.929 171.833,215.013 171.833 C 215.098 171.833,215.154 171.890,215.139 171.958 C 215.096 172.159,215.334 173.037,215.591 173.625 L 215.828 174.167 213.919 174.167 C 211.848 174.167,211.921 174.209,212.344 173.250 C 212.531 172.825,213.004 171.480,213.059 171.213 C 213.082 171.101,213.154 170.957,213.217 170.894 C 213.281 170.830,213.333 170.660,213.333 170.516 C 213.333 170.371,213.463 169.940,213.621 169.557 L 213.910 168.860 214.267 169.811 C 214.464 170.334,214.677 171.003,214.742 171.297 " stroke="none" fill="#04346c" fill-rule="evenodd"></path><path id="path1" d="M66.078 132.917 C 66.078 138.417,66.099 140.643,66.125 137.863 C 66.151 135.084,66.151 130.584,66.125 127.863 C 66.099 125.143,66.078 127.417,66.078 132.917 M283.242 172.417 C 283.242 175.992,283.265 177.430,283.291 175.614 C 283.318 173.797,283.318 170.872,283.291 169.114 C 283.264 167.355,283.242 168.842,283.242 172.417 M102.201 171.457 C 102.816 171.489,103.866 171.489,104.534 171.457 C 105.203 171.426,104.700 171.399,103.417 171.399 C 102.133 171.399,101.586 171.425,102.201 171.457 M183.417 171.445 C 185.441 171.566,187.463 171.573,187.391 171.458 C 187.349 171.390,186.249 171.347,184.948 171.364 C 183.648 171.381,182.958 171.417,183.417 171.445 M240.534 171.457 C 241.149 171.489,242.199 171.489,242.868 171.457 C 243.536 171.426,243.033 171.399,241.750 171.399 C 240.467 171.399,239.920 171.425,240.534 171.457 " stroke="none" fill="#043474" fill-rule="evenodd"></path><path id="path2" d="" stroke="none" fill="#08346c" fill-rule="evenodd"></path><path id="path3" d="" stroke="none" fill="#08346c" fill-rule="evenodd"></path><path id="path4" d="" stroke="none" fill="#08346c" fill-rule="evenodd"></path></g></svg>