<svg id="svg2" xmlns="http://www.w3.org/2000/svg" width="400" height="400"  style="background-color:#1d4e9e"  viewBox="0 0 402.33 217.67">
  <defs>
    <style>
      .cls-1 {
        fill: #1d4e9e;
      }

      .cls-2 {
        fill: #fbc81e;
      }

      .cls-3 {
        fill: none;
        stroke: #fbc81e;
        stroke-width: 3.5px;
      }

    </style>
  </defs>
  <title>uc-santa-barbara-logo-2</title>
  <g id="g10">
    <g id="g12">
      <path id="path14" class="cls-1" d="M11,210.67H392.33V8H11Z"/>
      <path id="path16" class="cls-2" d="M76.1,47.36v3.17c-8.13.68-9,1.36-9,13.6V88.05c0,18,5.71,28.11,18.67,28.11,13.29,0,19.88-10.43,19.88-30.27v-6.8c0-12.92-.55-19.26-1-22.66C104.1,52.35,101,51,94,50.53V47.36h26.8v3.17c-5.49.23-8.35,1.82-8.9,5.9-.44,3.4-1,9.74-1,22.66v8c0,11-2,20.4-8,27.09-4.84,5.44-12.63,8.5-20.32,8.5-6.81,0-14.06-1.36-19.55-6-5.82-4.87-8.24-13-8.24-26.41V64.13c0-12.24-.88-12.92-9.66-13.6V47.36h31"/>
      <path id="path18" class="cls-3" d="M76.1,47.36v3.17c-8.13.68-9,1.36-9,13.6V88.05c0,18,5.71,28.11,18.67,28.11,13.29,0,19.88-10.43,19.88-30.27v-6.8c0-12.92-.55-19.26-1-22.66C104.1,52.35,101,51,94,50.53V47.36h26.8v3.17c-5.49.23-8.35,1.82-8.9,5.9-.44,3.4-1,9.74-1,22.66v8c0,11-2,20.4-8,27.09-4.84,5.44-12.63,8.5-20.32,8.5-6.81,0-14.06-1.36-19.55-6-5.82-4.87-8.24-13-8.24-26.41V64.13c0-12.24-.88-12.92-9.66-13.6V47.36Z"/>
      <path id="path20" class="cls-2" d="M263.53,64.7c-2.23-6.57-6.08-14.51-16.5-14.51-8.2,0-12.66,5.44-12.66,11.9s5,10.54,14.52,14.51L252.11,78c9.68,4,18.62,10,18.62,21.76,0,13.49-11.54,23-28.3,23A42.54,42.54,0,0,1,230,120.8c-3.47-1-5.71-1.92-7.2-2.38-1-2.94-2.48-10.65-3.72-17.56l3.72-1.14c2.49,5.9,9.19,18.48,22,18.48,8.07,0,13-5.78,13-12.81,0-6.35-3.35-10.88-13.15-15.3l-4-1.82c-8.2-3.85-18.62-9.86-18.62-21,0-11.9,9.8-21.65,26.43-21.65a39.27,39.27,0,0,1,11.3,1.59c2,.68,3.72.9,5.21,1.47.5,4,1.24,9,2.48,15.3l-4,.68"/>
      <path id="path22" class="cls-3" d="M263.53,64.7c-2.23-6.57-6.08-14.51-16.5-14.51-8.2,0-12.66,5.44-12.66,11.9s5,10.54,14.52,14.51L252.11,78c9.68,4,18.62,10,18.62,21.76,0,13.49-11.54,23-28.3,23A42.54,42.54,0,0,1,230,120.8c-3.47-1-5.71-1.92-7.2-2.38-1-2.94-2.48-10.65-3.72-17.56l3.72-1.14c2.49,5.9,9.19,18.48,22,18.48,8.07,0,13-5.78,13-12.81,0-6.35-3.35-10.88-13.15-15.3l-4-1.82c-8.2-3.85-18.62-9.86-18.62-21,0-11.9,9.8-21.65,26.43-21.65a39.27,39.27,0,0,1,11.3,1.59c2,.68,3.72.9,5.21,1.47.5,4,1.24,9,2.48,15.3l-4,.68Z"/>
      <path id="path24" class="cls-2" d="M194,67c-3.52-12.92-10.44-16.78-20.65-16.78-18,0-26.14,15.53-26.14,32.3,0,21.09,10.1,35.71,26.14,35.71,11.86,0,17.35-6.35,23.07-18.36l3.07.68c-1.32,5.44-3.73,14.5-5.49,18.81-3.08.91-13,3.4-20.65,3.4-28.78,0-40.42-19.38-40.42-37.29,0-23.8,17.8-39.78,42.4-39.78,9.44,0,16.69,2.27,19.77,3,.88,6.34,1.32,11.33,2,17.9L194,67"/>
      <path id="path26" class="cls-3" d="M194,67c-3.52-12.92-10.44-16.78-20.65-16.78-18,0-26.14,15.53-26.14,32.3,0,21.09,10.1,35.71,26.14,35.71,11.86,0,17.35-6.35,23.07-18.36l3.07.68c-1.32,5.44-3.73,14.5-5.49,18.81-3.08.91-13,3.4-20.65,3.4-28.78,0-40.42-19.38-40.42-37.29,0-23.8,17.8-39.78,42.4-39.78,9.44,0,16.69,2.27,19.77,3,.88,6.34,1.32,11.33,2,17.9L194,67Z"/>
      <path id="path28" class="cls-2" d="M311,83.63V103.8c0,10.66,1.45,12.92,9.18,12.7,8,0,16.19-4.2,16.19-15.87s-8.94-17-21.27-17Zm0-4.08h4.83c10.39,0,16.91-4.54,16.91-14.06,0-10.42-7.85-13.82-15.22-13.82-3.14,0-4.83.22-5.56.56-1,.46-1,2.38-1,5.1V79.55Zm10.39-32.19c9.42,0,14.25,1.13,18.6,3.74S346.72,58,346.72,64c0,9.75-10,15-17.16,16.21v.22c12.33,1.36,21.75,7.6,21.75,18.93,0,8.05-4.23,13.38-10.87,17.12-5.68,3.17-14.26,4.53-23.08,4.53H287.28v-3.17c9.42-.68,10.39-1.59,10.39-13.83V64.36c0-12.24-1-13.15-9.67-13.83V47.36h33.35"/>
      <path id="path30" class="cls-3" d="M311,83.63V103.8c0,10.66,1.45,12.92,9.18,12.7,8,0,16.19-4.2,16.19-15.87s-8.94-17-21.27-17Zm0-4.08h4.83c10.39,0,16.91-4.54,16.91-14.06,0-10.42-7.85-13.82-15.22-13.82-3.14,0-4.83.22-5.56.56-1,.46-1,2.38-1,5.1V79.55Zm10.39-32.19c9.42,0,14.25,1.13,18.6,3.74S346.72,58,346.72,64c0,9.75-10,15-17.16,16.21v.22c12.33,1.36,21.75,7.6,21.75,18.93,0,8.05-4.23,13.38-10.87,17.12-5.68,3.17-14.26,4.53-23.08,4.53H287.28v-3.17c9.42-.68,10.39-1.59,10.39-13.83V64.36c0-12.24-1-13.15-9.67-13.83V47.36Z"/>
      <path id="path32" class="cls-2" d="M238.33,147.87c-24.13-21.34-88-8.67-112.26,1.2-33.6,12.8-64.94,30.93-87.6,16.4a.65.65,0,0,0-.4-.14.84.84,0,0,0,.13.54c25.07,21.2,87.6,9.6,111.6-.67,33.73-12.93,65.87-31.33,88.27-16.8.13,0,.4,0,.4-.13a1,1,0,0,0-.14-.4"/>
      <path id="path34" class="cls-3" d="M238.33,147.87c-24.13-21.34-88-8.67-112.26,1.2-33.6,12.8-64.94,30.93-87.6,16.4a.65.65,0,0,0-.4-.14.84.84,0,0,0,.13.54c25.07,21.2,87.6,9.6,111.6-.67,33.73-12.93,65.87-31.33,88.27-16.8.13,0,.4,0,.4-.13A1,1,0,0,0,238.33,147.87Z"/>
      <path id="path36" class="cls-2" d="M360.87,147.87c-23.87-21.34-87.74-8.67-112.14,1.2-33.46,12.8-64.8,30.93-87.46,16.4a.79.79,0,0,0-.54-.14.54.54,0,0,0,.27.54c25.07,21.2,87.47,9.6,111.47-.67,33.73-12.93,65.86-31.33,88.26-16.8.14,0,.4,0,.4-.13s0-.14-.26-.4"/>
      <path id="path38" class="cls-3" d="M360.87,147.87c-23.87-21.34-87.74-8.67-112.14,1.2-33.46,12.8-64.8,30.93-87.46,16.4a.79.79,0,0,0-.54-.14.54.54,0,0,0,.27.54c25.07,21.2,87.47,9.6,111.47-.67,33.73-12.93,65.86-31.33,88.26-16.8.14,0,.4,0,.4-.13S361.13,148.13,360.87,147.87Z"/>
    </g>
  </g>
</svg>
